<svg width="271" height="232" viewBox="0 0 271 232" fill="none" xmlns="http://www.w3.org/2000/svg">
<g filter="url(#filter0_dddd_3952_27)">
<circle cx="193.804" cy="55.8048" r="8.99108" transform="rotate(-180 193.804 55.8048)" fill="#72A631"/>
</g>
<path d="M76.14 31.894L78.4185 28.4808L78.8343 28.7584L79.9736 27.0518C80.3801 26.4429 80.8161 25.8631 81.2787 25.3135L80.8962 24.9915C81.8663 23.8387 82.9506 22.8147 84.1231 21.9279L84.4247 22.3267C85.588 21.4468 86.8403 20.7055 88.1553 20.1112L87.9494 19.6556C89.305 19.0429 90.7254 18.5828 92.1828 18.2841L92.2832 18.7739C93.6968 18.4842 95.146 18.3504 96.6042 18.3809L96.6147 17.881C98.0845 17.9118 99.5632 18.1055 101.025 18.4704L100.904 18.9555C101.601 19.1295 102.294 19.3435 102.981 19.5984L104.81 20.2777L104.984 19.8089L108.642 21.1675L108.468 21.6363L112.126 22.9948L112.3 22.5261L115.959 23.8847L115.785 24.3534L119.443 25.712L119.617 25.2433L123.276 26.6019L123.101 27.0706L126.76 28.4292L126.934 27.9605L130.592 29.3191L130.418 29.7878L134.077 31.1464L134.251 30.6777L137.909 32.0362L137.735 32.505L141.393 33.8636L141.567 33.3948L145.226 34.7534L145.052 35.2221L148.71 36.5807L148.884 36.112L152.542 37.4706L152.368 37.9393L156.027 39.2979L156.201 38.8292L159.859 40.1878L159.685 40.6565L163.343 42.0151L163.517 41.5464L167.176 42.905L167.002 43.3737L170.66 44.7323L170.834 44.2636L174.492 45.6221L174.318 46.0909L177.977 47.4495L178.151 46.9807L181.809 48.3393L181.635 48.808L183.464 49.4873C184.118 49.7303 184.753 50.0056 185.367 50.311L185.59 49.8633C186.875 50.5026 188.073 51.2706 189.169 52.1476L188.857 52.5381C189.942 53.4069 190.927 54.3854 191.796 55.4533L192.184 55.1377C193.08 56.2383 193.856 57.4315 194.5 58.6961L194.055 58.923C194.68 60.15 195.176 61.446 195.531 62.7906L196.015 62.6629C196.373 64.0202 196.591 65.4258 196.656 66.86L196.156 66.8824C196.187 67.5676 196.182 68.2596 196.139 68.9561L196.014 71.0141L196.513 71.0446L196.261 75.1607L195.762 75.1303L195.511 79.2464L196.01 79.2769L195.759 83.393L195.26 83.3625L195.008 87.4786L195.507 87.5091L195.256 91.6252L194.757 91.5947L194.506 95.7108L195.005 95.7413L194.753 99.8574L194.254 99.827L194.003 103.943L194.502 103.974L194.251 108.09L193.752 108.059L193.5 112.175L193.999 112.206L193.748 116.322L193.249 116.291L192.997 120.408L193.497 120.438L193.245 124.554L192.746 124.524L192.495 128.64L192.994 128.67L192.742 132.786L192.243 132.756L191.992 136.872L192.491 136.902L192.24 141.019L191.741 140.988L191.489 145.104L191.988 145.135L191.737 149.251L191.238 149.22L191.112 151.278C191.073 151.927 191.001 152.568 190.899 153.2L191.393 153.28C191.18 154.599 190.838 155.88 190.378 157.108L189.91 156.932C189.455 158.146 188.882 159.305 188.203 160.396L188.627 160.66C187.928 161.783 187.119 162.835 186.212 163.798L185.848 163.456C184.967 164.391 183.993 165.242 182.936 165.992L183.226 166.4C182.157 167.158 181.006 167.817 179.785 168.36L179.582 167.904C178.997 168.164 178.395 168.397 177.779 168.601L175.937 169.211L176.094 169.686L172.41 170.906L172.253 170.431L168.569 171.651L168.726 172.126L165.043 173.345L164.885 172.871L161.202 174.091L161.359 174.565L157.675 175.785L157.518 175.311L153.834 176.53L153.991 177.005L150.308 178.225L150.15 177.75L146.467 178.97L146.624 179.445L142.94 180.665L142.783 180.19L139.099 181.41L139.256 181.884L135.573 183.104L135.415 182.63L131.732 183.85L131.889 184.324L128.205 185.544L128.048 185.069L124.364 186.289L124.521 186.764L120.838 187.984L120.68 187.509L116.997 188.729L117.154 189.204L113.47 190.424L113.313 189.949L109.629 191.169L109.786 191.643L106.103 192.863L105.945 192.389L102.262 193.608L102.419 194.083L98.7352 195.303L98.578 194.828L96.7361 195.438C96.0705 195.659 95.3997 195.841 94.7262 195.987L94.8321 196.476C93.4222 196.781 92.0007 196.93 90.5904 196.928L90.5909 196.428C89.1935 196.427 87.8073 196.275 86.4556 195.98L86.3491 196.469C84.9559 196.165 83.5986 195.713 82.3013 195.121L82.5088 194.666C81.2501 194.092 80.0494 193.383 78.93 192.547L78.6307 192.947C77.501 192.103 76.452 191.132 75.5065 190.043L75.8841 189.715C75.4325 189.195 75.005 188.646 74.6043 188.071L73.4907 186.472L73.0804 186.758L70.8533 183.56L71.2636 183.274L69.0365 180.076L68.6262 180.362L66.3991 177.164L66.8094 176.878L64.5824 173.68L64.1721 173.966L61.9449 170.768L62.3553 170.483L60.1282 167.285L59.7178 167.57L57.4908 164.373L57.9011 164.087L55.674 160.889L55.2637 161.175L53.0366 157.977L53.4469 157.691L51.2198 154.493L50.8095 154.779L48.5824 151.581L48.9927 151.295L46.7656 148.097L46.3553 148.383L44.1282 145.185L44.5385 144.9L42.3114 141.702L41.9011 141.987L39.674 138.789L40.0843 138.504L37.8572 135.306L37.4469 135.592L35.2198 132.394L35.6301 132.108L33.403 128.91L32.9927 129.196L30.7656 125.998L31.1759 125.712L30.0624 124.113C29.6888 123.577 29.3452 123.026 29.0315 122.464L28.5948 122.708C27.9398 121.534 27.4118 120.309 27.011 119.053L27.4873 118.901C27.0909 117.659 26.8221 116.386 26.681 115.102L26.184 115.157C26.0387 113.834 26.0255 112.499 26.1448 111.174L26.6427 111.218C26.7585 109.932 27.0022 108.654 27.374 107.404L26.8948 107.262C27.2708 105.998 27.7746 104.763 28.4063 103.577L28.8477 103.812C29.1503 103.243 29.483 102.686 29.8459 102.142L30.9852 100.436L30.5693 100.158L32.8479 96.745L33.2637 97.0226L35.5423 93.6094L35.1264 93.3318L37.4049 89.9186L37.8208 90.1962L40.0993 86.783L39.6835 86.5054L41.962 83.0922L42.3778 83.3698L44.6564 79.9566L44.2405 79.679L46.5191 76.2658L46.9349 76.5434L49.2134 73.1302L48.7976 72.8525L51.0761 69.4393L51.492 69.7169L53.7705 66.3037L53.3546 66.0261L55.6332 62.6129L56.049 62.8905L58.3276 59.4773L57.9117 59.1997L60.1902 55.7865L60.6061 56.0641L62.8846 52.6509L62.4688 52.3733L64.7473 48.9601L65.1632 49.2377L67.4417 45.8245L67.0258 45.5469L69.3044 42.1337L69.7202 42.4113L71.9987 38.9981L71.5829 38.7205L73.8614 35.3073L74.2773 35.5849L76.5558 32.1717L76.14 31.894Z" stroke="#72A631" stroke-dasharray="4 4"/>
<circle cx="172.713" cy="169.905" r="6" transform="rotate(-180 172.713 169.905)" fill="#FFC224"/>
<defs>
<filter id="filter0_dddd_3952_27" x="116.812" y="0.813965" width="153.982" height="153.982" filterUnits="userSpaceOnUse" color-interpolation-filters="sRGB">
<feFlood flood-opacity="0" result="BackgroundImageFix"/>
<feColorMatrix in="SourceAlpha" type="matrix" values="0 0 0 0 0 0 0 0 0 0 0 0 0 0 0 0 0 0 127 0" result="hardAlpha"/>
<feOffset dy="0.996336"/>
<feGaussianBlur stdDeviation="1.53979"/>
<feColorMatrix type="matrix" values="0 0 0 0 0.129412 0 0 0 0 0.603922 0 0 0 0 0.12549 0 0 0 0.146333 0"/>
<feBlend mode="normal" in2="BackgroundImageFix" result="effect1_dropShadow_3952_27"/>
<feColorMatrix in="SourceAlpha" type="matrix" values="0 0 0 0 0 0 0 0 0 0 0 0 0 0 0 0 0 0 127 0" result="hardAlpha"/>
<feOffset dy="2.75474"/>
<feGaussianBlur stdDeviation="4.25733"/>
<feColorMatrix type="matrix" values="0 0 0 0 0.129412 0 0 0 0 0.603922 0 0 0 0 0.12549 0 0 0 0.21 0"/>
<feBlend mode="normal" in2="effect1_dropShadow_3952_27" result="effect2_dropShadow_3952_27"/>
<feColorMatrix in="SourceAlpha" type="matrix" values="0 0 0 0 0 0 0 0 0 0 0 0 0 0 0 0 0 0 127 0" result="hardAlpha"/>
<feOffset dy="6.63236"/>
<feGaussianBlur stdDeviation="10.25"/>
<feColorMatrix type="matrix" values="0 0 0 0 0.129412 0 0 0 0 0.603922 0 0 0 0 0.12549 0 0 0 0.273667 0"/>
<feBlend mode="normal" in2="effect2_dropShadow_3952_27" result="effect3_dropShadow_3952_27"/>
<feColorMatrix in="SourceAlpha" type="matrix" values="0 0 0 0 0 0 0 0 0 0 0 0 0 0 0 0 0 0 127 0" result="hardAlpha"/>
<feOffset dy="22"/>
<feGaussianBlur stdDeviation="34"/>
<feColorMatrix type="matrix" values="0 0 0 0 0.129412 0 0 0 0 0.603922 0 0 0 0 0.12549 0 0 0 0.42 0"/>
<feBlend mode="normal" in2="effect3_dropShadow_3952_27" result="effect4_dropShadow_3952_27"/>
<feBlend mode="normal" in="SourceGraphic" in2="effect4_dropShadow_3952_27" result="shape"/>
</filter>
</defs>
</svg>
