<svg width="614" height="468" viewBox="0 0 614 468" fill="none" xmlns="http://www.w3.org/2000/svg">
<g filter="url(#filter0_dd_3836_2)">
<path d="M547.311 268.375C549.257 276.105 549.08 285.192 546.554 292.759C545.698 293.072 544.838 293.24 543.982 293.552C533.832 296.432 522.773 297.751 512.365 296.601C509.522 282.552 508.552 263.406 519.833 254.584C521.385 253.388 523.084 252.331 524.932 251.414C528.767 249.433 533.059 248.303 537.522 248.178C543.147 253.499 547.908 258.844 550.702 265.973C549.566 266.582 548.591 267.762 547.311 268.375Z" fill="#E89C31"/>
<path d="M526.978 288.406C532.794 290.262 538.314 291.837 544.126 293.548C533.976 296.428 522.917 297.747 512.509 296.597C509.666 282.548 508.697 263.402 519.977 254.58C521.529 253.384 523.228 252.327 525.076 251.41C525.964 252.25 526.712 253.238 527.173 254.235C529.338 259.508 532.075 264.621 535.66 269.134C539.556 269.313 542.424 268.8 546.151 268.119C541.74 270.117 537.905 272.098 533.638 274.092C531.75 273.568 529.71 272.76 528.653 271.06C527.807 276.85 527.101 282.492 526.978 288.406Z" fill="#FFC224"/>
<path d="M405.453 389.553C405.577 388.828 405.84 387.956 406.404 387.508C407.536 386.755 409 387.579 410.032 388.415C413.117 390.491 416.765 392.119 420.389 392.883C426.045 394.166 434.469 396.525 432.523 404.22C431.876 406.833 429.373 410.075 426.654 410.728C423.786 411.241 421.125 408.864 419.345 407.04C416.972 404.656 415.052 402.98 412.12 401.188C407.579 398.576 405.043 395.475 405.465 389.985C405.461 389.841 405.457 389.697 405.453 389.553ZM562.744 392.21C560.669 395.295 561.863 401.894 558.603 403.859C557.328 404.616 555.752 404.948 554.312 404.989C552.872 405.029 550.996 404.937 550.169 406.258C549.481 407.431 550.245 408.995 551.142 410.123C553.522 412.796 555.838 413.163 559.158 413.359C561.322 413.442 563.634 413.666 565.473 412.461C568.873 410.347 573.347 405.464 574.682 401.679C575.213 400.078 575.305 398.201 574.684 396.633C573.76 394.496 571.848 393.108 569.799 392.012C568.775 391.464 567.603 390.776 566.307 390.813C564.571 390.573 563.436 391.181 562.744 392.21Z" fill="#516875"/>
<path d="M451.959 362.445C443.93 374.203 435.17 385.549 425.822 396.479C426.594 398.332 428.066 399.444 430.074 399.099C432.082 398.754 433.778 397.554 435.329 396.357C444.507 389.612 453.656 381.86 457.973 371.359C458.92 369.17 459.571 366.701 458.503 364.569C457.434 362.436 453.202 360.537 451.959 362.445Z" fill="#F58E54"/>
<path d="M566.753 396.422C567.037 396.27 567.321 396.118 567.453 395.681C567.725 395.097 567.56 394.381 567.4 393.809C564.037 381.794 552.323 370.012 542.609 362.788C539.521 360.568 532.277 359.185 533.742 365.199C534.732 369.64 541.328 373.636 544.437 376.576C548.734 380.781 552.887 384.989 556.756 389.35C557.94 390.47 564.325 397.211 566.753 396.422Z" fill="#F58E54"/>
<path d="M548.941 362.467C544.894 367.194 540.527 370.776 534.528 372.674C524.602 363.005 513.133 354.821 500.852 348.533C500.568 348.686 500.28 348.694 499.996 348.846C486.462 354.415 473.574 362.417 464.081 373.351C461.189 372.999 458.433 372.356 455.957 371.416C452.605 370.068 449.385 368.284 446.58 365.912C455.864 352.677 462.947 338.062 467.411 322.512C484.55 322.176 501.5 320.259 518.246 316.186C531.84 328.203 540.964 345.247 548.941 362.467Z" fill="#FFC224"/>
<path d="M398.209 198.022C385.66 192.463 371.485 190.554 357.846 192.377C367.463 196.145 375.144 202.849 381.142 211.187C386.504 207.144 392.851 202.209 398.209 198.022Z" fill="#F0B562"/>
<path d="M425.086 236.626C421.754 235.999 418.422 235.371 415.09 234.744C414.864 226.677 415.502 218.586 417.299 210.75C420.553 218.877 423.544 227.875 425.086 236.626ZM397.929 198.318C388.74 204.631 379.41 211.091 370.221 217.403C381.48 218.097 390.131 218.287 401.15 215.528C399.421 210.386 398.515 203.78 397.929 198.318Z" fill="#FAE59D"/>
<path d="M415.098 235.031C424.502 236.353 434.021 236.663 443.364 235.825C446.216 250.161 447.376 265.842 446.924 280.559C446.393 297.585 438.363 314.389 427.64 327.664C427.77 322.038 427.62 316.708 427.035 311.246C430.996 303.495 434.526 295.755 434.427 287.108C434.381 280.334 431.896 273.916 429.414 267.643C425.512 256.94 419.569 245.429 415.098 235.031Z" fill="#F0B562"/>
<path d="M437.526 284.571C435.629 293.995 432 303.323 427.775 311.947C423.423 310.916 419.491 309.44 415.139 308.409C419.212 299.501 423.306 281.077 423.306 281.077L414.953 260.696C414.953 260.696 386.414 229.636 369.648 217.563C385.807 218.264 402.025 215.935 417.303 210.894C416.077 218.569 416.015 226.644 415.658 234.439C426.561 248.117 433.746 267.954 437.526 284.571Z" fill="#F0B562"/>
<path d="M510.509 235.529C511.772 234.34 513.192 233.579 514.772 233.391C515.92 233.215 517.228 233.61 517.692 234.751C517.852 235.323 517.72 235.759 517.592 236.339C516.178 242.434 515.904 248.064 509.801 251.406C508.097 252.319 503.415 254.901 501.527 254.377C499.494 253.857 501.569 250.772 502.253 249.455C504.164 245.654 506.215 241.704 508.422 238.182C508.969 237.157 509.665 236.273 510.509 235.529Z" fill="#E97B3E"/>
<path d="M495.626 254.687C485.674 264.624 478.382 276.938 474.29 290.316C470.729 302.093 469.789 314.805 464.773 326.046C473.681 330.266 483.369 331.436 493.107 329.289C502.698 327.002 511.652 322.57 520.61 318.283C514.771 305.328 513.343 290.375 518.007 276.837C520.413 270.138 524.119 263.547 523.777 256.493C523.528 252.752 521.975 248.759 518.619 247.267C516.427 246.175 513.695 246.396 511.259 246.896C505.384 248.07 499.833 250.532 495.626 254.687Z" fill="#72A631"/>
<path d="M457.553 222.74C458.522 226.461 457.063 230.971 457.029 234.865C457.142 238.898 458.263 242.903 461.227 245.848C463.744 248.228 466.364 249.164 469.684 249.359C479.935 250.081 490.294 249.502 500.329 247.636C506.352 246.602 513.515 245.104 518.446 241.073C521.969 238.235 524.107 232.265 525.87 228.323C528.032 223.217 529.466 217.843 530.033 212.349C531.062 202.805 530.927 192.862 527.929 183.575C527.292 181.43 526.66 179.43 525.171 177.742C523.687 176.197 521.919 174.805 520.158 173.701C516.35 171.501 512.13 170.034 507.782 169.146C496.326 166.584 484.087 166.927 472.789 169.982C467.354 171.432 462.083 173.598 457.864 177.32C455.193 179.702 452.974 182.791 451.919 186.281C450.724 189.918 451.541 193.355 452.078 197.089C453.329 205.703 455.443 214.294 457.553 222.74Z" fill="#FFB992"/>
<path d="M468.211 232.821C473.011 234.417 478.034 233.7 482.129 230.702C477.706 232.267 472.97 232.976 468.211 232.821Z" fill="#BA3118"/>
<path d="M480.339 223.4C482.552 225.212 485.876 225.551 488.279 223.898C489.407 223.002 490.238 221.825 490.778 220.512C491.181 219.492 491.437 218.331 491.261 217.183C490.72 213.306 485.624 211.43 482.18 211.959C480.888 212.14 479.604 212.608 478.913 213.637C477.521 215.406 477.606 218.431 478.383 220.427C478.559 221.575 479.307 222.564 480.339 223.4Z" fill="#FFF6E3"/>
<path d="M458.4 222.14C458.725 223.429 459.477 224.561 460.361 225.257C461.389 225.949 462.689 226.057 463.533 225.312C466.356 223.215 465.41 215.168 461.226 214.997C457.618 214.81 457.756 219.708 458.4 222.14Z" fill="#FFF6E3"/>
<path d="M468.386 218.544C468.287 220.133 468.187 221.722 467.796 223.174C467.408 224.771 466.729 226.231 465.605 227.272C466.942 228.676 469.126 229.48 470.981 228.851C468.71 230.068 465.678 229.865 463.758 228.189C463.462 227.909 463.166 227.629 463.014 227.345C465.693 225.251 467.895 221.586 468.386 218.544Z" fill="#BA3118"/>
<path d="M459.445 223.408C460.769 224.38 462.192 223.764 462.724 222.163C463.255 220.563 462.627 218.706 461.583 217.438C461.135 216.874 460.691 216.454 460.111 216.326C458.951 216.07 458.403 217.094 458.147 218.255C457.9 219.703 458.092 221.428 458.849 222.704C459.005 223.132 459.153 223.272 459.445 223.408Z" fill="#723919"/>
<path d="M483.244 213.947C484.417 214.635 485.313 215.764 485.781 217.048C486.249 218.332 486.29 219.773 485.606 221.089C484.919 222.262 483.499 223.023 482.055 222.919C478.015 222.744 475.51 215.606 479.633 213.616C480.772 213.152 482.216 213.255 483.244 213.947Z" fill="#723919"/>
<path d="M472.931 164.789C467.831 162.769 462.064 162.642 456.608 163.372C451.157 164.245 445.874 165.979 440.735 167.709C444.239 169.341 447.023 170.993 450.671 172.621C442.131 171.274 433.084 172.392 424.798 174.931C433.724 184.917 447.285 190.592 460.676 190.217C470.319 189.802 480.506 188.22 489.184 184.228C486.813 187.034 485.75 190.235 485.419 193.848C491.043 193.979 497.202 192.653 501.573 189.215C509.706 196.628 515.493 207.711 516.66 218.49C524.099 216.552 531.293 211.017 534.118 203.873C534.62 196.074 533.325 185.875 529.779 177.613C530.915 177.004 532.027 175.532 532.566 174.219C530.102 173.711 527.79 173.488 525.667 174.845C526.41 170.499 525.7 165.761 523.575 161.929C522.628 164.118 521.232 165.742 520.285 167.931C509.556 160.447 495.784 157.517 482.685 158.028C483.186 160.465 484.386 162.161 486.438 163.401C481.066 161.966 476.114 160.086 471.281 157.338C470.634 159.952 471.283 162.528 472.931 164.789Z" fill="#723919"/>
<path d="M520.405 223.574C520.782 226.735 524.298 228.799 527.474 228.999C530.794 229.194 533.921 227.665 536.308 225.435C538.979 223.054 540.898 219.54 540.941 215.935C541.128 212.326 539.439 208.625 536.355 206.549C534.007 205.029 530.683 204.689 528.123 205.914C525.848 206.987 523.037 209.517 522.242 211.99C521.574 213.883 522.067 216.031 521.691 218.06C521.436 219.22 520.892 220.389 520.492 221.554C520.373 222.422 520.389 222.998 520.405 223.574Z" fill="#FFB992"/>
<path d="M537.938 216.74C537.902 215.443 537.721 214.151 537.401 213.006C537.076 211.718 536.468 210.582 535.436 209.746C533.816 208.494 531.508 208.414 529.512 209.191C527.513 209.823 525.677 211.172 524.43 212.937L524.582 213.221L524.578 213.077C525.59 213.193 526.606 213.453 527.482 213.861C528.358 214.269 529.242 214.965 529.842 215.813C530.603 217.233 530.371 219.258 529.104 220.303C527.836 221.347 525.82 221.404 524.64 220.428C526.112 221.54 528.16 222.636 529.872 222.011C531.584 221.387 532.387 219.202 532.195 217.477C531.998 215.609 530.802 214.056 529.325 212.8C530.157 211.624 531.729 211.147 533.037 211.543C534.345 211.939 535.381 212.919 536.277 214.047C537.025 215.035 537.47 215.455 537.938 216.74Z" fill="#BA3118"/>
<path d="M471.299 204.191C478.362 204.281 485.178 205.821 491.603 208.812C491.471 209.249 491.191 209.545 491.203 209.977C486.131 208.966 480.919 208.102 475.871 207.955C474.715 207.844 473.42 207.88 472.268 207.912C471.943 206.624 471.763 205.331 471.299 204.191Z" fill="#723919"/>
<path d="M459.976 206.383C460.968 205.778 461.967 205.462 463.111 205.141C463.576 206.282 464.04 207.422 464.36 208.566C463.068 208.747 461.78 209.071 460.497 209.54C458.781 210.02 456.929 210.793 455.674 212.27C455.522 211.986 454.934 211.57 454.782 211.285C456.169 209.372 457.848 207.595 459.976 206.383Z" fill="#723919"/>
<path d="M500 348.99C486.466 354.559 473.577 362.56 464.085 373.494C461.193 373.143 458.437 372.499 455.961 371.56C462.778 362.863 468.711 353.47 473.624 343.674C475.756 342.605 478.204 342.536 480.392 343.484C479.739 340.763 478.37 338.207 476.582 336.095C478.67 338.631 485.338 340.03 488.403 341.386C492.631 343.141 496.875 345.473 500 348.99Z" fill="#E89C31"/>
<path d="M497.931 285.472C494.687 282.824 491.99 279.152 492.453 275.102C492.672 272.645 494.051 270.444 495.435 268.387C498.069 264.709 500.996 261.167 504.223 258.05C507.45 254.932 511.401 251.938 515.988 251.088C520.576 250.239 525.968 252.395 527.385 256.68C528.505 255.495 529.624 254.31 530.744 253.126C525.027 249.682 518.443 246.118 511.864 247.888C508.004 249.006 505.053 251.683 502.25 254.501C497.492 259.536 493.178 264.99 489.448 270.717C488.34 272.334 487.385 274.235 487.297 276.256C487.346 277.984 488.258 279.689 489.163 281.105C491.579 285.074 494.556 288.45 497.397 292.119C500.09 295.647 503.418 296.131 508.046 296.722C510.649 297.082 513.258 297.585 515.841 297.224C518.425 296.864 521.137 295.923 522.812 294.002C517.592 292.851 511.24 292.452 506.284 290.428C503.372 289.357 500.44 287.565 497.931 285.472Z" fill="#FFC224"/>
<path d="M460.9 295.881C460.756 295.885 460.756 295.885 460.612 295.889C456.873 296.138 453.157 297.251 449.401 296.924C445.501 296.601 442.161 295.685 439.629 292.729C439.635 287.827 441.253 278.699 438.108 274.463C437.355 273.33 435.764 273.087 435.007 271.81C433.807 270.114 434.022 267.513 435.422 266.032C439.605 266.203 442.834 268.275 446.354 270.483C448.658 270.419 450.526 270.222 452.83 270.158C454.557 270.109 457.463 276.083 458.223 277.503C459.296 279.78 459.537 283.233 462.021 284.461C463.481 285.141 465.069 285.24 466.509 285.2C471.265 285.211 476.172 285.506 480.928 285.517C485.396 285.536 489.012 286.011 492.531 283.029C496.753 279.451 500.528 275.309 503.714 270.75C504.27 270.014 504.682 269.282 505.534 268.825C506.242 268.373 507.398 268.485 507.85 269.193C508.298 269.757 508.034 270.629 507.906 271.21C506.612 276.436 504.593 281.538 501.399 285.808C494.582 294.505 482.91 294.544 472.699 295.262C468.68 295.807 464.784 295.628 460.9 295.881Z" fill="#F58E54"/>
<path d="M513.297 252.75C509.306 254.303 504.975 259.182 503.164 261.395C500.933 264.053 498.994 266.846 497.203 269.779C496.651 270.66 492.537 278.127 493.13 278.687C498.891 283.716 506.051 287.263 513.711 288.058C515.512 280.367 517.442 272.096 519.244 264.404C519.891 261.791 520.534 259.034 519.742 256.462C518.616 252.312 516.004 251.665 513.297 252.75Z" fill="#74A03E"/>
<path d="M331.739 392.27C328.961 394.083 325.339 395.012 323.527 392.234C318.776 385.499 313.879 378.905 308.543 372.589C297.733 359.667 285.89 347.876 272.872 337.067C263.915 338.168 258.957 334.311 252.137 329.981C245.457 325.798 238.768 322.048 232.683 317.013C220.223 307.082 209.685 294.886 201.631 281.16C210.292 273.855 220.378 267.302 231.389 264.517C244.729 286.864 262.449 306.569 282.988 322.587C297.94 324.069 309.767 336.581 316.385 350.132C318.588 354.792 320.499 359.591 322.123 364.383C325.229 373.821 327.759 383.246 331.739 392.27Z" fill="#F4A071"/>
<path d="M331.74 392.27C328.962 394.083 325.34 395.012 323.528 392.234C318.777 385.499 313.88 378.905 308.544 372.59C310.153 371.472 312.332 370.655 314.377 369.403C314.963 368.983 319.052 366.478 322.124 364.384C325.23 373.821 327.76 383.246 331.74 392.27Z" fill="#FEF4DA"/>
<path d="M168.509 293.404C156.977 313.33 147.572 334.744 138.018 356.443C138.984 371.455 133.069 384.874 123.599 396.197C119.456 401.151 115.031 405.81 110.328 410.031C109.3 410.874 108.27 411.86 107.243 412.702C105.627 414.108 90.0675 427.171 88.6527 425.987C85.9673 423.621 85.3107 420.724 83.9436 417.379C89.4209 410.725 94.4758 403.629 98.961 396.232C106.588 383.571 112.509 369.864 116.282 355.533C113.704 348.269 111.965 342.177 114.002 334.727C115.88 327.993 117.898 321.407 120.348 314.831C125.1 301.818 130.999 289.12 137.893 277.019C144.13 275.138 151.174 275.87 157.165 278.596C162.871 281.172 165.612 287.574 168.509 293.404Z" fill="#F4A071"/>
<path d="M187.485 269.174C185.403 278.641 182.918 286.803 177.268 294.75C178.069 297.651 178.153 300.391 177.942 303.413C160.577 300.293 145.061 291.736 131.922 279.916C132.069 279.775 132.075 279.487 132.222 279.346C138.93 262.629 146.636 246.366 155.481 230.705C156.23 229.425 156.831 228.285 157.58 227.004C167.248 226.352 178.629 232.944 183.632 241.27C188.639 249.452 189.422 259.703 187.485 269.174Z" fill="#E89C31"/>
<path d="M243.17 259.443C241.5 263.298 239.261 266.853 236.737 270.257C227.836 281.881 214.109 290.227 200.051 293.954C178.053 278.768 162.002 255.209 155.657 229.268C155.526 228.689 155.395 228.109 155.263 227.53C170.179 224.11 185.919 215.952 197.944 206.414C207.081 210.219 217.364 214.337 222.8 222.672C228.927 232.32 233.435 243.518 233.184 254.9C236.615 256.128 239.883 258.218 243.17 259.443Z" fill="#FFC224"/>
<path d="M110.328 410.03C109.301 410.873 108.27 411.859 107.243 412.701C105.628 414.107 90.0675 427.17 88.6528 425.986C85.9674 423.621 85.3107 420.723 83.9436 417.378C89.421 410.724 94.4759 403.628 98.9611 396.231C99.5277 396.676 100.094 397.121 100.514 397.707C103.737 401.814 106.96 405.92 110.328 410.03Z" fill="#FEF4DA"/>
<path d="M99.7448 426.087C99.0279 425.927 98.292 426.631 97.9881 427.345C97.6843 428.059 97.6684 428.78 97.6494 429.644C97.6177 431.085 97.442 432.522 97.2663 433.96C96.7677 436.976 95.9811 439.986 94.6248 442.694C93.5597 445.266 93.1181 445.688 90.5165 446.063C87.9179 446.295 85.3194 446.526 82.7336 446.181C80.5798 445.845 78.2883 445.218 76.4383 444.168C74.4475 442.971 74.0409 441.809 72.9268 440.055C70.6956 436.691 66.4292 434.146 62.7103 432.911C60.1371 431.99 57.4072 431.642 54.8341 430.72C49.2589 428.724 46.9407 422.763 44.3122 417.804C41.4116 412.119 39.0934 406.158 37.4984 400.069C39.1396 397.511 41.7761 395.551 44.6785 394.605C45.1073 394.759 45.3922 394.909 45.821 395.063C48.1062 395.978 50.0875 397.607 51.7744 399.518C51.7744 399.518 56.0391 408.693 58.9809 412.505C64.4659 412.049 69.7752 413.031 75.2286 414.016C76.8254 413.474 78.2972 412.065 78.9081 410.493C79.5222 408.777 79.2753 406.898 78.299 405.435C79.3134 405.169 80.331 404.759 81.339 404.781C82.3503 404.659 83.496 404.973 84.2034 405.565C84.9108 406.157 85.1829 406.884 85.5991 407.614C86.9695 410.815 86.5674 415.995 89.1088 418.357C92.076 421.017 98.1688 419.133 100.103 422.923C100.804 423.804 100.769 425.388 99.7448 426.087Z" fill="#72A631"/>
<path d="M97.2662 433.96C96.7676 436.976 95.981 439.986 94.6247 442.694C93.5596 445.266 93.1181 445.688 90.5164 446.063C87.9179 446.295 85.3194 446.526 82.7335 446.181C80.5797 445.845 78.2882 445.218 76.4383 444.168C74.4475 442.971 74.0408 441.809 72.9268 440.055C70.6955 436.691 66.4291 434.146 62.7102 432.911C60.1371 431.99 57.4072 431.642 54.8341 430.72C49.2589 428.724 46.9407 422.763 44.3122 417.804C41.4116 412.119 39.0934 406.158 37.4984 400.069C39.1396 397.511 41.7761 395.551 44.6785 394.605C45.1073 394.759 45.3922 394.909 45.821 395.063C47.3386 398.123 48.5713 401.033 49.0681 404.648C47.3242 405.33 46.6657 409.063 46.6657 409.063C46.6657 409.063 47.7417 412.546 48.7181 414.009C52.4732 420.146 56.9421 426.586 63.6599 429.04C66.9467 430.266 70.6878 430.492 73.6708 432.432C74.9479 433.325 76.0714 434.647 77.6429 435.258C80.3537 436.471 83.5536 435.1 86.4528 434.299C89.9312 433.366 93.5378 433.157 97.2662 433.96C97.1222 433.957 97.1222 433.957 97.2662 433.96ZM68.1798 420.059C71.0378 421.131 75.0796 420.787 77.8443 419.551C77.9883 419.554 76.1655 410.721 75.5895 410.709C73.7174 410.667 71.8452 410.626 69.9667 410.873C69.6787 410.867 69.3875 411.005 69.2403 411.145C68.946 411.427 68.9365 411.86 68.927 412.292C68.7291 414.738 67.9425 417.747 68.1798 420.059Z" fill="#516875"/>
<path d="M341.534 385.855C340.945 386.419 340.926 387.283 341.342 388.013C341.614 388.74 342.325 389.188 342.888 389.777C344.018 390.811 345.004 391.842 345.99 392.872C347.955 395.222 349.626 397.853 351.006 400.622C352.249 403.1 352.38 403.679 350.745 405.95C349.257 408.079 347.77 410.209 345.716 411.893C344.097 413.443 342.199 414.554 340.02 415.371C337.844 416.044 336.701 415.587 334.544 415.395C330.522 414.874 325.875 416.502 322.375 418.443C320.039 419.833 317.981 421.661 315.649 422.907C310.542 425.822 304.394 423.669 298.944 422.54C292.78 421.107 286.776 418.957 281.072 416.237C280.127 413.333 280.344 410.023 281.704 407.17C281.998 406.888 282.433 406.753 282.725 406.616C284.91 405.511 287.515 404.991 289.966 404.901C289.966 404.901 299.702 407.71 304.598 407.817C307.721 403.418 311.976 399.908 316.376 396.401C316.987 394.829 316.887 392.809 316.055 391.349C315.222 389.889 313.664 388.702 311.795 388.516C312.249 387.517 312.556 386.659 313.295 385.811C313.89 384.959 314.77 384.258 315.781 384.136C316.648 384.011 317.509 384.174 318.223 384.478C321.513 385.559 325.178 389.243 328.647 388.743C332.692 388.255 335.126 382.399 339.283 383.355C340.58 383.384 341.706 384.562 341.534 385.855Z" fill="#72A631"/>
<path d="M345.847 392.868C347.812 395.217 349.483 397.849 350.863 400.618C352.105 403.095 352.236 403.675 350.601 405.945C349.114 408.075 347.626 410.204 345.572 411.889C343.953 413.439 342.055 414.55 339.876 415.367C337.7 416.04 336.558 415.582 334.401 415.391C330.378 414.87 325.731 416.498 322.231 418.439C319.895 419.829 317.837 421.658 315.505 422.904C310.398 425.818 304.25 423.665 298.799 422.536C292.636 421.104 286.631 418.954 280.928 416.234C279.984 413.33 280.201 410.02 281.56 407.167C281.854 406.885 282.29 406.75 282.581 406.612C285.874 407.55 288.882 408.337 292.006 410.423C291.392 412.139 293.774 415.219 293.774 415.219C293.774 415.219 297.057 416.588 298.923 416.918C306.101 418.084 313.721 418.828 320.137 415.366C323.203 413.559 325.855 410.879 329.186 410.087C330.78 409.69 332.511 409.584 333.967 408.895C336.735 407.514 337.669 404.364 339.025 401.655C340.689 398.088 342.916 395.11 345.847 392.868ZM316.455 405.915C319.079 404.532 321.459 401.125 322.243 398.259C322.246 398.115 314.561 393.766 314.12 394.188C312.792 395.601 311.608 397.016 310.709 398.582C310.559 398.867 310.412 399.008 310.405 399.296C310.396 399.728 310.677 400.023 310.959 400.317C312.793 402.087 314.611 404.578 316.455 405.915Z" fill="#516875"/>
<path d="M243.17 259.444C241.5 263.299 239.261 266.853 236.737 270.257C234.192 268.039 231.794 265.68 229.25 263.462C222.355 269.076 214.62 273.519 206.342 276.508C210.409 275.012 216.591 269.094 219.118 265.546C222.241 261.146 222.947 255.252 221.909 250.04C220.612 243.525 216.991 237.824 212.782 232.686C208.716 227.552 204.066 222.837 200.442 217.28C201.14 218.304 195.316 221.059 189.069 223.372C182.967 225.689 176.436 227.851 174.986 228.252C168.906 229.56 162.119 230.275 155.804 229.127C155.673 228.548 155.542 227.969 155.41 227.389C170.326 223.969 186.066 215.811 198.091 206.274C207.228 210.078 217.511 214.196 222.947 222.531C229.074 232.179 233.582 243.377 233.332 254.759C236.615 256.129 239.883 258.218 243.17 259.444Z" fill="#E89C31"/>
<path d="M167.709 264.27C165.835 270.86 162.531 276.985 158.237 282.224C156.528 281.322 154.816 280.563 153.107 279.661C154.336 282.715 155.566 285.769 156.795 288.823C149.911 287.374 143.194 284.92 136.927 281.611C135.647 280.862 133.935 280.104 132.225 279.202C138.933 262.485 146.639 246.222 155.484 230.561C157.096 242.416 161.307 254.04 167.709 264.27Z" fill="#FFC224"/>
<path d="M288.976 155.229C287.241 168.596 284.504 181.652 280.619 194.54C278.758 200.553 276.759 206.274 275.329 212.297C274.543 215.306 273.324 218.306 271.968 221.015C271.517 221.87 268.347 228.431 267.626 228.415C266.19 228.239 265.639 227.074 264.944 225.906C261.357 225.25 258.927 224.332 255.797 222.534C253.301 224.641 250.69 225.448 247.503 226.243C245.928 225.776 244.376 224.3 243.832 222.847C245.508 218.704 247.056 213.837 248.732 209.694C247.067 206.774 246.276 203.442 245.05 200.244C246.835 197.689 249.055 194.999 251.682 193.471C256.681 195.455 260.813 197.563 266.452 196.678C271.223 195.919 272.285 193.492 273.1 189.185C273.916 184.879 273.726 180.406 273.536 175.934C273.468 172.473 273.544 169.015 274.052 165.567C274.225 164.274 274.401 162.836 274.861 161.549C275.018 160.976 276.521 158.126 277.101 157.995C269.577 159.415 260.508 159.071 252.913 157.175C249.905 156.388 247.044 155.46 244.189 154.244C243.046 153.787 236.472 151.336 236.354 150.18C230.954 146.746 232.857 138.86 235.15 132.857C254.723 133.864 273.683 143.073 288.976 155.229Z" fill="#F4A071"/>
<path d="M149.34 169.313C144.176 174.82 137.325 178.417 130.212 180.855C123.101 183.149 116.576 185.024 109.078 185.291C105.328 185.497 102.37 182.405 99.9852 179.47C90.3052 167.581 85.2968 152.913 77.079 140.048C73.0422 133.617 68.7267 126.747 68.6098 118.961C68.6415 117.52 68.7919 117.235 69.1084 115.945C69.4408 113.934 71.3161 113.831 73.2072 113.008C73.9178 113.456 74.3339 114.186 75.1885 114.637C78.3821 113.554 81.0123 111.883 83.5143 109.487C82.4351 106.148 82.9591 101.98 84.6129 98.8449C86.2128 98.1594 87.3744 97.7526 89.1088 97.5024C92.1883 101.606 92.9542 106.091 94.8689 110.746C96.233 114.235 101.27 114.49 102.913 118.418C103.867 120.89 103.375 123.618 102.886 126.201C102.569 127.492 102.397 128.785 101.795 129.925C100.292 132.775 96.5348 133.269 93.6324 134.214C90.7301 135.159 87.8213 136.392 86.1802 138.951C86.3003 146.593 92.3755 152.06 98.3194 156.947C104.266 161.69 111.237 165.736 115.86 171.747C123.322 166.578 131.19 162.571 139.209 158.279C140.521 157.587 141.833 156.895 143.266 157.215C144.703 157.391 145.83 158.569 146.672 159.596C148.628 162.378 149.422 165.567 149.34 169.313Z" fill="#F4A071"/>
<path d="M71.9216 119.033C71.499 118.592 71.3645 118.156 71.374 117.724C71.336 119.453 72.037 120.333 72.8694 121.793C73.7049 123.109 74.246 124.706 74.9375 126.019C76.4614 128.791 78.4205 131.428 80.3827 133.922C80.4176 132.337 80.3117 130.605 80.3466 129.02C83.1177 127.496 86.3049 126.701 89.2168 125.323C92.1288 123.946 94.9157 121.701 95.7056 118.547C92.9313 120.216 90.0162 121.737 87.1074 122.971C86.381 123.243 85.6546 123.515 85.0849 123.215C84.6592 122.917 84.3807 122.478 84.2462 122.043C83.6987 120.734 83.1512 119.424 82.6037 118.115C82.5657 119.844 82.3836 121.57 82.3424 123.443C80.4512 124.266 78.1534 123.927 76.4506 122.737C75.4552 122.138 73.0419 120.499 71.9216 119.033Z" fill="#DE7743"/>
<path d="M80.111 120.079C80.2519 120.226 80.2519 120.226 80.3927 120.373C80.8121 120.959 81.5004 122.415 82.0669 122.86C82.7743 123.452 83.3662 122.745 83.2412 121.877C83.1162 121.009 82.1208 120.411 81.5575 119.822C80.0083 118.202 78.0175 117.006 76.6091 115.533C77.7295 116.999 78.9907 118.613 80.111 120.079Z" fill="#DE7743"/>
<path d="M85.487 118.035C86.7958 117.487 88.2391 117.374 89.5478 116.827C91.0006 116.282 92.3253 115.014 93.077 113.589C90.594 115.12 87.8261 116.5 85.0772 117.017C84.0628 117.283 82.9075 117.401 82.3124 118.253C81.567 119.39 82.1114 120.843 82.518 122.005C82.6589 122.153 83.4297 119.863 83.4328 119.719C83.7367 119.005 84.6134 118.448 85.487 118.035Z" fill="#DE7743"/>
<path d="M96.6959 125.92C95.8382 125.613 94.8618 124.15 94.3017 123.417C93.8823 122.831 93.0563 121.084 92.3077 122.364C90.8264 124.206 95.5502 125.607 96.6959 125.92Z" fill="#DE7743"/>
<path d="M84.498 117.148C85.0772 117.016 85.6564 116.885 86.3796 116.757C86.3796 116.757 84.2702 114.404 84.1294 114.257C83.422 113.665 82.4266 113.066 81.5657 112.903C81.841 113.486 82.4076 113.931 82.8301 114.373C83.3903 115.106 84.0881 116.13 84.498 117.148Z" fill="#DE7743"/>
<path d="M85.5587 108.235C85.5841 107.082 85.7535 105.933 85.782 104.636C86.195 105.51 91.3077 115.424 90.7253 115.699C90.4341 115.837 90.1429 115.975 89.8517 116.112C89.3011 114.947 89.1824 113.792 88.6318 112.626C88.2188 111.752 87.6586 111.019 87.2424 110.29C86.9639 109.851 85.5524 108.523 85.5587 108.235Z" fill="#DE7743"/>
<path d="M148.211 174.764C141.544 170.005 137.11 161.98 136.571 153.752C150.372 148.578 163.808 140.369 174.409 130.08C179.553 138.553 178.003 150.05 172.491 158.289C167.12 166.675 157.513 171.077 148.211 174.764Z" fill="#629425"/>
<path d="M202.759 203.638C201.287 205.047 199.668 206.597 198.196 208.006C199.748 209.481 201.298 211.101 202.994 212.58C195.208 212.841 187.528 214.834 180.677 218.431C178.635 219.539 176.591 220.792 174.69 222.047C171.324 224.423 168.092 227.235 164.31 228.882C160.528 230.528 157.084 229.876 153.829 227.21C155.294 226.089 156.337 224.526 157.236 222.961C153.527 208.177 152.436 192.297 153.057 177.176C148.797 174.344 146.453 169.536 145.7 164.474C157.468 153.49 169.629 137.758 175.499 126.356C182.078 122.032 190.094 117.884 198.03 117.338C198.897 117.213 199.618 117.229 200.482 117.248C202.642 117.295 204.796 117.631 206.943 118.255C209.379 118.885 211.664 119.8 213.946 120.859C215.614 123.635 217.137 126.407 218.517 129.176C221.828 135.879 224.268 142.851 226.269 150.102C220.692 167.853 205.03 185.526 198.073 200.508C199.206 201.398 201.187 203.027 202.759 203.638Z" fill="#72A631"/>
<path d="M202.759 203.638C201.287 205.047 199.668 206.597 198.196 208.006C199.749 209.481 201.298 211.101 202.994 212.58C195.208 212.841 187.528 214.834 180.677 218.431C179.103 217.964 177.387 217.35 175.816 216.739C179.78 213.367 183.744 209.994 187.712 206.478C181.212 207.2 174.835 208.934 168.87 211.541C173.554 208.185 178.242 204.684 183.071 201.331C179.605 201.687 175.998 201.896 172.532 202.253C180.801 199.696 186.621 190.599 185.368 182.067C185.243 181.199 176.455 181.15 175.594 180.987C171.427 180.463 167.267 179.651 163.253 178.698C169.167 178.396 175.081 178.093 180.873 176.779C186.666 175.465 192.195 172.992 196.466 168.762C199.413 165.8 201.214 162.524 202.734 158.954C203.792 156.671 204.71 154.241 205.769 151.958C208.488 146.252 212.766 141.734 215.063 135.586C216.131 132.871 217.033 131.161 218.508 129.608C221.818 136.311 224.258 143.284 226.26 150.535C220.682 168.285 205.021 185.958 198.064 200.94C199.206 201.398 201.187 203.027 202.759 203.638Z" fill="#629425"/>
<path d="M206.796 118.396L198.618 143.008L186.226 143.024L170.233 149.591C170.233 149.591 174.881 141.333 179.194 135.23C182.617 130.26 193.627 120.989 197.883 117.479C198.75 117.354 199.47 117.37 200.334 117.389C202.491 117.581 204.645 117.916 206.796 118.396Z" fill="#629425"/>
<path d="M168.724 126.495C165.896 130.613 163.03 136.46 160.295 142.886L172.762 139.412C172.441 134.36 171.391 129.725 168.724 126.495Z" fill="#547D21"/>
<path d="M168.724 126.496C170.933 130.868 172.085 144.01 170.377 149.594L199.639 116.221L199.383 114.774C186.688 115.503 176.093 119.018 168.724 126.496Z" fill="#629425"/>
<path d="M194.744 102.996C194.767 108.474 195.229 113.673 195.681 119.305C190.78 125.971 185.6 132.2 179.713 137.836C180.492 128.628 181.124 119.561 179.583 111.023C179.076 107.841 183.294 106.06 185.924 104.388C188.554 102.716 191.435 102.779 194.744 102.996Z" fill="#DE7743"/>
<path d="M156.631 54.0158C155.178 54.5604 153.998 55.8318 153.534 57.263C153.07 58.6942 153.324 60.2853 154.162 61.4568C153.023 60.8552 151.733 60.5386 150.594 59.937C149.451 59.4795 148.014 59.3037 146.705 59.8515C145.105 60.5371 144.488 62.3973 144.741 63.9884C144.994 65.5795 145.974 66.8983 146.806 68.358C144.092 67.2894 140.934 66.7875 137.906 66.8651C135.023 66.9459 131.973 68.032 129.91 70.1487C127.401 72.8322 127.165 77.0071 128.827 80.0706C130.632 83.1372 134.047 85.0861 137.785 85.4566C134.892 85.9695 132.124 87.3501 130.205 89.47C129.763 89.8927 129.459 90.6067 129.738 91.0453C130.019 91.3398 130.448 91.4933 130.88 91.5028C132.608 91.5408 134.487 91.2938 136.08 90.8964C132.737 92.2643 131.057 96.5516 131.704 99.8811C132.352 103.211 135.031 105.864 138.167 107.374C141.304 108.885 145.045 109.111 148.651 108.902C151.97 108.687 155.442 108.042 158.219 106.23C161.723 104.144 163.963 100.59 165.626 97.0232C169.711 88.1763 170.791 78.3985 168.837 68.9864C168.186 65.8011 167.104 62.6062 165.148 59.8245C163.768 57.0555 160.072 54.8121 156.631 54.0158Z" fill="#5E3824"/>
<path d="M209.278 84.1452C206.367 92.009 201.172 98.9577 194.996 104.588C188.821 110.217 181.938 115.255 173.295 115.209C164.507 115.16 158.557 110.561 152.779 104.668C148.832 100.69 146.21 95.4433 146.046 89.8182C145.76 83.1814 148.921 77.0528 152.075 71.2124C152.827 69.7875 153.722 68.3658 154.474 66.9409C155.072 65.9451 155.527 64.9461 155.981 63.9471C156.285 63.2331 156.585 62.6631 156.889 61.9491C158.102 59.2371 158.888 56.2274 160.385 53.6658C163.085 48.8244 167.632 45.1767 172.576 43.1232C180.429 39.8365 189.956 39.0369 197.49 43.6709C210.142 51.4443 214.325 70.8511 209.278 84.1452Z" fill="#F4A071"/>
<path d="M170.922 78.978C171.607 80.5786 170.987 82.5829 169.665 83.707C168.344 84.8311 166.603 85.3694 164.875 85.3314C163.579 85.3029 162.289 84.9863 161.153 84.2406C160.017 83.4949 159.178 82.3233 159.063 81.0235C158.838 78.1358 162.169 77.3441 163.513 75.2116C163.344 76.361 162.464 77.0623 161.725 77.9109C160.986 78.7595 160.384 79.8994 160.506 80.9111C160.631 81.7787 161.479 82.5181 162.334 82.9693C163.902 83.7244 165.921 83.6247 167.521 82.9392C169.268 82.1127 170.452 80.6973 170.922 78.978Z" fill="#723415"/>
<path d="M189.492 73.1884C189.194 73.6143 188.756 73.893 188.174 74.1685C187.882 74.3062 187.738 74.303 187.447 74.4408C184.263 75.0915 180.957 74.7305 177.958 73.5115C177.529 73.3579 177.245 73.2075 176.96 73.0571C174.252 71.7003 173.618 67.7945 175.115 65.2328C176.315 63.0971 178.932 62.0015 181.374 62.3434C183.24 62.6727 184.795 64.0042 186.063 65.3293C187.327 66.7986 188.444 68.4087 189.267 70.3006C189.68 71.1746 190.087 72.3367 189.492 73.1884ZM162.1 67.3972C161.002 64.9226 159.114 65.6018 157.354 67.0046C155.153 68.83 153.511 71.3885 153.019 74.1164C152.687 76.1271 154.117 76.591 155.852 76.3408C157.73 76.0938 160.207 74.851 160.946 74.0024C161.983 72.7279 162.594 71.1557 162.628 69.5709C162.644 68.8506 162.516 68.127 162.1 67.3972Z" fill="#FFF4DE"/>
<path d="M188.202 72.8716C188.193 73.3038 188.327 73.7392 188.174 74.1682C187.883 74.306 187.739 74.3028 187.447 74.4405C184.263 75.0913 180.957 74.7303 177.958 73.5112C177.555 72.2051 177.737 70.4793 178.194 69.3362C178.805 67.7641 180.133 66.3519 181.868 66.1017C183.602 65.8515 185.311 66.754 186.435 68.076C187.558 69.3979 187.952 71.1363 188.202 72.8716ZM162.628 69.5707C161.38 67.3811 159.335 68.6334 158.004 70.1897C157.412 70.8974 156.82 71.6051 156.664 72.1783C156.357 73.0364 155.736 75.0407 155.992 76.4878C157.871 76.2408 160.348 74.998 161.087 74.1494C161.979 72.8717 162.59 71.2995 162.628 69.5707C162.625 69.7147 162.628 69.5707 162.628 69.5707Z" fill="#4A2917"/>
<path d="M163.983 60.3756C163.692 60.5133 163.401 60.6511 163.254 60.792C160.336 62.4576 157.693 64.7058 155.053 66.8099C154.906 66.9508 154.618 66.9445 154.47 67.0854C155.069 66.0895 155.523 65.0905 155.977 64.0915C158.761 61.9905 160.696 59.1502 163.483 56.9052C163.471 57.4815 163.602 58.0609 163.593 58.4932C163.721 59.2167 163.852 59.7961 163.983 60.3756ZM192.757 62.3054C191.502 60.404 188.647 59.188 186.657 57.9911C184.381 56.6438 181.958 55.4374 179.526 54.6632C178.809 54.5033 178.239 54.2025 177.519 54.1867C176.918 55.3266 176.463 56.3256 175.862 57.4656C178.019 57.6571 180.17 58.1368 182.317 58.7606C184.177 59.3781 185.889 60.1364 187.598 61.0388C188.737 61.6405 189.874 62.3862 191.016 62.8437C191.445 62.9973 191.874 63.1508 192.306 63.1603C192.594 63.1667 192.882 63.173 193.032 62.888C193.039 62.5999 192.898 62.4526 192.757 62.3054Z" fill="#5E3824"/>
<path d="M184.257 88.4959C182.183 91.0449 180.11 93.5939 177.611 95.8452C175.112 98.0966 172.194 99.7622 169.007 100.557C165.822 101.208 162.232 100.696 159.537 98.7632C157.411 97.1309 156.022 94.7941 155.068 92.3227C158.982 91.2556 163.023 90.912 167.065 90.5684C172.554 89.9684 178.483 88.9456 184.257 88.4959Z" fill="#FFF4DE"/>
<path d="M155.206 92.614C155.778 92.7708 156.191 93.6447 156.614 94.0864C157.318 94.8226 158.019 95.7029 158.871 96.2982C160.144 97.3351 161.854 98.2376 163.579 98.4196C165.159 98.5985 166.753 98.2011 168.35 97.6596C174.299 95.7724 179.703 92.4318 184.4 88.4991C184.688 88.5054 184.98 88.3677 185.268 88.374C182.427 93.0682 178.453 96.8727 174.06 100.091C172.012 101.488 169.82 102.881 167.365 103.115C164.479 103.34 161.627 101.98 159.508 100.06C157.53 98.2867 155.286 95.4986 154.77 92.7486C154.918 92.6077 155.062 92.6109 155.206 92.614Z" fill="#DE7743"/>
<path d="M186.57 88.1144C183.242 88.762 180.048 89.8449 176.72 90.4925C172.234 91.4029 167.754 92.0251 163.283 92.2151C161.552 92.3212 159.676 92.4242 157.942 92.6743C156.066 92.7772 154.05 92.7329 152.181 92.5477C152.639 91.4046 153.237 90.4087 154.117 89.7073C153.819 90.1332 153.656 90.9945 153.356 91.5645C153.208 91.7054 155.225 91.7497 155.372 91.6088C155.951 91.4774 156.677 91.205 157.26 90.9296C158.281 90.3754 159.445 89.8245 160.607 89.4175C162.933 88.4597 165.394 87.9372 167.849 87.7028C171.023 87.4843 174.041 87.839 177.203 88.1968C180.077 88.5482 183.521 89.2005 186.007 87.5254C185.735 86.7987 185.318 86.0688 185.043 85.4862C186.912 85.6714 188.621 86.5739 189.889 87.8991C188.593 87.8706 187.581 87.9925 186.57 88.1144Z" fill="#D26B36"/>
<path d="M210.949 54.0573C203.821 50.5854 195.628 49.6846 187.695 50.0868C179.762 50.4889 171.941 52.335 164.123 54.037C162.965 54.2998 161.806 54.5626 160.648 54.8255C159.382 46.8698 159.284 38.2192 160.179 30.311C168.198 26.0189 177.75 24.0668 186.81 24.8425C195.87 25.6182 204.741 28.4078 213.018 32.0491C213.439 39.1213 212.97 47.3271 210.949 54.0573Z" fill="#629425"/>
<path d="M132.9 45.567C132.9 45.567 145.094 34.8801 163.03 31.6708C180.967 28.4615 185.246 30.4294 185.246 30.4294L201.395 49.5231L201.222 50.8166L132.9 45.567Z" fill="#72A631"/>
<path d="M201.082 50.669C186.975 50.0706 170.2 52.873 159.598 56.676C149.978 55.1672 140.697 51.3596 132.9 45.5667C147.817 35.5163 166.224 30.5876 184.206 31.8477C188.803 39.0118 194.712 45.484 201.082 50.669Z" fill="#547D21"/>
<path d="M201.652 50.9699C201.749 53.1342 202.997 55.3237 204.991 56.3765C203.695 56.3481 202.508 57.9075 202.051 59.0506C201.446 60.3346 201.699 61.9257 202.243 63.3791C203.063 65.415 204.177 67.1692 205.729 68.6448C206.719 69.5313 207.996 70.4243 209.301 70.0205C208.716 70.4401 207.416 70.5557 206.834 70.8311C206.252 71.1066 205.669 71.3821 205.225 71.9489C204.78 72.5157 204.62 73.2329 204.895 73.8155C205.171 74.3981 206.028 74.7052 206.614 74.2857C202.819 76.5085 199.719 79.8998 198.474 84.0525C197.23 88.2052 198.416 93.2762 201.962 95.8046C202.471 98.8427 203.55 102.182 205.961 103.964C208.371 105.747 211.961 106.258 214.589 104.731C217.654 102.924 218.888 99.2036 219.829 95.7649C220.094 96.7797 220.351 98.2268 220.911 98.9598C221.612 99.84 222.755 100.298 223.772 99.8875C224.646 99.4743 224.959 98.328 225.266 97.47C229.357 101.452 236.686 102.333 241.645 99.5597C243.543 98.4483 245.162 96.8983 245.785 94.7499C246.256 93.0305 245.721 91.145 244.892 89.5412C244.062 87.9374 242.795 86.6123 241.671 85.2903C245.237 86.9542 249.272 86.8988 252.77 85.1018C254.517 84.2754 256.129 83.0136 256.603 81.1502C257.073 79.4308 256.397 77.398 255.13 76.0729C253.443 74.1619 251.02 72.9556 248.581 72.4695C246.143 71.9835 243.55 71.9265 240.958 71.8695C242.583 70.0314 243.338 68.4625 243.68 66.0196C244.022 63.5767 243.359 60.9676 241.522 59.3417C239.685 57.7157 236.808 57.5084 234.341 58.319C232.017 59.1327 229.96 60.9614 228.476 62.9467C230.395 60.8268 229.748 57.4973 228.509 54.8756C227.27 52.2538 224.425 50.6057 221.541 50.6864C217.65 50.745 214.556 53.8481 212.041 56.8198C211.657 54.6492 209.816 53.1674 207.973 51.8296C206.279 50.2068 203.822 50.5852 201.652 50.9699Z" fill="#5E3824"/>
<path d="M203.803 116.889C201.746 118.717 200.568 119.845 198.514 121.529C196.055 128.538 193.733 135.838 191.273 142.847C188.585 140.626 185.605 138.542 182.772 136.318C178.062 140.827 173.352 145.336 169.635 150.587C176.57 136.614 186.783 124.298 199.095 114.767C201.393 115.106 202.097 115.842 203.803 116.889Z" fill="#72A631"/>
<path d="M248.484 129.258C249.834 139.954 247.58 150.715 241.476 159.662C240.583 160.94 225.614 153.692 223.902 152.933C218.915 150.373 212.927 147.503 208.977 143.669C204.038 138.947 201.421 126.926 208.144 122.606C211.651 120.377 216.225 122.063 220.228 123.448C228.946 126.667 239.443 127.618 248.484 129.258Z" fill="#72A631"/>
<path d="M214.708 125.489C212.494 127.89 210.988 130.884 210.486 134.044C215.062 135.586 220.247 135.7 224.752 133.925C223.1 130.43 218.568 126.871 214.708 125.489Z" fill="#FFC224"/>
<path d="M542.898 273.897C542.466 273.897 542.034 274.041 542.034 274.473C542.034 274.762 542.178 274.906 542.466 275.194C544.195 276.779 546.931 277.788 549.236 277.355C548.516 275.194 544.915 273.897 542.898 273.897Z" fill="#382C20"/>
<path d="M545.923 290.757C545.779 291.19 545.779 291.622 546.211 291.766C546.499 291.91 546.787 291.766 546.931 291.622C548.948 290.469 550.821 288.02 550.965 285.714C548.66 285.714 546.355 288.74 545.923 290.757Z" fill="#382C20"/>
<path d="M542.898 282.111C542.61 282.255 542.178 282.687 542.322 282.976C542.466 283.264 542.754 283.264 542.898 283.408C545.203 283.984 548.084 283.696 549.956 282.111C548.372 280.526 544.627 281.102 542.898 282.111Z" fill="#382C20"/>
<path d="M568.394 282.399C568.25 283.696 567.962 284.993 567.386 286.146C566.81 287.443 565.802 288.596 564.505 289.605C561.336 292.199 556.727 293.64 552.981 293.207C550.1 290.325 548.228 286.578 547.508 282.544C546.931 278.509 547.652 274.474 549.524 271.015C552.693 269.286 556.727 268.998 560.04 270.006C561.624 270.439 563.065 271.303 564.217 272.312C565.081 273.033 565.946 274.041 566.522 275.05C567.962 277.212 568.538 279.806 568.394 282.399Z" fill="#E33D2D"/>
<path d="M555.286 269.286C554.566 268.565 553.557 267.989 552.405 267.701C551.829 267.557 551.109 267.557 550.532 267.845C549.956 268.133 549.524 268.709 549.236 269.286C548.516 270.727 548.228 272.456 548.084 274.041C549.524 274.185 551.397 273.609 552.549 272.888C553.99 272.168 554.71 270.583 555.286 269.286Z" fill="#382C20"/>
<path d="M568.394 282.399C568.25 283.696 567.962 284.993 567.386 286.146C566.81 287.443 565.802 288.596 564.505 289.605C564.073 289.46 563.785 289.316 563.353 289.172C563.065 289.028 562.776 288.74 562.488 288.452C562.2 288.164 562.056 287.875 561.912 287.587C561.768 287.443 561.768 287.299 561.768 287.155C561.768 287.011 561.624 286.867 561.624 286.722C561.48 286.29 561.48 286.002 561.624 285.57C561.624 285.426 561.768 285.281 561.768 284.993C561.768 284.849 561.912 284.705 561.912 284.417C562.056 284.129 562.2 283.984 562.2 283.696C562.344 283.408 562.488 283.264 562.632 282.976C562.632 282.832 562.777 282.688 562.921 282.688C563.497 282.111 563.641 281.967 564.217 281.679C565.081 281.247 566.09 281.247 566.954 281.535C567.386 281.679 567.674 281.967 568.106 282.255C568.25 282.255 568.25 282.399 568.394 282.399ZM559.896 284.273C559.896 284.561 559.751 284.705 559.607 284.993C559.463 285.281 559.175 285.426 558.887 285.57C558.743 285.57 558.599 285.714 558.455 285.714C558.167 285.714 557.735 285.714 557.447 285.57C557.303 285.426 557.159 285.426 557.015 285.281C556.871 285.137 556.727 284.993 556.582 284.993C556.438 284.849 556.438 284.705 556.294 284.561C556.15 284.273 556.15 283.984 556.15 283.552C556.15 283.408 556.294 283.264 556.294 283.12C556.438 282.832 556.582 282.543 556.871 282.399C557.015 282.255 557.159 282.255 557.303 282.111C557.591 281.967 557.735 281.967 558.023 281.967C558.311 281.967 558.599 281.967 558.743 282.111C558.887 282.111 559.031 282.255 559.175 282.399C559.175 282.399 559.175 282.399 559.319 282.399C559.463 282.543 559.607 282.688 559.752 282.688C559.896 282.976 560.04 283.264 560.184 283.552C560.04 283.84 560.04 283.984 559.896 284.273ZM564.217 272.312C563.065 271.303 561.624 270.439 560.04 270.006C559.896 270.15 559.751 270.15 559.607 270.295C559.175 270.583 559.031 270.871 558.743 271.159C558.743 271.303 558.599 271.303 558.599 271.447C558.455 271.736 558.311 272.024 558.167 272.312C558.023 272.6 558.023 272.888 557.879 273.177C557.879 273.321 557.879 273.465 557.879 273.609C557.879 274.041 557.879 274.474 558.023 274.906C558.167 275.482 558.455 276.059 558.887 276.491C559.175 276.779 559.607 277.067 559.896 277.212C559.896 277.212 560.04 277.356 560.184 277.356C560.184 277.356 560.328 277.356 560.328 277.5C560.616 277.644 560.904 277.788 561.048 277.932C561.336 278.076 561.624 278.076 561.912 278.076C562.2 278.076 562.633 278.076 562.921 278.076C563.641 277.932 564.217 277.644 564.937 277.212C565.369 276.923 565.657 276.635 566.09 276.203L566.234 276.059C566.378 275.771 566.522 275.626 566.666 275.338C566.666 275.194 566.81 275.194 566.81 275.05C565.946 273.897 565.225 273.033 564.217 272.312Z" fill="#B53124"/>
<path d="M558.455 262.801C558.599 262.657 558.887 262.657 559.031 262.657C559.175 262.657 559.464 262.801 559.464 263.09C559.464 263.234 559.319 263.378 559.175 263.522C558.167 264.386 557.303 265.251 556.439 266.116C556.006 266.548 555.574 267.124 555.142 267.557C554.854 267.989 554.422 268.854 553.99 268.998C553.558 267.989 554.854 266.116 555.286 265.251C556.15 264.242 557.159 263.378 558.455 262.801Z" fill="#382C20"/>
<path d="M552.837 261.36C552.981 261.216 553.125 261.072 553.269 260.928C553.413 260.928 553.702 260.928 553.846 261.072C553.99 261.216 553.846 261.36 553.846 261.648C553.269 262.801 552.981 264.098 552.549 265.251C552.405 265.827 552.261 266.548 552.117 267.124C551.973 267.701 552.117 268.565 551.829 268.998C550.965 268.277 551.253 265.971 551.397 265.107C551.397 263.81 551.973 262.513 552.837 261.36Z" fill="#382C20"/>
</g>
<defs>
<filter id="filter0_dd_3836_2" x="-17" y="-22" width="648" height="500" filterUnits="userSpaceOnUse" color-interpolation-filters="sRGB">
<feFlood flood-opacity="0" result="BackgroundImageFix"/>
<feColorMatrix in="SourceAlpha" type="matrix" values="0 0 0 0 0 0 0 0 0 0 0 0 0 0 0 0 0 0 127 0" result="hardAlpha"/>
<feOffset dy="-0.876509"/>
<feGaussianBlur stdDeviation="1.06433"/>
<feColorMatrix type="matrix" values="0 0 0 0 0 0 0 0 0 0 0 0 0 0 0 0 0 0 0.04 0"/>
<feBlend mode="normal" in2="BackgroundImageFix" result="effect1_dropShadow_3836_2"/>
<feColorMatrix in="SourceAlpha" type="matrix" values="0 0 0 0 0 0 0 0 0 0 0 0 0 0 0 0 0 0 127 0" result="hardAlpha"/>
<feOffset dy="-7"/>
<feGaussianBlur stdDeviation="8.5"/>
<feColorMatrix type="matrix" values="0 0 0 0 0 0 0 0 0 0 0 0 0 0 0 0 0 0 0.08 0"/>
<feBlend mode="normal" in2="effect1_dropShadow_3836_2" result="effect2_dropShadow_3836_2"/>
<feBlend mode="normal" in="SourceGraphic" in2="effect2_dropShadow_3836_2" result="shape"/>
</filter>
</defs>
</svg>
