<svg width="549" height="417" viewBox="0 0 549 417" fill="none" xmlns="http://www.w3.org/2000/svg">
<g filter="url(#filter0_dd_3869_385)">
<path d="M497.208 268.792C498.948 275.71 498.789 283.841 496.531 290.612C495.765 290.892 494.996 291.043 494.231 291.322C485.155 293.899 475.266 295.079 465.96 294.05C463.418 281.48 462.552 264.347 472.639 256.453C474.026 255.382 475.546 254.436 477.198 253.616C480.627 251.843 484.464 250.832 488.456 250.72C493.485 255.481 497.742 260.263 500.24 266.643C499.225 267.188 498.352 268.244 497.208 268.792Z" fill="#E89C31"/>
<path d="M479.027 286.718C484.227 288.378 489.163 289.787 494.36 291.318C485.284 293.895 475.395 295.076 466.089 294.047C463.547 281.476 462.681 264.343 472.768 256.449C474.155 255.378 475.675 254.432 477.327 253.612C478.121 254.364 478.79 255.248 479.201 256.139C481.137 260.858 483.585 265.433 486.79 269.472C490.274 269.632 492.838 269.173 496.171 268.563C492.227 270.351 488.797 272.124 484.982 273.908C483.294 273.44 481.47 272.717 480.525 271.195C479.768 276.377 479.136 281.425 479.027 286.718Z" fill="#FFC224"/>
<path d="M370.367 377.231C370.478 376.583 370.714 375.802 371.218 375.401C372.23 374.728 373.539 375.465 374.462 376.213C377.219 378.071 380.482 379.527 383.722 380.21C388.779 381.358 396.311 383.469 394.571 390.354C393.993 392.692 391.755 395.593 389.323 396.177C386.759 396.636 384.38 394.51 382.788 392.878C380.667 390.744 378.95 389.244 376.328 387.641C372.268 385.304 370 382.53 370.378 377.618C370.374 377.489 370.371 377.36 370.367 377.231ZM511.007 379.605C509.152 382.366 510.219 388.27 507.305 390.029C506.164 390.706 504.755 391.003 503.467 391.039C502.18 391.075 500.503 390.993 499.763 392.175C499.148 393.224 499.831 394.624 500.633 395.634C502.761 398.025 504.832 398.354 507.8 398.528C509.735 398.603 511.802 398.803 513.447 397.725C516.487 395.834 520.487 391.465 521.681 388.077C522.156 386.645 522.238 384.966 521.684 383.562C520.857 381.651 519.147 380.409 517.316 379.428C516.4 378.938 515.352 378.322 514.193 378.355C512.641 378.14 511.626 378.685 511.007 379.605Z" fill="#516875"/>
<path d="M411.95 352.971C404.771 363.493 396.938 373.646 388.579 383.426C389.27 385.084 390.586 386.079 392.381 385.77C394.176 385.462 395.693 384.388 397.08 383.317C405.286 377.281 413.467 370.344 417.327 360.947C418.174 358.989 418.757 356.779 417.801 354.871C416.846 352.963 413.062 351.263 411.95 352.971Z" fill="#F58E54"/>
<path d="M514.591 383.375C514.845 383.239 515.099 383.102 515.217 382.712C515.46 382.189 515.313 381.548 515.17 381.036C512.163 370.285 501.689 359.743 493.004 353.278C490.242 351.292 483.765 350.055 485.075 355.436C485.96 359.41 491.858 362.985 494.638 365.616C498.48 369.379 502.193 373.145 505.652 377.046C506.711 378.049 512.421 384.081 514.591 383.375Z" fill="#F58E54"/>
<path d="M498.665 352.989C495.047 357.219 491.142 360.424 485.778 362.123C476.903 353.471 466.648 346.148 455.667 340.522C455.413 340.658 455.155 340.665 454.901 340.801C442.8 345.785 431.276 352.945 422.788 362.729C420.202 362.415 417.738 361.839 415.524 360.998C412.526 359.792 409.647 358.196 407.14 356.073C415.441 344.231 421.775 331.153 425.766 317.238C441.091 316.937 456.247 315.222 471.22 311.577C483.375 322.329 491.533 337.58 498.665 352.989Z" fill="#FFC224"/>
<path d="M363.891 205.837C352.671 200.863 339.996 199.155 327.8 200.787C336.399 204.158 343.267 210.157 348.63 217.617C353.425 213.999 359.099 209.583 363.891 205.837Z" fill="#F0B562"/>
<path d="M387.922 240.38C384.943 239.818 381.963 239.257 378.984 238.696C378.782 231.477 379.353 224.238 380.96 217.227C383.87 224.498 386.543 232.55 387.922 240.38ZM363.641 206.103C355.423 211.752 347.081 217.533 338.864 223.181C348.932 223.802 356.667 223.971 366.52 221.502C364.974 216.901 364.164 210.99 363.641 206.103Z" fill="#FAE59D"/>
<path d="M378.992 238.956C387.401 240.139 395.913 240.416 404.268 239.665C406.818 252.494 407.855 266.526 407.45 279.695C406.974 294.93 399.793 309.967 390.203 321.847C390.32 316.812 390.186 312.043 389.663 307.156C393.206 300.219 396.362 293.293 396.274 285.556C396.234 279.494 394.011 273.751 391.792 268.137C388.303 258.56 382.989 248.26 378.992 238.956Z" fill="#F0B562"/>
<path d="M399.046 283.283C397.349 291.716 394.104 300.063 390.325 307.78C386.434 306.858 382.918 305.537 379.026 304.615C382.669 296.643 386.331 280.157 386.331 280.157L378.862 261.92C378.862 261.92 353.344 234.128 338.353 223.325C352.802 223.952 367.304 221.868 380.965 217.356C379.869 224.224 379.813 231.449 379.493 238.424C389.242 250.664 395.666 268.414 399.046 283.283Z" fill="#F0B562"/>
<path d="M464.301 239.4C465.431 238.336 466.701 237.656 468.113 237.487C469.14 237.329 470.309 237.683 470.724 238.704C470.868 239.216 470.75 239.606 470.635 240.125C469.371 245.579 469.125 250.617 463.668 253.608C462.145 254.425 457.958 256.735 456.27 256.267C454.453 255.802 456.308 253.04 456.919 251.862C458.628 248.46 460.462 244.926 462.435 241.774C462.925 240.858 463.547 240.066 464.301 239.4Z" fill="#E97B3E"/>
<path d="M450.995 256.544C442.096 265.436 435.575 276.455 431.916 288.426C428.732 298.965 427.891 310.34 423.405 320.399C431.371 324.175 440.033 325.222 448.741 323.3C457.317 321.254 465.323 317.288 473.334 313.451C468.113 301.859 466.836 288.478 471.007 276.364C473.158 270.37 476.472 264.472 476.166 258.159C475.944 254.811 474.555 251.238 471.554 249.904C469.594 248.927 467.151 249.124 464.973 249.572C459.72 250.623 454.756 252.826 450.995 256.544Z" fill="#72A631"/>
<path d="M416.95 227.957C417.816 231.287 416.512 235.322 416.48 238.806C416.581 242.415 417.584 245.999 420.234 248.634C422.485 250.763 424.827 251.601 427.796 251.775C436.962 252.421 446.225 251.903 455.198 250.232C460.584 249.307 466.989 247.966 471.398 244.359C474.548 241.82 476.46 236.477 478.037 232.95C479.97 228.381 481.253 223.572 481.76 218.656C482.68 210.116 482.56 201.218 479.879 192.909C479.31 190.99 478.745 189.2 477.414 187.689C476.087 186.307 474.506 185.062 472.932 184.074C469.527 182.105 465.753 180.792 461.865 179.999C451.622 177.706 440.678 178.013 430.575 180.748C425.715 182.045 421.002 183.984 417.23 187.315C414.841 189.446 412.857 192.21 411.914 195.333C410.845 198.588 411.575 201.663 412.055 205.004C413.173 212.712 415.063 220.399 416.95 227.957Z" fill="#FFB992"/>
<path d="M426.481 236.978C430.773 238.405 435.265 237.763 438.926 235.081C434.971 236.481 430.737 237.116 426.481 236.978Z" fill="#BA3118"/>
<path d="M437.325 228.546C439.304 230.168 442.276 230.471 444.425 228.992C445.433 228.19 446.177 227.137 446.659 225.962C447.02 225.049 447.249 224.011 447.091 222.983C446.608 219.514 442.051 217.836 438.972 218.309C437.817 218.47 436.669 218.89 436.05 219.81C434.806 221.393 434.882 224.1 435.576 225.886C435.734 226.914 436.403 227.798 437.325 228.546Z" fill="#FFF6E3"/>
<path d="M417.709 227.419C417.999 228.572 418.672 229.585 419.462 230.208C420.382 230.827 421.544 230.924 422.298 230.258C424.823 228.381 423.977 221.18 420.236 221.028C417.01 220.86 417.133 225.243 417.709 227.419Z" fill="#FFF6E3"/>
<path d="M426.639 224.202C426.549 225.623 426.46 227.045 426.11 228.345C425.764 229.773 425.156 231.08 424.151 232.012C425.346 233.268 427.299 233.987 428.958 233.424C426.927 234.513 424.216 234.332 422.499 232.832C422.234 232.581 421.969 232.331 421.833 232.077C424.229 230.203 426.199 226.923 426.639 224.202Z" fill="#BA3118"/>
<path d="M418.643 228.554C419.827 229.424 421.1 228.872 421.575 227.44C422.051 226.008 421.489 224.346 420.555 223.212C420.154 222.707 419.757 222.331 419.239 222.216C418.201 221.988 417.712 222.904 417.483 223.943C417.262 225.239 417.434 226.782 418.11 227.924C418.249 228.307 418.382 228.433 418.643 228.554Z" fill="#723919"/>
<path d="M439.924 220.088C440.972 220.704 441.773 221.713 442.192 222.862C442.61 224.012 442.646 225.301 442.035 226.479C441.42 227.528 440.151 228.209 438.86 228.116C435.247 227.959 433.007 221.572 436.694 219.792C437.713 219.376 439.004 219.469 439.924 220.088Z" fill="#723919"/>
<path d="M430.703 176.1C426.143 174.293 420.986 174.18 416.108 174.833C411.233 175.615 406.509 177.167 401.914 178.715C405.047 180.175 407.537 181.653 410.799 183.109C403.163 181.904 395.073 182.905 387.664 185.177C395.645 194.112 407.77 199.189 419.743 198.853C428.366 198.482 437.475 197.066 445.235 193.494C443.114 196.004 442.164 198.869 441.868 202.102C446.896 202.219 452.403 201.032 456.312 197.956C463.584 204.588 468.758 214.505 469.801 224.15C476.453 222.416 482.885 217.462 485.412 211.07C485.861 204.092 484.704 194.966 481.533 187.573C482.549 187.028 483.543 185.711 484.025 184.536C481.822 184.082 479.755 183.882 477.856 185.096C478.521 181.208 477.887 176.969 475.987 173.539C475.14 175.498 473.892 176.952 473.045 178.911C463.451 172.214 451.137 169.593 439.424 170.051C439.872 172.231 440.945 173.749 442.78 174.858C437.977 173.574 433.549 171.893 429.228 169.434C428.649 171.772 429.229 174.078 430.703 176.1Z" fill="#723919"/>
<path d="M473.149 228.703C473.486 231.531 476.63 233.378 479.47 233.556C482.438 233.731 485.235 232.362 487.369 230.367C489.758 228.236 491.474 225.092 491.513 221.866C491.68 218.636 490.17 215.325 487.412 213.467C485.312 212.107 482.34 211.804 480.051 212.9C478.017 213.86 475.503 216.124 474.792 218.337C474.195 220.03 474.635 221.953 474.3 223.768C474.071 224.807 473.585 225.852 473.227 226.894C473.12 227.672 473.135 228.187 473.149 228.703Z" fill="#FFB992"/>
<path d="M488.827 222.586C488.794 221.426 488.633 220.27 488.347 219.246C488.057 218.093 487.513 217.076 486.59 216.328C485.141 215.208 483.078 215.137 481.293 215.832C479.505 216.398 477.864 217.605 476.748 219.184L476.884 219.439L476.881 219.31C477.786 219.413 478.694 219.646 479.477 220.011C480.261 220.376 481.051 220.999 481.588 221.758C482.268 223.028 482.061 224.84 480.927 225.775C479.794 226.71 477.991 226.761 476.936 225.887C478.252 226.882 480.084 227.863 481.614 227.304C483.145 226.745 483.863 224.79 483.691 223.247C483.516 221.574 482.446 220.186 481.126 219.062C481.87 218.009 483.275 217.582 484.445 217.936C485.614 218.291 486.541 219.168 487.342 220.177C488.011 221.061 488.408 221.437 488.827 222.586Z" fill="#BA3118"/>
<path d="M429.242 211.358C435.558 211.439 441.653 212.816 447.397 215.492C447.279 215.882 447.029 216.147 447.039 216.534C442.504 215.629 437.844 214.857 433.331 214.726C432.297 214.626 431.138 214.659 430.108 214.688C429.818 213.535 429.657 212.379 429.242 211.358Z" fill="#723919"/>
<path d="M419.118 213.319C420.005 212.778 420.899 212.495 421.922 212.208C422.337 213.228 422.752 214.249 423.038 215.273C421.883 215.434 420.732 215.724 419.584 216.144C418.05 216.574 416.394 217.265 415.271 218.587C415.135 218.332 414.609 217.96 414.474 217.706C415.714 215.994 417.216 214.404 419.118 213.319Z" fill="#723919"/>
<path d="M454.906 340.93C442.804 345.914 431.28 353.074 422.792 362.858C420.206 362.544 417.742 361.968 415.528 361.127C421.623 353.345 426.929 344.94 431.322 336.174C433.228 335.217 435.417 335.156 437.373 336.004C436.789 333.569 435.566 331.282 433.967 329.392C435.834 331.661 441.796 332.913 444.536 334.126C448.317 335.697 452.112 337.784 454.906 340.93Z" fill="#E89C31"/>
<path d="M453.055 284.092C450.154 281.723 447.742 278.436 448.156 274.812C448.352 272.614 449.586 270.644 450.823 268.804C453.179 265.512 455.796 262.343 458.681 259.553C461.567 256.763 465.1 254.084 469.201 253.324C473.303 252.564 478.125 254.492 479.392 258.327C480.393 257.267 481.394 256.207 482.395 255.147C477.284 252.065 471.396 248.876 465.514 250.46C462.063 251.46 459.424 253.856 456.917 256.378C452.663 260.883 448.805 265.764 445.469 270.889C444.479 272.336 443.625 274.037 443.547 275.845C443.59 277.392 444.406 278.917 445.214 280.184C447.375 283.735 450.037 286.757 452.577 290.04C454.985 293.197 457.96 293.63 462.098 294.158C464.427 294.48 466.759 294.931 469.069 294.608C471.379 294.285 473.804 293.443 475.302 291.724C470.634 290.694 464.955 290.337 460.523 288.527C457.92 287.568 455.298 285.964 453.055 284.092Z" fill="#FFC224"/>
<path d="M419.944 293.406C419.816 293.409 419.815 293.409 419.687 293.413C416.343 293.636 413.021 294.632 409.662 294.339C406.175 294.05 403.189 293.231 400.925 290.585C400.931 286.199 402.377 278.032 399.565 274.241C398.892 273.228 397.469 273.01 396.793 271.868C395.719 270.35 395.912 268.022 397.163 266.697C400.904 266.85 403.791 268.704 406.938 270.68C408.998 270.622 410.668 270.446 412.728 270.388C414.273 270.345 416.871 275.69 417.551 276.961C418.51 278.998 418.725 282.088 420.947 283.187C422.252 283.795 423.672 283.884 424.959 283.848C429.212 283.858 433.6 284.121 437.852 284.131C441.847 284.148 445.08 284.573 448.227 281.905C452.002 278.703 455.378 274.997 458.227 270.918C458.724 270.259 459.092 269.603 459.854 269.195C460.487 268.79 461.52 268.89 461.924 269.524C462.325 270.029 462.089 270.809 461.975 271.328C460.817 276.005 459.013 280.57 456.156 284.392C450.06 292.173 439.625 292.208 430.494 292.852C426.9 293.339 423.417 293.179 419.944 293.406Z" fill="#F58E54"/>
<path d="M466.795 254.81C463.226 256.201 459.354 260.566 457.734 262.547C455.739 264.925 454.005 267.424 452.404 270.049C451.91 270.837 448.232 277.519 448.761 278.021C453.913 282.52 460.315 285.694 467.164 286.405C468.775 279.523 470.501 272.122 472.112 265.239C472.691 262.901 473.266 260.434 472.557 258.132C471.551 254.419 469.216 253.839 466.795 254.81Z" fill="#74A03E"/>
<path d="M283.613 373.424C280.859 374.525 277.52 374.703 276.421 371.946C273.443 365.201 270.312 358.553 266.747 352.073C259.548 338.832 251.243 326.401 241.736 314.626C233.69 314.014 230.023 309.757 224.807 304.757C219.689 299.91 214.485 295.442 210.039 289.953C200.865 279.046 193.777 266.491 189.135 253.03C198.015 248.147 208.011 244.175 218.155 243.671C225.911 265.626 237.973 286.034 253.156 303.705C266.002 307.638 274.166 320.698 277.579 333.752C278.689 338.229 279.519 342.775 280.098 347.266C281.158 356.092 281.715 364.806 283.613 373.424Z" fill="#F4A071"/>
<path d="M283.612 373.424C280.857 374.525 277.518 374.702 276.419 371.946C273.441 365.2 270.31 358.553 266.745 352.072C268.353 351.375 270.407 351.042 272.42 350.304C273.008 350.039 277.034 348.562 280.096 347.265C281.156 356.092 281.713 364.806 283.612 373.424Z" fill="#FEF4DA"/>
<path d="M164.531 265.129C153.098 282.261 143.479 300.845 133.709 319.674C133.71 333.135 127.663 344.779 118.564 354.348C114.582 358.534 110.367 362.441 105.928 365.94C104.963 366.634 103.987 367.455 103.022 368.149C101.5 369.311 86.866 380.084 85.6714 378.946C83.4107 376.68 82.9908 374.055 81.9626 370.989C87.2318 365.361 92.1493 359.314 96.5756 352.966C104.107 342.098 110.176 330.196 114.365 317.615C112.481 310.981 111.279 305.441 113.523 298.905C115.584 292.999 117.763 287.234 120.326 281.501C125.313 270.154 131.305 259.152 138.15 248.742C143.823 247.42 150.067 248.477 155.257 251.255C160.201 253.883 162.28 259.757 164.531 265.129Z" fill="#F4A071"/>
<path d="M182.854 244.577C180.454 252.912 177.768 260.057 172.271 266.831C172.819 269.467 172.737 271.919 172.376 274.605C157.059 270.823 143.704 262.292 132.657 250.983C132.796 250.866 132.819 250.609 132.958 250.492C139.902 235.948 147.71 221.868 156.501 208.39C157.242 207.289 157.844 206.306 158.586 205.205C167.25 205.177 177.028 211.716 181.016 219.438C185.014 227.032 185.125 236.231 182.854 244.577Z" fill="#E89C31"/>
<path d="M229.381 241.296C227.238 244.383 224.648 247.107 221.836 249.649C211.984 258.279 198.48 263.183 185.499 263.976C168.891 246.779 158.972 223.283 157.981 199.408C157.968 198.876 157.955 198.345 157.942 197.813C171.62 197.44 186.856 193.056 199.078 186.807C206.418 191.754 214.707 197.178 218.003 205.448C221.674 214.991 223.653 225.609 221.428 235.55C224.219 237.233 226.715 239.642 229.381 241.296Z" fill="#FFC224"/>
<path d="M105.927 365.941C104.962 366.635 103.987 367.456 103.022 368.15C101.499 369.312 86.8659 380.085 85.6713 378.947C83.4106 376.68 82.9908 374.056 81.9626 370.99C87.2317 365.362 92.1491 359.315 96.5754 352.967C97.0554 353.397 97.5354 353.827 97.876 354.374C100.517 358.226 103.158 362.078 105.927 365.941Z" fill="#FEF4DA"/>
<path d="M95.5639 379.674C94.9334 379.49 94.2363 380.077 93.9243 380.697C93.6122 381.317 93.5568 381.96 93.4903 382.73C93.3794 384.015 93.1403 385.289 92.9011 386.562C92.2834 389.227 91.409 391.869 90.0435 394.21C88.9457 396.445 88.5275 396.797 86.1844 396.983C83.8525 397.04 81.5205 397.098 79.2328 396.641C77.3302 396.218 75.3213 395.527 73.7307 394.483C72.0229 393.3 71.7266 392.239 70.833 390.609C69.0348 387.477 65.3735 384.96 62.1258 383.644C59.8825 382.674 57.4665 382.206 55.2232 381.236C50.3628 379.133 48.6357 373.677 46.5744 369.099C44.312 363.856 42.5849 358.4 41.5106 352.871C43.1217 350.681 45.5866 349.082 48.2307 348.404C48.6046 348.566 48.8501 348.717 49.224 348.878C51.2107 349.827 52.8853 351.395 54.281 353.198C54.281 353.198 57.5608 361.635 59.9673 365.208C64.8879 365.116 69.5694 366.297 74.3791 367.489C75.835 367.097 77.2291 365.923 77.8643 364.555C78.5106 363.057 78.3981 361.365 77.6106 360.003C78.5311 359.823 79.4626 359.516 80.3609 359.593C81.2702 359.542 82.2746 359.888 82.8719 360.457C83.4692 361.027 83.6704 361.691 83.9999 362.367C85.0393 365.304 84.3836 369.907 86.5161 372.162C89.0114 374.707 94.5561 373.374 96.0644 376.87C96.6395 377.696 96.5176 379.109 95.5639 379.674Z" fill="#72A631"/>
<path d="M92.9012 386.562C92.2834 389.227 91.409 391.869 90.0435 394.21C88.9457 396.445 88.5275 396.797 86.1845 396.983C83.8525 397.041 81.5205 397.098 79.2329 396.641C77.3302 396.218 75.3213 395.527 73.7307 394.483C72.0229 393.3 71.7266 392.239 70.833 390.609C69.0348 387.477 65.3736 384.96 62.1258 383.644C59.8825 382.674 57.4666 382.206 55.2233 381.236C50.3628 379.133 48.6357 373.677 46.5745 369.099C44.312 363.856 42.5849 358.4 41.5106 352.871C43.1217 350.681 45.5866 349.082 48.2307 348.404C48.6046 348.566 48.8501 348.717 49.224 348.878C50.4028 351.698 51.336 354.367 51.5722 357.623C49.9769 358.133 49.1754 361.429 49.1754 361.429C49.1754 361.429 49.936 364.601 50.7234 365.963C53.7226 371.658 57.3412 377.665 63.1951 380.242C66.0578 381.525 69.3831 381.942 71.9338 383.845C73.0222 384.715 73.949 385.96 75.3162 386.596C77.6657 387.834 80.5996 386.794 83.2326 386.245C86.3899 385.611 89.6202 385.632 92.9012 386.562C92.7728 386.551 92.7728 386.551 92.9012 386.562ZM67.743 372.481C70.2319 373.602 73.8582 373.527 76.3961 372.582C76.5244 372.593 75.404 364.601 74.8908 364.557C73.2226 364.412 71.5543 364.268 69.864 364.381C69.6073 364.359 69.3396 364.465 69.2002 364.583C68.9214 364.817 68.8881 365.203 68.8549 365.588C68.5381 367.761 67.6638 370.403 67.743 372.481Z" fill="#516875"/>
<path d="M293.327 369.523C292.711 369.913 292.542 370.668 292.779 371.382C292.889 372.067 293.433 372.586 293.823 373.202C294.632 374.308 295.314 375.385 295.997 376.463C297.306 378.871 298.307 381.473 299.029 384.146C299.681 386.538 299.694 387.07 297.861 388.773C296.182 390.379 294.503 391.985 292.405 393.101C290.713 394.176 288.853 394.816 286.799 395.149C284.773 395.356 283.852 394.753 281.995 394.205C278.56 393.04 274.2 393.649 270.789 394.735C268.497 395.543 266.371 396.785 264.107 397.467C259.116 399.124 254.106 396.152 249.527 394.202C244.376 391.859 239.491 388.915 234.971 385.524C234.654 382.81 235.428 379.944 237.122 377.681C237.43 377.486 237.835 377.444 238.115 377.375C240.225 376.79 242.6 376.794 244.765 377.147C244.765 377.147 252.805 381.326 257.078 382.283C260.591 378.973 264.94 376.643 269.414 374.342C270.227 373.071 270.495 371.281 270.023 369.854C269.55 368.426 268.393 367.11 266.787 366.618C267.362 365.822 267.782 365.123 268.579 364.509C269.251 363.867 270.146 363.406 271.054 363.478C271.836 363.521 272.562 363.815 273.134 364.208C275.828 365.736 278.392 369.614 281.521 369.786C285.153 370.071 288.319 365.362 291.794 366.933C292.926 367.186 293.706 368.418 293.327 369.523Z" fill="#72A631"/>
<path d="M295.872 376.435C297.181 378.842 298.182 381.445 298.904 384.117C299.556 386.509 299.569 387.041 297.736 388.744C296.056 390.35 294.377 391.956 292.279 393.072C290.587 394.147 288.728 394.788 286.674 395.12C284.647 395.327 283.726 394.725 281.869 394.177C278.435 393.011 274.075 393.62 270.664 394.707C268.371 395.515 266.245 396.756 263.981 397.438C258.99 399.096 253.98 396.124 249.401 394.174C244.25 391.831 239.366 388.887 234.845 385.496C234.529 382.783 235.302 379.917 236.997 377.654C237.304 377.458 237.71 377.417 237.989 377.347C240.711 378.75 243.21 379.97 245.58 382.351C244.74 383.748 246.285 386.869 246.285 386.869C246.285 386.869 248.922 388.649 250.5 389.266C256.587 391.554 263.136 393.549 269.37 391.642C272.376 390.597 275.173 388.713 278.233 388.606C279.7 388.538 281.236 388.749 282.634 388.402C285.304 387.678 286.677 385.079 288.344 382.942C290.43 380.105 292.907 377.885 295.872 376.435ZM267.807 382.703C270.351 381.952 273.038 379.382 274.23 377.006C274.258 376.88 268.288 371.711 267.826 372.004C266.413 373.009 265.126 374.043 264.062 375.258C263.88 375.481 263.726 375.579 263.67 375.831C263.586 376.208 263.781 376.516 263.976 376.824C265.272 378.7 266.427 381.205 267.807 382.703Z" fill="#516875"/>
<path d="M229.381 241.295C227.238 244.383 224.648 247.107 221.835 249.648C219.995 247.254 218.309 244.762 216.47 242.368C209.436 246.079 201.873 248.614 194.089 249.778C197.918 249.182 204.38 245.079 207.221 242.412C210.733 239.102 212.391 234.055 212.4 229.3C212.41 223.356 210.241 217.717 207.456 212.468C204.797 207.248 201.551 202.292 199.353 196.779C199.785 197.801 194.194 199.192 188.31 200.121C182.553 201.078 176.446 201.824 175.105 201.921C169.544 201.997 163.468 201.429 158.135 199.31C158.122 198.778 158.109 198.247 158.096 197.715C171.774 197.343 187.01 192.958 199.232 186.709C206.571 191.656 214.86 197.08 218.157 205.35C221.828 214.894 223.807 225.512 221.581 235.452C224.219 237.232 226.715 239.641 229.381 241.295Z" fill="#E89C31"/>
<path d="M165.489 239.065C163.439 244.842 160.139 250.122 156.008 254.554C154.534 253.65 153.05 252.875 151.576 251.971C152.498 254.769 153.421 257.566 154.343 260.364C148.283 258.676 142.429 256.099 137.027 252.785C135.927 252.043 134.443 251.268 132.969 250.364C139.913 235.82 147.722 221.74 156.512 208.262C157.271 218.941 160.362 229.562 165.489 239.065Z" fill="#FFC224"/>
<path d="M279.949 148.64C277.634 160.477 274.443 171.979 270.237 183.265C268.232 188.528 266.12 193.523 264.499 198.819C263.625 201.461 262.365 204.071 261 206.412C260.548 207.149 257.343 212.826 256.702 212.771C255.429 212.532 255.005 211.46 254.452 210.376C251.288 209.585 249.173 208.626 246.483 206.841C244.135 208.579 241.759 209.151 238.869 209.678C237.491 209.17 236.191 207.764 235.788 206.435C237.521 202.831 239.182 198.574 240.915 194.97C239.597 192.267 239.082 189.246 238.171 186.32C239.91 184.14 242.046 181.866 244.478 180.652C248.825 182.71 252.391 184.83 257.473 184.363C261.774 183.958 262.861 181.851 263.835 178.053C264.81 174.254 264.897 170.249 264.984 166.244C265.122 163.15 265.388 160.066 266.039 157.016C266.267 155.871 266.506 154.597 266.991 153.474C267.164 152.972 268.669 150.513 269.193 150.429C262.399 151.266 254.325 150.439 247.657 148.31C245.018 147.435 242.518 146.442 240.04 145.193C239.047 144.719 233.322 142.153 233.282 141.115C228.661 137.738 230.811 130.805 233.201 125.576C250.609 127.597 266.999 136.908 279.949 148.64Z" fill="#F4A071"/>
<path d="M154.545 153.214C149.622 157.837 143.302 160.656 136.815 162.425C130.339 164.066 124.409 165.365 117.703 165.174C114.345 165.143 111.883 162.212 109.923 159.454C101.966 148.283 98.3382 134.897 91.7427 122.938C88.5091 116.963 85.0521 110.582 85.3941 103.622C85.5049 102.337 85.6555 102.091 86.0119 100.957C86.4237 99.1809 88.103 99.1965 89.8377 98.5698C90.446 99.0107 90.7756 99.6863 91.5123 100.138C94.424 99.3544 96.8669 98.0123 99.2368 96.0167C98.4652 92.9732 99.1717 89.2808 100.827 86.5764C102.294 86.056 103.354 85.7592 104.916 85.6353C107.429 89.4765 107.855 93.5256 109.297 97.7919C110.314 100.986 114.794 101.503 116.035 105.104C116.744 107.366 116.149 109.774 115.564 112.053C115.208 113.187 114.98 114.332 114.378 115.316C112.873 117.774 109.492 118 106.848 118.677C104.204 119.355 101.538 120.289 99.9268 122.48C99.5959 129.311 104.704 134.541 109.727 139.247C114.762 143.823 120.751 147.835 124.531 153.468C131.485 149.28 138.736 146.153 146.138 142.781C147.348 142.238 148.558 141.696 149.819 142.063C151.091 142.303 152.029 143.419 152.722 144.385C154.308 146.981 154.834 149.874 154.545 153.214Z" fill="#F4A071"/>
<path d="M88.3466 103.877C87.9949 103.459 87.8998 103.062 87.9331 102.677C87.8 104.218 88.3751 105.045 89.0342 106.396C89.7043 107.619 90.0956 109.076 90.6375 110.288C91.8383 112.851 93.4352 115.318 95.0432 117.657C95.1652 116.244 95.17 114.691 95.2919 113.278C97.852 112.076 100.742 111.549 103.419 110.486C106.096 109.423 108.712 107.578 109.597 104.807C107.026 106.138 104.338 107.329 101.672 108.264C101.008 108.466 100.344 108.667 99.8528 108.366C99.49 108.076 99.2667 107.668 99.1716 107.272C98.7581 106.071 98.3446 104.87 97.9311 103.67C97.7981 105.211 97.5367 106.742 97.3925 108.412C95.6578 109.039 93.6269 108.605 92.1757 107.444C91.3218 106.852 89.2623 105.251 88.3466 103.877Z" fill="#DE7743"/>
<path d="M95.5943 105.28C95.7115 105.419 95.7115 105.419 95.8288 105.559C96.1694 106.106 96.7001 107.446 97.1801 107.876C97.7774 108.445 98.3461 107.847 98.2843 107.065C98.2225 106.283 97.3686 105.692 96.8997 105.134C95.6101 103.599 93.9023 102.416 92.73 101.02C93.6457 102.393 94.6786 103.906 95.5943 105.28Z" fill="#DE7743"/>
<path d="M100.508 103.763C101.708 103.348 103.002 103.331 104.201 102.917C105.529 102.514 106.784 101.457 107.536 100.228C105.233 101.453 102.684 102.527 100.201 102.83C99.2807 103.009 98.243 103.049 97.6632 103.776C96.9329 104.748 97.3353 106.077 97.6316 107.138C97.7488 107.278 98.5678 105.277 98.5789 105.149C98.891 104.529 99.7053 104.081 100.508 103.763Z" fill="#DE7743"/>
<path d="M110.058 111.447C109.31 111.124 108.523 109.762 108.065 109.075C107.724 108.528 107.088 106.92 106.346 108.021C104.919 109.58 109.054 111.102 110.058 111.447Z" fill="#DE7743"/>
<path d="M99.6769 102.914C100.201 102.83 100.726 102.746 101.378 102.673C101.378 102.673 99.631 100.451 99.5138 100.311C98.9165 99.742 98.0626 99.1505 97.3037 98.9556C97.516 99.4916 97.9961 99.9214 98.3478 100.34C98.8056 101.027 99.3696 101.981 99.6769 102.914Z" fill="#DE7743"/>
<path d="M101.134 95.0155C101.223 93.9877 101.44 92.971 101.54 91.8148C101.858 92.6189 105.852 101.765 105.317 101.978C105.049 102.084 104.781 102.19 104.514 102.297C104.089 101.225 104.05 100.186 103.625 99.1136C103.306 98.3095 102.849 97.6228 102.519 96.9471C102.296 96.5396 101.112 95.2725 101.134 95.0155Z" fill="#DE7743"/>
<path d="M153.224 158.016C147.547 153.384 144.051 145.964 144.041 138.585C156.653 134.756 169.113 128.196 179.162 119.616C183.267 127.477 181.225 137.655 175.833 144.696C170.56 151.877 161.736 155.257 153.224 158.016Z" fill="#629425"/>
<path d="M200.241 186.928C198.847 188.102 197.313 189.393 195.919 190.567C197.22 191.973 198.509 193.509 199.938 194.926C192.976 194.713 186.008 196.053 179.689 198.872C177.804 199.745 175.907 200.746 174.139 201.758C170.999 203.687 167.954 206.013 164.485 207.266C161.016 208.52 157.98 207.74 155.228 205.173C156.6 204.256 157.621 202.92 158.512 201.573C156.051 188.159 155.987 173.916 157.408 160.449C153.769 157.675 151.954 153.247 151.572 148.684C162.703 139.55 174.456 126.198 180.348 116.352C186.466 112.869 193.857 109.624 200.97 109.591C201.751 109.529 202.392 109.585 203.162 109.651C205.087 109.817 206.99 110.24 208.87 110.921C211.007 111.623 212.994 112.571 214.97 113.648C216.299 116.222 217.5 118.785 218.572 121.336C221.142 127.512 222.919 133.878 224.289 140.468C218.295 156 203.306 170.884 196.239 183.864C197.199 184.724 198.874 186.292 200.241 186.928Z" fill="#72A631"/>
<path d="M200.241 186.928C198.847 188.102 197.313 189.393 195.919 190.567C197.22 191.973 198.509 193.509 199.938 194.926C192.975 194.713 186.008 196.053 179.689 198.872C178.31 198.365 176.815 197.718 175.448 197.082C179.178 194.298 182.909 191.514 186.651 188.602C180.81 188.874 175.02 190.056 169.548 192.043C173.92 189.314 178.304 186.457 182.805 183.739C179.692 183.859 176.461 183.839 173.348 183.958C180.874 182.149 186.588 174.359 185.959 166.668C185.897 165.886 178.058 165.338 177.3 165.143C173.612 164.437 169.946 163.473 166.419 162.392C171.714 162.461 177.008 162.53 182.252 161.688C187.496 160.847 192.571 158.956 196.626 155.423C199.425 152.946 201.22 150.125 202.78 147.024C203.856 145.046 204.814 142.928 205.89 140.95C208.643 136.011 212.72 132.221 215.121 126.863C216.23 124.499 217.133 123.024 218.539 121.722C221.108 127.898 222.886 134.264 224.256 140.854C218.261 156.385 203.273 171.27 196.206 184.25C197.199 184.724 198.873 186.292 200.241 186.928Z" fill="#629425"/>
<path d="M208.731 111.038L200.023 132.548L188.965 131.851L174.317 136.799C174.317 136.799 178.938 129.691 183.137 124.488C186.476 120.247 196.832 112.599 200.831 109.708C201.612 109.646 202.253 109.702 203.023 109.768C204.937 110.063 206.84 110.486 208.731 111.038Z" fill="#629425"/>
<path d="M174.295 116.088C171.536 119.604 168.643 124.66 165.834 130.242L177.158 127.855C177.161 123.325 176.489 119.125 174.295 116.088Z" fill="#547D21"/>
<path d="M174.295 116.088C176.016 120.12 176.29 131.922 174.446 136.81L202.471 108.685L202.325 107.378C190.955 107.302 181.299 109.833 174.295 116.088Z" fill="#629425"/>
<path d="M198.86 96.5946C198.567 101.488 198.681 106.157 198.762 111.212C194.006 116.884 189.027 122.149 183.45 126.845C184.673 118.667 185.757 110.606 184.872 102.893C184.602 100.023 188.468 98.6739 190.911 97.3318C193.354 95.9896 195.92 96.2112 198.86 96.5946Z" fill="#DE7743"/>
<path d="M167.662 50.6708C166.334 51.0739 165.208 52.1415 164.712 53.3929C164.216 54.6444 164.351 56.0797 165.032 57.174C164.05 56.5715 162.917 56.2148 161.935 55.6122C160.941 55.1381 159.669 54.8988 158.47 55.3129C157.003 55.8333 156.345 57.4591 156.48 58.8945C156.615 60.3299 157.413 61.5637 158.072 62.9149C155.712 61.805 152.922 61.1757 150.216 61.0714C147.638 60.9782 144.855 61.7732 142.892 63.5451C140.5 65.7976 140.05 69.5122 141.357 72.3432C142.792 75.1852 145.728 77.1213 149.042 77.6665C146.431 77.9586 143.882 79.0328 142.048 80.8158C141.63 81.1679 141.318 81.7881 141.541 82.1957C141.775 82.4748 142.149 82.6365 142.534 82.6698C144.074 82.8028 145.764 82.6899 147.209 82.4265C144.147 83.4562 142.403 87.1885 142.789 90.1987C143.176 93.209 145.415 95.7321 148.127 97.2607C150.839 98.7893 154.164 99.2059 157.395 99.2261C160.368 99.2241 163.503 98.8478 166.086 97.3882C169.332 95.7272 171.534 92.6817 173.223 89.5918C177.375 81.9258 178.899 73.2563 177.695 64.7393C177.297 61.8575 176.514 58.9425 174.929 56.3463C173.856 53.7945 170.686 51.5792 167.662 50.6708Z" fill="#5E3824"/>
<path d="M212.912 80.594C209.864 87.4494 204.829 93.3565 198.996 98.0298C193.163 102.703 186.733 106.807 179.022 106.271C171.183 105.723 166.137 101.275 161.32 95.6814C158.026 91.9023 155.987 87.0667 156.163 82.0341C156.288 76.0912 159.46 70.7997 162.609 65.7651C163.362 64.5358 164.242 63.3176 164.995 62.0883C165.586 61.2334 166.048 60.3673 166.511 59.5013C166.823 58.8811 167.124 58.3894 167.436 57.7692C168.673 55.4169 169.548 52.7744 171.031 50.5728C173.717 46.4043 177.984 43.4076 182.513 41.8574C189.709 39.3727 198.256 39.205 204.713 43.7751C215.557 51.4421 218.178 69.012 212.912 80.594Z" fill="#F4A071"/>
<path d="M178.983 73.7807C179.502 75.2493 178.834 77.0036 177.59 77.9316C176.346 78.8596 174.762 79.2405 173.222 79.1074C172.068 79.0077 170.935 78.651 169.964 77.92C168.993 77.1889 168.311 76.0947 168.283 74.9274C168.248 72.3358 171.266 71.8199 172.587 69.9926C172.37 71.0093 171.545 71.5851 170.837 72.3005C170.128 73.0159 169.526 73.9993 169.577 74.9097C169.639 75.6916 170.353 76.4005 171.09 76.8524C172.446 77.6167 174.254 77.6434 175.721 77.123C177.327 76.4852 178.465 75.2891 178.983 73.7807Z" fill="#723415"/>
<path d="M195.885 69.6749C195.595 70.0381 195.188 70.2618 194.652 70.4744C194.384 70.5807 194.256 70.5696 193.988 70.6759C191.11 71.0744 188.181 70.5625 185.575 69.302C185.201 69.1403 184.955 68.9897 184.71 68.839C182.371 67.4722 182.029 63.9482 183.512 61.7467C184.705 59.9083 187.103 59.0801 189.263 59.5255C190.908 59.9265 192.22 61.2046 193.275 62.4606C194.319 63.845 195.224 65.3468 195.85 67.0834C196.168 67.8874 196.464 68.9484 195.885 69.6749ZM171.775 62.933C170.936 60.6604 169.213 61.1586 167.562 62.3103C165.493 63.8141 163.882 66.0046 163.286 68.4122C162.875 70.1885 164.124 70.6848 165.686 70.5609C167.377 70.448 169.658 69.4803 170.366 68.7649C171.364 67.6863 171.999 66.3175 172.121 64.9043C172.177 64.262 172.104 63.6086 171.775 62.933Z" fill="#FFF4DE"/>
<path d="M194.752 69.3181C194.719 69.7035 194.814 70.1 194.652 70.4743C194.384 70.5806 194.256 70.5695 193.988 70.6758C191.11 71.0743 188.181 70.5624 185.574 69.3019C185.289 68.1125 185.551 66.582 186.024 65.5875C186.66 64.2187 187.925 63.0338 189.487 62.9099C191.049 62.786 192.523 63.6898 193.45 64.9346C194.376 66.1795 194.628 67.7544 194.752 69.3181ZM172.121 64.9043C171.133 62.8775 169.236 63.8785 167.96 65.1919C167.391 65.7899 166.822 66.3879 166.649 66.8907C166.326 67.6393 165.658 69.3935 165.804 70.7003C167.494 70.5875 169.775 69.6197 170.483 68.9043C171.353 67.8146 171.988 66.4459 172.121 64.9043C172.11 65.0327 172.121 64.9043 172.121 64.9043Z" fill="#4A2917"/>
<path d="M173.858 56.7705C173.59 56.8768 173.322 56.9831 173.183 57.1005C170.483 58.4204 167.996 60.2763 165.52 62.0038C165.38 62.1211 165.124 62.099 164.984 62.2164C165.575 61.3614 166.038 60.4954 166.501 59.6294C169.105 57.913 170.995 55.4878 173.61 53.643C173.566 54.1568 173.65 54.6818 173.617 55.0672C173.69 55.7206 173.774 56.2455 173.858 56.7705ZM199.422 60.1435C198.411 58.3737 195.933 57.1243 194.226 55.9414C192.272 54.6078 190.18 53.3917 188.054 52.5609C187.423 52.377 186.932 52.0758 186.29 52.0203C185.688 53.0037 185.226 53.8697 184.624 54.8531C186.537 55.1479 188.429 55.6995 190.309 56.3796C191.933 57.0376 193.418 57.8129 194.891 58.7168C195.873 59.3193 196.844 60.0503 197.838 60.5244C198.212 60.6861 198.585 60.8478 198.97 60.8811C199.227 60.9032 199.484 60.9254 199.634 60.6795C199.656 60.4226 199.539 60.2831 199.422 60.1435Z" fill="#5E3824"/>
<path d="M190.334 83.0452C188.338 85.2024 186.342 87.3597 183.983 89.2267C181.625 91.0938 178.925 92.4137 176.035 92.9406C173.157 93.3391 169.982 92.6766 167.688 90.7959C165.885 89.2165 164.78 87.0502 164.07 84.7886C167.623 84.0602 171.249 83.9851 174.876 83.9101C179.807 83.689 185.157 83.1157 190.334 83.0452Z" fill="#FFF4DE"/>
<path d="M164.176 85.0565C164.678 85.2293 164.997 86.0333 165.348 86.452C165.934 87.1498 166.51 87.976 167.235 88.5564C168.312 89.5554 169.786 90.4592 171.314 90.7207C172.715 90.9711 174.16 90.7076 175.616 90.3157C181.032 88.9716 186.046 86.2984 190.463 83.056C190.719 83.0782 190.987 82.9719 191.244 82.9941C188.44 87.0229 184.676 90.1923 180.571 92.8145C178.664 93.944 176.628 95.0624 174.424 95.131C171.836 95.1662 169.369 93.7883 167.588 91.9519C165.925 90.2552 164.082 87.6369 163.78 85.1517C163.919 85.0343 164.048 85.0454 164.176 85.0565Z" fill="#DE7743"/>
<path d="M192.421 82.8365C189.414 83.2239 186.502 84.0077 183.495 84.3951C179.44 84.9507 175.406 85.2494 171.406 85.1627C169.855 85.1582 168.176 85.1426 166.614 85.2665C164.935 85.2508 163.138 85.0957 161.481 84.8231C161.955 83.8287 162.546 82.9738 163.371 82.398C163.081 82.7612 162.886 83.5209 162.586 84.0125C162.446 84.1299 164.243 84.2851 164.382 84.1677C164.906 84.0836 165.57 83.8821 166.106 83.6695C167.048 83.2333 168.119 82.8081 169.179 82.5114C171.31 81.7895 173.535 81.4641 175.739 81.3956C178.584 81.3825 181.257 81.8722 184.058 82.373C186.602 82.8516 189.637 83.6315 191.952 82.2784C191.751 81.6139 191.421 80.9383 191.209 80.4023C192.866 80.6749 194.339 81.5786 195.394 82.8346C194.239 82.7348 193.33 82.7857 192.421 82.8365Z" fill="#D26B36"/>
<path d="M216.128 53.8199C209.967 50.3109 202.708 49.0367 195.606 48.941C188.504 48.8452 181.419 50.0452 174.346 51.1168C173.297 51.285 172.248 51.4533 171.199 51.6216C170.526 44.4449 170.935 36.7146 172.186 29.7043C179.588 26.3314 188.223 25.1359 196.263 26.3481C204.303 27.5603 212.059 30.5599 219.236 34.2861C219.206 40.6254 218.317 47.926 216.128 53.8199Z" fill="#629425"/>
<path d="M146.971 41.7635C146.971 41.7635 158.464 32.9202 174.653 31.083C190.842 29.2458 194.547 31.2484 194.547 31.2484L207.863 49.2235L207.635 50.3686L146.971 41.7635Z" fill="#72A631"/>
<path d="M207.517 50.2293C194.964 48.8861 179.835 50.4266 170.157 53.2145C161.659 51.3157 153.596 47.3836 146.971 41.7637C160.858 33.6448 177.565 30.2992 193.538 32.4555C197.229 39.1161 202.131 45.2342 207.517 50.2293Z" fill="#547D21"/>
<path d="M208.007 50.53C207.969 52.4681 208.958 54.4949 210.677 55.5494C209.522 55.4497 208.373 56.7742 207.9 57.7687C207.287 58.8806 207.421 60.3159 207.824 61.645C208.438 63.5101 209.332 65.1404 210.633 66.547C211.464 67.3955 212.553 68.266 213.741 67.9804C213.194 68.3215 212.028 68.3502 211.493 68.5628C210.957 68.7754 210.422 68.988 209.993 69.4686C209.563 69.9493 209.38 70.5805 209.592 71.1166C209.804 71.6526 210.552 71.9761 211.098 71.635C207.585 73.4023 204.624 76.2529 203.276 79.8899C201.927 83.5268 202.694 88.1231 205.714 90.5842C205.994 93.3264 206.766 96.3699 208.814 98.1C210.863 99.8301 214.037 100.493 216.469 99.279C219.308 97.8416 220.623 94.5901 221.659 91.5733C221.838 92.4947 221.984 93.8016 222.442 94.4883C223.017 95.3145 224.01 95.7886 224.942 95.4808C225.745 95.1619 226.09 94.1563 226.413 93.4076C229.835 97.1978 236.324 98.4055 240.909 96.2129C242.666 95.3293 244.2 94.038 244.879 92.1553C245.397 90.6469 245.028 88.9324 244.38 87.4527C243.732 85.9731 242.677 84.717 241.75 83.4721C244.836 85.1624 248.44 85.3443 251.664 83.9402C253.271 83.3024 254.782 82.2681 255.311 80.6312C255.829 79.1228 255.343 77.2688 254.288 76.0128C252.892 74.2097 250.799 72.9935 248.651 72.4196C246.503 71.8458 244.193 71.6463 241.883 71.4467C243.439 69.8986 244.202 68.5408 244.648 66.379C245.093 64.2171 244.651 61.8492 243.104 60.2919C241.558 58.7347 239.003 58.3845 236.755 58.9669C234.635 59.5604 232.695 61.0753 231.256 62.7631C233.091 60.9801 232.704 57.9698 231.749 55.5576C230.793 53.1454 228.349 51.5105 225.771 51.4173C222.296 51.2465 219.357 53.8401 216.943 56.3495C216.724 54.3892 215.167 52.9604 213.598 51.66C212.18 50.1139 209.966 50.3108 208.007 50.53Z" fill="#5E3824"/>
<path d="M206.148 109.52C204.207 111.035 203.092 111.974 201.162 113.361C198.565 119.479 196.075 125.865 193.479 131.982C191.207 129.845 188.667 127.813 186.267 125.665C181.806 129.421 177.345 133.178 173.726 137.654C180.716 125.573 190.535 115.161 202.068 107.356C204.099 107.79 204.685 108.488 206.148 109.52Z" fill="#72A631"/>
<path d="M245.307 123.127C245.898 132.756 243.27 142.236 237.31 149.875C236.44 150.965 223.499 143.635 222.014 142.859C217.712 140.287 212.533 137.381 209.228 133.73C205.092 129.231 203.446 118.347 209.692 114.874C212.95 113.084 216.934 114.852 220.427 116.319C228.022 119.693 237.334 121.144 245.307 123.127Z" fill="#72A631"/>
<path d="M215.385 117.824C213.272 119.842 211.756 122.429 211.127 125.222C215.122 126.862 219.742 127.261 223.864 125.934C222.59 122.718 218.75 119.28 215.385 117.824Z" fill="#FFC224"/>
<path d="M485.425 243.307C485.039 243.307 484.652 243.436 484.652 243.822C484.652 244.08 484.781 244.209 485.039 244.467C486.584 245.886 489.031 246.788 491.092 246.401C490.448 244.467 487.228 243.307 485.425 243.307Z" fill="#382C20"/>
<path d="M488.13 258.394C488.001 258.781 488.001 259.168 488.387 259.297C488.645 259.426 488.903 259.297 489.031 259.168C490.835 258.136 492.509 255.944 492.638 253.881C490.577 253.881 488.516 256.589 488.13 258.394Z" fill="#382C20"/>
<path d="M485.425 250.657C485.167 250.786 484.781 251.173 484.91 251.431C485.039 251.688 485.296 251.688 485.425 251.817C487.486 252.333 490.062 252.075 491.736 250.657C490.319 249.238 486.971 249.754 485.425 250.657Z" fill="#382C20"/>
<path d="M508.222 250.915C508.094 252.076 507.836 253.236 507.321 254.268C506.806 255.428 505.904 256.46 504.745 257.363C501.911 259.684 497.79 260.973 494.441 260.587C491.865 258.008 490.191 254.655 489.547 251.044C489.032 247.434 489.675 243.823 491.35 240.728C494.183 239.181 497.79 238.923 500.752 239.825C502.169 240.212 503.457 240.986 504.487 241.889C505.26 242.533 506.033 243.436 506.548 244.339C507.836 246.273 508.351 248.594 508.222 250.915Z" fill="#E33D2D"/>
<path d="M496.501 239.18C495.857 238.536 494.956 238.02 493.925 237.762C493.41 237.633 492.766 237.633 492.251 237.891C491.736 238.149 491.35 238.665 491.092 239.18C490.448 240.47 490.19 242.017 490.062 243.436C491.349 243.565 493.024 243.049 494.054 242.404C495.342 241.759 495.986 240.341 496.501 239.18Z" fill="#382C20"/>
<path d="M508.222 250.915C508.093 252.076 507.836 253.236 507.321 254.268C506.805 255.428 505.904 256.46 504.745 257.363C504.358 257.234 504.101 257.105 503.714 256.976C503.457 256.847 503.199 256.589 502.942 256.331C502.684 256.073 502.555 255.815 502.426 255.557C502.298 255.428 502.298 255.299 502.298 255.17C502.298 255.042 502.169 254.913 502.169 254.784C502.04 254.397 502.04 254.139 502.169 253.752C502.169 253.623 502.298 253.494 502.298 253.236C502.298 253.107 502.426 252.978 502.426 252.72C502.555 252.462 502.684 252.334 502.684 252.076C502.813 251.818 502.942 251.689 503.07 251.431C503.07 251.302 503.199 251.173 503.328 251.173C503.843 250.657 503.972 250.528 504.487 250.27C505.26 249.883 506.162 249.883 506.934 250.141C507.321 250.27 507.578 250.528 507.965 250.786C508.093 250.786 508.093 250.915 508.222 250.915ZM500.623 252.591C500.623 252.849 500.494 252.978 500.366 253.236C500.237 253.494 499.979 253.623 499.722 253.752C499.593 253.752 499.464 253.881 499.335 253.881C499.078 253.881 498.691 253.881 498.434 253.752C498.305 253.623 498.176 253.623 498.047 253.494C497.918 253.365 497.79 253.236 497.661 253.236C497.532 253.107 497.532 252.978 497.403 252.849C497.274 252.591 497.274 252.334 497.274 251.947C497.274 251.818 497.403 251.689 497.403 251.56C497.532 251.302 497.661 251.044 497.918 250.915C498.047 250.786 498.176 250.786 498.305 250.657C498.562 250.528 498.691 250.528 498.949 250.528C499.206 250.528 499.464 250.528 499.593 250.657C499.722 250.657 499.85 250.786 499.979 250.915C499.979 250.915 499.979 250.915 500.108 250.915C500.237 251.044 500.366 251.173 500.494 251.173C500.623 251.431 500.752 251.689 500.881 251.947C500.752 252.205 500.752 252.334 500.623 252.591ZM504.487 241.888C503.457 240.986 502.169 240.212 500.752 239.825C500.623 239.954 500.494 239.954 500.366 240.083C499.979 240.341 499.85 240.599 499.593 240.857C499.593 240.986 499.464 240.986 499.464 241.115C499.335 241.373 499.206 241.631 499.078 241.888C498.949 242.146 498.949 242.404 498.82 242.662C498.82 242.791 498.82 242.92 498.82 243.049C498.82 243.436 498.82 243.823 498.949 244.21C499.078 244.725 499.335 245.241 499.722 245.628C499.979 245.886 500.366 246.144 500.623 246.273C500.623 246.273 500.752 246.402 500.881 246.402C500.881 246.402 501.01 246.402 501.01 246.531C501.267 246.66 501.525 246.789 501.654 246.918C501.911 247.047 502.169 247.047 502.426 247.047C502.684 247.047 503.07 247.047 503.328 247.047C503.972 246.918 504.487 246.66 505.131 246.273C505.517 246.015 505.775 245.757 506.161 245.37L506.29 245.241C506.419 244.983 506.548 244.854 506.677 244.596C506.677 244.467 506.805 244.467 506.805 244.339C506.033 243.307 505.389 242.533 504.487 241.888Z" fill="#B53124"/>
<path d="M499.335 233.377C499.464 233.249 499.722 233.249 499.85 233.249C499.979 233.249 500.237 233.378 500.237 233.635C500.237 233.764 500.108 233.893 499.979 234.022C499.078 234.796 498.305 235.57 497.532 236.343C497.146 236.73 496.759 237.246 496.373 237.633C496.115 238.02 495.729 238.793 495.342 238.922C494.956 238.02 496.115 236.343 496.502 235.57C497.274 234.667 498.176 233.893 499.335 233.377Z" fill="#382C20"/>
<path d="M494.312 232.088C494.441 231.959 494.57 231.83 494.698 231.701C494.827 231.701 495.085 231.701 495.214 231.83C495.342 231.959 495.214 232.088 495.214 232.346C494.698 233.378 494.441 234.538 494.054 235.57C493.926 236.086 493.797 236.73 493.668 237.246C493.539 237.762 493.668 238.536 493.411 238.922C492.638 238.278 492.895 236.214 493.024 235.441C493.024 234.28 493.539 233.12 494.312 232.088Z" fill="#382C20"/>
</g>
<defs>
<filter id="filter0_dd_3869_385" x="-17" y="-24" width="583" height="451" filterUnits="userSpaceOnUse" color-interpolation-filters="sRGB">
<feFlood flood-opacity="0" result="BackgroundImageFix"/>
<feColorMatrix in="SourceAlpha" type="matrix" values="0 0 0 0 0 0 0 0 0 0 0 0 0 0 0 0 0 0 127 0" result="hardAlpha"/>
<feOffset dy="-0.876509"/>
<feGaussianBlur stdDeviation="1.06433"/>
<feColorMatrix type="matrix" values="0 0 0 0 0 0 0 0 0 0 0 0 0 0 0 0 0 0 0.04 0"/>
<feBlend mode="normal" in2="BackgroundImageFix" result="effect1_dropShadow_3869_385"/>
<feColorMatrix in="SourceAlpha" type="matrix" values="0 0 0 0 0 0 0 0 0 0 0 0 0 0 0 0 0 0 127 0" result="hardAlpha"/>
<feOffset dy="-7"/>
<feGaussianBlur stdDeviation="8.5"/>
<feColorMatrix type="matrix" values="0 0 0 0 0 0 0 0 0 0 0 0 0 0 0 0 0 0 0.08 0"/>
<feBlend mode="normal" in2="effect1_dropShadow_3869_385" result="effect2_dropShadow_3869_385"/>
<feBlend mode="normal" in="SourceGraphic" in2="effect2_dropShadow_3869_385" result="shape"/>
</filter>
</defs>
</svg>
