<svg width="476" height="562" viewBox="0 0 476 562" fill="none" xmlns="http://www.w3.org/2000/svg">
<path d="M195.079 448.834C198.253 447.748 202.151 449.581 203.64 451.945C205.142 454.309 204.964 457.017 205.048 459.609C205.32 467.486 208.273 475.196 210.341 482.954C212.408 490.712 213.544 498.872 210.245 506.325C207.55 512.408 196.163 514.861 187.838 516.655C186.545 516.359 186.326 515.481 185.862 514.547C189.357 513.802 192.877 513.046 196.057 511.752C199.237 510.458 202.067 508.565 203.465 506.089C204.63 504.012 204.711 501.682 204.359 499.437C203.542 494.245 200.518 489.369 198.221 484.403C193.028 473.154 192.761 460.489 195.079 448.834Z" fill="#547D21"/>
<path d="M195.326 506.98C194.093 510.111 192.555 513.565 189.611 516.032C187.536 517.751 184.771 519.131 181.706 520.269C176.469 522.215 170.333 523.446 165.309 524.453C162.506 525.022 159.166 524.666 156.302 524.386C152.288 523.986 148.33 523.366 144.297 523.199C127.356 522.494 110.565 519.178 95.3151 513.526C93.7732 512.953 92.2205 512.33 90.794 511.589C90.0802 511.236 89.4169 510.836 88.7788 510.413C86.3474 508.782 85.2111 506.932 84.9375 504.543C84.8317 503.545 84.8976 502.553 85.1594 501.578C85.1601 501.554 85.1734 501.517 85.1868 501.481C86.2316 497.657 87.8088 493.676 89.1722 489.874C90.2535 486.898 91.5059 483.952 92.9043 481.047C94.5241 477.706 96.3632 474.421 98.3967 471.203C100.186 468.37 103.003 465.617 103.831 462.511C104.619 459.502 105.218 456.647 106.311 453.696C107.35 450.89 108.756 448.157 110.502 445.545C112.08 443.185 113.973 441.018 115.988 438.843C116.304 438.509 116.56 438.16 116.828 437.824C117.07 437.5 117.397 437.239 117.772 437.017C119.221 436.139 121.448 435.946 123.225 435.618C124.879 435.323 126.544 435.052 128.231 434.832C132.988 434.185 137.833 433.861 142.694 433.844C149.261 433.828 155.847 434.389 162.257 435.522C163.344 435.714 164.43 435.93 165.516 436.158C173.115 437.755 180.646 439.609 187.736 442.26C189.46 442.899 191.158 443.588 192.806 444.311C193.727 444.719 194.844 445.107 195.665 445.598C196.183 445.908 196.583 446.509 196.927 446.924C198.491 448.811 199.522 450.916 200.122 453.07C201.769 458.851 199.678 464.436 198.687 470.177C197.742 475.625 195.809 481.289 196.321 486.84C196.97 493.611 197.924 500.415 195.326 506.98Z" fill="#95B63F"/>
<path d="M186.622 458.885C185.616 461.409 183.66 463.659 181.754 465.862C181.83 465.779 181.598 465.33 181.577 465.219C181.51 464.984 181.443 464.748 181.389 464.514C181.267 464.068 181.145 463.61 181.011 463.164C180.756 462.236 180.5 461.32 180.245 460.392C179.746 458.585 179.308 456.768 178.759 454.972C178.704 454.786 178.66 454.588 178.629 454.403C178.416 453.304 178.432 451.918 177.303 451.062C176.607 450.538 175.656 450.302 174.845 449.91C174.313 449.661 173.843 449.34 173.311 449.091C172.487 448.711 171.537 448.475 170.624 448.215C169.54 447.913 168.445 447.611 167.349 447.308C165.182 446.717 163.001 446.162 160.808 445.619C156.494 444.56 152.153 443.598 147.772 442.733C143.391 441.868 138.971 441.087 134.536 440.417C132.312 440.082 130.088 439.759 127.862 439.473C126.75 439.33 125.623 439.235 124.524 439.056C124.194 438.997 123.891 438.878 123.561 438.819C123.122 438.745 122.629 438.804 122.198 438.84C121.141 438.908 120.105 439.086 119.161 439.451C116.666 440.397 115.162 442.305 113.893 444.146C111.573 447.503 109.557 450.979 107.845 454.526C107.808 454.525 107.61 455.022 107.584 455.071C107.217 455.858 106.701 456.714 106.664 457.56C106.646 458.161 106.802 458.718 106.649 459.315C106.162 461.265 105.541 463.199 104.993 465.147C109.655 467.297 114.915 468.728 120.323 469.304C115.472 469.014 110.607 468.736 105.756 468.447C104.69 468.379 103.587 468.322 102.609 468.612C102.051 468.78 101.564 469.073 101.271 469.457C101.13 469.637 101.026 469.843 101.007 470.063C100.992 470.173 101.05 470.298 101.035 470.395C101.003 470.64 100.762 470.903 100.62 471.144C94.418 481.741 88.1888 492.435 85.2782 503.803C85.2396 503.029 85.2012 502.242 85.1875 501.456C86.2323 497.632 87.8095 493.651 89.1729 489.849C90.2542 486.873 91.5066 483.927 92.905 481.021C94.5248 477.681 96.3639 474.396 98.3974 471.177C100.186 468.345 103.004 465.592 103.832 462.486C104.619 459.477 105.218 456.622 106.311 453.671C107.351 450.865 108.757 448.132 110.502 445.519C112.081 443.16 113.973 440.993 115.989 438.818C116.305 438.483 116.561 438.135 116.828 437.799C117.071 437.475 117.398 437.214 117.773 436.992C119.222 436.114 121.449 435.921 123.226 435.593C124.879 435.298 126.544 435.027 128.232 434.807C145.427 436.072 162.18 440.687 177.717 446.569C180.764 447.726 183.905 449.021 185.695 451.173C187.579 453.462 187.629 456.361 186.622 458.885Z" fill="#547D21"/>
<path d="M195.326 506.98C194.093 510.111 192.555 513.565 189.611 516.032C187.536 517.751 184.771 519.131 181.706 520.268C176.469 522.214 170.333 523.446 165.309 524.453C162.506 525.021 159.166 524.665 156.302 524.385C152.288 523.985 148.33 523.366 144.297 523.198C127.356 522.493 110.565 519.177 95.3151 513.525C93.7732 512.952 92.2204 512.33 90.7939 511.588C91.9975 511.98 93.2267 512.335 94.4321 512.665C111.841 517.509 128.453 520.217 146.636 522.948C149.776 523.42 153.015 523.884 156.145 523.472C158.781 523.12 161.947 521.911 162.682 519.858C164.325 515.291 164.377 510.173 165.374 505.476C166.2 501.572 167.882 497.803 169.331 494.003C169.916 492.474 170.817 491.027 171.767 489.606C172.036 489.221 172.093 488.953 172.252 488.565C172.505 487.897 172.819 487.231 173.108 486.577C168.577 485.818 164.045 485.071 159.514 484.312C162.226 484.76 165.608 484.515 168.383 484.462C171.846 484.391 176.047 483.864 179.441 484.467C178.499 483.125 175.65 482.33 175.115 480.915C175 480.629 175.096 480.313 175.202 480.033C175.326 478.736 176.065 477.395 176.275 476.075C176.799 472.874 177.38 469.798 178.331 466.658C179.268 463.592 180.241 460.527 180.493 457.367C180.671 455.077 180.238 452.683 178.615 450.696C177.525 449.362 175.827 448.257 173.854 447.708C172.942 447.448 171.935 447.443 171.061 447.123C170.102 446.776 169.128 446.501 168.116 446.251C163.097 444.987 158.038 443.819 152.938 442.774C147.838 441.728 142.699 440.78 137.532 439.953C132.364 439.126 127.157 438.397 121.934 437.789C120.577 437.627 119.219 437.477 117.861 437.338C117.827 437.239 117.817 437.141 117.796 437.042C119.245 436.164 121.472 435.971 123.249 435.643C129.591 434.491 136.138 433.897 142.717 433.881C149.284 433.865 155.871 434.426 162.281 435.559C163.368 435.751 164.454 435.967 165.539 436.195C173.139 437.793 180.669 439.646 187.759 442.297C189.483 442.937 191.181 443.625 192.829 444.348C193.75 444.756 194.868 445.145 195.688 445.635C196.207 445.945 196.606 446.546 196.95 446.961C198.515 448.848 199.546 450.953 200.145 453.107C201.792 458.888 199.701 464.474 198.711 470.214C197.766 475.662 195.832 481.326 196.345 486.877C196.97 493.61 197.924 500.415 195.326 506.98Z" fill="#547D21"/>
<path d="M201.682 437.095C200.29 439.804 199.226 444.695 195.547 445.852C195.151 445.963 194.731 446.049 194.288 446.085C185.151 446.689 181.164 446.216 171.291 443.447C169.977 443.077 168.665 442.621 167.641 441.94C166.618 441.247 165.875 440.231 166.135 439.306C164.61 440.685 162.612 441.412 160.021 441.459C155.183 441.538 149.747 440.274 144.981 439.57C143.624 439.37 142.419 439.04 141.219 438.514C140.904 438.382 138.179 436.719 138.18 436.669C133.834 437.991 128.526 438.167 123.858 437.06C120.519 436.262 118.804 434.469 118.005 432.408C117.422 430.954 117.308 429.38 117.413 427.922C117.43 427.75 117.571 425.864 117.668 425.891C116.496 425.697 115.602 425.634 114.441 425.453C114.899 422.803 115.724 420.212 116.939 417.694C117.986 415.466 119.326 413.308 120.92 411.256C122.426 409.311 124.238 407.756 127.128 406.724C128.852 406.123 130.62 405.696 132.565 405.889C134.156 406.058 135.789 406.45 137.26 406.935C139.885 407.809 142.24 409.118 144.057 410.78C144.32 411.008 144.546 411.261 144.809 411.502C144.825 411.379 148.017 410.086 148.315 409.984C149.555 409.541 150.854 409.199 152.175 408.919C154.151 408.51 156.195 408.288 158.246 408.237C164.202 408.105 170.15 409.519 173.852 413.04C174.223 413.37 174.556 413.736 174.864 414.113C175.101 414.403 175.337 414.704 175.537 415.005C175.538 414.98 175.75 414.864 176.048 414.737C176.583 414.495 177.366 414.175 177.477 414.129C185.103 411.05 195.444 412.102 203.537 414.021C204.268 414.19 204.824 414.488 205.23 414.881C207.333 416.833 206.017 421.103 206.117 423.144C206.377 428.099 204.049 432.56 201.682 437.095Z" fill="#FFC224"/>
<path d="M195.547 445.852C195.151 445.963 194.731 446.049 194.288 446.085C185.151 446.689 181.164 446.216 171.291 443.447C169.977 443.077 168.665 442.621 167.641 441.941C166.618 441.248 165.875 440.231 166.135 439.306C164.61 440.685 162.612 441.413 160.021 441.459C155.183 441.538 149.747 440.274 144.981 439.57C143.624 439.371 142.419 439.041 141.219 438.514C140.904 438.382 138.179 436.719 138.18 436.67C133.834 437.991 128.526 438.167 123.858 437.06C120.519 436.263 118.804 434.469 118.005 432.408C120.618 433.724 123.711 434.527 126.837 434.68C130.624 434.865 134.451 434.105 137.564 432.564C138.593 434.718 141.217 436.059 144.063 436.965C146.908 437.871 150.005 438.17 153.065 438.456C155.598 438.703 158.217 438.939 160.663 438.421C163.096 437.904 165.336 436.435 165.464 434.56C167.484 437.688 171.308 440.378 175.638 441.721C179.968 443.063 184.947 443.184 189.325 442.048C190.548 443.447 192.238 443.987 194.075 444.974C194.583 445.222 195.078 445.519 195.547 445.852Z" fill="#E89C31"/>
<path d="M205.255 414.869C204.233 415.379 202.916 415.525 201.705 415.784C198.457 416.499 195.937 418.291 193.362 419.898C188.449 422.958 182.812 425.591 176.442 426.423C175.358 426.564 174.226 426.653 173.151 426.474C172.064 426.295 171.023 425.823 170.529 425.084C169.953 424.22 170.228 423.185 170.599 422.275C170.665 422.105 170.743 421.948 170.81 421.778C171.401 420.457 172.15 419.19 173.081 417.977C173.962 416.812 175.047 415.801 176.061 414.713C176.596 414.471 177.379 414.15 177.49 414.105C185.116 411.026 195.457 412.078 203.55 413.997C204.281 414.178 204.837 414.476 205.255 414.869Z" fill="#E89C31"/>
<path d="M173.865 413.017C173.558 413.449 173.177 413.868 172.748 414.273C172.256 414.725 171.752 415.164 171.224 415.591C169.666 416.834 167.927 417.949 166.057 418.938C165.122 419.438 164.163 419.914 163.145 420.301C162.934 420.381 162.762 420.413 162.539 420.455C161.614 420.625 160.732 420.992 159.841 421.236C156.908 422.07 153.894 422.731 150.823 423.242C148.973 423.544 146.965 423.792 145.202 423.225C143.123 422.562 141.87 420.905 141.55 419.275C141.23 417.633 142.027 416.404 142.467 414.785C137.418 419.547 128.754 422.043 120.57 421.103C119.335 420.957 117.956 420.683 117.292 419.89C116.746 419.26 116.782 418.463 116.901 417.73C116.902 417.706 116.903 417.681 116.916 417.657C117.963 415.429 119.303 413.271 120.897 411.218C122.402 409.274 124.215 407.719 127.105 406.686C128.829 406.086 130.596 405.659 132.542 405.851C134.133 406.021 135.766 406.412 137.237 406.897C139.862 407.772 142.217 409.081 144.034 410.743C144.297 410.971 144.523 411.224 144.786 411.464C144.802 411.342 147.994 410.049 148.291 409.947C149.532 409.504 150.83 409.162 152.152 408.881C154.128 408.473 156.171 408.25 158.223 408.2C164.215 408.081 170.163 409.495 173.865 413.017Z" fill="#E89C31"/>
<path d="M136.194 426.14C129.087 427 121.683 426.673 114.719 425.167C121.502 427.846 129.185 428.267 136.194 426.14Z" fill="url(#paint0_linear_3864_2)"/>
<path d="M136.838 426.761C140.098 429.447 144.992 430.818 149.816 431.192C154.641 431.567 159.458 430.959 164.247 430.449C155.114 430.942 145.751 429.612 137.444 426.631L136.838 426.761Z" fill="#E89C31"/>
<path d="M185.873 435.453C178.985 435.14 172.185 433.48 166.327 430.669C167.663 433.237 170.804 434.95 174.316 435.728C177.828 436.518 181.548 436.468 185.194 436.427C186.434 436.414 187.923 436.286 188.439 435.442C187.483 435.389 186.829 435.493 185.873 435.453Z" fill="#E89C31"/>
<path d="M145.484 411.104C145.319 411.272 144.886 411.406 144.674 411.523C144.349 411.697 144.025 411.872 143.713 412.047C143.026 412.444 142.364 412.854 141.7 413.301C136.767 416.643 131.773 422.856 134.155 428.695C135.082 430.981 135.996 433.304 137.309 435.417C137.684 436.029 138.096 436.618 138.521 437.196C137.931 436.393 138.154 435.049 138.108 434.102C138.04 432.652 137.886 431.211 137.867 429.762C137.805 426.458 137.677 422.427 139.071 419.252C140.44 416.1 143.09 413.612 145.484 411.104Z" fill="#3D4F5E"/>
<path d="M177.302 414.259C177.1 414.425 176.619 414.534 176.37 414.637C175.997 414.798 175.637 414.959 175.263 415.132C174.467 415.502 173.694 415.897 172.933 416.316C167.182 419.511 161.071 425.728 163.046 432.059C163.82 434.537 164.557 437.05 165.777 439.37C166.126 440.043 166.5 440.692 166.91 441.33C166.347 440.442 166.732 439.042 166.786 438.037C166.868 436.504 166.851 434.969 166.982 433.439C167.269 429.936 167.553 425.685 169.416 422.425C171.266 419.201 174.43 416.753 177.302 414.259Z" fill="#3D4F5E"/>
<path d="M204.292 436.41C202.401 439.78 198.97 445.044 194.731 446.037C190.95 446.92 188.634 445.121 187.313 442.456C187.009 440.237 187.473 437.808 188.311 435.61C187.437 435.707 186.555 435.657 185.737 435.498C185.695 434.834 185.714 434.196 185.743 433.62C185.931 429.722 188.254 422.891 192.059 418.276C195.063 414.62 198.983 412.353 203.512 414.033C207.288 415.432 208.346 419.944 208.084 423.877C207.801 428.067 206.494 432.473 204.292 436.41Z" fill="#CF8926"/>
<path d="M193.029 423.706C192.227 425.119 191.716 426.638 191.818 428.176C191.8 427.942 192.056 427.593 192.161 427.375C193.197 425.11 198.083 416.685 202.731 419.73C203.478 420.219 203.7 420.999 203.827 421.714C204.871 427.527 202.565 433.352 199.463 438.687C198.7 440.003 197.54 441.479 195.598 441.594C194.246 441.664 192.952 440.988 192.216 440.132C191.481 439.275 191.093 438.27 190.815 437.28C190.904 438.436 191.004 439.618 191.685 440.669C192.378 441.72 193.801 442.597 195.362 442.52C197.181 442.438 198.42 441.185 199.314 440.008C202.569 435.734 204.66 430.97 205.454 426.071C205.829 423.737 206.258 417.477 201.088 417.595C196.925 417.682 194.388 421.303 193.029 423.706ZM196.089 427.773C196.729 426.454 197.539 425.201 198.518 424.026C198.773 423.715 199.102 423.38 199.57 423.321C200.47 423.187 201.058 424.052 201.197 424.755C201.733 427.41 200.502 430.051 199.275 432.543C198.518 434.093 197.622 435.773 195.698 436.502C195.078 435.882 194.72 435.111 194.694 434.337C194.619 434.801 195.354 434.847 195.922 434.704C196.492 434.549 196.847 434.13 197.141 433.733C198.726 431.607 200.034 429.263 200.02 426.796C200.021 426.354 199.89 425.81 199.342 425.646C198.965 425.537 198.544 425.672 198.195 425.846C197.361 426.251 196.478 427.048 196.089 427.773Z" fill="#FFC224"/>
<path d="M195.434 494.499C195.069 493.543 194.605 492.608 194.055 491.696C193.774 491.234 193.469 490.77 193.138 490.319C193.009 490.143 192.894 489.882 192.676 489.765C192.023 489.427 190.969 489.371 190.241 489.51C190.07 489.492 189.661 489.628 189.523 489.71C189.336 489.815 189.183 490.019 189.032 490.149C188.666 490.482 188.289 490.803 187.923 491.124C186.009 492.786 183.986 494.384 181.892 495.906C182.926 494.525 183.961 493.143 184.996 491.762C183.998 491.88 183.012 492.035 182.025 492.203C180.594 492.443 179.187 492.733 177.802 493.073C177.11 493.237 176.417 493.426 175.736 493.614C175.452 493.692 175.217 493.759 174.922 493.775C174.602 493.79 174.305 493.879 174.008 493.957C173.266 494.143 172.559 494.393 171.876 494.68C171.528 494.829 171.179 495.003 170.939 495.241C170.699 495.48 170.579 495.808 170.73 496.095C171.899 495.994 173.19 495.909 174.157 496.428C175.002 496.883 175.347 497.679 175.509 498.444C175.618 498.926 175.665 499.419 175.798 499.901C175.864 500.149 175.992 500.374 176.071 500.609C176.174 500.895 176.14 501.2 176.181 501.484C176.222 501.755 176.275 502.039 176.316 502.31C176.398 502.853 176.493 503.384 176.576 503.926C176.597 504.037 176.618 504.161 176.738 504.238C176.859 504.315 177.019 504.307 177.178 504.3C178.653 504.245 180.13 504.092 181.561 503.851C181.845 503.798 182.128 503.745 182.377 503.63C184.368 502.706 187.209 502.495 189.403 501.786C191.472 501.122 193.447 500.308 195.303 499.368C196.562 498.73 196.447 498.444 196.247 497.321C196.078 496.396 195.823 495.468 195.481 494.561C195.457 494.548 195.445 494.523 195.434 494.499Z" fill="#95B63F"/>
<path d="M169.706 517.634C170.54 516.406 171.603 515.308 172.388 514.066C174.205 511.124 175.114 507.75 175.101 504.423C175.101 503.576 174.866 496.105 172.286 497.012C171.679 497.227 171.418 497.735 171.196 498.195C170.542 499.588 169.753 500.952 169.489 502.417C168.628 507.082 168.33 511.824 169.478 516.633C169.529 516.978 169.617 517.312 169.706 517.634Z" fill="#95B63F"/>
<path d="M173.422 482.547C161.691 483.713 149.581 483.186 137.618 482.651C125.606 482.115 112.996 481.439 102.811 477.629C113.214 478.622 123.629 479.614 134.033 480.607C132.827 480.277 131.448 480.015 130.319 479.602C130.076 479.509 129.918 479.443 129.638 479.385C128.979 479.243 128.308 479.113 127.649 478.971C126.332 478.687 125.015 478.391 123.723 478.083C121.127 477.466 118.557 476.79 116.038 476.065C111.073 474.63 106.272 473.004 101.698 471.188C107.505 472.402 113.312 473.604 119.118 474.817C125.328 476.104 131.31 477.617 137.712 478.591C145.447 479.775 153.411 480.635 161.242 481.453C164.485 481.794 167.753 482.099 171.01 482.366C171.806 482.426 172.614 482.487 173.422 482.547Z" fill="#547D21"/>
<path d="M95.5611 489.226C100.369 490.177 104.899 491.795 109.575 493.086C111.997 493.759 114.472 494.334 117.015 494.679C117.222 494.71 117.443 494.704 117.652 494.71C119.013 494.738 120.28 494.247 121.399 493.752C122.655 493.187 123.925 492.561 125.401 492.445C125.77 492.419 126.223 492.457 126.388 492.695C126.506 492.87 126.426 493.064 126.347 493.246C126.321 493.307 126.295 493.367 126.268 493.428C126.203 493.573 126.137 493.719 126.072 493.864C125.888 494.264 125.717 494.664 125.534 495.052C125.442 495.258 125.3 495.474 125.343 495.684C125.353 495.758 125.388 495.833 125.41 495.907C125.464 496.154 125.444 496.424 125.425 496.669C125.352 497.907 125.132 499.128 124.997 500.364C124.714 502.921 124.247 505.461 123.511 507.943C123.306 508.649 123.064 509.367 122.823 510.059C122.555 510.825 122.238 511.613 121.608 512.172C120.284 513.361 118.168 513.115 116.386 512.78C115.761 512.737 115.092 512.533 114.482 512.417C113.847 512.301 113.213 512.171 112.578 512.042C111.297 511.784 110.016 511.513 108.748 511.23C103.322 510.016 97.922 508.335 92.7275 506.341C91.8416 505.996 90.9194 505.638 90.3513 504.921C89.7828 504.217 89.7556 503.05 90.544 502.533C90.5394 503.11 90.3627 503.694 90.0287 504.2C91.6717 505.095 93.4044 505.858 95.2024 506.488C101.569 508.687 108.424 509.723 115.048 511.108C116.5 511.408 118.26 511.632 119.272 510.606C119.31 510.57 119.336 510.534 119.361 510.498C119.628 510.199 119.959 509.804 120.055 509.45C120.206 508.89 120.309 508.316 120.436 507.755C120.493 507.474 121.124 504.387 121.185 504.389C116.153 504.389 111.105 504.093 106.128 503.481C110.409 503.545 114.696 503.45 118.962 503.207C119.736 503.168 120.585 503.082 121.113 502.668C121.641 502.229 121.648 501.567 121.518 500.986C121.453 500.702 121.375 500.417 121.322 500.133C121.28 499.899 121.299 499.666 121.244 499.443C121.212 499.295 121.129 499.182 121.035 499.044C120.634 498.505 120.183 497.976 119.354 497.768C118.733 497.602 118.056 497.656 117.392 497.698C109.832 498.127 102.336 496.348 95.0848 494.589C94.305 494.394 93.4884 494.198 92.9001 493.751C92.5398 493.483 92.353 493.158 92.1787 492.822C92.1326 492.722 92.1473 492.637 92.1628 492.527C92.1949 492.27 92.227 492.013 92.259 491.756C92.3232 491.242 92.3996 490.729 92.4638 490.215C92.4944 490.007 92.5254 489.787 92.6783 489.595C92.9329 489.284 93.4512 489.188 93.884 489.078C94.1314 489.012 94.4614 489.058 94.7186 489.078C94.975 489.123 95.2682 489.168 95.5611 489.226Z" fill="#497441"/>
<path d="M90.2192 504.819C90.2505 504.587 90.2815 504.367 90.3129 504.135C90.4689 502.998 90.6499 501.849 90.8673 500.714C90.9109 500.482 91.0295 500.203 90.9754 499.956C90.9202 499.745 90.8769 499.548 90.8956 499.327C90.9151 499.082 90.9836 498.839 91.0889 498.596C91.1152 498.536 91.452 497.932 91.5126 497.958C95.0556 499.351 98.829 500.419 102.712 501.11C99.1907 500.221 95.9449 498.739 93.2891 496.807C92.6882 496.372 92.018 495.788 92.0126 495.137C92.0169 494.99 92.0573 494.868 92.1467 494.748C92.3771 494.423 92.4128 494.044 92.5091 493.691C93.0427 491.816 93.6373 489.955 94.3051 488.109C94.3451 487.999 93.6605 487.906 93.587 487.904C93.3413 487.909 93.0813 487.987 92.8692 488.103C92.4455 488.324 92.4628 488.988 92.3778 489.378C92.1081 490.622 91.8633 491.855 91.6423 493.113C91.2015 495.592 90.8461 498.086 90.5766 500.582C90.4367 502.002 90.3096 503.41 90.2192 504.819Z" fill="#95B63F"/>
<path d="M126.666 492.851C124.344 492.513 120.093 495.592 119.319 497.276C119.11 497.724 111.181 496.89 108.673 496.62C102.005 495.909 95.714 494.055 91.2251 490.179C92.2622 487.877 95.5326 486.009 97.8509 486.052C101.51 487.682 105.089 489.088 108.736 490.717C114.665 491.517 120.559 490.99 126.544 491.976C126.788 492.437 126.912 492.392 126.666 492.851Z" fill="#95B63F"/>
<path d="M107.061 491.761C103.039 491.619 99.0684 490.582 95.7941 488.816C95.5041 488.66 95.2022 488.492 95.0623 488.242C94.8166 487.83 95.1134 487.335 95.5876 487.067C96.0619 486.798 96.6664 486.693 97.2463 486.588C100.54 488.12 104.222 489.8 107.061 491.761Z" fill="#497441"/>
<path d="M102.02 501.679C101.088 501.652 100.144 501.612 99.2121 501.584C99.7442 502.275 100.277 502.954 100.809 503.644C102.323 503.897 103.825 504.15 105.34 504.403C106.132 501.259 106.935 498.128 107.727 494.984C107.712 495.057 105.22 494.248 104.976 494.204C104.329 494.086 103.747 494.253 103.356 494.635C102.812 495.159 102.644 495.878 102.441 496.511C102.197 497.302 102.038 498.119 101.966 498.928C101.878 499.833 101.887 500.754 102.02 501.679Z" fill="#497441"/>
<path d="M130.997 496.673C136.198 497.586 141.109 499.216 146.177 500.494C148.809 501.16 151.48 501.717 154.22 502.043C154.44 502.074 154.686 502.057 154.907 502.051C156.368 502.045 157.697 501.507 158.892 500.94C160.223 500.316 161.557 499.606 163.133 499.444C163.527 499.406 164.017 499.433 164.206 499.696C164.335 499.884 164.255 500.103 164.176 500.297C164.149 500.358 164.123 500.43 164.096 500.491C164.03 500.649 163.964 500.806 163.898 500.964C163.726 501.389 163.542 501.825 163.37 502.25C163.278 502.468 163.136 502.697 163.19 502.932C163.212 503.019 163.247 503.093 163.269 503.168C163.347 503.44 163.327 503.722 163.319 503.991C163.292 505.316 163.106 506.637 163.006 507.972C162.802 510.728 162.403 513.454 161.723 516.147C161.529 516.915 161.31 517.682 161.067 518.436C160.809 519.263 160.502 520.113 159.846 520.732C158.469 522.042 156.206 521.816 154.276 521.502C153.601 521.47 152.883 521.277 152.211 521.159C151.528 521.041 150.844 520.923 150.16 520.804C148.78 520.555 147.389 520.294 146.01 520.02C140.141 518.829 134.287 517.16 128.639 515.128C127.68 514.781 126.672 514.408 126.044 513.653C125.403 512.91 125.329 511.655 126.144 511.078C126.162 511.704 125.997 512.325 125.662 512.868C127.463 513.792 129.355 514.584 131.3 515.206C138.207 517.422 145.604 518.388 152.757 519.727C154.319 520.018 156.228 520.221 157.267 519.085C157.305 519.05 157.331 519.014 157.369 518.978C157.636 518.642 157.98 518.222 158.065 517.832C158.206 517.222 158.285 516.611 158.401 516.001C158.459 515.695 158.998 512.372 159.06 512.374C153.668 512.486 148.25 512.278 142.878 511.74C147.468 511.715 152.064 511.518 156.628 511.161C157.452 511.099 158.363 511.003 158.905 510.528C159.459 510.053 159.431 509.34 159.278 508.71C159.201 508.401 159.099 508.103 159.034 507.794C158.98 507.547 158.988 507.29 158.921 507.054C158.876 506.906 158.782 506.768 158.676 506.63C158.226 506.064 157.715 505.509 156.825 505.299C156.155 505.132 155.428 505.209 154.727 505.262C146.633 505.896 138.534 504.149 130.681 502.421C129.827 502.236 128.949 502.039 128.312 501.578C127.916 501.296 127.705 500.959 127.507 500.585C127.449 500.485 127.464 500.387 127.479 500.277C127.5 499.995 127.532 499.726 127.553 499.444C127.606 498.894 127.659 498.33 127.712 497.78C127.731 497.547 127.762 497.315 127.916 497.11C128.184 496.762 128.727 496.655 129.184 496.534C129.444 496.455 129.799 496.49 130.068 496.523C130.374 496.569 130.692 496.615 130.997 496.673Z" fill="#497441"/>
<path d="M125.912 513.526C125.932 513.281 125.963 513.036 125.983 512.791C126.105 511.567 126.251 510.332 126.435 509.11C126.467 508.853 126.586 508.549 126.52 508.302C126.453 508.067 126.397 507.869 126.404 507.636C126.412 507.366 126.469 507.11 126.574 506.855C126.601 506.794 126.939 506.141 126.999 506.168C130.849 507.582 134.941 508.647 139.132 509.298C135.328 508.425 131.777 506.897 128.853 504.884C128.192 504.423 127.449 503.811 127.42 503.111C127.413 502.951 127.453 502.83 127.543 502.685C127.775 502.336 127.799 501.919 127.896 501.541C128.385 499.518 128.959 497.509 129.595 495.514C129.635 495.393 128.889 495.31 128.827 495.32C128.557 495.324 128.296 495.415 128.071 495.556C127.634 495.813 127.675 496.514 127.601 496.941C127.366 498.273 127.155 499.617 126.956 500.961C126.583 503.627 126.308 506.319 126.119 509.002C126.026 510.497 125.957 512.017 125.912 513.526Z" fill="#497441"/>
<path d="M164.495 499.865C162 499.558 157.556 502.951 156.803 504.783C156.605 505.268 148.059 504.551 145.353 504.324C138.179 503.721 131.36 501.864 126.386 497.802C127.404 495.315 130.84 493.231 133.319 493.23C137.308 494.894 141.193 496.334 145.183 497.985C151.568 498.712 157.873 498.013 164.326 498.939C164.606 499.426 164.743 499.369 164.495 499.865Z" fill="#95B63F"/>
<path d="M143.431 499.137C139.125 499.072 134.823 498.037 131.243 496.226C130.928 496.07 130.602 495.888 130.438 495.625C130.157 495.188 130.454 494.656 130.954 494.352C131.454 494.047 132.096 493.919 132.713 493.802C136.288 495.38 140.312 497.093 143.431 499.137Z" fill="#497441"/>
<path d="M138.44 509.879C137.434 509.862 136.428 509.857 135.422 509.84C136.014 510.569 136.619 511.287 137.211 512.016C138.837 512.26 140.474 512.492 142.1 512.736C142.825 509.345 143.55 505.966 144.275 502.574C144.261 502.66 141.56 501.832 141.291 501.799C140.595 501.693 139.975 501.883 139.57 502.301C139.014 502.874 138.856 503.655 138.676 504.337C138.442 505.19 138.306 506.07 138.256 506.94C138.203 507.92 138.26 508.904 138.44 509.879Z" fill="#497441"/>
<path d="M106.836 501.096C106.836 501.096 103.554 500.435 101.477 500.104C101.318 500.517 100.859 501.093 100.699 501.506C102.529 501.891 106.189 502.661 106.189 502.661L106.836 501.096Z" fill="#FFB800"/>
<path d="M143.588 509.281C143.588 509.281 140.266 508.718 138.187 508.46C138.052 508.874 137.617 509.462 137.495 509.876C139.339 510.2 143.038 510.861 143.038 510.861L143.588 509.281Z" fill="#FFB800"/>
<path d="M113.69 463.217C112.499 464.901 111.794 466.783 111.639 468.706C119.15 469.97 126.81 471.164 134.321 472.428C143.371 473.957 152.47 475.476 161.709 476.005C162.723 465.256 163.807 454.264 169.63 444.442C162.868 443.593 155.965 444.164 149.207 444.862C141.488 445.655 133.641 446.653 126.835 449.387C120.029 452.134 117.275 458.142 113.69 463.217Z" fill="#497441"/>
<path d="M173.579 444.545C172.568 444.27 171.641 443.666 170.643 443.391C166.821 446.471 165.035 450.457 163.593 454.442C161.936 459.058 160.46 463.753 159.67 468.505C159.582 469.006 159.506 469.507 159.43 469.996C159.414 470.131 159.357 471.234 159.271 471.256C158.864 471.33 158.444 471.404 158.025 471.477C149.489 472.933 139.982 472.765 131.464 471.091C128.963 470.601 126.502 469.964 124.119 469.207C119.461 467.757 115.049 465.835 110.966 463.628C112.071 459.843 113.786 456.161 116 452.654C117.557 450.195 119.465 447.919 121.398 445.606C124.464 441.927 126.604 438.418 131.994 436.255C132.231 436.152 132.479 436.061 132.714 435.982C139.216 436.516 146.002 437.39 151.981 439.407C158.548 438.961 165.006 439.715 171.201 441.505C171.542 441.613 171.819 441.768 172.022 441.959C172.213 442.136 172.367 442.337 172.496 442.549C172.87 443.199 173.081 443.954 173.579 444.545Z" fill="#95B63F"/>
<path d="M173.579 444.545C172.568 444.27 171.641 443.666 170.643 443.391C166.821 446.471 165.035 450.457 163.593 454.442C161.936 459.058 160.46 463.753 159.671 468.505C159.582 469.006 159.506 469.507 159.43 469.996C159.414 470.131 159.357 471.234 159.271 471.256C158.864 471.33 158.444 471.403 158.025 471.477C158.002 471.415 157.967 471.34 157.945 471.254C157.634 470.152 157.818 468.893 157.888 467.778C158.06 465.254 158.551 462.727 159.31 460.27C160.07 457.8 161.099 455.375 162.346 453.006C163.594 450.636 165.073 448.335 166.721 446.112C166.925 445.86 167.117 445.596 167.321 445.332C167.985 444.455 168.698 443.592 169.687 442.909C170.351 442.462 171.159 442.117 172.022 441.971C172.213 442.148 172.367 442.349 172.496 442.562C172.87 443.199 173.081 443.954 173.579 444.545Z" fill="#547D21"/>
<path d="M172.496 442.562C170.088 441.791 167.922 441.593 165.273 441.073C158.414 439.767 151.053 440.079 144.519 441.938C145.551 441.06 146.643 440.208 148.127 439.822C143.488 438.581 138.226 437.629 132.319 436.891C123.686 444.2 116.938 452.914 112.978 461.969C113.281 462.53 113.694 463.082 114.22 463.564C115.247 464.539 116.637 465.268 117.991 465.982C120.046 467.049 122.076 468.128 124.119 469.182C119.461 467.732 115.05 465.81 110.966 463.604C112.071 459.818 113.787 456.137 116.001 452.629C117.558 450.17 119.466 447.894 121.399 445.581C124.465 441.902 126.605 438.393 131.995 436.231C132.231 436.127 132.48 436.036 132.715 435.957C139.217 436.492 146.003 437.366 151.982 439.382C158.549 438.936 165.007 439.69 171.202 441.48C171.858 441.708 172.215 442.099 172.496 442.562Z" fill="#497441"/>
<path d="M140.088 472.915C138.143 472.269 135.807 472.004 133.654 472.186C133.764 472.177 133.841 470.387 133.871 470.216C133.964 469.544 134.094 468.872 134.237 468.201C134.521 466.872 134.904 465.545 135.384 464.233C136.332 461.609 137.66 459.033 139.329 456.529C139.739 455.915 140.175 455.301 140.634 454.689C140.954 454.269 141.26 453.443 142.004 453.195C142.425 453.06 143.321 453.049 143.607 453.34C143.81 453.542 143.568 453.842 143.501 454.049C143.38 454.389 143.26 454.729 143.152 455.07C142.236 457.817 141.517 460.595 141.018 463.392C140.506 466.2 140.214 469.027 140.119 471.86C140.096 472.216 140.098 472.572 140.088 472.915Z" fill="#497441"/>
<path d="M144.525 450.936C141.225 459.261 138.927 467.308 135.627 475.632C131.783 475.299 128.364 474.683 124.757 473.816C128.294 465.793 132.783 457.933 138.223 450.297C140.464 450.043 142.369 450.382 144.525 450.936Z" fill="#547D21"/>
<path d="M136.917 478.077C132.057 477.664 126.911 476.961 122.159 476.196C121.884 475.107 121.986 474.14 122.556 473.126C128.033 473.434 133.486 474.146 138.719 475.245C137.997 476.427 137.615 476.894 136.917 478.077Z" fill="#FFB800"/>
<path d="M214.874 325.794C190.967 321.558 197.232 330.163 165.423 319.582C167.863 326.785 170.967 340.626 170.802 349.189C170.666 355.913 170.248 362.628 169.244 369.276C169.031 370.682 168.805 372.087 168.556 373.479C168.146 375.75 164.156 396.699 162.28 396.644C158.467 396.52 155.995 394.606 152.649 392.753C152.732 383.646 152.127 374.557 150.807 365.581C148.557 350.207 134.264 309.424 133.132 305.328C131.068 297.877 142.503 285.016 176.44 285.802C189.601 286.102 205.688 287.052 220.098 289.524C224.194 295.07 225.936 302.205 225.453 309.077C224.945 315.937 219.718 320.891 214.874 325.794Z" fill="#F4A071"/>
<path d="M222.193 329.004C212.137 330.403 203.105 330.777 193.292 328.071C190.662 329.872 188.065 330.962 184.996 331.805C181.876 313.471 184.708 295.165 191.657 277.924C191.902 277.932 192.135 277.938 192.38 277.946C211.301 278.525 230.173 280.355 248.861 283.407C250.303 283.645 251.756 283.897 253.209 284.148C257.331 293.439 254.879 307.165 248.498 315.081C242.129 322.984 232.261 327.593 222.193 329.004Z" fill="#E89C31"/>
<path d="M169.244 369.276C169.031 370.682 168.805 372.087 168.556 373.479C168.146 375.751 164.156 396.699 162.28 396.644C158.467 396.52 155.995 394.606 152.649 392.753C152.732 383.646 152.127 374.557 150.807 365.581C151.533 365.529 152.327 365.638 153.022 365.793C158.413 366.946 163.828 368.111 169.244 369.276Z" fill="#FBF4DA"/>
<path d="M172.924 384.828C172.427 385.464 172.583 386.414 173.055 387.066C173.526 387.73 174.238 388.144 174.925 388.569C176.227 389.381 177.465 390.276 178.639 391.244C181.132 393.293 183.333 395.678 185.182 398.322C186.843 400.691 187.134 401.252 185.928 403.856C184.775 406.339 183.537 408.795 181.841 410.967C180.413 412.803 178.647 414.433 176.589 415.539C174.494 416.669 173.141 416.371 170.941 416.479C166.688 416.698 162.099 419.153 158.939 421.848C156.762 423.699 154.941 425.953 152.716 427.742C147.902 431.615 141.218 430.609 135.398 430.266C128.745 429.875 122.101 428.772 115.7 426.89C114.251 423.975 113.886 420.539 114.677 417.395C114.98 417.109 115.295 416.849 115.633 416.601C117.717 415.017 120.262 414.048 122.854 413.547C122.854 413.547 133.364 414.665 138.501 414.018C141.008 408.862 144.782 404.492 148.615 400.148C149 398.33 148.493 396.363 147.32 394.942C146.146 393.52 144.305 392.693 142.464 392.712C142.703 391.651 142.968 390.579 143.475 389.612C143.982 388.632 144.769 387.771 145.797 387.433C146.64 387.139 147.559 387.215 148.439 387.326C152.058 387.813 156.456 390.999 160.06 389.901C164.122 388.67 165.712 382.161 170.099 382.376C171.434 382.464 172.779 383.473 172.924 384.828Z" fill="#95B63F"/>
<path d="M178.55 391.352C176.013 394.15 174.122 397.544 173.095 401.184C172.208 404.24 171.723 407.773 169.153 409.637C167.773 410.64 166.009 410.945 164.466 411.673C161.082 413.219 158.876 416.481 155.996 418.839C150.112 423.626 141.958 424.198 134.359 424.257C132.444 424.275 128.726 423.417 128.726 423.417C128.726 423.417 125.613 420.735 125.975 418.843C122.498 417.293 119.219 416.963 115.609 416.612C115.27 416.86 114.955 417.121 114.652 417.407C113.86 420.563 114.238 423.999 115.675 426.901C122.076 428.783 128.72 429.886 135.373 430.278C141.193 430.608 147.877 431.626 152.691 427.753C154.916 425.965 156.737 423.71 158.915 421.859C162.074 419.153 166.663 416.697 170.916 416.49C173.116 416.383 174.469 416.68 176.564 415.551C178.622 414.433 180.388 412.815 181.816 410.978C183.512 408.806 184.75 406.363 185.903 403.868C187.108 401.276 186.818 400.703 185.157 398.334C183.308 395.689 181.107 393.305 178.614 391.255C178.601 391.292 178.576 391.315 178.55 391.352ZM143.863 405.262C143.514 405.019 143.13 404.738 143.056 404.318C143.015 404.035 143.121 403.768 143.227 403.501C143.992 401.694 144.939 399.966 146.03 398.329C146.325 397.883 155.158 400.941 155.142 401.088C154.78 404.208 152.923 408.118 150.459 410.096C148.235 408.938 146.017 406.713 143.863 405.262Z" fill="#516875"/>
<path d="M209.974 307.482C202.83 307.923 205.455 307.129 198.712 304.77C198.943 302.752 199.174 300.733 199.418 298.69C196.834 301.02 194.262 303.351 191.69 305.682C190.667 298.286 190.679 290.761 191.681 283.376C191.885 281.847 192.077 279.913 192.381 277.934C211.301 278.513 210.8 277.626 229.488 280.679C218.279 286.672 212.694 295.065 209.974 307.482Z" fill="#FFC224"/>
<path d="M351.657 492.964C348.313 493.996 344.471 494.006 343.266 490.73C340.326 482.59 337.025 474.6 333.388 466.784C325.953 450.779 317.074 435.481 306.795 421.038C297.419 419.744 293.426 414.471 287.622 408.151C282.044 402.058 276.255 396.462 271.321 389.774C261.406 376.324 253.937 361.055 249.525 344.917C260.341 339.796 272.288 335.85 284.25 336.004C291.786 362.385 304.415 387.099 320.919 408.992C335.792 414.522 344.37 430.45 347.4 446.007C348.445 451.365 348.988 456.733 349.346 462.108C350.064 472.368 350.081 482.668 351.657 492.964Z" fill="#F4A071"/>
<path d="M351.657 492.964C348.313 493.995 344.471 494.005 343.266 490.729C340.326 482.59 337.025 474.6 333.388 466.784C335.372 466.118 337.784 465.882 340.1 465.176C340.806 464.951 345.736 463.426 349.358 462.108C350.064 472.367 350.081 482.667 351.657 492.964Z" fill="#FBF4DA"/>
<path d="M297.688 333.942C294.937 337.36 291.73 340.434 288.203 343.105C275.962 352.444 259.768 357.236 244.499 357.291C226.287 335.864 216.314 307.656 216.953 279.55C216.972 278.925 216.978 278.286 217.008 277.673C233.155 278.282 251.256 274.135 266.121 267.795C274.428 274.164 283.736 281.115 286.941 291.091C290.619 302.542 292.127 315.157 288.684 326.681C291.8 328.823 294.573 331.776 297.688 333.942Z" fill="#FFC224"/>
<path d="M363.392 489.122C362.682 489.494 362.421 490.432 362.582 491.21C362.731 492 363.202 492.677 363.661 493.353C364.495 494.63 365.254 495.965 365.913 497.335C367.325 500.237 368.315 503.322 368.897 506.494C369.415 509.345 369.445 509.972 367.268 511.836C365.178 513.616 363.029 515.321 360.587 516.587C358.518 517.656 356.238 518.399 353.901 518.552C351.528 518.703 350.424 517.861 348.374 517.04C344.419 515.463 339.23 515.777 335.233 516.912C332.473 517.691 329.882 518.977 327.113 519.669C321.128 521.176 315.469 517.462 310.32 514.733C304.435 511.602 298.863 507.818 293.825 503.435C293.724 500.191 294.826 496.909 296.852 494.378C297.248 494.254 297.644 494.143 298.052 494.057C300.609 493.493 303.316 493.671 305.887 494.299C305.887 494.299 314.971 499.709 319.908 501.265C324.347 497.627 329.596 495.239 334.894 492.878C335.993 491.388 336.371 489.398 335.895 487.616C335.42 485.835 334.102 484.311 332.418 483.562C333.081 482.697 333.769 481.833 334.623 481.171C335.49 480.497 336.571 480.05 337.648 480.155C338.541 480.242 339.35 480.696 340.098 481.16C343.182 483.116 345.842 487.847 349.57 488.361C353.775 488.938 357.93 483.696 361.835 485.725C363.032 486.349 363.823 487.833 363.392 489.122Z" fill="#95B63F"/>
<path d="M365.788 497.405C362.308 498.887 359.172 501.189 356.719 504.063C354.636 506.469 352.719 509.482 349.608 510.103C347.941 510.435 346.212 509.979 344.493 509.99C340.775 509.979 337.401 512.029 333.802 512.954C326.457 514.838 318.809 511.962 311.88 508.838C310.136 508.05 307.111 505.727 307.111 505.727C307.111 505.727 305.404 501.994 306.53 500.419C304.012 497.558 301.177 495.879 298.039 494.057C297.632 494.143 297.236 494.254 296.84 494.377C294.802 496.908 293.711 500.19 293.813 503.434C298.851 507.817 304.423 511.602 310.308 514.733C315.457 517.462 321.116 521.176 327.101 519.669C329.87 518.977 332.461 517.69 335.22 516.912C339.218 515.777 344.419 515.463 348.361 517.039C350.399 517.86 351.504 518.703 353.889 518.552C356.226 518.399 358.505 517.668 360.574 516.587C363.017 515.321 365.166 513.616 367.255 511.836C369.445 509.985 369.402 509.345 368.885 506.494C368.303 503.322 367.301 500.224 365.901 497.335C365.863 497.358 365.826 497.382 365.788 497.405ZM328.458 495.537C328.236 495.175 328.003 494.751 328.125 494.349C328.207 494.082 328.421 493.867 328.623 493.676C330.074 492.356 331.655 491.175 333.329 490.156C333.779 489.875 340.537 496.333 340.459 496.466C338.834 499.144 335.5 501.931 332.434 502.688C330.896 500.716 329.805 497.762 328.458 495.537Z" fill="#516875"/>
<path d="M297.688 333.942C294.937 337.36 291.73 340.434 288.203 343.105C286.264 340.138 284.339 337.16 282.401 334.194C273.93 338.034 264.826 340.455 255.56 341.276C260.113 340.87 267.91 336.556 271.457 333.64C275.82 330.073 278.105 324.149 278.463 318.635C278.898 311.737 276.717 304.933 273.933 298.579C271.148 292.249 267.743 286.17 265.505 279.611C265.946 280.9 259.323 281.995 252.292 282.759C245.434 283.503 238.169 283.916 236.735 283.85C230.216 283.474 223.106 282.37 216.954 279.526C216.972 278.9 216.979 278.262 217.009 277.649C233.155 278.257 251.257 274.111 266.122 267.77C274.428 274.139 283.736 281.09 286.942 291.067C290.62 302.517 292.128 315.132 288.685 326.657C291.8 328.823 294.573 331.776 297.688 333.942Z" fill="#E89C31"/>
<path d="M372.424 240.442C367.12 253.507 360.687 266.11 353.23 278.082C349.778 283.628 346.113 288.934 343.049 294.626C341.505 297.503 339.376 300.19 337.23 302.631C336.595 303.362 331.55 309.254 330.763 308.899C329.407 308.27 329.037 307.044 328.749 305.587C325.309 304.025 323.101 302.303 320.417 299.659C317.295 301.077 314.409 301.152 310.982 301.224C309.512 300.297 308.375 298.459 308.217 296.736C310.978 292.999 313.97 288.471 316.73 284.746C315.899 281.284 315.965 277.775 315.578 274.228C318.133 272.057 321.028 270.042 324.234 269.093C328.762 272.479 332.433 275.791 338.367 276.431C343.395 276.971 345.19 274.79 347.141 270.612C349.13 266.385 350.1 261.761 351.202 257.252C352.054 253.729 353.017 250.197 354.573 246.916C355.148 245.717 355.709 244.175 356.478 243.08C356.862 242.527 359.094 240.075 359.718 240.131C351.635 239.55 342.501 236.716 335.412 232.765C332.587 231.184 329.878 229.386 327.334 227.396C326.278 226.567 320.312 222.427 320.449 221.106C315.807 216.17 319.93 208.667 323.896 203.173C343.383 209.563 360.143 223.976 372.424 240.442Z" fill="#F4A071"/>
<path d="M213.519 195.322C206.509 191.63 200.903 185.647 196.532 179.025C192.172 172.403 189.294 168.452 186.913 160.893C185.722 157.139 180.752 153.789 181.014 149.856C182.088 133.732 188.622 118.923 191.542 103.037C193.002 95.1129 194.658 86.7646 199.99 80.7338C200.954 79.6449 201.35 79.5461 202.517 78.6841C204.273 77.3975 205.736 78.5452 207.749 79.3776C208.018 80.2571 207.858 81.1117 208.127 81.9912C211.397 83.4865 214.659 83.9995 218.246 83.8837C219.84 80.5668 223.227 77.6585 226.699 76.459C228.424 77.0742 229.6 77.5507 231.053 78.6612C230.514 84.0592 227.918 88.0342 226.032 92.9139C224.612 96.5673 228.329 100.408 226.795 104.586C225.835 107.173 223.489 108.933 221.257 110.55C220.128 111.363 218.987 112.189 217.684 112.679C214.507 113.863 211.188 111.531 208.355 110.22C205.485 108.896 202.242 107.721 199.209 108.614C193.769 114.593 194.622 123.174 195.811 131.164C197.001 139.154 199.493 147.096 198.766 155.14C209.992 166.996 215.396 174.815 221.929 181.819C222.964 182.93 224.045 184.165 224.197 185.667C224.35 187.157 223.572 188.57 222.666 189.759C220.358 192.723 217.226 194.473 213.519 195.322Z" fill="#F4A071"/>
<path d="M202.527 83.3618C202.582 82.7373 202.719 82.238 202.997 81.9761C201.746 83.2038 201.634 84.5263 201.268 86.1115C200.902 87.7089 200.267 89.2617 199.877 90.8707C199.093 94.1622 198.614 97.5241 198.478 100.908C199.632 99.6286 200.775 98.3362 201.929 97.0565C205.231 97.8654 208.238 99.5616 211.485 100.578C214.72 101.593 218.493 101.851 221.31 99.9571C217.953 99.3063 214.642 98.3867 211.424 97.2244C210.707 96.9701 209.908 96.603 209.683 95.8844C209.527 95.3642 209.702 94.8169 209.889 94.3068C210.384 92.9096 210.879 91.5246 211.374 90.1274C210.048 91.4143 208.721 92.7012 207.395 93.9882C205.315 93.3502 203.876 91.3562 203.287 89.2642C203.008 88.2985 202.361 85.2597 202.527 83.3618Z" fill="#834724"/>
<path d="M208.038 90.0296C208.022 90.1642 208.006 90.2988 207.99 90.4333C207.893 91.2162 207.307 92.7826 207.47 93.4994C207.7 94.4636 208.589 94.2687 209.002 93.5688C209.441 92.8329 209.232 91.6114 209.206 90.8004C209.151 88.5155 208.423 86.1249 208.476 83.8799C208.428 85.9409 208.282 87.9867 208.038 90.0296Z" fill="#834724"/>
<path d="M213.715 92.3197C215.099 92.8513 216.274 93.8064 217.657 94.338C219.272 94.9501 221.113 94.9304 222.715 94.2899C219.676 93.722 216.672 92.7869 214.006 91.2111C213.04 90.6427 211.993 89.9613 210.894 90.1869C209.548 90.4666 208.878 91.957 208.423 93.2449C208.356 93.4271 210.65 92.2053 210.774 92.1599C211.705 91.8311 212.805 91.9739 213.715 92.3197Z" fill="#834724"/>
<path d="M216.667 106.327C216.215 105.442 216.475 103.682 216.613 102.741C216.735 101.934 217.366 100.099 215.81 100.409C213.489 100.869 216.157 105.33 216.667 106.327Z" fill="#834724"/>
<path d="M213.512 90.8892C214.079 91.225 214.646 91.5608 215.212 91.9088C215.2 91.9085 215.321 88.6343 215.27 88.2768C215.125 87.3519 214.903 86.1423 214.336 85.3891C214.146 85.9974 214.284 86.7257 214.265 87.3758C214.205 88.5771 213.95 89.7604 213.512 90.8892Z" fill="#834724"/>
<path d="M220.81 84.7691C221.706 83.9238 222.615 83.0665 223.511 82.2212C223.235 83.2443 220.095 94.4953 219.5 94.2692C219.197 94.1498 218.881 94.0423 218.578 93.9229C219.006 92.7079 219.702 91.5866 220.057 90.3571C220.317 89.4195 220.518 88.4556 220.644 87.4895C220.681 87.0609 220.557 85.0072 220.81 84.7691Z" fill="#834724"/>
<path d="M211.325 199.395C209.87 190.832 212.496 181.665 218.27 175.181C232.443 181.563 248.455 185.494 264.008 185.79C261.49 195.93 251.886 203.272 241.638 205.341C231.391 207.397 220.938 203.494 211.325 199.395Z" fill="#547D21"/>
<path d="M271.565 266.31C269.644 267.383 267.685 268.479 265.739 269.551C266.932 271.551 268.114 273.525 269.307 275.512C261.359 273.658 252.978 273.621 244.998 275.376C242.565 275.894 240.176 276.585 237.856 277.438C233.737 278.95 229.75 280.957 225.423 281.603C221.084 282.249 217.868 280.608 215.271 277.083C217.05 276.276 218.52 275.103 219.922 273.733C220.172 257.695 223.279 241.3 228.157 226.036C224.594 221.967 223.455 216.458 224.127 211.101C229.597 207.051 255.709 190.507 264.679 180.495C272.451 177.887 281.815 175.829 289.94 177.479C290.77 177.626 291.587 177.834 292.377 178.103C294.59 178.781 296.699 179.715 298.727 180.867C301.022 182.125 303.136 183.684 305.06 185.459C305.997 188.666 306.786 191.894 307.416 195.128C308.921 202.796 309.59 210.562 309.652 218.494C299.203 234.956 278.425 248.759 267.283 262.084C268.665 263.094 270.196 265.3 271.565 266.31Z" fill="#72A631"/>
<path d="M271.565 266.309C269.644 267.382 267.685 268.478 265.738 269.551C266.932 271.55 268.114 273.524 269.307 275.511C261.359 273.657 252.978 273.621 244.998 275.375C243.505 274.386 242.025 273.361 240.582 272.349C245.537 269.953 250.467 267.581 255.41 265.185C248.602 264.212 241.643 264.216 234.839 265.195C240.561 263.006 246.284 260.805 252.006 258.615C248.368 257.969 244.717 257.309 241.079 256.65C250.209 256.279 258.485 248.604 259.537 239.526C259.639 238.559 250.763 236.126 249.877 235.781C245.776 234.163 241.77 232.229 237.943 230.054C244.032 231.288 250.13 232.597 256.335 232.791C262.551 232.985 268.925 232.006 274.306 228.923C278.051 226.774 280.787 223.871 283.358 220.718C285.039 218.655 286.661 216.481 288.429 214.384C292.676 209.328 298.387 205.862 302.319 200.269C304.073 197.779 305.502 196.36 307.428 195.128C308.934 202.795 309.602 210.561 309.664 218.493C299.215 234.956 278.437 248.759 267.295 262.083C268.665 263.093 270.196 265.299 271.565 266.309Z" fill="#547D21"/>
<path d="M298.727 180.854L283.797 203.667L271.18 200.302L253.204 202.672C253.204 202.672 260.188 195.548 266.156 190.42C270.965 186.276 284.765 179.831 289.952 177.478C290.783 177.625 291.599 177.834 292.389 178.09C294.603 178.781 296.711 179.702 298.727 180.854Z" fill="#547D21"/>
<path d="M257.906 178.749C253.89 182.192 249.443 187.377 244.83 193.159L258.361 192.978C259.498 187.684 259.74 182.768 257.906 178.749Z" fill="#A16747"/>
<path d="M257.906 178.749C259.034 183.828 256.631 197.543 253.291 202.65L292.113 176.634L292.219 175.115C279.103 172.459 267.387 173.098 257.906 178.749Z" fill="#547D21"/>
<path d="M290.656 161.848C289.203 167.464 288.221 172.899 287.195 178.601C280.397 183.975 273.539 188.93 265.977 193.165C269.311 184.092 272.327 174.998 273.074 165.838C273.344 162.507 278.138 161.812 281.356 160.888C284.575 159.963 287.51 160.724 290.656 161.848Z" fill="url(#paint1_linear_3864_2)"/>
<path d="M265.317 101.762C263.691 101.972 262.192 102.886 261.331 104.186C260.471 105.487 260.274 107.163 260.808 108.627C259.754 107.762 258.599 106.967 257.505 106.161C256.412 105.356 255.006 104.762 253.648 105.017C251.883 105.358 250.753 107.056 250.582 108.733C250.41 110.409 250.987 112.084 251.566 113.684C249.077 111.917 245.976 110.525 242.965 109.823C239.954 109.121 236.584 109.354 234.033 110.973C230.794 113.026 229.361 117.121 230.299 120.709C231.237 124.296 234.304 127.259 237.983 128.619C234.947 128.358 231.702 128.95 229.236 130.597C228.71 130.949 228.166 131.498 228.395 132.07C228.554 132.479 229.052 132.666 229.49 132.789C231.267 133.308 233.124 133.595 234.976 133.65C231.243 134.142 228.292 138.082 228.017 141.609C227.742 145.137 229.688 148.643 232.553 150.986C235.417 153.341 239.085 154.664 242.795 155.399C246.236 156.077 249.875 156.294 253.194 155.286C257.305 154.044 260.534 151.07 263.168 147.882C269.657 140.055 273.514 130.311 274.063 120.359C274.25 116.903 274.047 113.373 272.843 110.085C271.675 106.785 268.544 103.489 265.317 101.762Z" fill="#5E3824"/>
<path d="M310.65 146.733C305.517 153.972 298.357 159.544 290.542 163.649C282.813 167.719 274.361 170.908 265.544 168.563C256.556 166.188 251.881 159.889 247.538 152.273C244.655 147.204 243.398 141.103 244.694 135.408C246.23 128.64 251.054 123.171 255.84 118.18C257.03 116.951 258.207 115.721 259.361 114.466L259.373 114.466C260.184 113.594 260.984 112.696 261.771 111.786C262.291 111.212 262.788 110.613 263.284 110.026C265.294 107.593 266.898 104.804 269.075 102.536C273.088 98.369 278.708 95.8944 284.388 95.1279C293.185 93.974 303.237 95.6681 309.545 102.372C320.259 113.697 319.341 134.54 310.65 146.733Z" fill="#F4A071"/>
<path d="M273.002 131.02C273.269 132.82 272.111 134.628 270.503 135.464C268.895 136.301 266.944 136.293 265.204 135.788C263.877 135.405 262.596 134.729 261.681 133.696C260.767 132.662 260.244 131.223 260.48 129.867C260.984 126.911 264.642 126.908 266.618 125.235C266.132 126.313 265.035 126.895 264.07 127.567C263.106 128.238 262.122 129.142 262.05 130.319C261.996 131.324 262.632 132.238 263.411 132.875C264.837 134.059 266.811 134.558 268.638 134.194C270.453 133.83 272.132 132.664 273.002 131.02Z" fill="#65371D"/>
<path d="M294.054 127.144C293.721 125.109 293.043 123.113 292.09 121.28C291.16 119.51 289.885 117.815 288.082 116.94C285.783 115.817 282.786 116.306 280.953 118.106C278.729 120.299 278.352 124.376 280.706 126.544C280.992 126.823 281.304 127.077 281.628 127.332C284.291 129.436 287.617 130.7 291.012 130.848C291.294 130.857 291.564 130.865 291.835 130.836C292.45 130.792 293.032 130.625 293.461 130.22C294.243 129.495 294.219 128.217 294.054 127.144ZM267.085 119.332C266.67 120.952 265.62 122.444 264.181 123.371C263.118 124.052 260.401 124.611 258.358 124.379C256.523 124.178 255.21 123.33 256.152 121.356C257.409 118.668 259.767 116.515 262.48 115.244C264.633 114.239 266.785 114.106 267.242 116.918C267.366 117.72 267.305 118.553 267.085 119.332Z" fill="#FBF3DD"/>
<path d="M291.7 124.129C290.975 122.475 289.47 121.081 287.671 120.881C285.886 120.669 284.089 121.659 283.064 123.127C282.27 124.258 281.622 125.871 281.615 127.344C284.278 129.448 287.604 130.712 291 130.86C291.282 130.869 291.551 130.876 291.822 130.848C292.056 130.425 292.143 129.949 292.219 129.472C292.468 127.675 292.437 125.796 291.7 124.129ZM267.085 119.332C266.67 120.952 265.62 122.444 264.181 123.371C263.118 124.052 260.401 124.611 258.358 124.379C258.463 122.909 259.649 120.955 260.248 120.224C260.667 119.721 261.373 119.103 262.186 118.574C264.037 117.389 266.413 116.734 267.064 119.221C267.087 119.271 267.087 119.295 267.085 119.332Z" fill="#442D1E"/>
<path d="M271.055 108.253C271.096 107.714 271.236 107.116 271.326 106.554C267.982 108.015 265.139 110.35 261.796 111.787C261.008 112.697 260.209 113.582 259.398 114.466C259.631 114.473 259.864 114.468 260.063 114.375C263.333 112.924 266.628 111.474 270.081 110.52C270.377 110.442 270.675 110.353 270.996 110.276C270.967 109.6 270.999 108.926 271.055 108.253ZM299.758 120.535C299.604 120.764 299.262 120.717 298.995 120.636C298.533 120.475 298.122 120.254 297.712 119.996C296.605 119.252 295.704 118.182 294.723 117.306C293.216 115.949 291.658 114.663 289.961 113.545C288.047 112.249 285.98 111.17 283.804 110.455C284.679 109.487 285.542 108.53 286.417 107.561C287.083 107.888 287.722 108.262 288.349 108.661C290.698 110.166 292.792 112.008 294.746 113.992C296.416 115.662 298.92 117.736 299.75 119.995C299.806 120.168 299.861 120.379 299.758 120.535Z" fill="#5E3824"/>
<path d="M283.978 144.293C281.157 146.347 278.323 148.4 275.197 149.941C272.071 151.482 268.617 152.498 265.137 152.322C261.656 152.146 258.152 150.669 255.986 147.941C254.259 145.755 253.481 142.958 253.17 140.199C257.428 140.201 261.554 140.972 265.767 141.685C271.715 142.682 278.043 143.285 283.978 144.293Z" fill="#FBF3DD"/>
<path d="M253.39 140.647C253.921 140.957 254.101 141.908 254.368 142.444C254.854 143.44 255.403 144.414 256.051 145.329C257.112 146.808 258.51 148.114 260.221 148.765C261.787 149.364 263.517 149.39 265.201 149.304C271.703 148.967 278.079 147.092 283.966 144.281C284.321 144.316 284.591 144.324 284.946 144.359C280.854 148.302 275.726 151.147 270.414 153.177C267.981 154.1 265.368 154.907 262.804 154.451C259.751 153.908 257.272 151.809 255.616 149.269C254.077 146.916 252.584 143.435 252.84 140.557C253.062 140.515 253.245 140.557 253.39 140.647Z" fill="#DE7743"/>
<path d="M286.387 144.609C282.86 144.334 279.269 144.573 275.741 144.359C271 144.06 266.28 143.455 261.619 142.521C259.765 142.147 257.922 141.786 256.078 141.462C254.063 141.109 252.067 140.535 250.189 139.731C250.894 138.708 251.863 137.889 252.983 137.357C252.48 137.76 252.126 138.523 251.683 139.001C251.556 139.132 253.505 139.644 253.689 139.649C254.364 139.657 255.091 139.555 255.746 139.402C256.994 139.108 258.277 138.875 259.558 138.729C262.157 138.424 264.806 138.465 267.383 138.921C270.63 139.507 273.686 140.788 276.744 141.97C279.62 143.085 282.849 144.702 285.937 143.639C285.8 142.849 285.664 142.047 285.54 141.258C287.323 141.998 288.841 143.356 289.774 145.052C288.651 144.835 287.526 144.692 286.387 144.609Z" fill="#DE7743"/>
<path d="M320.408 116.562C314.123 111.16 306.067 107.99 297.868 106.301C289.67 104.612 281.26 104.304 272.886 104.01C271.672 103.962 270.375 103.838 269.148 103.802C270.009 95.3936 272.218 86.5828 275.273 78.6807C284.616 76.4748 294.785 77.092 303.847 80.2794C312.91 83.4667 321.114 88.7035 328.51 94.7392C327.07 102.001 324.348 110.269 320.408 116.562Z" fill="#547D21"/>
<path d="M243.359 86.7553C243.359 86.7553 258.603 79.1859 277.777 80.7669C296.951 82.3478 300.652 85.4639 300.652 85.4639L311.849 109.202L311.247 110.449L243.359 86.7553Z" fill="#72A631"/>
<path d="M311.26 110.438C297.103 106.021 279.332 104.321 267.498 105.251C258.07 101.12 249.692 94.7121 243.346 86.7554C261.223 80.6626 281.279 80.5999 299.214 86.7603C301.971 95.2992 306.247 103.514 311.26 110.438Z" fill="#547D21"/>
<path d="M311.763 110.857C311.292 113.127 312.029 115.616 313.674 117.26C312.358 116.951 310.751 118.181 309.885 119.236C308.905 120.435 308.782 122.113 308.958 123.653C309.2 125.869 309.959 128.028 311.156 129.904C311.918 131.105 313.05 132.292 314.474 132.272C313.817 132.474 312.385 132.346 311.695 132.437C311.018 132.527 310.313 132.691 309.761 133.104C309.209 133.518 308.82 134.218 308.972 134.898C309.124 135.565 309.932 136.068 310.542 135.766C306.126 136.938 301.997 139.628 299.612 143.524C297.228 147.419 297.093 152.853 300.022 156.352C299.682 159.558 299.845 163.221 301.858 165.748C303.87 168.274 307.325 169.726 310.443 168.884C314.067 167.91 316.295 164.366 318.157 161.119C318.075 162.258 317.996 163.68 318.432 164.736C318.867 165.792 319.971 166.659 321.094 166.434C322.119 166.219 322.75 165.218 323.267 164.313C326.393 169.474 333.512 172.384 339.362 170.861C341.576 170.288 343.735 169.074 344.837 167.069C345.732 165.426 345.803 163.427 345.39 161.598C344.977 159.769 344.106 158.074 343.209 156.427C346.373 159.049 350.504 160.066 354.539 159.312C356.514 158.941 358.541 158.03 359.537 156.279C360.495 154.601 360.288 152.447 359.48 150.692C358.361 148.253 356.206 146.422 353.824 145.186C351.442 143.95 348.824 143.26 346.23 142.582C348.347 141.11 349.567 139.697 350.641 137.359C351.704 135.009 351.765 132.101 350.318 129.96C348.836 127.756 345.97 126.726 343.325 126.956C340.667 127.185 338.223 128.5 336.137 130.158C338.642 128.439 338.867 124.959 338.303 121.984C337.74 119.009 335.299 116.458 332.348 115.782C328.386 114.868 324.406 117.084 321.073 119.429C321.29 117.054 319.789 115.07 318.259 113.245C316.742 111.421 314.138 111.074 311.763 110.857Z" fill="#5E3824"/>
<path d="M296.194 178.521C293.629 179.772 292.095 180.574 289.531 181.824C285.205 188.302 280.798 195.011 276.473 201.476C274.304 198.417 271.835 195.57 269.666 192.512C263.74 195.787 257.63 199.058 252.505 203.499C263.348 191.172 277.037 181.385 292.195 175.102C294.204 176.044 294.72 176.882 296.194 178.521Z" fill="#72A631"/>
<path d="M338.295 203.104C336.761 214.389 331.54 224.585 322.963 232.08C321.728 233.161 308.429 221.698 307.005 220.441C302.663 216.557 297.35 211.921 294.305 206.946C290.58 200.858 291.22 187.84 299.22 185.386C303.419 184.097 307.642 186.971 311.2 189.542C319.085 195.212 329.441 199.075 338.295 203.104Z" fill="#72A631"/>
<path d="M304.969 190.232C302.045 192.012 299.683 194.705 298.291 197.831C302.491 200.667 307.796 202.235 312.812 201.547C312.136 197.39 308.42 192.665 304.969 190.232Z" fill="#FFC224"/>
<defs>
<linearGradient id="paint0_linear_3864_2" x1="123.944" y1="386.839" x2="125.452" y2="425.385" gradientUnits="userSpaceOnUse">
<stop offset="0.00558659" stop-color="#D14B28"/>
<stop offset="0.9944" stop-color="#76132E"/>
</linearGradient>
<linearGradient id="paint1_linear_3864_2" x1="275.391" y1="182.918" x2="284.623" y2="161.68" gradientUnits="userSpaceOnUse">
<stop stop-color="#A16747"/>
<stop offset="1" stop-color="#844F32"/>
</linearGradient>
</defs>
</svg>
