<svg width="271" height="232" viewBox="0 0 271 232" fill="none" xmlns="http://www.w3.org/2000/svg">
<g filter="url(#filter0_dddd_3952_25)">
<circle cx="193.092" cy="55.8048" r="8.99108" transform="rotate(-180 193.092 55.8048)" fill="#72A631"/>
</g>
<path d="M75.428 31.894L77.7066 28.4808L78.1224 28.7584L79.2617 27.0518C79.6682 26.4429 80.1042 25.8631 80.5668 25.3135L80.1842 24.9915C81.1544 23.8387 82.2387 22.8147 83.4112 21.9279L83.7128 22.3267C84.876 21.4468 86.1284 20.7055 87.4434 20.1112L87.2375 19.6556C88.5931 19.0429 90.0135 18.5828 91.4709 18.2841L91.5713 18.7739C92.9849 18.4842 94.4341 18.3504 95.8923 18.3809L95.9027 17.881C97.3725 17.9118 98.8513 18.1055 100.313 18.4704L100.192 18.9555C100.889 19.1295 101.582 19.3435 102.269 19.5984L104.098 20.2777L104.272 19.8089L107.93 21.1675L107.756 21.6363L111.414 22.9948L111.589 22.5261L115.247 23.8847L115.073 24.3534L118.731 25.712L118.905 25.2433L122.564 26.6019L122.39 27.0706L126.048 28.4292L126.222 27.9605L129.88 29.3191L129.706 29.7878L133.365 31.1464L133.539 30.6777L137.197 32.0362L137.023 32.505L140.681 33.8636L140.855 33.3948L144.514 34.7534L144.34 35.2221L147.998 36.5807L148.172 36.112L151.83 37.4706L151.656 37.9393L155.315 39.2979L155.489 38.8292L159.147 40.1878L158.973 40.6565L162.631 42.0151L162.806 41.5464L166.464 42.905L166.29 43.3737L169.948 44.7323L170.122 44.2636L173.781 45.6221L173.607 46.0909L177.265 47.4495L177.439 46.9807L181.097 48.3393L180.923 48.808L182.752 49.4873C183.407 49.7303 184.041 50.0056 184.656 50.311L184.878 49.8633C186.164 50.5026 187.361 51.2706 188.457 52.1476L188.145 52.5381C189.23 53.4069 190.215 54.3854 191.084 55.4533L191.472 55.1377C192.368 56.2383 193.144 57.4315 193.788 58.6961L193.343 58.923C193.968 60.15 194.464 61.446 194.819 62.7906L195.303 62.6629C195.661 64.0202 195.879 65.4258 195.944 66.86L195.444 66.8824C195.475 67.5676 195.47 68.2596 195.428 68.9561L195.302 71.0141L195.801 71.0446L195.55 75.1607L195.05 75.1303L194.799 79.2464L195.298 79.2769L195.047 83.393L194.548 83.3625L194.296 87.4786L194.795 87.5091L194.544 91.6252L194.045 91.5947L193.794 95.7108L194.293 95.7413L194.041 99.8574L193.542 99.827L193.291 103.943L193.79 103.974L193.539 108.09L193.04 108.059L192.788 112.175L193.287 112.206L193.036 116.322L192.537 116.291L192.286 120.408L192.785 120.438L192.533 124.554L192.034 124.524L191.783 128.64L192.282 128.67L192.031 132.786L191.531 132.756L191.28 136.872L191.779 136.902L191.528 141.019L191.029 140.988L190.777 145.104L191.276 145.135L191.025 149.251L190.526 149.22L190.4 151.278C190.361 151.927 190.289 152.568 190.187 153.2L190.681 153.28C190.468 154.599 190.126 155.88 189.666 157.108L189.198 156.932C188.743 158.146 188.17 159.305 187.491 160.396L187.915 160.66C187.216 161.783 186.407 162.835 185.5 163.798L185.136 163.456C184.255 164.391 183.281 165.242 182.224 165.992L182.514 166.4C181.445 167.158 180.294 167.817 179.073 168.36L178.87 167.904C178.285 168.164 177.683 168.397 177.067 168.601L175.225 169.211L175.382 169.686L171.698 170.906L171.541 170.431L167.857 171.651L168.014 172.126L164.331 173.345L164.174 172.871L160.49 174.091L160.647 174.565L156.963 175.785L156.806 175.311L153.122 176.53L153.279 177.005L149.596 178.225L149.439 177.75L145.755 178.97L145.912 179.445L142.228 180.665L142.071 180.19L138.387 181.41L138.544 181.884L134.861 183.104L134.704 182.63L131.02 183.85L131.177 184.324L127.493 185.544L127.336 185.069L123.652 186.289L123.809 186.764L120.126 187.984L119.969 187.509L116.285 188.729L116.442 189.204L112.758 190.424L112.601 189.949L108.917 191.169L109.075 191.643L105.391 192.863L105.234 192.389L101.55 193.608L101.707 194.083L98.0233 195.303L97.8661 194.828L96.0242 195.438C95.3586 195.659 94.6878 195.841 94.0143 195.987L94.1202 196.476C92.7103 196.781 91.2888 196.93 89.8785 196.928L89.879 196.428C88.4816 196.427 87.0954 196.275 85.7437 195.98L85.6371 196.469C84.244 196.165 82.8867 195.713 81.5894 195.121L81.7969 194.666C80.5382 194.092 79.3375 193.383 78.2181 192.547L77.9188 192.947C76.7891 192.103 75.7401 191.132 74.7946 190.043L75.1722 189.715C74.7205 189.195 74.2931 188.646 73.8924 188.071L72.7788 186.472L72.3685 186.758L70.1414 183.56L70.5517 183.274L68.3246 180.076L67.9143 180.362L65.6872 177.164L66.0975 176.878L63.8704 173.68L63.4601 173.966L61.233 170.768L61.6433 170.483L59.4162 167.285L59.0059 167.57L56.7788 164.373L57.1891 164.087L54.962 160.889L54.5517 161.175L52.3246 157.977L52.735 157.691L50.5079 154.493L50.0976 154.779L47.8705 151.581L48.2808 151.295L46.0537 148.097L45.6434 148.383L43.4163 145.185L43.8266 144.9L41.5995 141.702L41.1892 141.987L38.9621 138.789L39.3724 138.504L37.1453 135.306L36.735 135.592L34.5079 132.394L34.9182 132.108L32.6911 128.91L32.2808 129.196L30.0537 125.998L30.464 125.712L29.3504 124.113C28.9769 123.577 28.6333 123.026 28.3195 122.464L27.8829 122.708C27.2279 121.534 26.6999 120.309 26.2991 119.053L26.7754 118.901C26.379 117.659 26.1102 116.386 25.9691 115.102L25.4721 115.157C25.3267 113.834 25.3136 112.499 25.4328 111.174L25.9308 111.218C26.0466 109.932 26.2903 108.654 26.6621 107.404L26.1829 107.262C26.5589 105.998 27.0627 104.763 27.6944 103.577L28.1358 103.812C28.4384 103.243 28.7711 102.686 29.134 102.142L30.2733 100.436L29.8574 100.158L32.1359 96.745L32.5518 97.0226L34.8303 93.6094L34.4145 93.3318L36.693 89.9186L37.1089 90.1962L39.3874 86.783L38.9715 86.5054L41.2501 83.0922L41.6659 83.3698L43.9445 79.9566L43.5286 79.679L45.8071 76.2658L46.223 76.5434L48.5015 73.1302L48.0857 72.8525L50.3642 69.4393L50.7801 69.7169L53.0586 66.3037L52.6427 66.0261L54.9213 62.6129L55.3371 62.8905L57.6156 59.4773L57.1998 59.1997L59.4783 55.7865L59.8942 56.0641L62.1727 52.6509L61.7569 52.3733L64.0354 48.9601L64.4512 49.2377L66.7298 45.8245L66.3139 45.5469L68.5924 42.1337L69.0083 42.4113L71.2868 38.9981L70.871 38.7205L73.1495 35.3073L73.5654 35.5849L75.8439 32.1717L75.428 31.894Z" stroke="#72A631" stroke-dasharray="4 4"/>
<circle cx="172.001" cy="169.905" r="6" transform="rotate(-180 172.001 169.905)" fill="#FFC224"/>
<defs>
<filter id="filter0_dddd_3952_25" x="116.101" y="0.813965" width="153.982" height="153.982" filterUnits="userSpaceOnUse" color-interpolation-filters="sRGB">
<feFlood flood-opacity="0" result="BackgroundImageFix"/>
<feColorMatrix in="SourceAlpha" type="matrix" values="0 0 0 0 0 0 0 0 0 0 0 0 0 0 0 0 0 0 127 0" result="hardAlpha"/>
<feOffset dy="0.996336"/>
<feGaussianBlur stdDeviation="1.53979"/>
<feColorMatrix type="matrix" values="0 0 0 0 0.129412 0 0 0 0 0.603922 0 0 0 0 0.12549 0 0 0 0.146333 0"/>
<feBlend mode="normal" in2="BackgroundImageFix" result="effect1_dropShadow_3952_25"/>
<feColorMatrix in="SourceAlpha" type="matrix" values="0 0 0 0 0 0 0 0 0 0 0 0 0 0 0 0 0 0 127 0" result="hardAlpha"/>
<feOffset dy="2.75474"/>
<feGaussianBlur stdDeviation="4.25733"/>
<feColorMatrix type="matrix" values="0 0 0 0 0.129412 0 0 0 0 0.603922 0 0 0 0 0.12549 0 0 0 0.21 0"/>
<feBlend mode="normal" in2="effect1_dropShadow_3952_25" result="effect2_dropShadow_3952_25"/>
<feColorMatrix in="SourceAlpha" type="matrix" values="0 0 0 0 0 0 0 0 0 0 0 0 0 0 0 0 0 0 127 0" result="hardAlpha"/>
<feOffset dy="6.63236"/>
<feGaussianBlur stdDeviation="10.25"/>
<feColorMatrix type="matrix" values="0 0 0 0 0.129412 0 0 0 0 0.603922 0 0 0 0 0.12549 0 0 0 0.273667 0"/>
<feBlend mode="normal" in2="effect2_dropShadow_3952_25" result="effect3_dropShadow_3952_25"/>
<feColorMatrix in="SourceAlpha" type="matrix" values="0 0 0 0 0 0 0 0 0 0 0 0 0 0 0 0 0 0 127 0" result="hardAlpha"/>
<feOffset dy="22"/>
<feGaussianBlur stdDeviation="34"/>
<feColorMatrix type="matrix" values="0 0 0 0 0.129412 0 0 0 0 0.603922 0 0 0 0 0.12549 0 0 0 0.42 0"/>
<feBlend mode="normal" in2="effect3_dropShadow_3952_25" result="effect4_dropShadow_3952_25"/>
<feBlend mode="normal" in="SourceGraphic" in2="effect4_dropShadow_3952_25" result="shape"/>
</filter>
</defs>
</svg>
