<svg width="548" height="465" viewBox="0 0 548 465" fill="none" xmlns="http://www.w3.org/2000/svg">
<mask id="path-1-inside-1_3744_25183" fill="white">
<path d="M18.7189 161.953C38.4916 83.8156 54.0114 24.2109 110.372 6.78173C166.732 -10.6474 233.571 5.56297 415.986 110.882C598.401 216.202 560.029 399.395 486.634 447.612C413.238 495.829 323.601 430.143 140.414 386.594C-42.772 343.045 -1.05376 240.091 18.7189 161.953Z"/>
</mask>
<path d="M18.7189 161.953L19.2036 162.076L18.7189 161.953ZM415.986 110.882L415.736 111.315L415.986 110.882ZM486.634 447.612L486.908 448.03L486.634 447.612ZM140.414 386.594L140.299 387.081L140.414 386.594ZM110.372 6.78173L110.519 7.25944L110.372 6.78173ZM18.2342 161.83C18.0715 162.473 17.9074 163.118 17.742 163.764L18.7107 164.012C18.8764 163.365 19.0408 162.72 19.2036 162.076L18.2342 161.83ZM16.7339 167.66C16.397 168.95 16.0559 170.246 15.7116 171.549L16.6785 171.804C17.0229 170.501 17.3642 169.204 17.7014 167.912L16.7339 167.66ZM14.6784 175.442C14.3351 176.733 13.9898 178.028 13.6435 179.328L14.6098 179.585C14.9561 178.285 15.3014 176.99 15.6448 175.7L14.6784 175.442ZM12.6076 183.223C12.2649 184.515 11.9221 185.811 11.5803 187.112L12.5474 187.366C12.889 186.066 13.2316 184.771 13.5742 183.479L12.6076 183.223ZM10.5622 191.011C10.2265 192.307 9.89258 193.607 9.56156 194.91L10.5308 195.156C10.8613 193.855 11.1948 192.557 11.5303 191.262L10.5622 191.011ZM8.58021 198.819C8.25779 200.12 7.93903 201.424 7.62494 202.731L8.59728 202.965C8.91076 201.66 9.22892 200.358 9.5509 199.059L8.58021 198.819ZM6.69898 206.653C6.39607 207.961 6.09867 209.271 5.80778 210.583L6.78405 210.799C7.07423 209.49 7.37092 208.183 7.67317 206.879L6.69898 206.653ZM4.95589 214.522C4.67895 215.837 4.40941 217.153 4.14811 218.472L5.12902 218.666C5.3895 217.352 5.65827 216.039 5.93444 214.728L4.95589 214.522ZM3.38992 222.43C3.14573 223.753 2.91072 225.077 2.68586 226.402L3.67179 226.569C3.89577 225.249 4.12994 223.93 4.3733 222.612L3.38992 222.43ZM2.04217 230.381C1.83784 231.712 1.64466 233.043 1.46355 234.374L2.45445 234.509C2.63475 233.184 2.82712 231.858 3.03059 230.533L2.04217 230.381ZM0.956718 238.375C0.799951 239.713 0.656335 241.051 0.526832 242.388L1.52217 242.484C1.65103 241.154 1.7939 239.823 1.94994 238.491L0.956718 238.375ZM0.180919 246.407C0.0799736 247.751 -0.00568904 249.094 -0.0751983 250.436L0.923417 250.488C0.992519 249.154 1.07772 247.818 1.1781 246.482L0.180919 246.407ZM-0.234482 254.468C-0.270789 255.816 -0.289704 257.162 -0.290342 258.507L0.709689 258.507C0.710282 257.172 0.729082 255.834 0.76517 254.495L-0.234482 254.468ZM-0.235888 262.543C-0.198507 263.89 -0.141625 265.236 -0.0641741 266.579L0.934164 266.522C0.857314 265.189 0.800819 263.853 0.763759 262.515L-0.235888 262.543ZM0.23135 270.607C0.351336 271.949 0.493034 273.289 0.657437 274.625L1.64997 274.503C1.48694 273.178 1.3464 271.849 1.22738 270.518L0.23135 270.607ZM1.22028 278.627C1.43115 279.956 1.66577 281.282 1.92512 282.605L2.90643 282.412C2.64946 281.102 2.41695 279.788 2.20791 278.47L1.22028 278.627ZM2.77824 286.559C3.08667 287.867 3.4206 289.171 3.78108 290.47L4.74469 290.203C4.38777 288.916 4.05705 287.625 3.75156 286.329L2.77824 286.559ZM4.94161 294.35C5.35176 295.627 5.78884 296.898 6.25381 298.165L7.19255 297.82C6.73235 296.567 6.29971 295.308 5.89369 294.044L4.94161 294.35ZM7.73036 301.941C8.24322 303.176 8.78395 304.406 9.35351 305.63L10.2601 305.208C9.69653 303.997 9.16139 302.78 8.65387 301.558L7.73036 301.941ZM11.1438 309.273C11.757 310.457 12.3987 311.635 13.0695 312.807L13.9374 312.311C13.2736 311.15 12.6386 309.984 12.0317 308.813L11.1438 309.273ZM15.1592 316.288C15.868 317.415 16.6052 318.536 17.3714 319.65L18.1955 319.084C17.4369 317.98 16.7072 316.871 16.0056 315.756L15.1592 316.288ZM19.735 322.944C20.5333 324.011 21.3595 325.071 22.2144 326.126L22.9911 325.496C22.1443 324.452 21.3261 323.401 20.5357 322.345L19.735 322.944ZM24.8172 329.213C25.6991 330.221 26.6085 331.222 27.546 332.217L28.2737 331.531C27.3446 330.545 26.4434 329.553 25.5695 328.555L24.8172 329.213ZM30.3477 335.087C31.3082 336.037 32.2956 336.982 33.3105 337.919L33.9892 337.185C32.9826 336.255 32.0034 335.318 31.0511 334.376L30.3477 335.087ZM36.2731 340.571C37.2841 341.448 38.3202 342.319 39.3819 343.183L40.0134 342.408C38.9596 341.55 37.9314 340.686 36.9282 339.816L36.2731 340.571ZM42.5501 345.687C43.5978 346.49 44.6687 347.289 45.7632 348.081L46.3496 347.271C45.2625 346.484 44.199 345.691 43.1586 344.893L42.5501 345.687ZM49.1175 350.441C50.1995 351.181 51.3031 351.915 52.4285 352.644L52.9723 351.805C51.8537 351.08 50.7571 350.35 49.682 349.615L49.1175 350.441ZM55.8372 354.796C56.9918 355.505 58.168 356.21 59.3661 356.909L59.87 356.045C58.6784 355.35 57.5088 354.649 56.3609 353.944L55.8372 354.796ZM62.7982 358.862C63.9618 359.509 65.145 360.15 66.3481 360.787L66.8157 359.903C65.6186 359.269 64.4413 358.631 63.2838 357.988L62.7982 358.862ZM70.0066 362.676C71.1677 363.261 72.3465 363.842 73.5431 364.418L73.9769 363.517C72.7857 362.943 71.6123 362.365 70.4566 361.783L70.0066 362.676ZM77.1866 366.133C78.4191 366.7 79.6697 367.263 80.9386 367.821L81.3411 366.905C80.0773 366.35 78.832 365.789 77.6047 365.225L77.1866 366.133ZM84.5823 369.389C85.7987 369.901 87.0312 370.409 88.2799 370.913L88.6542 369.986C87.41 369.484 86.1822 368.978 84.9705 368.467L84.5823 369.389ZM92.0753 372.413C93.3233 372.896 94.587 373.374 95.8664 373.849L96.2142 372.911C94.939 372.438 93.6797 371.961 92.436 371.48L92.0753 372.413ZM99.5863 375.201C100.841 375.648 102.11 376.092 103.394 376.531L103.718 375.585C102.438 375.147 101.172 374.705 99.9219 374.259L99.5863 375.201ZM107.29 377.838C108.543 378.249 109.808 378.657 111.088 379.062L111.389 378.108C110.113 377.705 108.851 377.298 107.603 376.888L107.29 377.838ZM114.884 380.239C116.163 380.627 117.454 381.013 118.76 381.395L119.04 380.435C117.739 380.054 116.45 379.67 115.175 379.282L114.884 380.239ZM122.715 382.53C123.982 382.886 125.26 383.239 126.551 383.589L126.813 382.624C125.525 382.275 124.25 381.923 122.986 381.567L122.715 382.53ZM130.389 384.611C131.68 384.948 132.984 385.282 134.299 385.613L134.543 384.643C133.23 384.313 131.93 383.98 130.642 383.643L130.389 384.611ZM138.281 386.596C138.95 386.759 139.623 386.92 140.299 387.081L140.53 386.108C139.856 385.948 139.184 385.786 138.516 385.624L138.281 386.596ZM140.299 387.081C140.958 387.237 141.615 387.394 142.271 387.551L142.504 386.579C141.847 386.422 141.189 386.265 140.53 386.108L140.299 387.081ZM146.195 388.498C147.498 388.814 148.796 389.132 150.089 389.45L150.329 388.479C149.034 388.161 147.735 387.843 146.431 387.526L146.195 388.498ZM153.956 390.409C155.245 390.731 156.53 391.054 157.811 391.378L158.056 390.409C156.775 390.085 155.489 389.761 154.198 389.439L153.956 390.409ZM161.73 392.377C163.032 392.711 164.329 393.045 165.62 393.381L165.872 392.413C164.579 392.077 163.281 391.742 161.979 391.408L161.73 392.377ZM169.481 394.39C170.763 394.727 172.04 395.065 173.312 395.404L173.569 394.438C172.296 394.099 171.018 393.76 169.735 393.423L169.481 394.39ZM177.218 396.451C178.517 396.801 179.811 397.152 181.1 397.503L181.363 396.539C180.073 396.187 178.778 395.836 177.478 395.485L177.218 396.451ZM184.952 398.56C186.231 398.913 187.504 399.267 188.773 399.621L189.042 398.658C187.772 398.303 186.497 397.95 185.218 397.596L184.952 398.56ZM192.658 400.711C193.954 401.077 195.244 401.443 196.53 401.81L196.804 400.848C195.518 400.481 194.226 400.115 192.93 399.749L192.658 400.711ZM200.37 402.911C201.645 403.279 202.914 403.647 204.179 404.015L204.459 403.055C203.193 402.686 201.923 402.318 200.647 401.95L200.37 402.911ZM208.053 405.149C209.344 405.529 210.63 405.909 211.911 406.289L212.196 405.331C210.914 404.95 209.628 404.57 208.335 404.19L208.053 405.149ZM215.737 407.431C217.007 407.812 218.271 408.192 219.53 408.573L219.82 407.616C218.56 407.235 217.295 406.854 216.024 406.473L215.737 407.431ZM223.404 409.75C224.69 410.143 225.971 410.535 227.246 410.928L227.54 409.972C226.264 409.579 224.983 409.187 223.696 408.794L223.404 409.75ZM231.054 412.104C232.327 412.499 233.594 412.894 234.856 413.289L235.154 412.334C233.892 411.939 232.624 411.544 231.35 411.149L231.054 412.104ZM238.713 414.499C239.992 414.902 241.266 415.305 242.535 415.707L242.837 414.754C241.568 414.351 240.293 413.948 239.013 413.545L238.713 414.499ZM246.323 416.912C247.603 417.321 248.877 417.729 250.146 418.137L250.451 417.185C249.182 416.777 247.908 416.369 246.627 415.96L246.323 416.912ZM253.981 419.373C255.253 419.784 256.52 420.195 257.781 420.604L258.09 419.653C256.828 419.244 255.561 418.833 254.288 418.421L253.981 419.373ZM261.552 421.833C262.841 422.254 264.124 422.674 265.4 423.093L265.712 422.143C264.435 421.724 263.152 421.304 261.863 420.883L261.552 421.833ZM269.211 424.346C270.475 424.762 271.733 425.178 272.985 425.591L273.299 424.642C272.047 424.228 270.788 423.813 269.524 423.396L269.211 424.346ZM276.801 426.855C278.081 427.279 279.354 427.702 280.622 428.124L280.937 427.175C279.67 426.753 278.396 426.33 277.115 425.906L276.801 426.855ZM284.405 429.383C285.674 429.805 286.936 430.226 288.192 430.645L288.508 429.696C287.252 429.277 285.99 428.857 284.721 428.434L284.405 429.383ZM292.022 431.923C293.293 432.347 294.557 432.769 295.814 433.189L296.131 432.24C294.873 431.82 293.61 431.399 292.339 430.975L292.022 431.923ZM299.582 434.446C300.869 434.875 302.149 435.301 303.422 435.725L303.738 434.777C302.465 434.353 301.185 433.926 299.899 433.497L299.582 434.446ZM307.222 436.989C308.482 437.408 309.736 437.824 310.983 438.236L311.297 437.287C310.05 436.874 308.797 436.459 307.537 436.04L307.222 436.989ZM314.831 439.508C316.107 439.928 317.375 440.346 318.637 440.759L318.949 439.809C317.687 439.396 316.419 438.978 315.144 438.558L314.831 439.508ZM322.404 441.991C323.696 442.412 324.981 442.829 326.259 443.242L326.567 442.291C325.289 441.878 324.005 441.461 322.714 441.04L322.404 441.991ZM330.071 444.47C331.34 444.876 332.601 445.279 333.856 445.677L334.158 444.723C332.905 444.326 331.644 443.924 330.377 443.517L330.071 444.47ZM337.717 446.894C338.997 447.295 340.269 447.692 341.535 448.083L341.83 447.127C340.566 446.737 339.295 446.341 338.016 445.94L337.717 446.894ZM345.35 449.254C346.647 449.648 347.935 450.037 349.216 450.42L349.503 449.462C348.223 449.08 346.936 448.691 345.642 448.297L345.35 449.254ZM353.038 451.552C354.332 451.932 355.618 452.305 356.897 452.671L357.173 451.71C355.896 451.344 354.611 450.971 353.319 450.592L353.038 451.552ZM360.767 453.767C362.049 454.125 363.323 454.476 364.59 454.82L364.852 453.855C363.588 453.512 362.316 453.161 361.036 452.804L360.767 453.767ZM368.507 455.867C369.805 456.208 371.095 456.541 372.377 456.866L372.623 455.897C371.344 455.573 370.056 455.24 368.761 454.9L368.507 455.867ZM376.269 457.832C377.583 458.152 378.888 458.462 380.186 458.762L380.412 457.788C379.118 457.488 377.816 457.179 376.505 456.861L376.269 457.832ZM384.063 459.637C385.392 459.929 386.713 460.21 388.025 460.481L388.227 459.501C386.919 459.232 385.602 458.951 384.277 458.66L384.063 459.637ZM391.938 461.259C393.268 461.514 394.59 461.757 395.903 461.989L396.076 461.004C394.768 460.774 393.452 460.531 392.127 460.277L391.938 461.259ZM399.857 462.652C401.188 462.863 402.51 463.062 403.824 463.247L403.964 462.257C402.656 462.073 401.339 461.875 400.014 461.664L399.857 462.652ZM407.814 463.771C409.148 463.932 410.473 464.079 411.79 464.211L411.89 463.216C410.58 463.085 409.262 462.939 407.935 462.778L407.814 463.771ZM415.809 464.569C417.146 464.672 418.476 464.759 419.797 464.829L419.85 463.831C418.537 463.761 417.216 463.675 415.886 463.572L415.809 464.569ZM423.833 464.991C425.174 465.027 426.506 465.045 427.831 465.044L427.83 464.044C426.515 464.045 425.192 464.028 423.859 463.992L423.833 464.991ZM431.87 464.981C433.211 464.939 434.545 464.878 435.87 464.795L435.808 463.797C434.493 463.879 433.17 463.94 431.839 463.981L431.87 464.981ZM439.894 464.478C441.23 464.349 442.559 464.199 443.88 464.025L443.749 463.033C442.44 463.206 441.123 463.355 439.798 463.482L439.894 464.478ZM447.867 463.427C449.191 463.203 450.507 462.955 451.816 462.683L451.612 461.704C450.315 461.974 449.012 462.219 447.7 462.441L447.867 463.427ZM455.742 461.785C457.043 461.46 458.337 461.109 459.624 460.733L459.344 459.773C458.069 460.146 456.788 460.493 455.5 460.814L455.742 461.785ZM463.464 459.525C464.732 459.097 465.994 458.643 467.25 458.162L466.892 457.228C465.649 457.704 464.4 458.154 463.145 458.577L463.464 459.525ZM470.978 456.644C472.204 456.116 473.425 455.561 474.64 454.979L474.207 454.077C473.004 454.654 471.796 455.203 470.583 455.726L470.978 456.644ZM478.235 453.166C479.412 452.543 480.584 451.894 481.751 451.217L481.25 450.352C480.093 451.022 478.932 451.665 477.767 452.282L478.235 453.166ZM485.195 449.133C485.767 448.772 486.338 448.404 486.908 448.03L486.359 447.194C485.794 447.565 485.228 447.929 484.662 448.287L485.195 449.133ZM486.908 448.03C487.458 447.669 488.005 447.3 488.55 446.925L487.983 446.101C487.444 446.473 486.902 446.837 486.359 447.194L486.908 448.03ZM491.797 444.581C492.857 443.782 493.908 442.954 494.949 442.099L494.315 441.326C493.283 442.173 492.243 442.992 491.195 443.783L491.797 444.581ZM497.986 439.505C498.981 438.621 499.968 437.712 500.944 436.778L500.253 436.055C499.285 436.981 498.308 437.881 497.322 438.757L497.986 439.505ZM503.771 433.976C504.704 433.019 505.627 432.039 506.54 431.036L505.8 430.363C504.895 431.357 503.98 432.329 503.055 433.278L503.771 433.976ZM509.163 428.061C510.027 427.049 510.881 426.016 511.724 424.964L510.944 424.339C510.107 425.383 509.259 426.408 508.402 427.412L509.163 428.061ZM514.172 421.814C514.969 420.756 515.756 419.68 516.532 418.586L515.716 418.008C514.946 419.094 514.164 420.162 513.373 421.212L514.172 421.814ZM518.809 415.28C519.542 414.184 520.264 413.071 520.975 411.943L520.129 411.41C519.423 412.531 518.706 413.636 517.978 414.724L518.809 415.28ZM523.076 408.511C523.75 407.377 524.413 406.229 525.064 405.066L524.192 404.577C523.545 405.733 522.886 406.874 522.217 408L523.076 408.511ZM526.977 401.552C527.598 400.376 528.208 399.186 528.807 397.984L527.912 397.538C527.317 398.734 526.71 399.916 526.093 401.085L526.977 401.552ZM530.537 394.401C531.103 393.195 531.657 391.976 532.199 390.745L531.283 390.342C530.744 391.566 530.194 392.777 529.632 393.977L530.537 394.401ZM533.763 387.079C534.27 385.855 534.764 384.619 535.247 383.373L534.315 383.012C533.835 384.251 533.343 385.48 532.839 386.697L533.763 387.079ZM536.659 379.607C537.108 378.367 537.545 377.118 537.97 375.859L537.023 375.539C536.6 376.791 536.165 378.034 535.718 379.266L536.659 379.607ZM539.21 372.054C539.609 370.785 539.995 369.507 540.369 368.22L539.409 367.941C539.037 369.221 538.652 370.492 538.256 371.754L539.21 372.054ZM541.44 364.387C541.785 363.101 542.118 361.807 542.438 360.504L541.467 360.266C541.148 361.561 540.817 362.849 540.474 364.128L541.44 364.387ZM543.351 356.617C543.64 355.325 543.917 354.025 544.182 352.719L543.202 352.52C542.939 353.82 542.663 355.113 542.375 356.399L543.351 356.617ZM544.938 348.778C545.174 347.475 545.398 346.166 545.609 344.85L544.622 344.692C544.412 346.001 544.189 347.303 543.954 348.599L544.938 348.778ZM546.202 340.904C546.387 339.583 546.559 338.255 546.718 336.922L545.725 336.804C545.566 338.13 545.395 339.451 545.211 340.766L546.202 340.904ZM547.149 332.967C547.28 331.646 547.398 330.321 547.503 328.99L546.507 328.911C546.402 330.235 546.284 331.554 546.154 332.868L547.149 332.967ZM547.779 324.983C547.857 323.664 547.922 322.34 547.974 321.012L546.974 320.973C546.923 322.294 546.858 323.612 546.781 324.924L547.779 324.983ZM548.09 317.02C548.115 315.685 548.128 314.346 548.127 313.004L547.127 313.004C547.128 314.34 547.115 315.673 547.09 317.001L548.09 317.02ZM548.084 309.029C548.057 307.702 548.017 306.371 547.963 305.038L546.964 305.078C547.017 306.405 547.058 307.729 547.085 309.049L548.084 309.029ZM547.762 301.027C547.683 299.707 547.59 298.385 547.485 297.06L546.488 297.14C546.593 298.458 546.685 299.774 546.764 301.087L547.762 301.027ZM547.128 293.085C546.996 291.757 546.85 290.426 546.69 289.094L545.697 289.213C545.856 290.539 546.001 291.862 546.133 293.184L547.128 293.085ZM546.179 285.147C545.996 283.834 545.799 282.519 545.589 281.202L544.601 281.36C544.81 282.67 545.006 283.979 545.188 285.286L546.179 285.147ZM544.917 277.247C544.683 275.943 544.435 274.638 544.173 273.331L543.193 273.527C543.453 274.827 543.7 276.126 543.933 277.424L544.917 277.247ZM543.354 269.432C543.067 268.131 542.766 266.829 542.452 265.526L541.48 265.76C541.793 267.057 542.092 268.353 542.377 269.647L543.354 269.432ZM541.478 261.65C541.143 260.371 540.795 259.092 540.433 257.812L539.471 258.084C539.831 259.358 540.177 260.631 540.511 261.903L541.478 261.65ZM539.308 253.971C538.92 252.695 538.519 251.419 538.105 250.143L537.154 250.452C537.566 251.722 537.965 252.992 538.351 254.261L539.308 253.971ZM536.842 246.38C536.408 245.126 535.96 243.871 535.499 242.617L534.561 242.963C535.02 244.211 535.465 245.459 535.897 246.707L536.842 246.38ZM534.075 238.856C533.596 237.627 533.103 236.398 532.598 235.17L531.673 235.551C532.176 236.773 532.666 237.996 533.143 239.219L534.075 238.856ZM531.046 231.5C530.516 230.278 529.972 229.056 529.415 227.835L528.505 228.25C529.06 229.465 529.601 230.681 530.129 231.898L531.046 231.5ZM527.72 224.213C527.15 223.024 526.568 221.836 525.972 220.649L525.078 221.097C525.671 222.279 526.251 223.461 526.818 224.645L527.72 224.213ZM524.144 217.091C523.522 215.907 522.886 214.724 522.237 213.542L521.36 214.023C522.007 215.2 522.639 216.377 523.259 217.557L524.144 217.091ZM520.299 210.088C519.642 208.941 518.972 207.795 518.289 206.651L517.43 207.163C518.11 208.302 518.777 209.443 519.432 210.585L520.299 210.088ZM516.201 203.223C515.499 202.093 514.783 200.964 514.055 199.838L513.215 200.38C513.94 201.502 514.652 202.626 515.352 203.751L516.201 203.223ZM511.877 196.531C511.138 195.43 510.387 194.332 509.623 193.235L508.803 193.807C509.563 194.899 510.311 195.992 511.046 197.088L511.877 196.531ZM507.294 189.953C506.52 188.881 505.733 187.812 504.934 186.744L504.134 187.344C504.929 188.406 505.712 189.471 506.483 190.538L507.294 189.953ZM502.531 183.59C501.718 182.54 500.893 181.493 500.055 180.449L499.275 181.074C500.109 182.114 500.931 183.157 501.741 184.202L502.531 183.59ZM497.506 177.322C496.666 176.309 495.814 175.299 494.951 174.291L494.191 174.941C495.051 175.945 495.9 176.952 496.736 177.96L497.506 177.322ZM492.346 171.298C491.466 170.303 490.574 169.31 489.67 168.321L488.932 168.995C489.832 169.981 490.72 170.969 491.597 171.96L492.346 171.298ZM486.923 165.359C486.023 164.403 485.111 163.45 484.188 162.499L483.47 163.196C484.39 164.143 485.298 165.093 486.196 166.045L486.923 165.359ZM481.404 159.675C480.465 158.737 479.514 157.801 478.552 156.868L477.856 157.586C478.814 158.515 479.761 159.448 480.697 160.383L481.404 159.675ZM475.633 154.078C474.675 153.175 473.705 152.275 472.725 151.378L472.05 152.116C473.027 153.01 473.993 153.906 474.948 154.806L475.633 154.078ZM469.787 148.727C468.797 147.846 467.796 146.968 466.784 146.093L466.13 146.85C467.138 147.722 468.135 148.597 469.122 149.474L469.787 148.727ZM463.717 143.478C462.701 142.624 461.675 141.773 460.638 140.924L460.005 141.699C461.038 142.544 462.061 143.392 463.073 144.243L463.717 143.478ZM457.569 138.448C456.536 137.625 455.493 136.805 454.439 135.988L453.826 136.779C454.876 137.593 455.916 138.41 456.946 139.23L457.569 138.448ZM451.248 133.548C450.174 132.737 449.09 131.93 447.995 131.126L447.403 131.932C448.494 132.733 449.575 133.538 450.646 134.346L451.248 133.548ZM444.816 128.82C443.748 128.056 442.67 127.294 441.583 126.535L441.01 127.355C442.095 128.111 443.169 128.871 444.234 129.634L444.816 128.82ZM438.291 124.268C437.184 123.515 436.068 122.765 434.942 122.019L434.389 122.853C435.512 123.597 436.625 124.344 437.729 125.094L438.291 124.268ZM431.585 119.823C430.489 119.115 429.383 118.41 428.269 117.707L427.736 118.553C428.847 119.254 429.949 119.957 431.042 120.663L431.585 119.823ZM424.899 115.61C423.767 114.914 422.626 114.221 421.475 113.532L420.961 114.389C422.108 115.077 423.246 115.768 424.376 116.462L424.899 115.61ZM417.996 111.472C417.412 111.13 416.825 110.79 416.236 110.449L415.736 111.315C416.324 111.655 416.909 111.995 417.491 112.335L417.996 111.472ZM416.236 110.449C415.641 110.106 415.048 109.764 414.455 109.422L413.956 110.288C414.548 110.63 415.141 110.972 415.736 111.315L416.236 110.449ZM410.916 107.384C409.741 106.709 408.571 106.037 407.405 105.369L406.908 106.236C408.073 106.904 409.243 107.576 410.417 108.251L410.916 107.384ZM403.924 103.376C402.769 102.716 401.618 102.059 400.472 101.406L399.977 102.275C401.122 102.927 402.273 103.584 403.428 104.244L403.924 103.376ZM396.94 99.3965C395.754 98.7223 394.572 98.0522 393.395 97.386L392.903 98.2562C394.079 98.9221 395.26 99.592 396.447 100.266L396.94 99.3965ZM389.881 95.3997C388.715 94.7416 387.554 94.0874 386.398 93.4373L385.908 94.309C387.063 94.9588 388.224 95.6127 389.39 96.2706L389.881 95.3997ZM382.926 91.4885C381.728 90.8173 380.536 90.1504 379.349 89.4878L378.862 90.361C380.048 91.0232 381.24 91.6899 382.437 92.3609L382.926 91.4885ZM375.805 87.513C374.629 86.8591 373.459 86.2094 372.294 85.564L371.809 86.4388C372.974 87.0839 374.144 87.7333 375.319 88.387L375.805 87.513ZM368.815 83.6407C367.622 82.9824 366.434 82.3287 365.253 81.6795L364.771 82.5559C365.952 83.2049 367.139 83.8583 368.332 84.5163L368.815 83.6407ZM361.683 79.7223C360.498 79.0746 359.32 78.4315 358.147 77.7929L357.669 78.6712C358.841 79.3094 360.019 79.9522 361.203 80.5997L361.683 79.7223ZM354.646 75.891C353.456 75.2458 352.271 74.6055 351.093 73.9699L350.618 74.85C351.796 75.4853 352.98 76.1253 354.169 76.7702L354.646 75.891ZM347.501 72.0375C346.309 71.3984 345.124 70.7642 343.945 70.1349L343.475 71.0171C344.653 71.646 345.837 72.2799 347.028 72.9187L347.501 72.0375ZM340.427 68.2618C339.231 67.6268 338.041 66.997 336.858 66.3723L336.391 67.2566C337.574 67.881 338.763 68.5104 339.958 69.1451L340.427 68.2618ZM333.249 64.473C332.053 63.8453 330.863 63.2229 329.68 62.6057L329.218 63.4924C330.4 64.1091 331.589 64.7312 332.785 65.3585L333.249 64.473ZM326.15 60.7702C324.94 60.143 323.737 59.5215 322.54 58.9055L322.082 59.7946C323.278 60.4101 324.48 61.0312 325.69 61.658L326.15 60.7702ZM318.922 57.0492C317.723 56.4361 316.53 55.8287 315.345 55.227L314.892 56.1188C316.077 56.72 317.268 57.3269 318.467 57.9396L318.922 57.0492ZM311.8 53.4344C310.571 52.8152 309.349 52.2021 308.135 51.5952L307.688 52.4897C308.901 53.0961 310.122 53.7087 311.35 54.3275L311.8 53.4344ZM304.514 49.793C303.314 49.1984 302.122 48.6099 300.937 48.0275L300.496 48.925C301.68 49.5069 302.871 50.0949 304.07 50.689L304.514 49.793ZM297.303 46.2499C296.074 45.6517 294.854 45.0601 293.641 44.4752L293.207 45.3758C294.418 45.9602 295.638 46.5513 296.865 47.1489L297.303 46.2499ZM290.026 42.7401C288.813 42.1609 287.608 41.5884 286.411 41.0226L285.984 41.9267C287.18 42.4919 288.383 43.0638 289.595 43.6425L290.026 42.7401ZM282.713 39.2844C281.488 38.7121 280.272 38.1469 279.064 37.5889L278.645 38.4967C279.851 39.0541 281.066 39.6186 282.289 40.1903L282.713 39.2844ZM275.446 35.9274C274.193 35.3559 272.95 34.7921 271.716 34.2361L271.305 35.1479C272.538 35.7032 273.78 36.2663 275.03 36.8371L275.446 35.9274ZM268.039 32.591C266.815 32.0475 265.601 31.5117 264.395 30.9836L263.994 31.8996C265.198 32.427 266.411 32.962 267.633 33.5048L268.039 32.591ZM260.64 29.3515C259.398 28.8158 258.165 28.2884 256.941 27.7692L256.55 28.6897C257.772 29.2082 259.004 29.7348 260.244 30.2697L260.64 29.3515ZM253.252 26.2172C251.984 25.6886 250.727 25.1691 249.479 24.6584L249.1 25.584C250.346 26.0937 251.601 26.6124 252.867 27.1402L253.252 26.2172ZM245.765 23.1533C244.503 22.6469 243.252 22.1499 242.01 21.6621L241.645 22.5929C242.884 23.0797 244.133 23.5759 245.393 24.0813L245.765 23.1533ZM238.228 20.1929C236.978 19.7128 235.738 19.2422 234.509 18.7812L234.158 19.7176C235.385 20.1777 236.622 20.6472 237.87 21.1264L238.228 20.1929ZM230.672 17.3614C229.4 16.8972 228.14 16.4435 226.89 16L226.556 16.9424C227.803 17.3849 229.06 17.8376 230.329 18.3007L230.672 17.3614ZM223.08 14.668C221.789 14.2235 220.509 13.7904 219.241 13.3683L218.926 14.3171C220.19 14.7381 221.467 15.1702 222.755 15.6136L223.08 14.668ZM215.441 12.1256C214.131 11.7052 212.834 11.2969 211.55 10.9007L211.255 11.8562C212.536 12.2513 213.829 12.6584 215.135 13.0777L215.441 12.1256ZM207.731 9.74772C206.409 9.35744 205.101 8.98017 203.805 8.61573L203.535 9.57839C204.826 9.94161 206.13 10.3177 207.448 10.7067L207.731 9.74772ZM199.944 7.55773C198.617 7.20374 197.303 6.86354 196.002 6.53694L195.759 7.50686C197.055 7.83223 198.364 8.1712 199.687 8.52395L199.944 7.55773ZM192.107 5.5904C190.77 5.2765 189.447 4.97733 188.137 4.69267L187.925 5.66983C189.229 5.95329 190.546 6.25124 191.878 6.56391L192.107 5.5904ZM184.216 3.87541C182.867 3.60661 181.532 3.35357 180.212 3.11607L180.035 4.10026C181.349 4.33666 182.677 4.58851 184.02 4.85614L184.216 3.87541ZM176.261 2.44499C174.903 2.2282 173.561 2.0282 172.232 1.84464L172.095 2.83522C173.417 3.01779 174.753 3.21678 176.103 3.43248L176.261 2.44499ZM168.235 1.33701C166.879 1.18016 165.538 1.0409 164.21 0.918857L164.119 1.91467C165.438 2.03597 166.772 2.17441 168.12 2.33038L168.235 1.33701ZM160.171 0.597358C158.82 0.50674 157.482 0.434365 156.159 0.379864L156.118 1.37902C157.432 1.43315 158.761 1.50508 160.105 1.59514L160.171 0.597358ZM152.092 0.267543C150.73 0.248633 149.383 0.249014 148.049 0.268194L148.063 1.26806C149.388 1.24904 150.726 1.24869 152.078 1.26744L152.092 0.267543ZM144.02 0.38441C142.655 0.44382 141.303 0.523183 139.965 0.621985L140.038 1.6193C141.367 1.5212 142.708 1.44243 144.064 1.38347L144.02 0.38441ZM135.935 0.981349C134.588 1.12244 133.252 1.28344 131.928 1.46372L132.063 2.45457C133.377 2.27571 134.702 2.11593 136.04 1.9759L135.935 0.981349ZM127.919 2.07339C126.581 2.2982 125.255 2.54264 123.938 2.80624L124.134 3.78678C125.441 3.52523 126.757 3.28263 128.084 3.05958L127.919 2.07339ZM119.986 3.65999C118.668 3.96553 117.359 4.29005 116.058 4.63289L116.313 5.59988C117.605 5.25953 118.904 4.93737 120.212 4.63411L119.986 3.65999ZM112.16 5.71997C111.513 5.91027 110.868 6.10498 110.224 6.30406L110.519 7.25944C111.159 7.0617 111.8 6.86828 112.442 6.67932L112.16 5.71997ZM110.224 6.30406C109.585 6.50152 108.952 6.70441 108.324 6.91264L108.638 7.86183C109.26 7.65575 109.887 7.45491 110.519 7.25944L110.224 6.30406ZM104.605 8.22997C103.359 8.70057 102.134 9.1934 100.929 9.70822L101.322 10.6278C102.514 10.1186 103.726 9.6311 104.958 9.1655L104.605 8.22997ZM97.3211 11.3446C96.1249 11.9194 94.9497 12.5171 93.7949 13.1373L94.2681 14.0182C95.4096 13.4051 96.5714 12.8143 97.7542 12.246L97.3211 11.3446ZM90.3554 15.0869C89.2176 15.7666 88.1005 16.4694 87.0036 17.1952L87.5554 18.0292C88.6395 17.3119 89.7436 16.6171 90.8682 15.9453L90.3554 15.0869ZM83.7519 19.4555C82.6846 20.2342 81.6372 21.0358 80.609 21.8601L81.2344 22.6403C82.2509 21.8255 83.2864 21.033 84.3414 20.2633L83.7519 19.4555ZM77.5775 24.4032C76.5863 25.2729 75.6137 26.1648 74.6591 27.0784L75.3505 27.8009C76.2949 26.897 77.2568 26.0149 78.237 25.1549L77.5775 24.4032ZM71.8598 29.8725C70.9492 30.8199 70.0556 31.7884 69.1782 32.7775L69.9263 33.4411C70.795 32.4617 71.6796 31.5031 72.5808 30.5654L71.8598 29.8725ZM66.6114 35.7859C65.7779 36.801 64.9596 37.8358 64.1559 38.89L64.9512 39.4963C65.7477 38.4514 66.5586 37.426 67.3842 36.4205L66.6114 35.7859ZM61.8138 42.0742C61.0564 43.1409 60.3124 44.2259 59.5812 45.3287L60.4146 45.8814C61.1401 44.7871 61.8781 43.7109 62.6292 42.6531L61.8138 42.0742ZM57.4477 48.654C56.7561 49.7675 56.0762 50.8978 55.4075 52.0447L56.2713 52.5485C56.9355 51.4093 57.6107 50.2869 58.2972 49.1815L57.4477 48.654ZM53.4647 55.4786C52.8363 56.623 52.2179 57.7827 51.6089 58.9575L52.4967 59.4177C53.1021 58.2498 53.7168 57.0971 54.3412 55.9599L53.4647 55.4786ZM49.8297 62.4858C49.2535 63.6603 48.6857 64.849 48.1261 66.0515L49.0326 66.4734C49.5896 65.277 50.1544 64.0945 50.7275 62.9262L49.8297 62.4858ZM46.4991 69.6358C45.97 70.8309 45.448 72.0389 44.9328 73.2594L45.854 73.6483C46.3671 72.4329 46.8868 71.2303 47.4135 70.0406L46.4991 69.6358ZM43.4254 76.913C42.9383 78.1208 42.4571 79.3402 41.9814 80.5711L42.9142 80.9316C43.3881 79.7051 43.8676 78.4902 44.3528 77.2872L43.4254 76.913ZM40.5839 84.2626C40.1293 85.4881 39.6796 86.7245 39.2345 87.9714L40.1762 88.3075C40.62 87.0644 41.0683 85.8319 41.5215 84.6104L40.5839 84.2626ZM37.9333 91.6834C37.5072 92.9209 37.0851 94.1684 36.6668 95.4255L37.6156 95.7413C38.033 94.4872 38.4539 93.2431 38.8788 92.009L37.9333 91.6834ZM35.442 99.1657C35.0415 100.408 34.6442 101.659 34.2498 102.92L35.2042 103.219C35.5978 101.961 35.9942 100.712 36.3938 99.4725L35.442 99.1657ZM33.0847 106.695C32.7055 107.941 32.3288 109.195 31.9542 110.457L32.9129 110.741C33.2868 109.481 33.6629 108.23 34.0414 106.987L33.0847 106.695ZM30.8431 114.246C30.4799 115.498 30.1186 116.759 29.7588 118.026L30.7208 118.299C31.0801 117.033 31.4409 115.775 31.8035 114.524L30.8431 114.246ZM28.693 121.819C28.3424 123.079 27.9929 124.346 27.6444 125.62L28.609 125.884C28.9571 124.611 29.3062 123.346 29.6564 122.087L28.693 121.819ZM26.6147 129.415C26.2739 130.68 25.9337 131.953 25.594 133.232L26.5605 133.488C26.8999 132.21 27.2398 130.939 27.5803 129.675L26.6147 129.415ZM24.592 137.026C24.2593 138.294 23.9268 139.567 23.5943 140.847L24.5622 141.098C24.8945 139.82 25.2268 138.547 25.5593 137.28L24.592 137.026ZM22.6105 144.649C22.2838 145.917 21.9569 147.19 21.6296 148.469L22.5983 148.717C22.9256 147.438 23.2524 146.166 23.5789 144.899L22.6105 144.649ZM20.657 152.279C20.3342 153.546 20.0108 154.819 19.6865 156.097L20.6558 156.343C20.9801 155.065 21.3034 153.793 21.6261 152.526L20.657 152.279ZM18.7198 159.912C18.5582 160.55 18.3963 161.19 18.2342 161.83L19.2036 162.076C19.3658 161.435 19.5276 160.796 19.6892 160.157L18.7198 159.912ZM18.7189 161.953L19.6884 162.198L18.7189 161.953ZM415.986 110.882L415.486 111.749L415.986 110.882ZM486.634 447.612L487.183 448.448L486.634 447.612ZM140.414 386.594L140.183 387.567L140.414 386.594ZM110.372 6.78173L110.667 7.73711L110.372 6.78173ZM17.7495 161.708C17.587 162.35 17.423 162.994 17.2576 163.64L19.195 164.136C19.3609 163.489 19.5254 162.843 19.6884 162.198L17.7495 161.708ZM16.25 167.533C15.9134 168.823 15.5724 170.119 15.2282 171.421L17.1618 171.932C17.5064 170.629 17.8479 169.331 18.1852 168.039L16.25 167.533ZM14.1953 175.314C13.852 176.604 13.5067 177.899 13.1603 179.199L15.0929 179.714C15.4392 178.414 15.7846 177.118 16.128 175.828L14.1953 175.314ZM12.1244 183.094C11.7815 184.387 11.4386 185.684 11.0967 186.985L13.031 187.493C13.3724 186.194 13.7149 184.898 14.0575 183.607L12.1244 183.094ZM10.0782 190.886C9.74229 192.182 9.40823 193.483 9.07698 194.787L11.0154 195.279C11.3458 193.979 11.679 192.681 12.0142 191.388L10.0782 190.886ZM8.09492 198.698C7.77222 200.001 7.45319 201.306 7.13878 202.614L9.08344 203.081C9.39661 201.778 9.71453 200.477 10.0362 199.179L8.09492 198.698ZM6.21188 206.54C5.90865 207.849 5.61092 209.161 5.31965 210.475L7.27218 210.907C7.56204 209.6 7.85835 208.295 8.16027 206.992L6.21188 206.54ZM4.46661 214.419C4.18935 215.736 3.91937 217.054 3.65763 218.374L5.61949 218.763C5.87954 217.451 6.14793 216.14 6.42372 214.831L4.46661 214.419ZM2.89823 222.339C2.6536 223.664 2.4182 224.991 2.19294 226.318L4.16471 226.653C4.38829 225.335 4.62207 224.019 4.86499 222.702L2.89823 222.339ZM1.54796 230.305C1.34323 231.639 1.14964 232.973 0.968118 234.307L2.94987 234.576C3.12977 233.254 3.32173 231.931 3.5248 230.609L1.54796 230.305ZM0.460109 238.316C0.302975 239.658 0.158987 240.999 0.0291659 242.34L2.01984 242.533C2.14838 241.205 2.29088 239.878 2.44649 238.549L0.460109 238.316ZM-0.317723 246.369C-0.418897 247.717 -0.504843 249.064 -0.574531 250.41L1.42275 250.514C1.49168 249.184 1.57664 247.852 1.67669 246.519L-0.317723 246.369ZM-0.734306 254.455C-0.7707 255.807 -0.789747 257.157 -0.790308 258.506L1.20965 258.507C1.21027 257.176 1.22904 255.843 1.265 254.508L-0.734306 254.455ZM-0.73566 262.557C-0.698197 263.909 -0.641095 265.26 -0.563358 266.608L1.43335 266.493C1.35678 265.165 1.30051 263.834 1.26356 262.501L-0.73566 262.557ZM-0.266676 270.651C-0.146195 271.999 -0.00390505 273.344 0.161196 274.686L2.14622 274.442C1.98391 273.122 1.84393 271.799 1.72538 270.473L-0.266676 270.651ZM0.726443 278.705C0.938256 280.041 1.17393 281.373 1.43449 282.701L3.39708 282.316C3.1413 281.012 2.90984 279.704 2.70175 278.392L0.726443 278.705ZM2.29158 286.673C2.60148 287.988 2.93705 289.298 3.29928 290.604L5.22649 290.069C4.87134 288.789 4.54223 287.504 4.23819 286.214L2.29158 286.673ZM4.46559 294.503C4.87779 295.786 5.31708 297.064 5.78446 298.337L7.66193 297.648C7.2041 296.401 6.77368 295.148 6.36973 293.891L4.46559 294.503ZM7.26861 302.133C7.78412 303.374 8.32766 304.61 8.90019 305.84L10.7135 304.997C10.1528 303.792 9.62049 302.582 9.11563 301.366L7.26861 302.133ZM10.6998 309.503C11.3162 310.693 11.9612 311.877 12.6355 313.056L14.3714 312.062C13.711 310.908 13.0794 309.748 12.4757 308.583L10.6998 309.503ZM14.736 316.554C15.4484 317.687 16.1893 318.813 16.9594 319.934L18.6075 318.801C17.8528 317.703 17.1269 316.599 16.4289 315.489L14.736 316.554ZM19.3347 323.244C20.1369 324.316 20.9671 325.381 21.826 326.441L23.3794 325.181C22.5368 324.142 21.7225 323.096 20.936 322.045L19.3347 323.244ZM24.441 329.543C25.327 330.555 26.2405 331.56 27.1822 332.559L28.6376 331.188C27.7126 330.206 26.8155 329.219 25.9457 328.225L24.441 329.543ZM29.996 335.442C30.9606 336.397 31.9521 337.345 32.9711 338.287L34.3286 336.818C33.3261 335.891 32.3511 334.959 31.4028 334.02L29.996 335.442ZM35.9455 340.949C36.9604 341.829 38.0005 342.703 39.0662 343.571L40.3292 342.02C39.2793 341.165 38.255 340.304 37.2558 339.438L35.9455 340.949ZM42.2458 346.084C43.2972 346.89 44.3718 347.691 45.47 348.486L46.6428 346.866C45.5594 346.081 44.4996 345.292 43.4629 344.497L42.2458 346.084ZM48.8353 350.853C49.9208 351.596 51.0278 352.333 52.1566 353.064L53.2442 351.386C52.1291 350.663 51.0359 349.935 49.9642 349.202L48.8353 350.853ZM55.5754 355.222C56.7333 355.933 57.9127 356.64 59.1142 357.341L60.1219 355.613C58.9336 354.92 57.7673 354.221 56.6228 353.518L55.5754 355.222ZM62.5554 359.3C63.722 359.948 64.9082 360.591 66.1143 361.229L67.0496 359.461C65.8553 358.829 64.6811 358.192 63.5266 357.551L62.5554 359.3ZM69.7815 363.122C70.9454 363.709 72.1269 364.291 73.3261 364.868L74.1939 363.066C73.0053 362.494 71.8346 361.917 70.6816 361.336L69.7815 363.122ZM76.9776 366.587C78.2127 367.156 79.4659 367.719 80.7373 368.278L81.5424 366.448C80.2812 365.893 79.0383 365.334 77.8137 364.77L76.9776 366.587ZM84.3883 369.85C85.6069 370.363 86.8417 370.872 88.0928 371.377L88.8414 369.522C87.5995 369.021 86.3739 368.516 85.1646 368.006L84.3883 369.85ZM91.895 372.879C93.1452 373.363 94.4109 373.842 95.6926 374.318L96.3881 372.443C95.1151 371.97 93.8579 371.494 92.6164 371.014L91.895 372.879ZM99.4185 375.672C100.675 376.12 101.946 376.564 103.232 377.004L103.88 375.112C102.602 374.674 101.338 374.233 100.09 373.788L99.4185 375.672ZM107.134 378.313C108.388 378.725 109.656 379.133 110.937 379.538L111.54 377.631C110.266 377.229 109.005 376.822 107.759 376.413L107.134 378.313ZM114.739 380.717C116.019 381.106 117.312 381.492 118.619 381.875L119.181 379.955C117.881 379.575 116.594 379.191 115.321 378.803L114.739 380.717ZM122.58 383.011C123.848 383.368 125.128 383.722 126.421 384.072L126.944 382.142C125.658 381.793 124.384 381.441 123.122 381.086L122.58 383.011ZM130.263 385.094C131.555 385.432 132.86 385.767 134.177 386.098L134.665 384.158C133.354 383.829 132.055 383.496 130.768 383.159L130.263 385.094ZM138.163 387.082C138.833 387.245 139.507 387.406 140.183 387.567L140.646 385.621C139.972 385.461 139.301 385.3 138.634 385.139L138.163 387.082ZM140.183 387.567C140.842 387.724 141.499 387.881 142.155 388.038L142.621 386.093C141.964 385.935 141.305 385.778 140.646 385.621L140.183 387.567ZM146.077 388.984C147.379 389.3 148.677 389.617 149.97 389.936L150.448 387.994C149.153 387.675 147.853 387.357 146.549 387.04L146.077 388.984ZM153.834 390.894C155.124 391.216 156.408 391.539 157.688 391.863L158.179 389.924C156.897 389.6 155.61 389.276 154.319 388.954L153.834 390.894ZM161.606 392.861C162.907 393.195 164.203 393.529 165.495 393.865L165.997 391.929C164.704 391.593 163.406 391.258 162.103 390.924L161.606 392.861ZM169.353 394.874C170.635 395.211 171.911 395.549 173.183 395.887L173.698 393.955C172.424 393.615 171.146 393.277 169.862 392.939L169.353 394.874ZM177.087 396.933C178.386 397.283 179.68 397.634 180.968 397.986L181.495 396.056C180.204 395.704 178.909 395.353 177.608 395.002L177.087 396.933ZM184.819 399.042C186.097 399.395 187.37 399.749 188.639 400.103L189.176 398.176C187.906 397.822 186.631 397.468 185.351 397.114L184.819 399.042ZM192.522 401.192C193.818 401.558 195.108 401.924 196.393 402.291L196.941 400.367C195.655 400 194.363 399.634 193.065 399.268L192.522 401.192ZM200.231 403.392C201.506 403.759 202.775 404.127 204.039 404.495L204.598 402.575C203.333 402.206 202.062 401.838 200.785 401.47L200.231 403.392ZM207.912 405.629C209.203 406.008 210.489 406.388 211.769 406.769L212.338 404.851C211.056 404.471 209.769 404.09 208.476 403.71L207.912 405.629ZM215.593 407.91C216.863 408.29 218.127 408.671 219.386 409.052L219.965 407.138C218.704 406.756 217.439 406.375 216.168 405.994L215.593 407.91ZM223.258 410.229C224.544 410.621 225.824 411.013 227.099 411.406L227.687 409.494C226.411 409.101 225.129 408.708 223.842 408.316L223.258 410.229ZM230.906 412.582C232.178 412.977 233.445 413.371 234.707 413.766L235.304 411.857C234.041 411.462 232.772 411.067 231.498 410.672L230.906 412.582ZM238.562 414.976C239.842 415.379 241.116 415.781 242.384 416.184L242.988 414.277C241.719 413.875 240.444 413.471 239.163 413.068L238.562 414.976ZM246.171 417.389C247.45 417.797 248.724 418.206 249.993 418.613L250.604 416.709C249.335 416.301 248.06 415.893 246.779 415.484L246.171 417.389ZM253.827 419.849C255.099 420.26 256.366 420.67 257.626 421.08L258.244 419.178C256.983 418.768 255.715 418.357 254.442 417.946L253.827 419.849ZM261.397 422.309C262.686 422.729 263.968 423.149 265.244 423.568L265.868 421.668C264.591 421.249 263.307 420.829 262.018 420.407L261.397 422.309ZM269.054 424.821C270.318 425.237 271.576 425.652 272.828 426.066L273.456 424.167C272.203 423.753 270.945 423.338 269.68 422.921L269.054 424.821ZM276.643 427.329C277.923 427.754 279.197 428.177 280.464 428.598L281.095 426.7C279.827 426.279 278.553 425.856 277.273 425.431L276.643 427.329ZM284.247 429.857C285.516 430.28 286.778 430.7 288.033 431.119L288.666 429.222C287.41 428.803 286.148 428.382 284.879 427.96L284.247 429.857ZM291.864 432.397C293.134 432.821 294.399 433.243 295.656 433.663L296.289 431.766C295.032 431.346 293.768 430.924 292.497 430.5L291.864 432.397ZM299.424 434.92C300.711 435.349 301.991 435.776 303.264 436.2L303.896 434.302C302.623 433.878 301.343 433.452 300.057 433.023L299.424 434.92ZM307.064 437.464C308.325 437.882 309.578 438.298 310.826 438.711L311.454 436.812C310.208 436.4 308.955 435.984 307.695 435.566L307.064 437.464ZM314.674 439.983C315.95 440.403 317.219 440.821 318.482 441.235L319.105 439.334C317.844 438.921 316.575 438.504 315.3 438.083L314.674 439.983ZM322.249 442.466C323.541 442.887 324.827 443.305 326.105 443.718L326.72 441.815C325.444 441.402 324.16 440.985 322.869 440.565L322.249 442.466ZM329.919 444.946C331.188 445.353 332.45 445.755 333.705 446.153L334.31 444.247C333.056 443.849 331.796 443.447 330.529 443.041L329.919 444.946ZM337.568 447.371C338.848 447.773 340.121 448.169 341.387 448.56L341.978 446.65C340.714 446.259 339.444 445.863 338.166 445.463L337.568 447.371ZM345.205 449.732C346.502 450.127 347.791 450.516 349.073 450.899L349.646 448.983C348.367 448.601 347.081 448.212 345.787 447.819L345.205 449.732ZM352.897 452.032C354.192 452.412 355.48 452.785 356.76 453.152L357.311 451.229C356.035 450.864 354.751 450.491 353.46 450.113L352.897 452.032ZM360.632 454.248C361.915 454.607 363.191 454.958 364.459 455.303L364.983 453.373C363.72 453.03 362.449 452.679 361.17 452.322L360.632 454.248ZM368.38 456.351C369.679 456.692 370.971 457.026 372.255 457.351L372.746 455.412C371.468 455.089 370.182 454.756 368.888 454.416L368.38 456.351ZM376.151 458.318C377.466 458.638 378.774 458.948 380.073 459.249L380.525 457.301C379.232 457.002 377.932 456.693 376.623 456.375L376.151 458.318ZM383.956 460.126C385.287 460.418 386.61 460.7 387.924 460.97L388.328 459.012C387.022 458.742 385.708 458.463 384.384 458.172L383.956 460.126ZM391.844 461.75C393.177 462.006 394.501 462.249 395.816 462.481L396.163 460.511C394.858 460.282 393.544 460.04 392.221 459.786L391.844 461.75ZM399.778 463.145C401.112 463.358 402.437 463.557 403.754 463.742L404.033 461.762C402.729 461.578 401.415 461.381 400.093 461.17L399.778 463.145ZM407.754 464.267C409.091 464.429 410.42 464.577 411.74 464.709L411.94 462.719C410.633 462.588 409.318 462.442 407.995 462.282L407.754 464.267ZM415.77 465.067C417.112 465.171 418.445 465.258 419.77 465.329L419.876 463.331C418.568 463.262 417.25 463.176 415.924 463.073L415.77 465.067ZM423.819 465.491C425.165 465.527 426.502 465.545 427.831 465.544L427.829 463.544C426.519 463.545 425.201 463.528 423.873 463.492L423.819 465.491ZM431.885 465.48C433.232 465.439 434.57 465.377 435.901 465.294L435.777 463.298C434.467 463.38 433.15 463.441 431.824 463.481L431.885 465.48ZM439.942 464.975C441.284 464.846 442.618 464.695 443.945 464.521L443.684 462.538C442.381 462.709 441.07 462.858 439.75 462.984L439.942 464.975ZM447.95 463.92C449.28 463.695 450.602 463.446 451.917 463.172L451.51 461.214C450.22 461.483 448.922 461.727 447.617 461.948L447.95 463.92ZM455.863 462.27C457.17 461.943 458.471 461.591 459.765 461.213L459.203 459.293C457.935 459.664 456.66 460.009 455.379 460.329L455.863 462.27ZM463.624 459.998C464.899 459.569 466.167 459.112 467.429 458.628L466.713 456.761C465.476 457.235 464.234 457.682 462.985 458.103L463.624 459.998ZM471.176 457.104C472.408 456.573 473.635 456.015 474.856 455.429L473.991 453.626C472.794 454.2 471.592 454.747 470.385 455.267L471.176 457.104ZM478.469 453.608C479.651 452.982 480.829 452.329 482.002 451.649L480.999 449.919C479.848 450.586 478.693 451.226 477.533 451.84L478.469 453.608ZM485.462 449.556C486.037 449.193 486.61 448.824 487.183 448.448L486.085 446.776C485.522 447.146 484.959 447.508 484.395 447.864L485.462 449.556ZM487.183 448.448C487.735 448.085 488.286 447.714 488.834 447.336L487.699 445.689C487.163 446.059 486.625 446.421 486.085 446.776L487.183 448.448ZM492.098 444.981C493.163 444.177 494.22 443.345 495.267 442.485L493.998 440.939C492.971 441.782 491.936 442.597 490.893 443.384L492.098 444.981ZM498.318 439.879C499.318 438.991 500.309 438.077 501.29 437.139L499.907 435.694C498.944 436.615 497.971 437.512 496.99 438.383L498.318 439.879ZM504.129 434.325C505.066 433.364 505.993 432.379 506.909 431.373L505.431 430.026C504.529 431.016 503.618 431.984 502.697 432.929L504.129 434.325ZM509.543 428.386C510.41 427.369 511.268 426.333 512.114 425.277L510.553 424.026C509.72 425.066 508.876 426.087 508.022 427.087L509.543 428.386ZM514.571 422.115C515.371 421.054 516.161 419.974 516.94 418.876L515.309 417.718C514.541 418.801 513.762 419.865 512.974 420.911L514.571 422.115ZM519.225 415.558C519.96 414.458 520.685 413.342 521.398 412.21L519.707 411.143C519.002 412.26 518.287 413.361 517.562 414.446L519.225 415.558ZM523.506 408.766C524.182 407.629 524.847 406.477 525.501 405.311L523.756 404.333C523.11 405.485 522.454 406.622 521.787 407.745L523.506 408.766ZM527.419 401.786C528.042 400.606 528.654 399.413 529.255 398.206L527.464 397.315C526.871 398.507 526.266 399.686 525.651 400.852L527.419 401.786ZM530.99 394.613C531.557 393.403 532.113 392.181 532.656 390.946L530.826 390.14C530.288 391.361 529.739 392.569 529.179 393.765L530.99 394.613ZM534.225 387.271C534.733 386.043 535.229 384.804 535.713 383.554L533.849 382.831C533.37 384.067 532.879 385.292 532.377 386.506L534.225 387.271ZM537.129 379.777C537.579 378.534 538.017 377.282 538.444 376.019L536.549 375.379C536.127 376.628 535.693 377.867 535.248 379.096L537.129 379.777ZM539.687 372.204C540.087 370.931 540.474 369.65 540.849 368.36L538.929 367.801C538.558 369.078 538.174 370.346 537.779 371.604L539.687 372.204ZM541.923 364.517C542.269 363.227 542.602 361.929 542.923 360.624L540.981 360.146C540.663 361.438 540.333 362.723 539.991 363.999L541.923 364.517ZM543.839 356.726C544.129 355.431 544.407 354.128 544.672 352.818L542.712 352.421C542.449 353.718 542.174 355.007 541.887 356.289L543.839 356.726ZM545.43 348.867C545.667 347.561 545.891 346.248 546.103 344.929L544.128 344.612C543.919 345.918 543.697 347.217 543.462 348.51L545.43 348.867ZM546.697 340.973C546.882 339.649 547.055 338.318 547.214 336.981L545.228 336.744C545.07 338.068 544.9 339.385 544.716 340.696L546.697 340.973ZM547.647 333.016C547.778 331.692 547.897 330.363 548.002 329.029L546.008 328.872C545.904 330.193 545.787 331.508 545.657 332.819L547.647 333.016ZM548.279 325.012C548.356 323.69 548.421 322.363 548.473 321.031L546.475 320.953C546.423 322.272 546.359 323.586 546.282 324.895L548.279 325.012ZM548.59 317.03C548.615 315.692 548.628 314.349 548.627 313.003L546.627 313.005C546.628 314.338 546.615 315.666 546.59 316.991L548.59 317.03ZM548.584 309.019C548.557 307.688 548.517 306.355 548.463 305.018L546.465 305.098C546.518 306.422 546.558 307.742 546.585 309.06L548.584 309.019ZM548.261 300.997C548.182 299.674 548.089 298.349 547.983 297.021L545.989 297.18C546.094 298.495 546.186 299.807 546.265 301.117L548.261 300.997ZM547.625 293.035C547.493 291.704 547.347 290.37 547.187 289.034L545.201 289.272C545.359 290.595 545.504 291.915 545.635 293.233L547.625 293.035ZM546.674 285.078C546.49 283.762 546.293 282.444 546.082 281.124L544.107 281.439C544.316 282.746 544.511 284.051 544.693 285.355L546.674 285.078ZM545.409 277.158C545.174 275.851 544.926 274.543 544.664 273.233L542.703 273.625C542.962 274.922 543.208 276.218 543.441 277.512L545.409 277.158ZM543.842 269.324C543.554 268.02 543.253 266.715 542.938 265.409L540.994 265.878C541.306 267.171 541.604 268.463 541.889 269.755L543.842 269.324ZM541.962 261.524C541.626 260.242 541.277 258.959 540.915 257.676L538.99 258.22C539.349 259.49 539.694 260.761 540.027 262.03L541.962 261.524ZM539.786 253.825C539.398 252.547 538.996 251.267 538.58 249.988L536.678 250.606C537.09 251.873 537.488 253.14 537.872 254.406L539.786 253.825ZM537.315 246.216C536.879 244.959 536.431 243.702 535.968 242.445L534.091 243.135C534.549 244.38 534.994 245.625 535.425 246.871L537.315 246.216ZM534.541 238.675C534.06 237.443 533.567 236.211 533.06 234.98L531.211 235.741C531.713 236.96 532.201 238.181 532.677 239.401L534.541 238.675ZM531.505 231.301C530.973 230.076 530.428 228.851 529.87 227.627L528.05 228.457C528.604 229.67 529.144 230.883 529.67 232.097L531.505 231.301ZM528.171 223.996C527.6 222.805 527.016 221.614 526.418 220.424L524.631 221.322C525.223 222.5 525.802 223.68 526.368 224.861L528.171 223.996ZM524.587 216.859C523.963 215.672 523.326 214.486 522.675 213.301L520.922 214.264C521.567 215.438 522.198 216.613 522.816 217.789L524.587 216.859ZM520.733 209.839C520.074 208.689 519.403 207.541 518.718 206.394L517.001 207.419C517.679 208.556 518.345 209.694 518.998 210.833L520.733 209.839ZM516.626 202.959C515.922 201.826 515.205 200.695 514.475 199.566L512.795 200.652C513.519 201.771 514.229 202.892 514.927 204.015L516.626 202.959ZM512.292 196.252C511.552 195.149 510.799 194.048 510.034 192.95L508.392 194.093C509.151 195.182 509.898 196.273 510.631 197.367L512.292 196.252ZM507.699 189.66C506.923 188.586 506.135 187.514 505.334 186.445L503.733 187.643C504.527 188.704 505.309 189.766 506.078 190.831L507.699 189.66ZM502.926 183.283C502.112 182.232 501.285 181.183 500.445 180.136L498.885 181.387C499.717 182.425 500.538 183.466 501.346 184.508L502.926 183.283ZM497.891 177.003C497.049 175.988 496.196 174.975 495.331 173.965L493.812 175.267C494.67 176.268 495.516 177.273 496.351 178.279L497.891 177.003ZM492.72 170.967C491.838 169.97 490.945 168.975 490.039 167.983L488.562 169.332C489.461 170.316 490.347 171.303 491.222 172.292L492.72 170.967ZM487.287 165.016C486.385 164.058 485.471 163.103 484.546 162.151L483.112 163.544C484.03 164.489 484.936 165.437 485.832 166.388L487.287 165.016ZM481.757 159.322C480.816 158.381 479.864 157.444 478.901 156.509L477.508 157.945C478.464 158.872 479.41 159.803 480.344 160.736L481.757 159.322ZM475.976 153.714C475.016 152.809 474.045 151.908 473.063 151.009L471.713 152.485C472.687 153.377 473.652 154.272 474.605 155.17L475.976 153.714ZM470.119 148.354C469.127 147.471 468.124 146.592 467.111 145.715L465.803 147.228C466.809 148.098 467.805 148.972 468.79 149.848L470.119 148.354ZM464.038 143.095C463.021 142.239 461.993 141.387 460.955 140.537L459.688 142.086C460.72 142.929 461.741 143.776 462.751 144.626L464.038 143.095ZM457.88 138.056C456.846 137.232 455.801 136.411 454.745 135.593L453.52 137.174C454.568 137.987 455.607 138.802 456.635 139.621L457.88 138.056ZM451.549 133.149C450.473 132.337 449.387 131.528 448.291 130.723L447.107 132.335C448.196 133.135 449.276 133.939 450.344 134.745L451.549 133.149ZM445.108 128.414C444.038 127.648 442.958 126.885 441.869 126.125L440.724 127.765C441.807 128.52 442.88 129.279 443.943 130.04L445.108 128.414ZM438.572 123.854C437.464 123.1 436.346 122.35 435.218 121.602L434.113 123.27C435.234 124.013 436.346 124.759 437.448 125.508L438.572 123.854ZM431.856 119.403C430.758 118.694 429.651 117.988 428.536 117.284L427.469 118.976C428.579 119.676 429.679 120.378 430.771 121.083L431.856 119.403ZM425.161 115.184C424.027 114.487 422.884 113.793 421.732 113.103L420.704 114.818C421.85 115.505 422.986 116.195 424.114 116.888L425.161 115.184ZM418.249 111.04C417.663 110.698 417.076 110.357 416.486 110.016L415.486 111.749C416.073 112.087 416.657 112.427 417.239 112.767L418.249 111.04ZM416.486 110.016C415.891 109.673 415.298 109.33 414.705 108.989L413.706 110.722C414.298 111.063 414.892 111.405 415.486 111.749L416.486 110.016ZM411.165 106.951C409.99 106.275 408.82 105.603 407.654 104.935L406.659 106.67C407.824 107.338 408.994 108.009 410.168 108.685L411.165 106.951ZM404.172 102.942C403.017 102.281 401.866 101.624 400.719 100.971L399.729 102.709C400.875 103.362 402.025 104.018 403.18 104.678L404.172 102.942ZM397.187 98.9618C396 98.2874 394.818 97.6172 393.642 96.9509L392.656 98.6913C393.832 99.3571 395.013 100.027 396.2 100.701L397.187 98.9618ZM390.127 94.9642C388.961 94.306 387.799 93.6518 386.643 93.0015L385.663 94.7448C386.818 95.3945 387.979 96.0483 389.144 96.706L390.127 94.9642ZM383.171 91.0523C381.973 90.381 380.78 89.7139 379.593 89.0512L378.618 90.7975C379.804 91.4597 380.996 92.1262 382.193 92.797L383.171 91.0523ZM376.048 87.0761C374.872 86.422 373.702 85.7722 372.536 85.1267L371.567 86.8762C372.731 87.5211 373.901 88.1704 375.076 88.824L376.048 87.0761ZM369.057 83.2029C367.863 82.5445 366.676 81.8906 365.494 81.2413L364.531 82.9942C365.711 83.6429 366.898 84.2962 368.09 84.9541L369.057 83.2029ZM361.922 79.2837C360.738 78.6358 359.559 77.9925 358.386 77.3538L357.43 79.1103C358.602 79.7484 359.779 80.391 360.963 81.0383L361.922 79.2837ZM354.884 75.4514C353.693 74.8061 352.509 74.1656 351.33 73.5298L350.381 75.2901C351.558 75.9252 352.742 76.5651 353.931 77.2098L354.884 75.4514ZM347.737 71.5969C346.546 70.9576 345.36 70.3232 344.181 69.6938L343.239 71.4582C344.417 72.0869 345.601 72.7206 346.791 73.3592L347.737 71.5969ZM340.661 67.8202C339.465 67.185 338.275 66.555 337.091 65.9301L336.158 67.6988C337.34 68.323 338.529 68.9523 339.724 69.5867L340.661 67.8202ZM333.482 64.0303C332.285 63.4024 331.095 62.7797 329.911 62.1624L328.987 63.9357C330.169 64.5523 331.357 65.1741 332.552 65.8013L333.482 64.0303ZM326.38 60.3262C325.169 59.6989 323.966 59.0771 322.769 58.461L321.854 60.2392C323.049 60.8545 324.251 61.4754 325.46 62.1019L326.38 60.3262ZM319.149 56.604C317.95 55.9907 316.757 55.3831 315.571 54.7812L314.666 56.5646C315.85 57.1656 317.041 57.7723 318.239 58.3847L319.149 56.604ZM312.025 52.9879C310.795 52.3684 309.573 51.7551 308.358 51.148L307.464 52.937C308.677 53.5432 309.897 54.1555 311.125 54.774L312.025 52.9879ZM304.736 49.345C303.536 48.7502 302.343 48.1614 301.157 47.5788L300.275 49.3737C301.459 49.9554 302.649 50.5431 303.848 51.137L304.736 49.345ZM297.522 45.8003C296.293 45.2018 295.072 44.61 293.858 44.0248L292.989 45.8262C294.201 46.4103 295.419 47.0011 296.646 47.5985L297.522 45.8003ZM290.242 42.2889C289.028 41.7094 287.823 41.1366 286.625 40.5706L285.77 42.3788C286.965 42.9437 288.169 43.5153 289.38 44.0936L290.242 42.2889ZM282.924 38.8314C281.699 38.2588 280.482 37.6933 279.274 37.135L278.435 38.9506C279.641 39.5077 280.855 40.0719 282.078 40.6433L282.924 38.8314ZM275.653 35.4725C274.4 34.9007 273.156 34.3366 271.921 33.7802L271.1 35.6037C272.332 36.1588 273.573 36.7215 274.823 37.292L275.653 35.4725ZM268.242 32.1341C267.018 31.5902 265.802 31.0541 264.596 30.5256L263.794 32.3576C264.997 32.8846 266.209 33.4193 267.43 33.9618L268.242 32.1341ZM260.838 28.8923C259.595 28.3563 258.361 27.8285 257.136 27.3089L256.355 29.15C257.576 29.668 258.807 30.1943 260.046 30.7289L260.838 28.8923ZM253.444 25.7558C252.176 25.2268 250.917 24.7068 249.668 24.1957L248.911 26.0467C250.155 26.556 251.41 27.0744 252.674 27.6017L253.444 25.7558ZM245.951 22.6892C244.688 22.1824 243.436 21.685 242.193 21.1968L241.462 23.0583C242.7 23.5447 243.948 24.0403 245.206 24.5454L245.951 22.6892ZM238.408 19.7261C237.156 19.2456 235.915 18.7745 234.684 18.313L233.982 20.1858C235.208 20.6453 236.444 21.1145 237.691 21.5932L238.408 19.7261ZM230.843 16.8917C229.57 16.427 228.309 15.9727 227.058 15.5288L226.389 17.4136C227.634 17.8555 228.89 18.3078 230.157 18.7704L230.843 16.8917ZM223.243 14.1952C221.95 13.7502 220.669 13.3165 219.399 12.8939L218.768 14.7915C220.031 15.212 221.305 15.6435 222.592 16.0863L223.243 14.1952ZM215.594 11.6495C214.283 11.2285 212.984 10.8197 211.697 10.4229L211.107 12.3341C212.387 12.7286 213.678 13.1351 214.982 13.5538L215.594 11.6495ZM207.873 9.26818C206.549 8.87732 205.239 8.49943 203.941 8.13439L203.399 10.0597C204.689 10.4223 205.991 10.7978 207.306 11.1863L207.873 9.26818ZM200.073 7.07461C198.744 6.72001 197.427 6.37918 196.124 6.052L195.637 7.9918C196.931 8.31658 198.237 8.65493 199.558 9.00707L200.073 7.07461ZM192.221 5.1036C190.881 4.7891 189.556 4.48932 188.243 4.20406L187.818 6.15841C189.12 6.44129 190.435 6.73864 191.764 7.05067L192.221 5.1036ZM184.313 3.38506C182.961 3.11564 181.624 2.86204 180.3 2.62395L179.946 4.59237C181.257 4.82819 182.582 5.07948 183.922 5.3465L184.313 3.38506ZM176.34 1.95127C174.979 1.7339 173.633 1.53337 172.301 1.34936L172.027 3.33053C173.345 3.51259 174.677 3.71104 176.024 3.92623L176.34 1.95127ZM168.292 0.840315C166.932 0.683039 165.587 0.543357 164.256 0.420962L164.073 2.41253C165.388 2.53349 166.718 2.67154 168.062 2.82707L168.292 0.840315ZM160.205 0.0984956C158.849 0.00760602 157.507 -0.0650335 156.179 -0.119715L156.097 1.8786C157.408 1.93255 158.732 2.00424 160.071 2.09403L160.205 0.0984956ZM152.099 -0.232428C150.733 -0.251362 149.38 -0.251025 148.042 -0.231788L148.07 1.76801C149.39 1.74905 150.723 1.74869 152.071 1.76738L152.099 -0.232428ZM143.998 -0.115115C142.628 -0.0554921 141.272 0.0241791 139.928 0.123329L140.075 2.11793C141.399 2.02024 142.735 1.94177 144.085 1.883L143.998 -0.115115ZM135.883 0.484058C134.53 0.625711 133.19 0.787329 131.86 0.968306L132.13 2.95002C133.439 2.77182 134.759 2.61267 136.092 2.47319L135.883 0.484058ZM127.836 1.58034C126.493 1.80595 125.162 2.05138 123.839 2.31593L124.232 4.27705C125.534 4.01651 126.845 3.77482 128.167 3.55265L127.836 1.58034ZM119.873 3.17291C118.55 3.47962 117.237 3.80529 115.931 4.14937L116.44 6.08337C117.727 5.74425 119.022 5.42331 120.324 5.12116L119.873 3.17291ZM112.019 5.24032C111.37 5.43123 110.722 5.62663 110.076 5.82639L110.667 7.73711C111.304 7.54002 111.943 7.34729 112.583 7.15901L112.019 5.24032ZM110.076 5.82639C109.435 6.02485 108.798 6.22874 108.167 6.43803L108.796 8.33644C109.414 8.13141 110.038 7.93161 110.667 7.73711L110.076 5.82639ZM104.428 7.76224C103.176 8.23531 101.944 8.73083 100.733 9.24845L101.519 11.0876C102.704 10.5812 103.909 10.0963 105.135 9.63326L104.428 7.76224ZM97.1046 10.8939C95.9016 11.472 94.7198 12.073 93.5584 12.6968L94.5047 14.4588C95.6396 13.8492 96.7947 13.2617 97.9708 12.6967L97.1046 10.8939ZM90.0989 14.6576C88.9545 15.3413 87.831 16.0482 86.7277 16.7782L87.8312 18.4462C88.9091 17.7331 90.0066 17.0425 91.1246 16.3746L90.0989 14.6576ZM83.4572 19.0515C82.3837 19.8348 81.3303 20.641 80.2963 21.4699L81.5472 23.0305C82.5579 22.2203 83.5873 21.4325 84.636 20.6672L83.4572 19.0515ZM77.2477 24.0274C76.251 24.9019 75.2731 25.7986 74.3133 26.7172L75.6962 28.1621C76.6354 27.2631 77.5921 26.386 78.5668 25.5308L77.2477 24.0274ZM71.4993 29.526C70.584 30.4783 69.6858 31.4517 68.8041 32.4457L70.3004 33.7728C71.1647 32.7984 72.0448 31.8446 72.9413 30.9119L71.4993 29.526ZM66.2249 35.4686C65.3876 36.4885 64.5655 37.528 63.7583 38.5869L65.3488 39.7994C66.1418 38.7592 66.9489 37.7386 67.7707 36.7378L66.2249 35.4686ZM61.4061 41.7847C60.6456 42.8559 59.8986 43.9453 59.1645 45.0524L60.8313 46.1577C61.554 45.0678 62.289 43.9959 63.0369 42.9425L61.4061 41.7847ZM57.0229 48.3902C56.3288 49.5077 55.6466 50.6421 54.9755 51.7928L56.7033 52.8003C57.3652 51.6651 58.0379 50.5467 58.7219 49.4453L57.0229 48.3902ZM53.0264 55.2379C52.3961 56.3859 51.7757 57.5492 51.165 58.7274L52.9405 59.6478C53.5442 58.4833 54.1571 57.3342 54.7795 56.2005L53.0264 55.2379ZM49.3809 62.2655C48.8031 63.4433 48.2338 64.635 47.6727 65.8405L49.4859 66.6844C50.0415 65.4909 50.6048 64.3115 51.1764 63.1464L49.3809 62.2655ZM46.0419 69.4333C45.5116 70.6312 44.9884 71.8418 44.4722 73.065L46.3147 73.8428C46.8267 72.6299 47.3452 71.4299 47.8707 70.2431L46.0419 69.4333ZM42.9617 76.726C42.4736 77.9361 41.9915 79.1578 41.515 80.3909L43.3806 81.1118C43.8537 79.8875 44.3322 78.6749 44.8165 77.4742L42.9617 76.726ZM40.1152 84.0887C39.6598 85.3162 39.2094 86.5545 38.7635 87.8033L40.6471 88.4756C41.0902 87.2343 41.5379 86.0039 41.9903 84.7843L40.1152 84.0887ZM37.4605 91.5206C37.0338 92.7598 36.6113 94.0089 36.1924 95.2677L38.0901 95.8992C38.5068 94.6467 38.9272 93.4042 39.3515 92.1717L37.4605 91.5206ZM34.9661 99.0123C34.5652 100.256 34.1674 101.509 33.7726 102.771L35.6814 103.368C36.0746 102.111 36.4705 100.864 36.8697 99.626L34.9661 99.0123ZM32.6064 106.55C32.2268 107.796 31.8498 109.051 31.4749 110.315L33.3923 110.884C33.7659 109.625 34.1416 108.374 34.5197 107.132L32.6064 106.55ZM30.3628 114.106C29.9994 115.36 29.6379 116.621 29.2778 117.89L31.2018 118.436C31.5609 117.171 31.9214 115.913 32.2837 114.663L30.3628 114.106ZM28.2114 121.685C27.8605 122.946 27.5108 124.214 27.1621 125.488L29.0913 126.016C29.4392 124.744 29.7881 123.479 30.1381 122.221L28.2114 121.685ZM26.1319 129.285C25.7909 130.551 25.4506 131.824 25.1108 133.103L27.0437 133.617C27.383 132.339 27.7227 131.069 28.0631 129.805L26.1319 129.285ZM24.1084 136.899C23.7756 138.167 23.443 139.441 23.1104 140.721L25.0461 141.224C25.3783 139.946 25.7105 138.673 26.0429 137.407L24.1084 136.899ZM22.1263 144.524C21.7996 145.792 21.4726 147.066 21.1452 148.345L23.0827 148.841C23.4099 147.563 23.7366 146.29 24.063 145.023L22.1263 144.524ZM20.1725 152.155C19.8497 153.423 19.5262 154.696 19.2019 155.974L21.1405 156.466C21.4647 155.188 21.788 153.916 22.1107 152.649L20.1725 152.155ZM18.2351 159.789C18.0735 160.427 17.9116 161.067 17.7495 161.708L19.6884 162.198C19.8505 161.558 20.0123 160.918 20.1739 160.28L18.2351 159.789Z" fill="#72A631" fill-opacity="0.3" mask="url(#path-1-inside-1_3744_25183)"/>
</svg>
