<svg width="592" height="453" viewBox="0 0 592 453" fill="none" xmlns="http://www.w3.org/2000/svg">
<mask id="path-1-inside-1_3744_25185" fill="white">
<path d="M529.454 108.358C574.053 175.834 607.778 227.631 582.616 281.218C557.454 334.805 500.256 373.43 298.846 437.564C97.4354 501.699 -12.5219 349.424 1.31505 262.392C15.152 175.361 124.459 153.262 280.569 46.8076C436.68 -59.6465 484.856 40.8815 529.454 108.358Z"/>
</mask>
<path d="M529.454 108.358L529.037 108.634L529.454 108.358ZM298.846 437.564L298.998 438.041L298.846 437.564ZM1.31505 262.392L0.821253 262.314L1.31505 262.392ZM280.569 46.8076L280.851 47.2207L280.569 46.8076ZM582.616 281.218L583.069 281.43L582.616 281.218ZM529.871 108.082C529.505 107.527 529.137 106.97 528.77 106.41L527.934 106.959C528.302 107.52 528.67 108.078 529.037 108.634L529.871 108.082ZM526.561 103.03C525.832 101.908 525.101 100.778 524.367 99.6429L523.527 100.185C524.261 101.322 524.993 102.452 525.723 103.575L526.561 103.03ZM522.177 96.245C521.452 95.1184 520.725 93.9869 519.995 92.8512L519.153 93.3921C519.884 94.5276 520.611 95.6594 521.336 96.7861L522.177 96.245ZM517.805 89.4506C517.079 88.3231 516.349 87.1926 515.615 86.0601L514.776 86.6038C515.509 87.7356 516.238 88.8654 516.965 89.9924L517.805 89.4506ZM513.41 82.6693C512.676 81.5445 511.938 80.4185 511.195 79.2924L510.36 79.843C511.102 80.9676 511.839 82.0923 512.573 83.216L513.41 82.6693ZM508.958 75.9226C508.211 74.804 507.459 73.6862 506.702 72.5699L505.874 73.1313C506.63 74.2454 507.381 75.3613 508.127 76.4781L508.958 75.9226ZM504.418 69.2322C503.653 68.1238 502.882 67.0178 502.106 65.9153L501.288 66.4912C502.063 67.591 502.832 68.6943 503.595 69.8004L504.418 69.2322ZM499.759 62.6212C498.971 61.527 498.177 60.4372 497.375 59.3525L496.571 59.9466C497.37 61.028 498.162 62.1146 498.948 63.2057L499.759 62.6212ZM494.951 56.1147C494.135 55.0396 493.312 53.9705 492.481 52.9084L491.694 53.5245C492.521 54.5826 493.342 55.6479 494.155 56.7194L494.951 56.1147ZM489.964 49.7414C489.115 48.6905 488.258 47.6475 487.393 46.6134L486.626 47.2551C487.488 48.2846 488.341 49.3232 489.186 50.3698L489.964 49.7414ZM484.768 43.5338C483.882 42.5133 482.986 41.5025 482.082 40.5026L481.34 41.1734C482.24 42.1682 483.131 43.1739 484.014 44.1896L484.768 43.5338ZM479.335 37.5299C478.406 36.5467 477.467 35.5753 476.519 34.6166L475.808 35.32C476.751 36.273 477.684 37.2389 478.608 38.2166L479.335 37.5299ZM473.636 31.7736C472.66 30.8359 471.675 29.9119 470.678 29.0028L470.004 29.7417C470.994 30.6447 471.973 31.5626 472.942 32.4944L473.636 31.7736ZM467.647 26.3154C466.622 25.4322 465.585 24.5651 464.537 23.7148L463.907 24.4915C464.948 25.3354 465.977 26.1961 466.994 27.0729L467.647 26.3154ZM461.349 21.2119C460.272 20.3938 459.183 19.5936 458.081 18.8125L457.503 19.6284C458.596 20.403 459.676 21.1965 460.744 22.0082L461.349 21.2119ZM454.732 16.5254C453.603 15.7832 452.461 15.061 451.305 14.3597L450.786 15.2147C451.932 15.9095 453.064 16.6253 454.183 17.361L454.732 16.5254ZM447.795 12.3203C446.616 11.665 445.423 11.0315 444.216 10.4207L443.765 11.313C444.96 11.9178 446.142 12.5453 447.309 13.1944L447.795 12.3203ZM440.554 8.65944C439.33 8.10091 438.091 7.56562 436.837 7.05452L436.459 7.98054C437.7 8.48642 438.927 9.01629 440.139 9.56922L440.554 8.65944ZM433.038 5.59746C431.775 5.14336 430.498 4.71356 429.205 4.30894L428.906 5.26328C430.186 5.66369 431.45 6.08904 432.699 6.53845L433.038 5.59746ZM425.293 3.17478C424 2.82949 422.692 2.50909 421.369 2.21441L421.152 3.19049C422.461 3.48213 423.755 3.79921 425.035 4.14091L425.293 3.17478ZM417.375 1.41204C416.06 1.1763 414.73 0.965598 413.386 0.7807L413.25 1.77138C414.581 1.95443 415.897 2.16301 417.198 2.39635L417.375 1.41204ZM409.345 0.307918C408.014 0.179147 406.669 0.0752576 405.31 -0.0030753L405.252 0.995271C406.599 1.07285 407.931 1.17575 409.249 1.30327L409.345 0.307918ZM401.26 -0.159244C399.917 -0.185798 398.559 -0.187799 397.188 -0.164646L397.205 0.83521C398.564 0.81226 399.909 0.814254 401.24 0.840561L401.26 -0.159244ZM393.166 -0.0261623C391.811 0.043943 390.443 0.138169 389.062 0.257073L389.148 1.25339C390.518 1.13545 391.874 1.04201 393.217 0.972504L393.166 -0.0261623ZM385.093 0.662555C383.759 0.820009 382.413 1.00008 381.054 1.20323L381.202 2.19224C382.551 1.99058 383.887 1.81188 385.21 1.65566L385.093 0.662555ZM377.056 1.86131C375.751 2.09545 374.436 2.35049 373.108 2.62685L373.312 3.60585C374.631 3.33136 375.937 3.07806 377.232 2.84557L377.056 1.86131ZM369.091 3.5202C367.811 3.8228 366.52 4.14488 365.218 4.48678L365.473 5.45396C366.766 5.11413 368.049 4.79405 369.321 4.49338L369.091 3.5202ZM361.319 5.5614C360.012 5.93817 358.695 6.3346 357.366 6.75099L357.666 7.7052C358.987 7.29107 360.297 6.89686 361.596 6.52226L361.319 5.5614ZM353.598 7.97655C352.332 8.40284 351.056 8.84701 349.771 9.3093L350.11 10.2503C351.389 9.79026 352.658 9.34834 353.917 8.92425L353.598 7.97655ZM345.897 10.7465C344.679 11.2123 343.451 11.6942 342.215 12.1924L342.589 13.1199C343.819 12.624 345.041 12.1442 346.254 11.6806L345.897 10.7465ZM338.48 13.736C337.227 14.2669 335.964 14.8144 334.693 15.3785L335.098 16.2926C336.365 15.7307 337.622 15.1855 338.87 14.6568L338.48 13.736ZM331.067 17.0216C329.865 17.5776 328.655 18.1484 327.437 18.734L327.87 19.6352C329.084 19.0517 330.289 18.4831 331.487 17.9292L331.067 17.0216ZM323.759 20.5359C322.558 21.1355 321.349 21.7493 320.132 22.3776L320.591 23.2662C321.804 22.6399 323.009 22.0282 324.206 21.4307L323.759 20.5359ZM316.615 24.223C315.435 24.8514 314.249 25.4933 313.055 26.1488L313.536 27.0254C314.726 26.3719 315.909 25.732 317.085 25.1055L316.615 24.223ZM309.452 28.156C308.301 28.8068 307.143 29.47 305.978 30.1458L306.48 31.0108C307.641 30.3369 308.796 29.6755 309.944 29.0266L309.452 28.156ZM302.539 32.1663C301.387 32.8519 300.228 33.5497 299.062 34.2598L299.583 35.1137C300.745 34.4055 301.901 33.7095 303.051 33.0257L302.539 32.1663ZM295.547 36.4269C294.427 37.1255 293.301 37.8353 292.168 38.5563L292.706 39.3998C293.835 38.6804 294.959 37.9723 296.076 37.2755L295.547 36.4269ZM288.817 40.7129C287.694 41.4427 286.566 42.1836 285.431 42.9355L285.984 43.769C287.116 43.0187 288.242 42.2795 289.362 41.5514L288.817 40.7129ZM282.011 45.2247C281.438 45.6118 280.863 46.0018 280.287 46.3945L280.851 47.2207C281.426 46.8288 281.999 46.4396 282.571 46.0533L282.011 45.2247ZM280.287 46.3945C279.726 46.7773 279.165 47.159 278.605 47.5397L279.167 48.3668C279.728 47.9858 280.289 47.6038 280.851 47.2207L280.287 46.3945ZM275.252 49.8105C274.136 50.5631 273.023 51.3115 271.913 52.0556L272.469 52.8864C273.581 52.1416 274.695 51.3927 275.811 50.6394L275.252 49.8105ZM268.588 54.2754C267.478 55.0145 266.37 55.7494 265.264 56.4802L265.816 57.3144C266.922 56.5831 268.031 55.8476 269.142 55.1079L268.588 54.2754ZM261.874 58.7129C260.747 59.4529 259.622 60.1885 258.501 60.9199L259.047 61.7576C260.169 61.0256 261.295 60.2894 262.423 59.5489L261.874 58.7129ZM255.143 63.1015C254.026 63.8245 252.913 64.5433 251.801 65.258L252.342 66.099C253.454 65.3838 254.569 64.6644 255.686 63.9409L255.143 63.1015ZM248.385 67.4481C247.248 68.1751 246.113 68.8978 244.981 69.6163L245.516 70.4606C246.649 69.7416 247.785 69.0183 248.924 68.2907L248.385 67.4481ZM241.593 71.7593C240.467 72.4694 239.344 73.1754 238.224 73.8772L238.755 74.7246C239.876 74.0223 241 73.3158 242.127 72.6051L241.593 71.7593ZM234.789 76.0221C233.642 76.7362 232.498 77.446 231.358 78.1516L231.884 79.002C233.025 78.2959 234.17 77.5856 235.318 76.871L234.789 76.0221ZM227.945 80.2559C226.811 80.9532 225.68 81.6464 224.552 82.3355L225.074 83.1888C226.202 82.4992 227.334 81.8056 228.469 81.1078L227.945 80.2559ZM221.093 84.4429C219.938 85.1442 218.787 85.8412 217.639 86.5341L218.156 87.3902C219.305 86.6968 220.457 85.9993 221.612 85.2976L221.093 84.4429ZM214.207 88.6004C213.066 89.2851 211.929 89.9657 210.796 90.6423L211.308 91.501C212.442 90.824 213.58 90.1429 214.722 89.4578L214.207 88.6004ZM207.305 92.7203C206.144 93.4091 204.988 94.0937 203.835 94.7743L204.343 95.6354C205.497 94.9545 206.654 94.2694 207.815 93.5803L207.305 92.7203ZM200.388 96.8039C199.235 97.4813 198.086 98.1547 196.94 98.8241L197.445 99.6874C198.591 99.0177 199.741 98.344 200.895 97.6662L200.388 96.8039ZM193.436 100.867C192.272 101.544 191.112 102.217 189.957 102.886L190.458 103.751C191.614 103.082 192.774 102.409 193.939 101.731L193.436 100.867ZM186.502 104.881C185.334 105.554 184.17 106.223 183.01 106.889L183.508 107.756C184.668 107.091 185.833 106.421 187.002 105.747L186.502 104.881ZM179.501 108.899C178.336 109.565 177.176 110.227 176.02 110.885L176.515 111.754C177.671 111.095 178.832 110.433 179.998 109.767L179.501 108.899ZM172.559 112.852C171.376 113.524 170.198 114.191 169.024 114.855L169.517 115.726C170.69 115.062 171.869 114.394 173.053 113.722L172.559 112.852ZM165.519 116.835C164.356 117.492 163.198 118.144 162.044 118.793L162.535 119.665C163.688 119.015 164.847 118.363 166.011 117.706L165.519 116.835ZM158.529 120.77C157.349 121.432 156.174 122.091 155.005 122.747L155.494 123.619C156.663 122.963 157.838 122.304 159.018 121.641L158.529 120.77ZM151.514 124.702C150.343 125.358 149.178 126.009 148.019 126.658L148.507 127.531C149.666 126.882 150.831 126.23 152.002 125.575L151.514 124.702ZM144.481 128.636C143.308 129.291 142.141 129.944 140.98 130.593L141.468 131.466C142.629 130.817 143.796 130.164 144.969 129.508L144.481 128.636ZM137.501 132.539C136.313 133.203 135.131 133.864 133.956 134.522L134.445 135.395C135.62 134.737 136.801 134.076 137.989 133.411L137.501 132.539ZM130.451 136.487C129.289 137.139 128.133 137.787 126.984 138.434L127.474 139.305C128.623 138.659 129.778 138.011 130.94 137.359L130.451 136.487ZM123.44 140.429C122.266 141.091 121.099 141.75 119.939 142.406L120.431 143.277C121.591 142.62 122.758 141.962 123.931 141.3L123.44 140.429ZM116.48 144.368C115.294 145.042 114.116 145.713 112.946 146.382L113.442 147.25C114.612 146.582 115.789 145.911 116.974 145.238L116.48 144.368ZM109.459 148.381C108.3 149.047 107.149 149.711 106.006 150.372L106.507 151.238C107.649 150.577 108.799 149.913 109.957 149.247L109.459 148.381ZM102.493 152.414C101.331 153.092 100.177 153.768 99.0315 154.442L99.5388 155.304C100.683 154.63 101.836 153.955 102.997 153.277L102.493 152.414ZM95.5843 156.481C94.4155 157.176 93.256 157.869 92.1059 158.56L92.6212 159.417C93.7698 158.727 94.9278 158.035 96.0953 157.341L95.5843 156.481ZM88.6838 160.63C87.5276 161.334 86.3812 162.036 85.2448 162.737L85.7698 163.588C86.9044 162.888 88.0491 162.187 89.2036 161.484L88.6838 160.63ZM81.8173 164.867C80.685 165.576 79.5631 166.284 78.4516 166.991L78.9884 167.835C80.0978 167.129 81.2177 166.422 82.348 165.714L81.8173 164.867ZM75.028 169.189C73.8977 169.921 72.7786 170.653 71.671 171.385L72.2221 172.219C73.3272 171.489 74.4438 170.759 75.5717 170.028L75.028 169.189ZM68.3244 173.618C67.1996 174.377 66.0871 175.136 64.9871 175.896L65.5552 176.718C66.6522 175.961 67.7617 175.204 68.8836 174.447L68.3244 173.618ZM61.7181 178.18C60.6033 178.969 59.502 179.758 58.4143 180.549L59.0024 181.358C60.0865 180.57 61.1843 179.783 62.2957 178.996L61.7181 178.18ZM55.1921 182.926C54.1042 183.74 53.0307 184.556 51.9717 185.374L52.583 186.165C53.6378 185.35 54.7073 184.538 55.7913 183.726L55.1921 182.926ZM48.8076 187.859C47.7511 188.703 46.71 189.549 45.6846 190.399L46.3226 191.169C47.3433 190.323 48.3797 189.48 49.4318 188.64L48.8076 187.859ZM42.5996 193.005C41.5782 193.885 40.5735 194.769 39.5855 195.656L40.2539 196.4C41.2365 195.517 42.2361 194.638 43.2524 193.762L42.5996 193.005ZM36.6047 198.396C35.6238 199.318 34.6608 200.245 33.716 201.178L34.4184 201.89C35.3574 200.963 36.3146 200.041 37.2898 199.124L36.6047 198.396ZM30.8682 204.062C29.9351 205.033 29.0213 206.009 28.127 206.993L28.8668 207.665C29.7547 206.689 30.6622 205.719 31.589 204.755L30.8682 204.062ZM25.4442 210.031C24.5682 211.054 23.7128 212.085 22.8784 213.124L23.6581 213.75C24.4858 212.72 25.3344 211.697 26.2038 210.682L25.4442 210.031ZM20.3946 216.323C19.5865 217.402 18.8003 218.489 18.0365 219.586L18.8571 220.157C19.6142 219.07 20.3935 217.992 21.1948 216.923L20.3946 216.323ZM15.7854 222.948C15.0567 224.081 14.3511 225.225 13.6688 226.38L14.5298 226.889C15.2056 225.745 15.9046 224.612 16.6265 223.489L15.7854 222.948ZM11.6815 229.899C11.043 231.084 10.4283 232.281 9.83764 233.49L10.7362 233.929C11.321 232.732 11.9296 231.547 12.5618 230.374L11.6815 229.899ZM8.13883 237.155C7.59889 238.385 7.083 239.628 6.59138 240.884L7.52266 241.249C8.00931 240.005 8.51998 238.774 9.05447 237.557L8.13883 237.155ZM5.19686 244.676C4.7601 245.942 4.34712 247.222 3.95814 248.517L4.91587 248.805C5.30099 247.523 5.70984 246.255 6.14221 245.002L5.19686 244.676ZM2.873 252.409C2.53965 253.703 2.22938 255.011 1.94239 256.335L2.91967 256.547C3.20396 255.236 3.51126 253.94 3.84137 252.659L2.873 252.409ZM1.16073 260.298C1.04185 260.966 0.928682 261.638 0.821253 262.314L1.80885 262.471C1.91532 261.801 2.02747 261.135 2.14526 260.473L1.16073 260.298ZM0.821253 262.314C0.717675 262.965 0.621001 263.62 0.531218 264.279L1.52205 264.414C1.61085 263.763 1.70644 263.115 1.80885 262.471L0.821253 262.314ZM0.0750723 268.271C-0.0478809 269.597 -0.144111 270.936 -0.213731 272.287L0.784944 272.338C0.853874 271.001 0.949132 269.676 1.07081 268.363L0.0750723 268.271ZM-0.341878 276.293C-0.358965 277.628 -0.350974 278.974 -0.318006 280.33L0.681697 280.306C0.649026 278.962 0.641112 277.629 0.658039 276.305L-0.341878 276.293ZM-0.150461 284.321C-0.0709378 285.659 0.0322233 287.006 0.158934 288.361L1.15459 288.268C1.02892 286.924 0.926618 285.589 0.847779 284.261L-0.150461 284.321ZM0.593387 292.317C0.760182 293.642 0.948977 294.974 1.15968 296.31L2.14748 296.155C1.93837 294.828 1.75104 293.507 1.58555 292.192L0.593387 292.317ZM1.84186 300.255C2.08771 301.561 2.35409 302.872 2.64091 304.187L3.61795 303.974C3.33314 302.668 3.06867 301.367 2.8246 300.07L1.84186 300.255ZM3.55456 308.111C3.87245 309.395 4.20956 310.683 4.56581 311.973L5.52974 311.707C5.17584 310.425 4.841 309.146 4.52527 307.871L3.55456 308.111ZM5.69194 315.851C6.07758 317.117 6.48145 318.385 6.90349 319.654L7.85241 319.338C7.43301 318.077 7.0317 316.817 6.64854 315.56L5.69194 315.851ZM8.21749 323.447C8.66997 324.703 9.14011 325.96 9.62785 327.217L10.5601 326.855C10.0753 325.606 9.60801 324.356 9.15829 323.108L8.21749 323.447ZM11.1158 330.921C11.6288 332.156 12.1586 333.391 12.7053 334.625L13.6196 334.22C13.076 332.993 12.5492 331.765 12.0393 330.538L11.1158 330.921ZM14.3668 338.263C14.9329 339.466 15.515 340.668 16.1131 341.868L17.0082 341.422C16.4134 340.229 15.8346 339.033 15.2716 337.837L14.3668 338.263ZM17.953 345.461C18.569 346.631 19.2002 347.8 19.8466 348.966L20.7213 348.482C20.0784 347.322 19.4506 346.159 18.8379 344.995L17.953 345.461ZM21.8313 352.458C22.5033 353.611 23.1901 354.762 23.8919 355.909L24.745 355.387C24.0469 354.246 23.3637 353.102 22.6953 351.955L21.8313 352.458ZM26.0114 359.294C26.7323 360.419 27.4676 361.54 28.2173 362.658L29.0478 362.101C28.302 360.989 27.5705 359.873 26.8533 358.754L26.0114 359.294ZM30.4837 365.962C31.2466 367.05 32.0233 368.134 32.8137 369.214L33.6205 368.623C32.8342 367.549 32.0615 366.471 31.3025 365.388L30.4837 365.962ZM35.226 372.438C36.0326 373.494 36.8526 374.545 37.6858 375.59L38.4679 374.967C37.6389 373.927 36.8231 372.881 36.0206 371.831L35.226 372.438ZM40.2125 378.697C41.0678 379.727 41.9363 380.752 42.8177 381.771L43.574 381.116C42.697 380.102 41.8329 379.083 40.9818 378.058L40.2125 378.697ZM45.4599 384.764C46.3509 385.753 47.2545 386.737 48.1706 387.714L48.9002 387.03C47.9887 386.058 47.0896 385.079 46.203 384.095L45.4599 384.764ZM50.9565 390.627C51.8825 391.576 52.8206 392.519 53.7708 393.455L54.4726 392.743C53.5271 391.811 52.5937 390.873 51.6722 389.929L50.9565 390.627ZM56.6535 396.239C57.6264 397.16 58.6112 398.074 59.608 398.981L60.2809 398.241C59.289 397.339 58.3091 396.429 57.341 395.513L56.6535 396.239ZM62.5848 401.636C63.5875 402.512 64.6017 403.382 65.6273 404.243L66.2706 403.478C65.25 402.62 64.2407 401.755 63.243 400.883L62.5848 401.636ZM68.7387 406.805C69.7708 407.638 70.814 408.463 71.8683 409.28L72.4808 408.489C71.4318 407.676 70.3937 406.855 69.3666 406.027L68.7387 406.805ZM75.0585 411.702C76.1329 412.501 77.2183 413.292 78.3145 414.075L78.8954 413.261C77.8045 412.482 76.7245 411.695 75.6554 410.9L75.0585 411.702ZM81.5877 416.362C82.6855 417.114 83.7939 417.857 84.9127 418.591L85.4613 417.755C84.3479 417.024 83.245 416.285 82.1525 415.537L81.5877 416.362ZM88.3007 420.766C89.4264 421.473 90.5623 422.172 91.7083 422.861L92.2237 422.004C91.0832 421.318 89.9529 420.623 88.8327 419.919L88.3007 420.766ZM95.1546 424.888C96.3134 425.554 97.4822 426.211 98.661 426.859L99.1425 425.983C97.9694 425.338 96.8063 424.684 95.6532 424.021L95.1546 424.888ZM102.195 428.756C103.369 429.372 104.554 429.978 105.748 430.575L106.195 429.68C105.007 429.087 103.828 428.483 102.659 427.87L102.195 428.756ZM109.358 432.336C110.566 432.911 111.784 433.476 113.011 434.031L113.423 433.12C112.202 432.567 110.99 432.005 109.788 431.433L109.358 432.336ZM116.655 435.637C117.879 436.163 119.112 436.679 120.354 437.184L120.731 436.258C119.495 435.755 118.268 435.242 117.05 434.718L116.655 435.637ZM124.106 438.669C125.342 439.145 126.586 439.61 127.839 440.065L128.18 439.125C126.933 438.672 125.695 438.209 124.465 437.736L124.106 438.669ZM131.61 441.394C132.875 441.827 134.149 442.25 135.431 442.661L135.737 441.709C134.461 441.299 133.193 440.879 131.933 440.448L131.61 441.394ZM139.263 443.852C140.531 444.233 141.806 444.604 143.089 444.964L143.359 444.001C142.082 443.643 140.813 443.274 139.551 442.895L139.263 443.852ZM146.963 446.012C148.262 446.351 149.569 446.679 150.885 446.997L151.119 446.024C149.81 445.709 148.508 445.382 147.215 445.045L146.963 446.012ZM154.756 447.894C156.052 448.181 157.354 448.459 158.665 448.725L158.864 447.746C157.56 447.48 156.263 447.204 154.973 446.917L154.756 447.894ZM162.618 449.493C163.931 449.736 165.252 449.968 166.58 450.189L166.744 449.203C165.422 448.983 164.107 448.752 162.8 448.51L162.618 449.493ZM170.505 450.808C171.821 451.004 173.143 451.189 174.473 451.364L174.603 450.372C173.279 450.199 171.962 450.014 170.652 449.819L170.505 450.808ZM178.482 451.855C179.8 452.005 181.125 452.144 182.457 452.273L182.553 451.277C181.227 451.149 179.908 451.01 178.595 450.861L178.482 451.855ZM186.421 452.622C187.749 452.728 189.083 452.824 190.424 452.908L190.487 451.91C189.152 451.826 187.823 451.731 186.501 451.625L186.421 452.622ZM194.467 453.13C195.786 453.192 197.111 453.243 198.442 453.284L198.472 452.284C197.147 452.244 195.827 452.193 194.513 452.131L194.467 453.13ZM202.423 453.374C203.755 453.394 205.094 453.403 206.439 453.401L206.438 452.401C205.099 452.403 203.765 452.394 202.437 452.374L202.423 453.374ZM210.492 453.365C211.81 453.343 213.134 453.311 214.463 453.269L214.431 452.27C213.107 452.312 211.788 452.344 210.476 452.366L210.492 453.365ZM218.439 453.113C219.77 453.05 221.107 452.978 222.449 452.895L222.387 451.897C221.05 451.979 219.718 452.051 218.392 452.114L218.439 453.113ZM226.491 452.615C227.809 452.514 229.131 452.403 230.459 452.282L230.368 451.286C229.045 451.407 227.728 451.517 226.415 451.618L226.491 452.615ZM234.412 451.894C235.734 451.755 237.062 451.606 238.395 451.447L238.276 450.454C236.948 450.612 235.625 450.761 234.307 450.9L234.412 451.894ZM242.408 450.939C243.728 450.763 245.053 450.577 246.383 450.381L246.237 449.392C244.912 449.587 243.591 449.772 242.276 449.948L242.408 450.939ZM250.294 449.779C251.603 449.568 252.916 449.348 254.234 449.119L254.062 448.134C252.749 448.363 251.44 448.582 250.135 448.791L250.294 449.779ZM258.201 448.401C259.528 448.152 260.86 447.894 262.196 447.625L261.999 446.645C260.667 446.912 259.339 447.17 258.017 447.418L258.201 448.401ZM266.054 446.825C267.344 446.55 268.637 446.265 269.935 445.971L269.714 444.996C268.42 445.289 267.131 445.573 265.845 445.847L266.054 446.825ZM273.841 445.062C275.148 444.75 276.458 444.428 277.773 444.097L277.529 443.127C276.218 443.457 274.911 443.778 273.609 444.089L273.841 445.062ZM281.671 443.091C282.937 442.757 284.207 442.413 285.481 442.061L285.215 441.098C283.945 441.449 282.678 441.791 281.415 442.125L281.671 443.091ZM289.314 440.979C290.596 440.61 291.881 440.231 293.17 439.844L292.883 438.886C291.597 439.272 290.315 439.65 289.037 440.018L289.314 440.979ZM297.049 438.655C297.698 438.453 298.347 438.248 298.998 438.041L298.694 437.088C298.046 437.294 297.398 437.499 296.751 437.701L297.049 438.655ZM298.998 438.041C299.654 437.832 300.31 437.623 300.963 437.414L300.659 436.461C300.006 436.67 299.351 436.879 298.694 437.088L298.998 438.041ZM304.867 436.166C306.162 435.751 307.451 435.337 308.734 434.924L308.428 433.972C307.145 434.385 305.857 434.799 304.562 435.214L304.867 436.166ZM312.566 433.688C313.837 433.278 315.102 432.868 316.36 432.459L316.052 431.508C314.793 431.917 313.529 432.326 312.258 432.737L312.566 433.688ZM320.237 431.197C321.54 430.773 322.835 430.349 324.125 429.927L323.813 428.976C322.525 429.399 321.229 429.822 319.927 430.247L320.237 431.197ZM327.973 428.662C329.25 428.242 330.52 427.823 331.783 427.405L331.469 426.455C330.206 426.873 328.936 427.292 327.66 427.712L327.973 428.662ZM335.575 426.146C336.882 425.712 338.183 425.278 339.477 424.845L339.159 423.897C337.866 424.329 336.566 424.763 335.259 425.198L335.575 426.146ZM343.337 423.551C344.617 423.121 345.889 422.692 347.156 422.263L346.835 421.316C345.57 421.744 344.297 422.173 343.018 422.603L343.337 423.551ZM350.934 420.983C352.228 420.543 353.516 420.104 354.796 419.666L354.472 418.72C353.193 419.157 351.906 419.596 350.612 420.036L350.934 420.983ZM358.661 418.34C359.942 417.899 361.215 417.46 362.481 417.021L362.154 416.076C360.889 416.515 359.616 416.954 358.335 417.394L358.661 418.34ZM366.258 415.71C367.542 415.263 368.817 414.817 370.085 414.372L369.754 413.429C368.487 413.873 367.212 414.319 365.929 414.765L366.258 415.71ZM373.946 413.014C375.225 412.562 376.497 412.112 377.76 411.662L377.425 410.72C376.162 411.169 374.892 411.619 373.613 412.071L373.946 413.014ZM381.528 410.318C382.807 409.86 384.078 409.403 385.341 408.948L385.002 408.007C383.74 408.463 382.469 408.919 381.19 409.377L381.528 410.318ZM389.189 407.555C390.463 407.092 391.729 406.63 392.986 406.169L392.642 405.23C391.386 405.691 390.121 406.152 388.847 406.615L389.189 407.555ZM396.734 404.791C398.017 404.317 399.291 403.845 400.557 403.373L400.208 402.436C398.943 402.907 397.67 403.379 396.388 403.853L396.734 404.791ZM404.379 401.944C405.645 401.469 406.901 400.995 408.148 400.522L407.794 399.587C406.547 400.059 405.292 400.533 404.028 401.008L404.379 401.944ZM411.874 399.104C413.164 398.611 414.444 398.119 415.715 397.628L415.355 396.695C414.085 397.186 412.806 397.677 411.517 398.17L411.874 399.104ZM419.499 396.16C420.751 395.672 421.994 395.186 423.227 394.7L422.86 393.77C421.628 394.255 420.387 394.741 419.136 395.229L419.499 396.16ZM427.001 393.206C428.275 392.699 429.539 392.193 430.792 391.689L430.419 390.761C429.167 391.265 427.904 391.77 426.631 392.277L427.001 393.206ZM434.523 390.18C435.772 389.672 437.011 389.165 438.24 388.659L437.859 387.735C436.632 388.24 435.394 388.746 434.146 389.254L434.523 390.18ZM442.029 387.091C443.281 386.569 444.522 386.049 445.753 385.53L445.364 384.609C444.135 385.127 442.895 385.647 441.644 386.168L442.029 387.091ZM449.43 383.969C450.701 383.426 451.959 382.885 453.206 382.345L452.808 381.427C451.563 381.967 450.306 382.507 449.038 383.049L449.43 383.969ZM456.911 380.729C458.141 380.189 459.359 379.651 460.566 379.113L460.159 378.2C458.954 378.736 457.738 379.274 456.509 379.814L456.911 380.729ZM464.315 377.431C465.552 376.871 466.776 376.313 467.988 375.756L467.571 374.847C466.36 375.403 465.138 375.961 463.902 376.519L464.315 377.431ZM471.633 374.068C472.882 373.485 474.117 372.903 475.339 372.323L474.91 371.42C473.69 371.999 472.457 372.58 471.21 373.162L471.633 374.068ZM478.966 370.585C480.194 369.992 481.408 369.399 482.609 368.808L482.168 367.911C480.969 368.501 479.757 369.092 478.53 369.685L478.966 370.585ZM486.255 366.996C487.456 366.393 488.643 365.791 489.816 365.19L489.361 364.3C488.19 364.9 487.005 365.5 485.807 366.102L486.255 366.996ZM493.463 363.304C494.666 362.674 495.855 362.046 497.028 361.419L496.557 360.537C495.386 361.163 494.2 361.79 492.999 362.418L493.463 363.304ZM500.591 359.493C501.794 358.835 502.98 358.179 504.15 357.523L503.661 356.651C502.494 357.305 501.311 357.959 500.112 358.615L500.591 359.493ZM507.64 355.544C508.837 354.857 510.017 354.171 511.179 353.485L510.671 352.624C509.512 353.307 508.336 353.992 507.142 354.677L507.64 355.544ZM514.615 351.432C515.798 350.716 516.962 350 518.108 349.285L517.578 348.437C516.436 349.149 515.276 349.863 514.097 350.577L514.615 351.432ZM521.502 347.136C522.662 346.391 523.802 345.646 524.923 344.902L524.371 344.069C523.253 344.81 522.117 345.552 520.961 346.295L521.502 347.136ZM528.258 342.652C529.395 341.872 530.511 341.093 531.607 340.314L531.028 339.499C529.936 340.275 528.825 341.051 527.693 341.827L528.258 342.652ZM534.864 337.957C535.975 337.138 537.064 336.32 538.133 335.501L537.525 334.707C536.461 335.522 535.376 336.337 534.27 337.152L534.864 337.957ZM541.301 333.024C542.379 332.163 543.435 331.302 544.469 330.441L543.829 329.673C542.8 330.529 541.75 331.386 540.677 332.242L541.301 333.024ZM547.547 327.819C548.58 326.919 549.59 326.018 550.577 325.116L549.903 324.378C548.921 325.274 547.917 326.17 546.89 327.065L547.547 327.819ZM553.545 322.337C554.526 321.396 555.483 320.453 556.419 319.508L555.708 318.804C554.779 319.743 553.827 320.68 552.853 321.616L553.545 322.337ZM559.25 316.567C560.185 315.57 561.095 314.57 561.982 313.568L561.233 312.905C560.352 313.9 559.448 314.893 558.521 315.883L559.25 316.567ZM564.619 310.501C565.497 309.448 566.352 308.392 567.184 307.332L566.397 306.714C565.571 307.766 564.723 308.815 563.851 309.86L564.619 310.501ZM569.64 304.1C570.446 303.005 571.229 301.906 571.991 300.801L571.167 300.234C570.412 301.329 569.635 302.42 568.835 303.507L569.64 304.1ZM574.248 297.415C574.985 296.271 575.7 295.122 576.395 293.967L575.538 293.452C574.849 294.598 574.139 295.739 573.407 296.874L574.248 297.415ZM578.433 290.458C579.096 289.275 579.74 288.085 580.365 286.888L579.479 286.425C578.858 287.613 578.219 288.795 577.56 289.969L578.433 290.458ZM582.194 283.261C582.49 282.653 582.781 282.042 583.069 281.43L582.163 281.005C581.878 281.613 581.588 282.219 581.294 282.824L582.194 283.261ZM583.069 281.43C583.354 280.823 583.631 280.216 583.901 279.609L582.988 279.203C582.721 279.803 582.446 280.404 582.163 281.005L583.069 281.43ZM585.438 275.961C585.931 274.718 586.393 273.476 586.825 272.235L585.881 271.906C585.453 273.134 584.996 274.362 584.508 275.592L585.438 275.961ZM588.05 268.453C588.432 267.177 588.783 265.901 589.103 264.625L588.133 264.382C587.817 265.643 587.47 266.904 587.092 268.166L588.05 268.453ZM589.982 260.756C590.246 259.453 590.48 258.149 590.683 256.845L589.695 256.691C589.494 257.98 589.263 259.269 589.002 260.557L589.982 260.756ZM591.204 252.906C591.348 251.588 591.461 250.269 591.544 248.949L590.546 248.886C590.464 250.191 590.352 251.494 590.21 252.797L591.204 252.906ZM591.707 244.982C591.731 243.659 591.727 242.334 591.695 241.009L590.695 241.033C590.727 242.345 590.731 243.655 590.707 244.963L591.707 244.982ZM591.514 237.044C591.427 235.728 591.312 234.411 591.171 233.092L590.177 233.198C590.316 234.504 590.43 235.808 590.516 237.11L591.514 237.044ZM590.675 229.154C590.485 227.85 590.27 226.544 590.031 225.235L589.048 225.415C589.284 226.712 589.497 228.006 589.685 229.298L590.675 229.154ZM589.252 221.346C588.973 220.063 588.671 218.778 588.347 217.49L587.377 217.734C587.699 219.012 587.998 220.287 588.275 221.559L589.252 221.346ZM587.322 213.66C586.964 212.395 586.585 211.126 586.186 209.855L585.232 210.154C585.628 211.417 586.004 212.676 586.36 213.933L587.322 213.66ZM584.952 206.093C584.528 204.854 584.085 203.611 583.626 202.365L582.687 202.712C583.145 203.95 583.584 205.185 584.006 206.417L584.952 206.093ZM582.211 198.661C581.729 197.44 581.231 196.215 580.717 194.988L579.795 195.374C580.306 196.595 580.801 197.813 581.28 199.028L582.211 198.661ZM579.158 191.358C578.629 190.158 578.086 188.955 577.528 187.747L576.621 188.167C577.175 189.369 577.716 190.567 578.243 191.762L579.158 191.358ZM575.837 184.16C575.27 182.982 574.691 181.801 574.099 180.617L573.205 181.063C573.794 182.244 574.371 183.421 574.936 184.594L575.837 184.16ZM572.306 177.085C571.704 175.92 571.091 174.75 570.466 173.577L569.584 174.047C570.206 175.217 570.817 176.382 571.417 177.544L572.306 177.085ZM568.592 170.104C567.962 168.951 567.322 167.795 566.672 166.635L565.8 167.124C566.448 168.281 567.087 169.434 567.715 170.583L568.592 170.104ZM564.726 163.199C564.075 162.062 563.415 160.921 562.747 159.777L561.883 160.281C562.55 161.423 563.209 162.561 563.858 163.696L564.726 163.199ZM560.734 156.361C560.066 155.238 559.39 154.111 558.707 152.98L557.851 153.497C558.533 154.626 559.208 155.751 559.874 156.872L560.734 156.361ZM556.648 149.595C555.964 148.479 555.273 147.36 554.576 146.236L553.726 146.763C554.423 147.885 555.112 149.004 555.795 150.118L556.648 149.595ZM552.483 142.882C551.785 141.77 551.082 140.655 550.372 139.535L549.527 140.071C550.236 141.189 550.939 142.303 551.636 143.414L552.483 142.882ZM548.253 136.207C547.545 135.099 546.831 133.986 546.112 132.87L545.271 133.412C545.99 134.527 546.703 135.638 547.411 136.746L548.253 136.207ZM543.974 129.562C543.259 128.459 542.539 127.351 541.814 126.24L540.976 126.786C541.7 127.897 542.42 129.004 543.135 130.106L543.974 129.562ZM539.659 122.941C538.939 121.841 538.216 120.738 537.488 119.631L536.652 120.18C537.38 121.287 538.103 122.39 538.822 123.488L539.659 122.941ZM535.319 116.335C534.597 115.239 533.872 114.139 533.143 113.034L532.308 113.585C533.037 114.689 533.762 115.789 534.484 116.885L535.319 116.335ZM530.966 109.739C530.602 109.188 530.237 108.636 529.871 108.082L529.037 108.634C529.403 109.187 529.768 109.739 530.132 110.29L530.966 109.739ZM529.454 108.358L528.62 108.909L529.454 108.358ZM298.846 437.564L299.149 438.517L298.846 437.564ZM1.31505 262.392L0.327454 262.235L1.31505 262.392ZM280.569 46.8076L281.133 47.6338L280.569 46.8076ZM582.616 281.218L583.521 281.643L582.616 281.218ZM530.288 107.806C529.922 107.252 529.555 106.695 529.188 106.136L527.516 107.234C527.884 107.794 528.252 108.353 528.62 108.909L530.288 107.806ZM526.98 102.757C526.251 101.636 525.52 100.507 524.787 99.3717L523.107 100.457C523.841 101.593 524.573 102.724 525.304 103.847L526.98 102.757ZM522.598 95.9744C521.873 94.8479 521.145 93.7166 520.415 92.5807L518.733 93.6626C519.463 94.7979 520.191 95.9299 520.916 97.0567L522.598 95.9744ZM518.226 89.1797C517.499 88.052 516.769 86.9212 516.035 85.7883L514.356 86.8757C515.089 88.007 515.818 89.1365 516.545 90.2633L518.226 89.1797ZM513.829 82.396C513.094 81.2706 512.355 80.1439 511.612 79.0171L509.943 80.1183C510.684 81.2422 511.421 82.3662 512.154 83.4893L513.829 82.396ZM509.374 75.6448C508.626 74.5254 507.874 73.4065 507.116 72.2893L505.461 73.412C506.216 74.525 506.966 75.6399 507.711 76.7558L509.374 75.6448ZM504.83 68.9482C504.064 67.8385 503.292 66.7312 502.514 65.6273L500.879 66.7791C501.653 67.8775 502.421 68.9796 503.184 70.0845L504.83 68.9482ZM500.165 62.3289C499.376 61.2332 498.58 60.1418 497.778 59.0554L496.169 60.2437C496.966 61.3234 497.757 62.4084 498.542 63.498L500.165 62.3289ZM495.35 55.8124C494.532 54.7354 493.707 53.6645 492.875 52.6004L491.3 53.8325C492.126 54.8887 492.945 55.952 493.757 57.0217L495.35 55.8124ZM490.353 49.4272C489.503 48.3741 488.644 47.329 487.777 46.2926L486.243 47.5759C487.102 48.6032 487.954 49.6395 488.798 50.684L490.353 49.4272ZM485.146 43.2059C484.257 42.1829 483.36 41.1697 482.453 40.1671L480.97 41.5088C481.867 42.5011 482.756 43.5043 483.636 44.5175L485.146 43.2059ZM479.698 37.1866C478.767 36.2006 477.826 35.2265 476.874 34.2649L475.453 35.6717C476.393 36.6219 477.323 37.5849 478.244 38.56L479.698 37.1866ZM473.982 31.4132C473.004 30.4725 472.015 29.5455 471.015 28.6333L469.667 30.1111C470.654 31.0111 471.63 31.926 472.596 32.8548L473.982 31.4132ZM467.973 25.9366C466.945 25.0503 465.904 24.1799 464.852 23.3264L463.592 24.8799C464.629 25.7205 465.654 26.5781 466.668 27.4517L467.973 25.9366ZM461.652 20.8138C460.571 19.9924 459.477 19.1889 458.37 18.4045L457.214 20.0363C458.302 20.8076 459.378 21.5979 460.442 22.4063L461.652 20.8138ZM455.007 16.1076C453.873 15.3621 452.725 14.6367 451.564 13.9322L450.527 15.6422C451.667 16.3338 452.794 17.0463 453.908 17.7787L455.007 16.1076ZM448.038 11.8833C446.854 11.2249 445.655 10.5883 444.442 9.97453L443.539 11.7592C444.729 12.361 445.904 12.9854 447.066 13.6314L448.038 11.8833ZM440.761 8.20455C439.531 7.64322 438.286 7.10523 437.026 6.59151L436.271 8.44355C437.505 8.94682 438.725 9.47398 439.931 10.0241L440.761 8.20455ZM433.207 5.12697C431.938 4.67052 430.654 4.23848 429.354 3.83176L428.757 5.74045C430.029 6.13876 431.287 6.56188 432.53 7.00895L433.207 5.12697ZM425.422 2.69171C424.122 2.34463 422.808 2.02258 421.478 1.72637L421.043 3.67853C422.346 3.96865 423.633 4.28407 424.906 4.62398L425.422 2.69171ZM417.463 0.919892C416.142 0.682943 414.805 0.471183 413.454 0.285363L413.181 2.26672C414.506 2.44884 415.815 2.65635 417.11 2.8885L417.463 0.919892ZM409.393 -0.189756C408.056 -0.319161 406.704 -0.423547 405.338 -0.502245L405.223 1.49445C406.564 1.57166 407.889 1.67405 409.201 1.80094L409.393 -0.189756ZM401.27 -0.659147C399.92 -0.68582 398.557 -0.687828 397.18 -0.664575L397.213 1.33514C398.567 1.31229 399.906 1.31428 401.23 1.34046L401.27 -0.659147ZM393.14 -0.525488C391.78 -0.45509 390.406 -0.360472 389.019 -0.241083L389.19 1.75155C390.555 1.63409 391.906 1.54104 393.243 1.47184L393.14 -0.525488ZM385.034 0.166001C383.695 0.324068 382.344 0.504819 380.98 0.708721L381.276 2.68674C382.62 2.48584 383.95 2.30783 385.269 2.15221L385.034 0.166001ZM376.967 1.36917C375.659 1.60414 374.338 1.86007 373.006 2.13735L373.414 4.09536C374.728 3.82178 376.03 3.56937 377.321 3.3377L376.967 1.36917ZM368.976 3.03361C367.692 3.33717 366.397 3.66025 365.091 4.00318L365.6 5.93756C366.889 5.59876 368.168 5.27968 369.436 4.97997L368.976 3.03361ZM361.18 5.08097C359.87 5.45882 358.549 5.85636 357.217 6.27389L357.815 8.1823C359.133 7.76931 360.439 7.37621 361.734 7.00269L361.18 5.08097ZM353.438 7.5027C352.169 7.9301 350.89 8.37538 349.602 8.83881L350.279 10.7208C351.555 10.2619 352.82 9.82109 354.076 9.3981L353.438 7.5027ZM345.719 10.2794C344.497 10.7464 343.267 11.2294 342.028 11.7286L342.776 13.5837C344.004 13.0888 345.223 12.6102 346.433 12.1476L345.719 10.2794ZM338.285 13.2756C337.029 13.8076 335.764 14.3562 334.49 14.9215L335.301 16.7496C336.565 16.1889 337.819 15.6448 339.065 15.1172L338.285 13.2756ZM330.857 16.5678C329.652 17.1249 328.44 17.6967 327.22 18.2834L328.087 20.0859C329.298 19.5034 330.501 18.9358 331.696 18.383L330.857 16.5678ZM323.536 20.0885C322.333 20.6891 321.121 21.304 319.903 21.9334L320.82 23.7104C322.031 23.0852 323.234 22.4745 324.429 21.8781L323.536 20.0885ZM316.38 23.7817C315.198 24.4112 314.01 25.0541 312.814 25.7105L313.777 27.4636C314.965 26.8111 316.146 26.1722 317.32 25.5468L316.38 23.7817ZM309.206 27.7207C308.053 28.3725 306.893 29.0366 305.727 29.7134L306.731 31.4432C307.891 30.7703 309.044 30.1099 310.19 29.4619L309.206 27.7207ZM302.284 31.7366C301.13 32.4231 299.969 33.1218 298.802 33.8328L299.843 35.5407C301.004 34.8334 302.158 34.1383 303.306 33.4555L302.284 31.7366ZM295.282 36.0027C294.161 36.7021 293.033 37.4127 291.9 38.1346L292.974 39.8215C294.102 39.1029 295.224 38.3957 296.341 37.6998L295.282 36.0027ZM288.545 40.2937C287.421 41.0243 286.291 41.766 285.155 42.5188L286.26 44.1858C287.391 43.4363 288.516 42.6979 289.635 41.9706L288.545 40.2937ZM281.731 44.8104C281.157 45.1979 280.582 45.5883 280.006 45.9814L281.133 47.6338C281.707 47.2423 282.279 46.8535 282.851 46.4676L281.731 44.8104ZM280.006 45.9814C279.445 46.3641 278.884 46.7456 278.324 47.1261L279.448 48.7803C280.009 48.3992 280.57 48.0171 281.133 47.6338L280.006 45.9814ZM274.972 49.396C273.857 50.1484 272.744 50.8964 271.634 51.6403L272.748 53.3017C273.859 52.5567 274.974 51.8075 276.091 51.0539L274.972 49.396ZM268.311 53.8592C267.201 54.598 266.094 55.3326 264.988 56.063L266.091 57.7315C267.198 56.9999 268.308 56.2642 269.419 55.5242L268.311 53.8592ZM261.6 58.2949C260.473 59.0346 259.349 59.7699 258.227 60.5011L259.32 62.1765C260.443 61.4442 261.569 60.7077 262.697 59.9669L261.6 58.2949ZM254.871 62.6818C253.755 63.4045 252.642 64.1231 251.531 64.8375L252.613 66.5196C253.725 65.804 254.84 65.0844 255.958 64.3606L254.871 62.6818ZM248.116 67.0267C246.979 67.7535 245.844 68.4759 244.713 69.1942L245.784 70.8828C246.918 70.1635 248.054 69.4399 249.193 68.7121L248.116 67.0267ZM241.327 71.3363C240.201 72.0462 239.078 72.7519 237.958 73.4535L239.02 75.1483C240.142 74.4457 241.266 73.739 242.393 73.0281L241.327 71.3363ZM234.525 75.5976C233.379 76.3115 232.235 77.021 231.095 77.7264L232.147 79.4273C233.289 78.7209 234.434 78.0104 235.582 77.2955L234.525 75.5976ZM227.684 79.83C226.55 80.527 225.419 81.22 224.292 81.9088L225.334 83.6155C226.463 82.9256 227.596 82.2318 228.731 81.5338L227.684 79.83ZM220.833 84.0155C219.679 84.7166 218.528 85.4134 217.381 86.106L218.415 87.8182C219.564 87.1246 220.716 86.4269 221.872 85.725L220.833 84.0155ZM213.95 88.1717C212.809 88.8562 211.673 89.5366 210.539 90.213L211.564 91.9303C212.699 91.2531 213.837 90.5718 214.979 89.8865L213.95 88.1717ZM207.049 92.2904C205.889 92.9789 204.733 93.6634 203.581 94.3437L204.598 96.066C205.751 95.3848 206.909 94.6996 208.07 94.0102L207.049 92.2904ZM200.135 96.3728C198.982 97.05 197.833 97.7231 196.688 98.3924L197.697 100.119C198.843 99.4492 199.994 98.7753 201.148 98.0973L200.135 96.3728ZM193.185 100.435C192.021 101.111 190.861 101.784 189.706 102.453L190.708 104.184C191.864 103.514 193.025 102.841 194.19 102.164L193.185 100.435ZM186.253 104.448C185.084 105.121 183.921 105.79 182.761 106.455L183.757 108.19C184.917 107.524 186.082 106.854 187.251 106.18L186.253 104.448ZM179.253 108.464C178.088 109.13 176.928 109.792 175.772 110.45L176.762 112.188C177.919 111.53 179.08 110.867 180.246 110.201L179.253 108.464ZM172.312 112.417C171.129 113.089 169.951 113.756 168.778 114.42L169.763 116.161C170.937 115.497 172.116 114.829 173.299 114.157L172.312 112.417ZM165.274 116.4C164.11 117.056 162.952 117.709 161.799 118.357L162.78 120.1C163.934 119.451 165.093 118.798 166.256 118.142L165.274 116.4ZM158.284 120.334C157.104 120.996 155.929 121.655 154.76 122.31L155.738 124.055C156.908 123.399 158.083 122.74 159.263 122.077L158.284 120.334ZM151.269 124.266C150.099 124.921 148.934 125.573 147.774 126.221L148.751 127.967C149.91 127.318 151.075 126.667 152.246 126.011L151.269 124.266ZM144.237 128.199C143.064 128.855 141.897 129.508 140.736 130.157L141.712 131.902C142.873 131.253 144.04 130.601 145.213 129.945L144.237 128.199ZM137.257 132.102C136.069 132.767 134.887 133.428 133.712 134.086L134.689 135.831C135.864 135.173 137.045 134.512 138.233 133.848L137.257 132.102ZM130.206 136.051C129.044 136.703 127.888 137.352 126.739 137.998L127.719 139.741C128.867 139.095 130.023 138.447 131.185 137.795L130.206 136.051ZM123.194 139.993C122.02 140.655 120.853 141.315 119.693 141.971L120.678 143.712C121.837 143.056 123.003 142.397 124.177 141.735L123.194 139.993ZM116.233 143.933C115.047 144.608 113.869 145.279 112.698 145.948L113.69 147.684C114.86 147.016 116.036 146.346 117.221 145.672L116.233 143.933ZM109.21 147.947C108.05 148.614 106.899 149.278 105.756 149.94L106.757 151.67C107.899 151.01 109.049 150.346 110.207 149.681L109.21 147.947ZM102.241 151.982C101.078 152.66 99.9238 153.337 98.7779 154.011L99.7925 155.735C100.936 155.062 102.088 154.386 103.249 153.709L102.241 151.982ZM95.3288 156.051C94.1593 156.747 92.9991 157.44 91.8483 158.132L92.8788 159.846C94.0267 159.156 95.184 158.464 96.3508 157.771L95.3288 156.051ZM88.4239 160.203C87.2668 160.907 86.1196 161.61 84.9823 162.311L86.0323 164.013C87.166 163.314 88.3098 162.614 89.4636 161.911L88.4239 160.203ZM81.5519 164.443C80.4187 165.152 79.2958 165.861 78.1832 166.569L79.2569 168.256C80.3652 167.551 81.484 166.845 82.6133 166.138L81.5519 164.443ZM74.7561 168.769C73.6246 169.502 72.5043 170.235 71.3954 170.967L72.4977 172.636C73.6015 171.907 74.7168 171.178 75.8436 170.448L74.7561 168.769ZM68.0447 173.204C66.9185 173.964 65.8046 174.724 64.703 175.484L65.8393 177.13C66.9347 176.374 68.0428 175.618 69.1633 174.862L68.0447 173.204ZM61.4293 177.772C60.3128 178.562 59.2098 179.353 58.1203 180.145L59.2964 181.762C60.3787 180.976 61.4748 180.19 62.5845 179.404L61.4293 177.772ZM54.8926 182.525C53.8027 183.341 52.7271 184.158 51.6661 184.978L52.8886 186.561C53.9414 185.748 55.0088 184.936 56.0909 184.127L54.8926 182.525ZM48.4955 187.468C47.4368 188.314 46.3934 189.162 45.3656 190.014L46.6416 191.554C47.6599 190.71 48.6941 189.869 49.7439 189.031L48.4955 187.468ZM42.2732 192.626C41.2493 193.508 40.2419 194.394 39.2513 195.285L40.5881 196.772C41.5681 195.892 42.565 195.015 43.5788 194.141L42.2732 192.626ZM36.2622 198.032C35.2784 198.957 34.3126 199.887 33.3648 200.822L34.7697 202.246C35.7057 201.322 36.6599 200.403 37.6323 199.489L36.2622 198.032ZM30.5078 203.716C29.5716 204.689 28.6546 205.669 27.7571 206.656L29.2367 208.002C30.1214 207.029 31.0257 206.063 31.9495 205.102L30.5078 203.716ZM25.0644 209.706C24.1851 210.733 23.3264 211.768 22.4886 212.811L24.0479 214.063C24.8722 213.037 25.7175 212.018 26.5836 211.007L25.0644 209.706ZM19.9945 216.024C19.1829 217.106 18.3934 218.198 17.6261 219.3L19.2674 220.443C20.0211 219.361 20.797 218.288 21.5949 217.223L19.9945 216.024ZM15.3649 222.678C14.6328 223.816 13.9239 224.965 13.2383 226.126L14.9603 227.143C15.6328 226.004 16.3285 224.877 17.0471 223.759L15.3649 222.678ZM11.2414 229.662C10.5997 230.853 9.98199 232.055 9.38837 233.271L11.1855 234.148C11.7673 232.957 12.3728 231.778 13.0019 230.611L11.2414 229.662ZM7.68102 236.954C7.13835 238.19 6.61985 239.439 6.12574 240.702L7.9883 241.431C8.47246 240.193 8.98052 238.969 9.51228 237.758L7.68102 236.954ZM4.72418 244.513C4.28523 245.785 3.87019 247.072 3.47928 248.373L5.39473 248.949C5.77793 247.673 6.18472 246.412 6.61489 245.165L4.72418 244.513ZM2.38881 252.284C2.05384 253.585 1.7421 254.899 1.45375 256.229L3.40831 256.653C3.69125 255.348 3.99706 254.058 4.32556 252.783L2.38881 252.284ZM0.668461 260.211C0.54904 260.882 0.435366 261.556 0.327454 262.235L2.30264 262.549C2.40864 261.883 2.52027 261.22 2.63753 260.561L0.668461 260.211ZM0.327454 262.235C0.223291 262.89 0.12608 263.549 0.0358022 264.211L2.01747 264.481C2.10577 263.834 2.20082 263.19 2.30264 262.549L0.327454 262.235ZM-0.422791 268.225C-0.546387 269.558 -0.643102 270.904 -0.713067 272.261L1.28428 272.364C1.35287 271.034 1.44764 269.715 1.56867 268.409L-0.422791 268.225ZM-0.841836 276.286C-0.859006 277.628 -0.850974 278.981 -0.817857 280.342L1.18155 280.293C1.14903 278.956 1.14115 277.629 1.158 276.312L-0.841836 276.286ZM-0.649582 284.35C-0.569719 285.695 -0.46612 287.047 -0.338894 288.407L1.65241 288.221C1.52726 286.883 1.4254 285.553 1.3469 284.232L-0.649582 284.35ZM0.0973018 292.38C0.264755 293.71 0.454277 295.046 0.665775 296.388L2.64139 296.077C2.43307 294.755 2.24647 293.439 2.08164 292.13L0.0973018 292.38ZM1.35048 300.347C1.59723 301.658 1.86457 302.974 2.1524 304.294L4.10646 303.867C3.82266 302.566 3.55915 301.269 3.31598 299.977L1.35048 300.347ZM3.06921 308.231C3.38818 309.52 3.72642 310.812 4.08385 312.106L6.0117 311.574C5.65898 310.296 5.32527 309.022 5.01062 307.751L3.06921 308.231ZM5.21365 315.997C5.60052 317.267 6.00567 318.538 6.42903 319.812L8.32687 319.181C7.90879 317.923 7.50876 316.667 7.12684 315.414L5.21365 315.997ZM7.74709 323.617C8.20095 324.876 8.67251 326.137 9.1617 327.398L11.0263 326.674C10.5429 325.428 10.077 324.183 9.62869 322.939L7.74709 323.617ZM10.6541 331.113C11.1685 332.352 11.6999 333.59 12.2482 334.827L14.0768 334.017C13.5347 332.794 13.0095 331.57 12.5011 330.346L10.6541 331.113ZM13.9144 338.476C14.4821 339.682 15.0658 340.887 15.6656 342.091L17.4557 341.2C16.8626 340.009 16.2854 338.817 15.7241 337.624L13.9144 338.476ZM17.5105 345.694C18.1282 346.867 18.7612 348.039 19.4093 349.209L21.1586 348.239C20.5175 347.082 19.8914 345.923 19.2804 344.762L17.5105 345.694ZM21.3993 352.71C22.0731 353.866 22.7618 355.019 23.4653 356.17L25.1715 355.126C24.4753 353.988 23.7939 352.847 23.1273 351.703L21.3993 352.71ZM25.5904 359.564C26.3132 360.691 27.0504 361.816 27.8021 362.936L29.463 361.822C28.7192 360.713 27.9896 359.601 27.2743 358.484L25.5904 359.564ZM30.0744 366.249C30.8392 367.34 31.6179 368.427 32.4103 369.509L34.024 368.327C33.2396 367.256 32.4689 366.181 31.7119 365.101L30.0744 366.249ZM34.8287 372.742C35.6374 373.8 36.4594 374.854 37.2947 375.902L38.8589 374.656C38.032 373.618 37.2183 372.575 36.4178 371.527L34.8287 372.742ZM39.8278 379.016C40.6853 380.049 41.5559 381.076 42.4396 382.098L43.9522 380.789C43.0773 379.778 42.2154 378.761 41.3665 377.738L39.8278 379.016ZM45.0883 385.099C45.9816 386.09 46.8875 387.076 47.8058 388.056L49.265 386.688C48.3557 385.718 47.4589 384.742 46.5745 383.76L45.0883 385.099ZM50.5986 390.976C51.5269 391.928 52.4674 392.873 53.4199 393.811L54.8235 392.386C53.8804 391.457 52.9492 390.522 52.0301 389.58L50.5986 390.976ZM56.3097 396.602C57.285 397.525 58.2723 398.442 59.2715 399.351L60.6174 397.871C59.628 396.971 58.6504 396.064 57.6848 395.15L56.3097 396.602ZM62.2556 402.012C63.2608 402.891 64.2775 403.762 65.3057 404.626L66.5922 403.095C65.5741 402.24 64.5674 401.377 63.5721 400.506L62.2556 402.012ZM68.4247 407.194C69.4594 408.029 70.5052 408.856 71.562 409.675L72.7871 408.094C71.7406 407.283 70.7051 406.464 69.6806 405.638L68.4247 407.194ZM74.7601 412.103C75.8371 412.904 76.9251 413.697 78.0241 414.482L79.1859 412.854C78.0977 412.077 77.0203 411.292 75.9538 410.499L74.7601 412.103ZM81.3053 416.775C82.4058 417.528 83.5169 418.273 84.6385 419.009L85.7356 417.337C84.6249 416.608 83.5247 415.87 82.4349 415.125L81.3053 416.775ZM88.0347 421.189C89.1632 421.898 90.3018 422.598 91.4506 423.289L92.4813 421.575C91.3437 420.891 90.2161 420.198 89.0987 419.496L88.0347 421.189ZM94.9054 425.321C96.067 425.989 97.2386 426.648 98.4202 427.297L99.3832 425.544C98.213 424.901 97.0528 424.249 95.9025 423.588L94.9054 425.321ZM101.963 429.199C103.14 429.816 104.327 430.424 105.524 431.022L106.418 429.233C105.233 428.641 104.057 428.039 102.891 427.427L101.963 429.199ZM109.143 432.787C110.354 433.364 111.575 433.93 112.805 434.486L113.629 432.664C112.411 432.113 111.202 431.552 110.003 430.981L109.143 432.787ZM116.458 436.097C117.684 436.624 118.92 437.14 120.165 437.647L120.919 435.795C119.686 435.293 118.462 434.781 117.247 434.259L116.458 436.097ZM123.927 439.136C125.165 439.612 126.412 440.079 127.668 440.535L128.351 438.655C127.107 438.203 125.872 437.741 124.645 437.269L123.927 439.136ZM131.448 441.867C132.716 442.301 133.993 442.725 135.279 443.137L135.89 441.233C134.617 440.824 133.352 440.405 132.095 439.975L131.448 441.867ZM139.119 444.331C140.39 444.713 141.668 445.084 142.954 445.445L143.494 443.52C142.22 443.162 140.953 442.794 139.695 442.416L139.119 444.331ZM146.837 446.496C148.139 446.836 149.449 447.165 150.767 447.483L151.236 445.538C149.93 445.223 148.632 444.897 147.341 444.561L146.837 446.496ZM154.648 448.382C155.946 448.67 157.252 448.948 158.565 449.215L158.964 447.256C157.662 446.991 156.368 446.715 155.082 446.429L154.648 448.382ZM162.527 449.985C163.843 450.228 165.167 450.461 166.498 450.683L166.827 448.71C165.507 448.49 164.195 448.259 162.891 448.018L162.527 449.985ZM170.432 451.303C171.75 451.499 173.075 451.685 174.407 451.86L174.668 449.877C173.347 449.703 172.033 449.519 170.726 449.325L170.432 451.303ZM178.426 452.352C179.747 452.502 181.074 452.641 182.409 452.77L182.601 450.78C181.278 450.652 179.961 450.513 178.651 450.364L178.426 452.352ZM186.381 453.121C187.712 453.227 189.049 453.323 190.393 453.407L190.519 451.411C189.186 451.327 187.86 451.232 186.54 451.127L186.381 453.121ZM194.443 453.63C195.765 453.691 197.093 453.743 198.427 453.784L198.488 451.784C197.164 451.744 195.847 451.693 194.536 451.632L194.443 453.63ZM202.415 453.874C203.751 453.894 205.092 453.903 206.44 453.901L206.438 451.901C205.101 451.903 203.77 451.894 202.445 451.874L202.415 453.874ZM210.501 453.865C211.821 453.843 213.147 453.811 214.479 453.769L214.415 451.77C213.093 451.812 211.778 451.844 210.467 451.866L210.501 453.865ZM218.462 453.612C219.796 453.549 221.135 453.477 222.479 453.394L222.356 451.398C221.021 451.48 219.692 451.552 218.369 451.614L218.462 453.612ZM226.53 453.113C227.849 453.012 229.174 452.901 230.504 452.78L230.323 450.788C229.002 450.909 227.687 451.019 226.377 451.119L226.53 453.113ZM234.464 452.391C235.789 452.252 237.119 452.103 238.454 451.943L238.217 449.957C236.891 450.116 235.57 450.264 234.255 450.402L234.464 452.391ZM242.474 451.435C243.796 451.258 245.124 451.072 246.455 450.876L246.164 448.897C244.841 449.092 243.523 449.277 242.21 449.452L242.474 451.435ZM250.374 450.272C251.684 450.062 253 449.841 254.319 449.611L253.976 447.641C252.665 447.87 251.358 448.088 250.056 448.298L250.374 450.272ZM258.293 448.893C259.622 448.643 260.956 448.384 262.294 448.115L261.9 446.155C260.57 446.422 259.245 446.679 257.924 446.927L258.293 448.893ZM266.159 447.314C267.45 447.038 268.746 446.753 270.046 446.459L269.604 444.508C268.312 444.801 267.024 445.084 265.741 445.359L266.159 447.314ZM273.958 445.548C275.266 445.236 276.578 444.913 277.895 444.582L277.407 442.642C276.098 442.972 274.793 443.292 273.493 443.603L273.958 445.548ZM281.799 443.575C283.067 443.24 284.339 442.896 285.614 442.543L285.082 440.616C283.813 440.966 282.548 441.308 281.288 441.641L281.799 443.575ZM289.453 441.46C290.736 441.089 292.023 440.711 293.314 440.323L292.739 438.407C291.455 438.793 290.175 439.17 288.899 439.538L289.453 441.46ZM297.198 439.132C297.848 438.93 298.498 438.725 299.149 438.517L298.542 436.611C297.895 436.818 297.248 437.022 296.602 437.224L297.198 439.132ZM299.149 438.517C299.806 438.308 300.461 438.099 301.115 437.89L300.507 435.985C299.854 436.194 299.199 436.402 298.542 436.611L299.149 438.517ZM305.02 436.642C306.315 436.227 307.604 435.813 308.888 435.4L308.275 433.496C306.993 433.909 305.704 434.323 304.409 434.737L305.02 436.642ZM312.719 434.164C313.99 433.753 315.256 433.343 316.515 432.935L315.897 431.032C314.639 431.441 313.375 431.85 312.104 432.261L312.719 434.164ZM320.393 431.673C321.695 431.248 322.991 430.824 324.28 430.402L323.658 428.501C322.369 428.923 321.074 429.347 319.772 429.771L320.393 431.673ZM328.13 429.137C329.406 428.717 330.676 428.297 331.94 427.879L331.312 425.98C330.049 426.398 328.78 426.817 327.504 427.238L328.13 429.137ZM335.733 426.621C337.041 426.186 338.341 425.752 339.635 425.319L339.001 423.423C337.708 423.855 336.408 424.288 335.102 424.723L335.733 426.621ZM343.496 424.025C344.776 423.595 346.049 423.165 347.316 422.737L346.675 420.842C345.41 421.27 344.138 421.699 342.859 422.129L343.496 424.025ZM351.094 421.456C352.389 421.016 353.677 420.577 354.958 420.139L354.311 418.246C353.031 418.684 351.745 419.123 350.451 419.563L351.094 421.456ZM358.823 418.813C360.105 418.372 361.378 417.932 362.645 417.494L361.991 415.604C360.725 416.042 359.453 416.481 358.173 416.922L358.823 418.813ZM366.423 416.182C367.706 415.735 368.982 415.289 370.25 414.844L369.589 412.957C368.322 413.401 367.047 413.847 365.765 414.293L366.423 416.182ZM374.112 413.485C375.392 413.033 376.664 412.583 377.928 412.134L377.258 410.249C375.995 410.698 374.725 411.148 373.447 411.599L374.112 413.485ZM381.696 410.789C382.976 410.331 384.247 409.874 385.511 409.418L384.832 407.537C383.57 407.992 382.3 408.448 381.022 408.906L381.696 410.789ZM389.36 408.025C390.634 407.561 391.9 407.099 393.158 406.639L392.47 404.761C391.214 405.221 389.95 405.682 388.677 406.145L389.36 408.025ZM396.907 405.26C398.191 404.786 399.465 404.313 400.731 403.842L400.033 401.968C398.769 402.438 397.496 402.91 396.214 403.384L396.907 405.26ZM404.555 402.412C405.821 401.937 407.078 401.463 408.326 400.99L407.617 399.119C406.371 399.592 405.116 400.065 403.852 400.54L404.555 402.412ZM412.052 399.571C413.343 399.078 414.624 398.586 415.895 398.095L415.175 396.229C413.906 396.719 412.627 397.21 411.338 397.703L412.052 399.571ZM419.681 396.626C420.933 396.138 422.176 395.651 423.41 395.165L422.677 393.304C421.446 393.789 420.205 394.275 418.955 394.763L419.681 396.626ZM427.186 393.671C428.461 393.163 429.725 392.658 430.979 392.153L430.233 390.298C428.981 390.801 427.719 391.306 426.447 391.812L427.186 393.671ZM434.711 390.643C435.961 390.135 437.201 389.628 438.43 389.122L437.669 387.272C436.442 387.777 435.205 388.283 433.957 388.791L434.711 390.643ZM442.221 387.552C443.474 387.03 444.716 386.51 445.947 385.991L445.17 384.148C443.941 384.666 442.702 385.185 441.452 385.706L442.221 387.552ZM449.627 384.429C450.898 383.886 452.157 383.344 453.405 382.804L452.61 380.969C451.365 381.508 450.109 382.048 448.841 382.589L449.627 384.429ZM457.112 381.187C458.343 380.647 459.562 380.108 460.769 379.57L459.956 377.743C458.751 378.279 457.536 378.817 456.308 379.356L457.112 381.187ZM464.521 377.886C465.759 377.326 466.984 376.768 468.197 376.21L467.362 374.393C466.153 374.949 464.931 375.506 463.696 376.064L464.521 377.886ZM471.845 374.521C473.094 373.938 474.331 373.355 475.554 372.775L474.696 370.968C473.477 371.547 472.244 372.127 470.998 372.709L471.845 374.521ZM479.183 371.036C480.413 370.441 481.628 369.848 482.83 369.257L481.947 367.462C480.749 368.052 479.538 368.643 478.313 369.235L479.183 371.036ZM486.48 367.442C487.682 366.839 488.87 366.237 490.044 365.635L489.133 363.855C487.963 364.454 486.78 365.054 485.582 365.655L486.48 367.442ZM493.695 363.747C494.899 363.117 496.089 362.488 497.264 361.86L496.321 360.096C495.152 360.721 493.967 361.347 492.768 361.974L493.695 363.747ZM500.831 359.931C502.035 359.273 503.223 358.616 504.394 357.96L503.417 356.215C502.251 356.868 501.07 357.522 499.872 358.177L500.831 359.931ZM507.889 355.978C509.088 355.29 510.269 354.603 511.433 353.916L510.417 352.193C509.26 352.876 508.085 353.559 506.893 354.243L507.889 355.978ZM514.874 351.86C516.058 351.142 517.224 350.425 518.372 349.709L517.314 348.013C516.173 348.724 515.015 349.436 513.838 350.149L514.874 351.86ZM521.772 347.557C522.934 346.81 524.076 346.064 525.2 345.318L524.094 343.652C522.979 344.392 521.845 345.133 520.691 345.874L521.772 347.557ZM528.541 343.064C529.68 342.283 530.798 341.502 531.897 340.722L530.738 339.091C529.649 339.865 528.54 340.64 527.41 341.415L528.541 343.064ZM535.16 338.36C536.274 337.539 537.366 336.718 538.437 335.897L537.221 334.31C536.159 335.123 535.077 335.937 533.974 336.75L535.16 338.36ZM541.613 333.414C542.694 332.552 543.752 331.689 544.789 330.825L543.509 329.288C542.483 330.143 541.435 330.997 540.365 331.851L541.613 333.414ZM547.876 328.196C548.911 327.293 549.924 326.39 550.914 325.485L549.565 324.009C548.587 324.903 547.586 325.796 546.562 326.688L547.876 328.196ZM553.892 322.698C554.875 321.754 555.836 320.808 556.774 319.859L555.352 318.453C554.426 319.388 553.478 320.323 552.507 321.255L553.892 322.698ZM559.615 316.909C560.553 315.908 561.466 314.905 562.357 313.899L560.859 312.573C559.981 313.565 559.08 314.554 558.156 315.542L559.615 316.909ZM565.003 310.821C565.884 309.764 566.742 308.704 567.577 307.64L566.003 306.406C565.181 307.454 564.336 308.498 563.467 309.539L565.003 310.821ZM570.043 304.396C570.852 303.297 571.638 302.194 572.402 301.085L570.756 299.95C570.003 301.041 569.229 302.128 568.432 303.211L570.043 304.396ZM574.668 297.686C575.408 296.538 576.126 295.384 576.823 294.225L575.109 293.194C574.423 294.336 573.716 295.472 572.987 296.603L574.668 297.686ZM578.869 290.703C579.535 289.515 580.181 288.32 580.808 287.119L579.036 286.193C578.417 287.377 577.78 288.554 577.124 289.725L578.869 290.703ZM582.643 283.48C582.94 282.869 583.233 282.257 583.521 281.643L581.711 280.793C581.426 281.399 581.138 282.003 580.845 282.605L582.643 283.48ZM583.521 281.643C583.808 281.033 584.087 280.423 584.358 279.813L582.531 278.999C582.265 279.597 581.992 280.195 581.711 280.793L583.521 281.643ZM585.902 276.145C586.398 274.896 586.863 273.648 587.297 272.399L585.409 271.742C584.983 272.963 584.529 274.185 584.043 275.407L585.902 276.145ZM588.529 268.596C588.913 267.313 589.266 266.03 589.588 264.747L587.648 264.26C587.334 265.514 586.989 266.768 586.613 268.022L588.529 268.596ZM590.472 260.856C590.738 259.545 590.973 258.234 591.177 256.922L589.201 256.614C589.001 257.896 588.772 259.177 588.512 260.458L590.472 260.856ZM591.701 252.96C591.846 251.634 591.959 250.308 592.043 248.981L590.047 248.854C589.965 250.152 589.854 251.448 589.713 252.743L591.701 252.96ZM592.207 244.991C592.232 243.661 592.227 242.329 592.195 240.997L590.195 241.046C590.227 242.35 590.231 243.652 590.207 244.954L592.207 244.991ZM592.013 237.011C591.925 235.688 591.81 234.364 591.669 233.039L589.68 233.251C589.818 234.55 589.931 235.848 590.017 237.143L592.013 237.011ZM591.169 229.082C590.979 227.772 590.763 226.46 590.523 225.145L588.556 225.504C588.792 226.796 589.003 228.084 589.19 229.37L591.169 229.082ZM589.741 221.239C589.46 219.951 589.157 218.661 588.832 217.368L586.892 217.856C587.212 219.129 587.511 220.398 587.787 221.665L589.741 221.239ZM587.804 213.524C587.444 212.254 587.063 210.981 586.663 209.706L584.755 210.304C585.15 211.562 585.525 212.817 585.879 214.069L587.804 213.524ZM585.425 205.931C584.999 204.688 584.556 203.442 584.095 202.192L582.218 202.885C582.674 204.12 583.112 205.351 583.533 206.579L585.425 205.931ZM582.676 198.478C582.193 197.253 581.693 196.025 581.178 194.795L579.333 195.567C579.843 196.785 580.337 198 580.815 199.212L582.676 198.478ZM579.615 191.157C579.085 189.954 578.541 188.747 577.982 187.538L576.167 188.376C576.72 189.576 577.26 190.771 577.785 191.963L579.615 191.157ZM576.288 183.943C575.72 182.763 575.139 181.58 574.547 180.393L572.757 181.287C573.346 182.465 573.922 183.64 574.485 184.81L576.288 183.943ZM572.75 176.856C572.147 175.688 571.533 174.517 570.908 173.343L569.142 174.282C569.764 175.45 570.374 176.613 570.973 177.773L572.75 176.856ZM569.031 169.864C568.4 168.71 567.759 167.552 567.109 166.391L565.364 167.368C566.011 168.524 566.649 169.675 567.276 170.823L569.031 169.864ZM565.16 162.95C564.508 161.812 563.848 160.67 563.179 159.525L561.451 160.534C562.118 161.674 562.775 162.811 563.424 163.944L565.16 162.95ZM561.163 156.106C560.495 154.982 559.819 153.854 559.135 152.722L557.423 153.756C558.105 154.884 558.778 156.008 559.444 157.128L561.163 156.106ZM557.074 149.334C556.39 148.217 555.699 147.097 555.001 145.972L553.301 147.027C553.997 148.148 554.687 149.266 555.369 150.379L557.074 149.334ZM552.906 142.616C552.208 141.504 551.504 140.388 550.794 139.268L549.105 140.338C549.814 141.456 550.516 142.57 551.212 143.679L552.906 142.616ZM548.674 135.938C547.966 134.829 547.251 133.716 546.532 132.599L544.851 133.682C545.569 134.797 546.282 135.908 546.989 137.015L548.674 135.938ZM544.393 129.29C543.678 128.187 542.958 127.079 542.233 125.967L540.558 127.059C541.281 128.17 542.001 129.276 542.715 130.378L544.393 129.29ZM540.077 122.667C539.357 121.567 538.634 120.464 537.906 119.357L536.234 120.455C536.961 121.562 537.685 122.664 538.404 123.762L540.077 122.667ZM535.737 116.06C535.015 114.964 534.289 113.863 533.56 112.759L531.891 113.861C532.62 114.965 533.345 116.064 534.067 117.16L535.737 116.06ZM531.384 109.463C531.019 108.912 530.654 108.36 530.288 107.806L528.62 108.909C528.986 109.463 529.351 110.015 529.715 110.566L531.384 109.463Z" fill="#72A631" fill-opacity="0.3" mask="url(#path-1-inside-1_3744_25185)"/>
</svg>
