<svg width="64" height="64" viewBox="0 0 64 64" fill="none" xmlns="http://www.w3.org/2000/svg">
<g clip-path="url(#clip0_3914_379)">
<path d="M63.9864 19.5889C63.9864 11.1746 57.1657 4.35394 48.7516 4.35394C40.3373 4.35394 33.5166 11.1746 33.5166 19.5889C33.5166 28.0032 40.3373 34.8237 48.7516 34.8237C50.4808 34.8237 52.1361 34.5223 53.6857 33.9911C50.2572 53.6544 34.9236 66.335 49.1378 55.8986C64.8992 44.3258 64.0033 20.0545 63.9856 19.6097C63.9856 19.6028 63.9864 19.5966 63.9864 19.5889Z" fill="#72A631" fill-opacity="0.1"/>
<path d="M30.4698 19.5899C30.4698 11.1756 23.6491 4.35491 15.2348 4.35491C6.82053 4.35491 -0.000177383 11.1756 -0.000177383 19.5899C-0.000177383 28.0041 6.82065 34.8247 15.2349 34.8247C16.9643 34.8247 18.6194 34.5233 20.169 33.992C16.7406 53.6553 1.40695 66.3359 15.6212 55.8996C31.3826 44.3268 30.4868 20.0555 30.469 19.6107C30.469 19.6037 30.4698 19.5976 30.4698 19.5899Z" fill="#72A631" fill-opacity="0.1"/>
</g>
<defs>
<clipPath id="clip0_3914_379">
<rect width="64" height="64" fill="white" transform="translate(64 64) rotate(-180)"/>
</clipPath>
</defs>
</svg>
