<svg width="1920" height="941" viewBox="0 0 1920 941" fill="none" xmlns="http://www.w3.org/2000/svg">
<path d="M1919.5 57.0625H1920V61.0893H1919.5V65.1161H1920V69.1429H1919.5V73.1697H1920V77.1964H1919.5V81.2232H1920V85.25H1919.5V89.2768H1920V93.3036H1919.5V97.3304H1920V101.357H1919.5V105.384H1920V109.411H1919.5V113.438H1920V117.464H1919.5V121.491H1920V125.518H1919.5V129.545H1920V133.572H1919.5V137.598H1920V141.625H1919.5V145.652H1920V149.679H1919.5V153.706H1920V157.732H1919.5V161.759H1920V165.786H1919.5V169.813H1920V173.839H1919.5V177.866H1920V181.893H1919.5V185.92H1920V189.947H1919.5V193.973H1920V198H1919.5V202.027H1920V206.054H1919.5V210.081H1920V214.107H1919.5V218.134H1920V222.161H1919.5V226.188H1920V230.215H1919.5V234.241H1920V238.268H1919.5V242.295H1920V246.322H1919.5V250.349H1920V254.375H1919.5V258.402H1920V262.429H1919.5V266.456H1920V270.482H1919.5V274.509H1920V278.536H1919.5V282.563H1920V286.59H1919.5V290.616H1920V294.643H1919.5V298.67H1920V302.697H1919.5V306.724H1920V310.75H1919.5V314.777H1920V318.804H1919.5V322.831H1920V326.857H1919.5V330.884H1920V334.911H1919.5V338.938H1920V342.965H1919.5V346.991H1920V351.018H1919.5V355.045H1920V359.072H1919.5V363.098H1920V367.125H1919.5V371.152H1920V375.179H1919.5V379.206H1920V383.232H1919.5V387.259H1920V391.286H1919.5V395.313H1920V399.339H1919.5V403.366H1920V407.393H1919.5V411.42H1920V415.447H1919.5V419.473H1920V423.5H1919.5V427.527H1920V431.554H1919.5V435.58H1920V439.607H1919.5V443.634H1920V447.661H1919.5V451.688H1920V455.714H1919.5V459.741H1920V463.768H1919.5V467.795H1920V471.821H1919.5V475.848H1920V479.875H1919.5V483.902H1920V487.929H1919.5V491.955H1920V495.982H1919.5V500.009H1920V504.036H1919.5V505.549H1918V506.049H1914V505.549H1910V506.049H1906V505.549H1902V506.049H1898V505.549H1894V506.049H1890V505.549H1886V506.049H1882V505.549H1878V506.049H1874V505.549H1870V506.049H1866V505.549H1862V506.049H1858V505.549H1854V506.049H1850V505.549H1846V506.049H1842V505.549H1838V506.049H1834V505.549H1830V506.049H1826V505.549H1822V506.049H1818V505.549H1814V506.049H1810V505.549H1806V506.049H1802V505.549H1798V506.049H1794V505.549H1790V506.049H1786V505.549H1782V506.049H1778V505.549H1774V506.049H1770V505.549H1766V506.049H1762V505.549H1758V506.049H1754V505.549H1750V506.049H1746V505.549H1742V506.049H1738V505.549H1734V506.049H1730V505.549H1726V506.049H1722V505.549H1718V506.049H1714V505.549H1710V506.049H1706V505.549H1702V506.049H1698V505.549H1694V506.049H1690V505.549H1686V506.049H1682V505.549H1678V506.049H1674V505.549H1670V506.049H1666V505.549H1662V506.049H1658V505.549H1654V506.049H1650V505.549H1646V506.049H1642V505.549H1638V506.049H1634V505.549H1630V506.049H1626V505.549H1622V506.049H1618V505.549H1614V506.049H1610V505.549H1606V506.049H1602V505.549H1598V506.049H1594V505.549H1590V506.049H1586V505.549H1582V506.049H1578V505.549H1574V506.049H1570V505.549H1566V506.049H1562V505.549H1558V506.049H1554V505.549H1550V506.049H1546V505.549H1542V506.049H1538V505.549H1534V506.049H1530V505.549H1526V506.049H1522V505.549H1518V506.049H1514V505.549H1510V506.049H1506V505.549H1502V506.049H1498V505.549H1494V506.049H1490V505.549H1486V506.049H1482V505.549H1478V506.049H1474V505.549H1470V506.049H1466V505.549H1462V506.049H1458V505.549H1454V506.049H1450V505.549H1446V506.049H1442V505.549H1438V506.049H1434V505.549H1430V506.049H1426V505.549H1422V506.049H1418V505.549H1414V506.049H1410V505.549H1406V506.049H1402V505.549H1398V506.049H1394V505.549H1390V506.049H1386V505.549H1382V506.049H1378V505.549H1374V506.049H1370V505.549H1366V506.049H1362V505.549H1358V506.049H1354V505.549H1350V506.049H1346V505.549H1342V506.049H1338V505.549H1334V506.049H1330V505.549H1326V506.049H1322V505.549H1318V506.049H1314V505.549H1310V506.049H1306V505.549H1302V506.049H1298V505.549H1294V506.049H1290V505.549H1286V506.049H1282V505.549H1278V506.049H1274V505.549H1270V506.049H1266V505.549H1262V506.049H1258V505.549H1254V506.049H1250V505.549H1246V506.049H1242V505.549H1238V506.049H1234V505.549H1230V506.049H1226V505.549H1222V506.049H1218V505.549H1214V506.049H1210V505.549H1206V506.049H1202V505.549H1198V506.049H1194V505.549H1190V506.049H1186V505.549H1182V506.049H1178V505.549H1174V506.049H1170V505.549H1166V506.049H1162V505.549H1158V506.049H1154V505.549H1150V506.049H1146V505.549H1142V506.049H1138V505.549H1134V506.049H1130V505.549H1126V506.049H1122V505.549H1118V506.049H1114V505.549H1110V506.049H1106V505.549H1102V506.049H1098V505.549H1094V506.049H1090V505.549H1086V506.049H1082V505.549H1078V506.049H1074V505.549H1070V506.049H1066V505.549H1062V506.049H1058V505.549H1054V506.049H1050V505.549H1046V506.049H1042V505.549H1038V506.049H1034V505.549H1030V506.049H1026V505.549H1022V506.049H1018V505.549H1014V506.049H1010V505.549H1006V506.049H1002V505.549H998V506.049H994V505.549H990V506.049H986V505.549H982V506.049H978V505.549H974V506.049H970V505.549H966V506.049H962V505.549H958V506.049H954V505.549H950V506.049H946V505.549H942V506.049H938V505.549H934V506.049H930V505.549H926V506.049H922V505.549H918V506.049H914V505.549H910V506.049H906V505.549H902V506.049H898V505.549H894V506.049H890V505.549H886V506.049H882V505.549H878V506.049H874V505.549H870V506.049H866V505.549H862V506.049H858V505.549H854V506.049H850V505.549H846V506.049H842V505.549H838V506.049H834V505.549H830V506.049H826V505.549H822V506.049H818V505.549H814V506.049H810V505.549H806V506.049H802V505.549H798V506.049H794V505.549H790V506.049H786V505.549H782V506.049H778V505.549H774V506.049H770V505.549H766V506.049H762V505.549H758V506.049H754V505.549H750V506.049H746V505.549H742V506.049H738V505.549H734V506.049H730V505.549H726V506.049H722V505.549H718V506.049H714V505.549H710V506.049H706V505.549H702V506.049H698V505.549H694V506.049H690V505.549H686V506.049H682V505.549H678V506.049H674V505.549H670V506.049H666V505.549H662V506.049H658V505.549H654V506.049H650V505.549H646V506.049H642V505.549H638V506.049H634V505.549H630V506.049H626V505.549H622V506.049H618V505.549H614V506.049H610V505.549H606V506.049H602V505.549H598V506.049H594V505.549H590V506.049H586V505.549H582V506.049H578V505.549H574V506.049H570V505.549H566V506.049H562V505.549H558V506.049H554V505.549H550V506.049H546V505.549H542V506.049H538V505.549H534V506.049H530V505.549H526V506.049H522V505.549H518V506.049H514V505.549H510V506.049H506V505.549H502V506.049H498V505.549H494V506.049H490V505.549H486V506.049H482V505.549H478V506.049H474V505.549H470V506.049H466V505.549H462V506.049H458V505.549H454V506.049H450V505.549H446V506.049H442V505.549H438V506.049H434V505.549H430V506.049H426V505.549H422V506.049H418V505.549H414V506.049H410V505.549H406V506.049H402V505.549H398V506.049H394V505.549H390V506.049H386V505.549H382V506.049H378V505.549H374V506.049H370V505.549H366V506.049H362V505.549H358V506.049H354V505.549H350V506.049H346V505.549H342V506.049H338V505.549H334V506.049H330V505.549H326V506.049H322V505.549H318V506.049H314V505.549H310V506.049H306V505.549H302V506.049H298V505.549H294V506.049H290V505.549H286V506.049H282V505.549H278V506.049H274V505.549H270V506.049H266V505.549H262V506.049H258V505.549H254V506.049H250V505.549H246V506.049H242V505.549H238V506.049H234V505.549H230V506.049H226V505.549H222V506.049H218V505.549H214V506.049H210V505.549H206V506.049H202V505.549H198V506.049H194V505.549H190V506.049H186V505.549H182V506.049H178V505.549H174V506.049H170V505.549H166V506.049H162V505.549H158V506.049H154V505.549H150V506.049H146V505.549H142V506.049H138V505.549H134V506.049H130V505.549H126V506.049H122V505.549H118V506.049H114V505.549H110V506.049H106V505.549H102V506.049H98V505.549H94V506.049H90V505.549H86V506.049H82V505.549H78V506.049H74V505.549H70V506.049H66V505.549H62V506.049H58V505.549H54V506.049H50V505.549H46V506.049H42V505.549H38V506.049H34V505.549H30V506.049H26V505.549H22V506.049H18V505.549H14V506.049H10V505.549H6V506.049H2V505.549H0.5V504.059H0V500.08H0.5V496.1H0V492.12H0.5V488.141H0V484.161H0.5V480.182H0V476.202H0.5V472.222H0V468.243H0.5V464.263H0V460.284H0.5V456.304H0V452.325H0.5V448.345H0V444.365H0.5V440.386H0V436.406H0.5V432.427H0V428.447H0.5V424.467H0V420.488H0.5V416.508H0V412.529H0.5V408.549H0V404.57H0.5V400.59H0V396.61H0.5V392.631H0V388.651H0.5V384.672H0V380.692H0.5V376.712H0V372.733H0.5V368.753H0V364.774H0.5V360.794H0V356.815H0.5V352.835H0V348.855H0.5V344.876H0V340.896H0.5V336.917H0V332.937H0.5V328.957H0V324.978H0.5V320.998H0V317.019H0.5V313.039H0V309.06H0.5V305.08H0V301.1H0.5V297.121H0V293.141H0.5V289.162H0V285.182H0.5V281.202H0V277.223H0.5V273.243H0V269.264H0.5V265.284H0V261.305H0.5V257.325H0V253.345H0.5V249.366H0V245.386H0.5V241.407H0V237.427H0.5V233.447H0V229.468H0.5V225.488H0V221.509H0.5V217.529H0V213.549H0.5V209.57H0V205.59H0.5V201.611H0V197.631H0.5V193.652H0V189.672H0.5V185.692H0V181.713H0.5V177.733H0V173.754H0.5V169.774H0V165.794H0.5V161.815H0V157.835H0.5V153.856H0V149.876H0.5V145.896H0V141.917H0.5V137.937H0V133.958H0.5V129.978H0V125.998H0.5V122.019H0V118.039H0.5V116.314C0.543833 116.285 0.59432 116.251 0.651457 116.212C0.898246 116.047 1.26909 115.8 1.76364 115.477L1.49026 115.059C2.29141 114.535 3.41498 113.813 4.85956 112.912L5.12428 113.336C6.14706 112.698 7.33139 111.969 8.67674 111.157L8.41839 110.729C9.40799 110.132 10.4845 109.49 11.6476 108.805L11.9012 109.236C13.0383 108.567 14.2586 107.858 15.5616 107.11L15.3129 106.677C16.3511 106.081 17.4417 105.462 18.5848 104.82L18.8296 105.256C19.9714 104.615 21.1655 103.951 22.4119 103.266L22.171 102.828C23.292 102.211 24.4552 101.578 25.6606 100.928L25.8978 101.368C27.0102 100.769 28.1586 100.155 29.3429 99.5286L29.109 99.0867C30.2944 98.4594 31.5158 97.8191 32.7729 97.1663L33.0033 97.6101C34.1425 97.0186 35.3111 96.417 36.5091 95.8057L36.2819 95.3603C37.4165 94.7814 38.5774 94.1939 39.7647 93.5983L39.989 94.0452C41.1752 93.45 42.3879 92.8467 43.6268 92.2358L43.4056 91.7873C44.6112 91.1928 45.8416 90.591 47.0968 89.9825L47.3149 90.4324C48.4484 89.8828 49.6021 89.3277 50.776 88.7674L50.5606 88.3162C51.7355 87.7554 52.9306 87.1894 54.146 86.6184L54.3586 87.0709C55.573 86.5004 56.8077 85.925 58.0625 85.3449L57.8527 84.8911C59.065 84.3307 60.2961 83.766 61.5461 83.1974L61.7531 83.6525C62.91 83.1261 64.0831 82.5963 65.2723 82.0633L65.0678 81.6071C66.2579 81.0737 67.464 80.5371 68.6863 79.9975L68.8882 80.4549C70.1096 79.9158 71.3471 79.3736 72.6007 78.8287L72.4014 78.3701C73.6559 77.8249 74.9264 77.2768 76.2131 76.7263L76.4098 77.186C77.5793 76.6855 78.7622 76.183 79.9584 75.6786L79.7641 75.2178C80.9567 74.7149 82.1625 74.21 83.3815 73.7035L83.5734 74.1652C84.7915 73.6589 86.0229 73.151 87.2674 72.6414L87.078 72.1787C88.3233 71.6689 89.5818 71.1575 90.8535 70.6447L91.0405 71.1084C92.2951 70.6025 93.5626 70.0952 94.8429 69.5867L94.6584 69.122C95.8471 68.6499 97.0468 68.1768 98.2575 67.7028L98.4398 68.1684C99.6498 67.6947 100.871 67.2201 102.103 66.7447L101.923 66.2782C103.156 65.8026 104.399 65.3262 105.654 64.8492L105.832 65.3166C107.086 64.8398 108.351 64.3625 109.627 63.8846L109.451 63.4164C110.728 62.9382 112.016 62.4596 113.315 61.9806L113.488 62.4497C114.697 62.0037 115.916 61.5573 117.145 61.1107L116.974 60.6408C118.193 60.1977 119.421 59.7544 120.658 59.311L120.827 59.7817C122.064 59.3386 123.31 58.8953 124.566 58.4521L124.399 57.9806C125.656 57.5371 126.921 57.0936 128.196 56.6503L128.361 57.1225C129.635 56.6794 130.918 56.2364 132.211 55.7936L132.049 55.3205C133.324 54.884 134.608 54.4476 135.901 54.0115L136.061 54.4853C137.281 54.0737 138.509 53.6624 139.745 53.2515L139.588 52.777C140.825 52.3659 142.07 51.9551 143.323 51.5447L143.479 52.0199C144.731 51.6097 145.991 51.2001 147.26 50.7909L147.107 50.315C148.376 49.9056 149.653 49.4967 150.939 49.0884L151.09 49.565C152.375 49.1569 153.667 48.7495 154.968 48.3427L154.819 47.8655C156.112 47.4611 157.413 47.0573 158.722 46.6544L158.869 47.1322C160.102 46.7529 161.341 46.3743 162.588 45.9963L162.442 45.5178C163.69 45.1397 164.944 44.7624 166.205 44.3858L166.348 44.8649C167.608 44.4885 168.876 44.113 170.15 43.7383L170.009 43.2586C171.285 42.8837 172.567 42.5097 173.856 42.1367L173.995 42.617C175.284 42.2441 176.579 41.8722 177.882 41.5014L177.745 41.0205C179.048 40.6494 180.358 40.2794 181.676 39.9104L181.811 40.3918C183.083 40.0356 184.361 39.6803 185.646 39.3261L185.514 38.8441C186.765 38.4991 188.023 38.1552 189.287 37.8123L189.418 38.2948C190.681 37.9522 191.951 37.6106 193.226 37.2701L193.097 36.787C194.374 36.4463 195.656 36.1068 196.945 35.7685L197.072 36.2521C198.36 35.9139 199.654 35.5769 200.955 35.2412L200.83 34.7571C202.131 34.4212 203.438 34.0865 204.752 33.7532L204.875 34.2378C206.187 33.9047 207.506 33.5728 208.832 33.2423L208.711 32.7571C209.99 32.438 211.276 32.1201 212.567 31.8035L212.686 32.2891C213.948 31.9795 215.216 31.6712 216.49 31.3642L216.373 30.8782C217.647 30.571 218.927 30.2652 220.212 29.9607L220.327 30.4472C221.611 30.1429 222.901 29.8399 224.197 29.5384L224.084 29.0514C225.38 28.7497 226.681 28.4494 227.988 28.1505L228.1 28.6379C229.406 28.3392 230.718 28.042 232.036 27.7462L231.926 27.2584C233.244 26.9625 234.568 26.6681 235.897 26.3752L236.004 26.8635C237.314 26.575 238.629 26.2879 239.949 26.0024L239.843 25.5137C241.113 25.2392 242.387 24.9661 243.666 24.6945L243.77 25.1836C245.049 24.9121 246.332 24.6421 247.621 24.3735L247.519 23.8841C248.808 23.6154 250.102 23.3483 251.401 23.0827L251.501 23.5726C252.8 23.3072 254.103 23.0433 255.411 22.781L255.313 22.2908C256.621 22.0284 257.935 21.7675 259.254 21.5084L259.35 21.999C260.668 21.7399 261.991 21.4825 263.319 21.2268L263.224 20.7358C264.552 20.4799 265.886 20.2257 267.224 19.9733L267.316 20.4646C268.62 20.2187 269.928 19.9744 271.241 19.7317L271.15 19.24C272.431 19.0034 273.716 18.7683 275.005 18.5348L275.094 19.0268C276.383 18.7934 277.677 18.5617 278.974 18.3316L278.887 17.8393C280.185 17.6091 281.488 17.3806 282.795 17.1538L282.88 17.6464C284.187 17.4197 285.498 17.1946 286.813 16.9713L286.729 16.4784C288.045 16.255 289.366 16.0333 290.69 15.8133L290.772 16.3066C292.096 16.0868 293.425 15.8687 294.758 15.6524L294.678 15.1589C296.011 14.9425 297.349 14.728 298.692 14.5152L298.77 15.0091C300.09 14.7999 301.414 14.5925 302.742 14.3869L302.666 13.8928C303.953 13.6936 305.244 13.4961 306.538 13.3004L306.613 13.7947C307.908 13.5991 309.206 13.4051 310.508 13.213L310.435 12.7183C311.738 12.526 313.045 12.3355 314.355 12.1468L314.427 12.6417C315.737 12.453 317.051 12.2662 318.369 12.0811L318.3 11.586C319.618 11.4009 320.941 11.2175 322.268 11.0361L322.336 11.5315C323.662 11.3501 324.992 11.1705 326.326 10.9928L326.26 10.4972C327.595 10.3195 328.933 10.1436 330.276 9.96963L330.34 10.4655C331.682 10.2916 333.028 10.1196 334.378 9.94955L334.316 9.45347C335.619 9.28928 336.926 9.1269 338.237 8.96635L338.298 9.46264C339.594 9.30391 340.893 9.14698 342.196 8.99186L342.137 8.49537C343.441 8.34018 344.748 8.18681 346.059 8.03529L346.116 8.53198C347.427 8.38052 348.741 8.2309 350.058 8.08315L350.002 7.58627C351.321 7.43846 352.642 7.29251 353.968 7.14847L354.022 7.64554C355.346 7.50155 356.675 7.35946 358.007 7.21929L357.954 6.72203C359.287 6.5818 360.623 6.4435 361.963 6.30714L362.013 6.80457C363.353 6.66827 364.695 6.53391 366.042 6.40153L365.993 5.90393C367.34 5.77149 368.69 5.64103 370.045 5.51257L370.092 6.01033C371.399 5.88634 372.709 5.76421 374.023 5.64397L373.978 5.14605C375.279 5.02694 376.584 4.90968 377.892 4.7943L377.936 5.29237C379.243 5.17703 380.554 5.06357 381.868 4.95201L381.826 4.4538C383.14 4.34219 384.458 4.23248 385.779 4.12469L385.82 4.62303C387.141 4.51529 388.465 4.40946 389.792 4.30558L389.753 3.80711C391.08 3.70318 392.411 3.6012 393.746 3.50119L393.783 3.99979C395.117 3.89982 396.454 3.80182 397.794 3.7058L397.759 3.20708C399.099 3.11103 400.444 3.01696 401.791 2.92491L401.825 3.42375C403.172 3.33173 404.522 3.24173 405.876 3.15377L405.843 2.65482C407.175 2.56827 408.51 2.48369 409.848 2.4011L409.878 2.90015C411.181 2.81978 412.486 2.74129 413.794 2.66471L413.765 2.16556C415.073 2.08895 416.385 2.01425 417.7 1.94147L417.727 2.44071C419.041 2.36796 420.359 2.29714 421.679 2.22827L421.653 1.72895C422.973 1.66004 424.297 1.59309 425.624 1.52811L425.648 2.02751C426.974 1.96255 428.303 1.89956 429.635 1.83856L429.613 1.33909C430.945 1.27806 432.281 1.21902 433.62 1.16199L433.641 1.66154C434.979 1.60453 436.32 1.54953 437.664 1.49656L437.645 0.996952C438.989 0.943961 440.337 0.892999 441.687 0.844086L441.706 1.34376C443.056 1.29486 444.409 1.24802 445.765 1.20324L445.748 0.703513C447.073 0.659785 448.4 0.618029 449.73 0.578264L449.745 1.07804C451.05 1.039 452.359 1.00189 453.67 0.966705L453.656 0.466885C454.968 0.43169 456.282 0.398432 457.6 0.36713L457.612 0.866989C458.928 0.835699 460.248 0.806364 461.57 0.779002L461.559 0.279109C462.882 0.251736 464.207 0.226337 465.535 0.202928L465.544 0.702851C466.872 0.679451 468.202 0.658042 469.535 0.638641L469.528 0.138694C470.862 0.119286 472.198 0.101886 473.537 0.086513L473.543 0.58648C474.881 0.571113 476.223 0.557772 477.567 0.546474L477.562 0.0464916C478.907 0.0351898 480.254 0.0259323 481.604 0.018737L481.607 0.51873C482.957 0.511537 484.309 0.506406 485.664 0.503354L485.663 0.00335547C486.999 0.000344498 488.339 -0.000643523 489.681 0.000408461L489.681 0.500408C490.986 0.501432 492.294 0.504386 493.605 0.509287L493.607 0.00929015C494.918 0.0141928 496.231 0.0210429 497.547 0.029856L497.544 0.529845C498.859 0.538655 500.177 0.549427 501.498 0.562177L501.503 0.0622002C502.824 0.0749552 504.147 0.089689 505.474 0.106417L505.467 0.606377C506.793 0.623099 508.121 0.641815 509.452 0.662541L509.459 0.162601C510.791 0.183334 512.124 0.206077 513.46 0.230847L513.451 0.73076C514.787 0.755521 516.125 0.782306 517.466 0.811132L517.476 0.311248C518.818 0.340085 520.161 0.370963 521.507 0.403899L521.495 0.903749C522.841 0.936672 524.189 0.971653 525.54 1.00871L525.554 0.508893C526.905 0.545959 528.258 0.585098 529.615 0.626327L529.6 1.1261C530.919 1.1662 532.241 1.20829 533.565 1.25237L533.582 0.752645C534.889 0.796161 536.198 0.841618 537.51 0.889029L537.492 1.3887C538.804 1.4361 540.117 1.48545 541.433 1.53676L541.453 1.03714C542.769 1.08848 544.088 1.14178 545.409 1.19707L545.388 1.69663C546.709 1.7519 548.032 1.80914 549.357 1.86839L549.379 1.36889C550.705 1.42815 552.033 1.48942 553.364 1.55269L553.34 2.05212C554.67 2.11537 556.002 2.18063 557.336 2.24792L557.361 1.74855C558.696 1.81586 560.034 1.88519 561.373 1.95656L561.347 2.45585C562.686 2.5272 564.027 2.60058 565.371 2.67601L565.399 2.1768C566.743 2.25226 568.089 2.32977 569.438 2.40935L569.409 2.90848C570.757 2.98803 572.108 3.06965 573.461 3.15334L573.491 2.6543C574.815 2.73616 576.14 2.82 577.468 2.90585L577.435 3.40481C578.74 3.48917 580.047 3.57546 581.355 3.6637L581.389 3.16483C582.698 3.2531 584.01 3.34331 585.323 3.43548L585.288 3.93426C586.601 4.0264 587.916 4.1205 589.234 4.21657L589.27 3.71789C590.588 3.81399 591.908 3.91207 593.23 4.01212L593.192 4.5107C594.513 4.61072 595.837 4.71272 597.163 4.81672L597.202 4.31825C598.528 4.42229 599.857 4.52832 601.187 4.63636L601.147 5.13472C602.477 5.24272 603.809 5.35273 605.143 5.46476L605.185 4.96651C606.52 5.07858 607.856 5.19267 609.195 5.30879L609.152 5.80692C610.491 5.923 611.831 6.04111 613.174 6.16127L613.219 5.66326C614.562 5.78346 615.907 5.9057 617.254 6.03L617.208 6.52789C618.554 6.65206 619.903 6.77828 621.253 6.90657L621.3 6.40881C622.6 6.5323 623.901 6.65771 625.205 6.78504L625.157 7.28267C626.46 7.40996 627.765 7.53917 629.072 7.67032L629.122 7.17282C630.429 7.30401 631.739 7.43714 633.05 7.57221L632.999 8.06958C634.31 8.20461 635.623 8.34158 636.938 8.48052L636.991 7.98329C638.306 8.12226 639.623 8.2632 640.942 8.40611L640.889 8.9032C642.207 9.04605 643.528 9.19088 644.851 9.33768L644.906 8.84074C646.229 8.98759 647.554 9.13642 648.881 9.28725L648.825 9.78405C650.152 9.93482 651.48 10.0876 652.811 10.2424L652.868 9.7457C654.199 9.90052 655.532 10.0573 656.867 10.2162L656.808 10.7127C658.142 10.8714 659.479 11.0322 660.817 11.1951L660.878 10.6987C662.216 10.8616 663.557 11.0265 664.9 11.1934L664.838 11.6896C666.18 11.8564 667.524 12.0253 668.87 12.1962L668.933 11.7002C670.228 11.8647 671.525 12.0311 672.824 12.1994L672.76 12.6953C674.059 12.8635 675.359 13.0337 676.661 13.2058L676.727 12.7101C678.029 12.8822 679.334 13.0562 680.64 13.2322L680.573 13.7277C681.879 13.9036 683.186 14.0814 684.496 14.2612L684.564 13.7658C685.873 13.9456 687.185 14.1274 688.498 14.3111L688.429 14.8062C689.742 14.9899 691.057 15.1754 692.373 15.3629L692.444 14.8679C693.761 15.0555 695.079 15.245 696.4 15.4365L696.328 15.9314C697.648 16.1228 698.97 16.3162 700.294 16.5115L700.367 16.0169C701.691 16.2123 703.017 16.4097 704.345 16.6091L704.27 17.1036C705.598 17.3029 706.927 17.5042 708.258 17.7075L708.333 17.2132C709.664 17.4165 710.998 17.6219 712.332 17.8292L712.256 18.3233C713.59 18.5306 714.927 18.7398 716.265 18.9511L716.343 18.4572C717.655 18.6645 718.969 18.8737 720.286 19.0849L720.206 19.5785C721.497 19.7857 722.79 19.9947 724.084 20.2056L724.165 19.7121C725.46 19.923 726.756 20.1358 728.054 20.3505L727.972 20.8438C729.27 21.0585 730.569 21.275 731.87 21.4934L731.953 21.0003C733.255 21.2188 734.557 21.4392 735.862 21.6615L735.778 22.1544C737.083 22.3767 738.388 22.6008 739.696 22.8268L739.781 22.3342C741.089 22.5603 742.399 22.7883 743.71 23.0183L743.624 23.5107C744.935 23.7406 746.247 23.9724 747.562 24.2062L747.649 23.7139C748.964 23.9477 750.28 24.1835 751.598 24.4211L751.509 24.9132C752.827 25.1508 754.146 25.3904 755.467 25.6319L755.557 25.14C756.878 25.3816 758.201 25.6251 759.525 25.8706L759.434 26.3622C760.758 26.6076 762.084 26.855 763.411 27.1043L763.504 26.6129C764.832 26.8623 766.161 27.1137 767.492 27.367L767.399 27.8582C768.703 28.1064 770.009 28.3565 771.316 28.6085L771.411 28.1176C772.695 28.3652 773.981 28.6146 775.269 28.8659L775.173 29.3567C776.46 29.6079 777.749 29.8609 779.039 30.1158L779.136 29.6253C780.426 29.8803 781.718 30.1371 783.012 30.3958L782.914 30.8861C784.207 31.1447 785.502 31.4052 786.798 31.6676L786.897 31.1775C788.194 31.4399 789.492 31.7042 790.792 31.9704L790.692 32.4603C791.991 32.7263 793.292 32.9943 794.594 33.2642L794.696 32.7746C795.998 33.0445 797.303 33.3163 798.609 33.5901L798.506 34.0794C799.811 34.3531 801.118 34.6286 802.427 34.906L802.531 34.4169C803.839 34.6944 805.15 34.9738 806.462 35.2551L806.357 35.744C807.668 36.0252 808.982 36.3084 810.296 36.5934L810.402 36.1048C811.717 36.3899 813.034 36.677 814.352 36.966L814.244 37.4544C815.562 37.7433 816.881 38.0341 818.202 38.3269L818.31 37.8387C819.629 38.131 820.949 38.4252 822.271 38.7214L822.161 39.2093C823.436 39.4948 824.711 39.7822 825.989 40.0714L826.099 39.5837C827.377 39.873 828.656 40.164 829.936 40.4569L829.825 40.9443C831.105 41.2371 832.386 41.5317 833.669 41.8281L833.782 41.341C835.065 41.6374 836.35 41.9358 837.636 42.2359L837.522 42.7228C838.808 43.0229 840.095 43.3248 841.383 43.6285L841.498 43.1418C842.787 43.4456 844.077 43.7512 845.369 44.0587L845.253 44.5451C846.545 44.8525 847.837 45.1617 849.132 45.4728L849.248 44.9867C850.543 45.2978 851.839 45.6108 853.136 45.9257L853.018 46.4116C854.315 46.7263 855.614 47.043 856.913 47.3615L857.032 46.8758C858.333 47.1944 859.634 47.5148 860.937 47.8371L860.817 48.3225C862.12 48.6447 863.424 48.9688 864.729 49.2947L864.85 48.8096C866.156 49.1356 867.463 49.4636 868.772 49.7933L868.65 50.2782C869.958 50.6079 871.267 50.9395 872.578 51.2729L872.702 50.7884C874.011 51.1214 875.322 51.4563 876.634 51.793L876.509 52.2773C877.774 52.6021 879.041 52.9286 880.308 53.2568L880.434 52.7728C881.702 53.1011 882.971 53.4312 884.242 53.7631L884.115 54.2469C885.386 54.5787 886.657 54.9122 887.93 55.2476L888.058 54.764C889.331 55.0995 890.606 55.4367 891.881 55.7756L891.753 56.2589C893.028 56.5978 894.305 56.9384 895.583 57.2809L895.713 56.7979C896.991 57.1405 898.271 57.4848 899.552 57.8309L899.422 58.3136C900.702 58.6596 901.984 59.0075 903.268 59.3571L903.399 58.8747C904.683 59.2244 905.968 59.5759 907.254 59.9293L907.121 60.4114C908.407 60.7646 909.695 61.1197 910.983 61.4765L911.117 60.9947C912.405 61.3516 913.695 61.7104 914.987 62.0709L914.852 62.5525C916.144 62.913 917.436 63.2753 918.73 63.6394L918.865 63.1581C920.159 63.5224 921.454 63.8884 922.751 64.2563L922.615 64.7373C923.911 65.1051 925.208 65.4747 926.507 65.8461L926.645 65.3654C927.944 65.737 929.245 66.1103 930.546 66.4856L930.408 66.966C931.059 67.1536 931.71 67.3416 932.361 67.5301C933.009 67.7176 933.657 67.9047 934.305 68.0915L934.443 67.611C935.74 67.985 937.036 68.3574 938.332 68.7281L938.194 69.2088C939.489 69.5795 940.784 69.9487 942.077 70.3161L942.214 69.8352C943.507 70.2025 944.799 70.5683 946.09 70.9324L945.954 71.4136C947.245 71.7778 948.536 72.1403 949.825 72.5012L949.96 72.0197C951.249 72.3805 952.536 72.7397 953.823 73.0972L953.689 73.579C954.977 73.9366 956.263 74.2926 957.548 74.6469L957.681 74.1649C958.965 74.5192 960.249 74.8718 961.532 75.2228L961.4 75.7051C962.683 76.0562 963.965 76.4057 965.245 76.7536L965.376 76.271C966.657 76.6188 967.937 76.965 969.215 77.3095L969.085 77.7923C970.364 78.1369 971.641 78.48 972.918 78.8214L973.047 78.3383C974.324 78.6797 975.599 79.0194 976.873 79.3575L976.745 79.8408C978.02 80.179 979.293 80.5156 980.565 80.8506L980.693 80.3671C981.965 80.702 983.236 81.0354 984.506 81.3671L984.38 81.8509C985.65 82.1827 986.919 82.5129 988.188 82.8416L988.313 82.3576C989.618 82.6956 990.921 83.032 992.224 83.3668L992.099 83.851C993.406 84.1869 994.712 84.5211 996.016 84.8536L996.14 84.369C997.444 84.7015 998.747 85.0322 1000.05 85.3613L999.927 85.846C1001.23 86.1752 1002.53 86.5026 1003.83 86.8284L1003.95 86.3434C1005.25 86.6692 1006.55 86.9932 1007.85 87.3156L1007.73 87.8009C1009.02 88.1234 1010.32 88.4442 1011.62 88.7633L1011.74 88.2779C1013.03 88.597 1014.33 88.9144 1015.62 89.2302L1015.5 89.7159C1016.79 90.0318 1018.08 90.346 1019.38 90.6586L1019.49 90.1726C1020.78 90.4851 1022.07 90.796 1023.36 91.1052L1023.25 91.5914C1024.53 91.9007 1025.82 92.2084 1027.11 92.5144L1027.22 92.028C1028.51 92.334 1029.79 92.6383 1031.08 92.941L1030.96 93.4277C1032.25 93.7305 1033.53 94.0316 1034.81 94.3312L1034.93 93.8443C1036.21 94.1438 1037.49 94.4416 1038.77 94.7379L1038.65 95.225C1039.93 95.5213 1041.21 95.816 1042.49 96.1091L1042.6 95.6218C1043.91 95.922 1045.22 96.2205 1046.52 96.5173L1046.41 97.0049C1047.73 97.3041 1049.04 97.6016 1050.36 97.8974L1050.47 97.4097C1051.78 97.7054 1053.09 97.9994 1054.4 98.2918L1054.29 98.7798C1055.61 99.0722 1056.92 99.3629 1058.22 99.652L1058.33 99.1637C1059.64 99.4527 1060.95 99.74 1062.25 100.026L1062.15 100.514C1063.45 100.8 1064.76 101.084 1066.06 101.366L1066.17 100.877C1067.47 101.16 1068.77 101.44 1070.08 101.719L1069.97 102.208C1071.27 102.487 1072.57 102.764 1073.87 103.04L1073.98 102.551C1075.27 102.827 1076.57 103.1 1077.87 103.373L1077.76 103.862C1079.06 104.134 1080.36 104.405 1081.65 104.674L1081.75 104.185C1083.05 104.454 1084.34 104.721 1085.63 104.987L1085.53 105.476C1086.82 105.742 1088.11 106.006 1089.4 106.269L1089.5 105.779C1090.79 106.041 1092.08 106.302 1093.36 106.561L1093.26 107.051C1094.55 107.311 1095.84 107.569 1097.13 107.826L1097.22 107.335C1098.55 107.6 1099.87 107.862 1101.2 108.123L1101.1 108.614C1102.42 108.875 1103.75 109.134 1105.07 109.391L1105.16 108.9C1106.48 109.158 1107.8 109.414 1109.12 109.668L1109.03 110.159C1110.34 110.413 1111.66 110.665 1112.98 110.916L1113.07 110.425C1114.39 110.675 1115.7 110.924 1117.01 111.171L1116.92 111.663C1118.23 111.91 1119.54 112.155 1120.85 112.399L1120.94 111.908C1122.25 112.152 1123.56 112.394 1124.87 112.634L1124.78 113.126C1126.09 113.367 1127.39 113.605 1128.7 113.843L1128.79 113.351C1130.09 113.588 1131.39 113.823 1132.7 114.057L1132.61 114.549C1133.91 114.783 1135.21 115.015 1136.51 115.246L1136.6 114.753C1137.9 114.984 1139.19 115.213 1140.49 115.44L1140.4 115.932C1141.7 116.16 1143 116.385 1144.29 116.609L1144.37 116.116C1145.67 116.34 1146.96 116.563 1148.25 116.783L1148.17 117.276C1149.49 117.503 1150.82 117.727 1152.14 117.95L1152.22 117.457C1153.55 117.682 1154.88 117.905 1156.21 118.126L1156.13 118.619C1157.46 118.84 1158.78 119.059 1160.11 119.277L1160.19 118.783C1161.51 119.001 1162.84 119.217 1164.16 119.431L1164.08 119.925C1165.4 120.139 1166.72 120.351 1168.04 120.562L1168.12 120.068C1169.44 120.279 1170.76 120.488 1172.08 120.695L1172 121.189C1173.31 121.397 1174.63 121.602 1175.94 121.806L1176.02 121.312C1177.33 121.516 1178.65 121.718 1179.96 121.919L1179.88 122.413C1181.19 122.614 1182.5 122.813 1183.81 123.01L1183.88 122.516C1185.19 122.713 1186.5 122.908 1187.8 123.102L1187.73 123.597C1189.03 123.791 1190.34 123.983 1191.64 124.173L1191.71 123.679C1193.01 123.869 1194.31 124.058 1195.61 124.245L1195.54 124.74C1196.07 124.817 1196.6 124.893 1197.13 124.968C1197.9 125.079 1198.66 125.188 1199.43 125.297L1199.5 124.802C1200.84 124.992 1202.18 125.18 1203.51 125.367L1203.44 125.862C1204.78 126.049 1206.11 126.233 1207.45 126.417L1207.51 125.921C1208.85 126.105 1210.18 126.286 1211.51 126.466L1211.44 126.961C1212.77 127.141 1214.1 127.319 1215.43 127.495L1215.49 127C1216.82 127.176 1218.15 127.351 1219.47 127.523L1219.41 128.019C1219.91 128.085 1220.42 128.151 1220.93 128.217C1221.74 128.323 1222.56 128.428 1223.37 128.533L1223.44 128.037C1224.76 128.206 1226.08 128.374 1227.39 128.54L1227.33 129.036C1228.65 129.202 1229.97 129.367 1231.28 129.529L1231.34 129.033C1232.66 129.196 1233.97 129.357 1235.28 129.516L1235.22 130.012C1236.53 130.172 1237.84 130.329 1239.15 130.485L1239.21 129.989C1240.51 130.145 1241.82 130.299 1243.12 130.452L1243.07 130.948C1244.37 131.101 1245.67 131.252 1246.98 131.402L1247.03 130.905C1248.36 131.057 1249.68 131.207 1251 131.356L1250.95 131.853C1252.29 132.004 1253.63 132.153 1254.97 132.301L1255.03 131.804C1256.37 131.951 1257.7 132.097 1259.04 132.241L1258.99 132.738C1260.32 132.882 1261.66 133.025 1262.99 133.165L1263.04 132.668C1264.37 132.809 1265.71 132.947 1267.03 133.085L1266.98 133.582C1267.52 133.638 1268.06 133.693 1268.6 133.748C1269.39 133.829 1270.18 133.909 1270.97 133.988L1271.02 133.491C1272.34 133.624 1273.67 133.756 1274.99 133.887L1274.94 134.384C1276.26 134.515 1277.58 134.643 1278.9 134.77L1278.95 134.273C1280.27 134.4 1281.58 134.525 1282.9 134.648L1282.85 135.146C1284.17 135.27 1285.48 135.392 1286.79 135.512L1286.84 135.014C1288.15 135.134 1289.46 135.253 1290.77 135.37L1290.72 135.868C1292.03 135.984 1293.34 136.1 1294.64 136.213L1294.69 135.715C1296.01 135.831 1297.34 135.945 1298.67 136.057L1298.62 136.555C1299.97 136.67 1301.32 136.782 1302.66 136.893L1302.7 136.394C1304.05 136.505 1305.39 136.614 1306.73 136.721L1306.69 137.219C1308.03 137.327 1309.36 137.432 1310.7 137.536L1310.74 137.037C1312.07 137.141 1313.41 137.243 1314.74 137.343L1314.7 137.842C1316.03 137.942 1317.36 138.04 1318.69 138.137L1318.73 137.639C1320.06 137.735 1321.38 137.831 1322.71 137.924L1322.67 138.423C1324 138.516 1325.32 138.608 1326.64 138.698L1326.67 138.199C1327.99 138.289 1329.31 138.378 1330.63 138.464L1330.6 138.963C1331.91 139.05 1333.23 139.135 1334.54 139.218L1334.57 138.719C1335.89 138.803 1337.2 138.884 1338.5 138.965L1338.47 139.464C1339.78 139.544 1341.09 139.622 1342.4 139.699L1342.43 139.2C1343.78 139.279 1345.12 139.357 1346.47 139.433L1346.44 139.932C1347.79 140.008 1349.14 140.082 1350.48 140.155L1350.51 139.656C1351.85 139.728 1353.19 139.799 1354.53 139.868L1354.51 140.368C1355.15 140.401 1355.78 140.433 1356.42 140.465C1357.12 140.501 1357.82 140.535 1358.52 140.57L1358.55 140.07C1359.88 140.136 1361.22 140.2 1362.55 140.262L1362.53 140.762C1363.86 140.824 1365.19 140.885 1366.52 140.944L1366.54 140.444C1367.87 140.503 1369.19 140.56 1370.51 140.616L1370.49 141.115C1371.82 141.171 1373.14 141.225 1374.46 141.277L1374.48 140.777C1375.8 140.829 1377.12 140.88 1378.43 140.929L1378.41 141.429C1379.73 141.477 1381.04 141.525 1382.35 141.57L1382.37 141.071C1383.68 141.116 1384.99 141.16 1386.3 141.202L1386.28 141.702C1387.62 141.746 1388.97 141.787 1390.31 141.828L1390.32 141.328C1391.67 141.368 1393.02 141.407 1394.37 141.444L1394.35 141.944C1395.7 141.981 1397.05 142.016 1398.39 142.049L1398.4 141.55C1399.74 141.583 1401.08 141.615 1402.42 141.645L1402.41 142.145C1403.75 142.175 1405.08 142.204 1406.42 142.23L1406.43 141.73C1407.76 141.757 1409.09 141.782 1410.42 141.806L1410.41 142.306C1411.74 142.329 1413.07 142.351 1414.39 142.371L1414.4 141.871C1415.72 141.891 1417.04 141.909 1418.36 141.926L1418.36 142.426C1419.68 142.443 1420.99 142.458 1422.31 142.471L1422.31 141.971C1423.63 141.985 1424.94 141.997 1426.25 142.007L1426.25 142.507C1427.56 142.517 1428.87 142.526 1430.17 142.533L1430.18 142.033C1431.53 142.04 1432.88 142.045 1434.23 142.049L1434.23 142.549C1435.58 142.553 1436.93 142.555 1438.28 142.556L1438.28 142.056C1439.63 142.056 1440.97 142.055 1442.31 142.052L1442.31 142.552C1443.65 142.549 1444.99 142.544 1446.33 142.538L1446.33 142.038C1447.66 142.031 1449 142.023 1450.33 142.014L1450.33 142.514C1451.67 142.504 1453 142.493 1454.32 142.48L1454.32 141.98C1455.64 141.967 1456.97 141.952 1458.29 141.936L1458.3 142.436C1459.62 142.42 1460.94 142.402 1462.25 142.382L1462.25 141.882C1463.56 141.863 1464.88 141.842 1466.19 141.819L1466.2 142.319C1467.51 142.296 1468.82 142.272 1470.12 142.246L1470.11 141.746C1471.45 141.72 1472.79 141.692 1474.12 141.662L1474.13 142.162C1475.48 142.131 1476.84 142.1 1478.18 142.066L1478.17 141.566C1479.52 141.532 1480.87 141.497 1482.21 141.46L1482.22 141.96C1483.57 141.923 1484.91 141.884 1486.24 141.844L1486.23 141.344C1487.57 141.304 1488.9 141.262 1490.23 141.218L1490.25 141.718C1491.58 141.674 1492.91 141.629 1494.24 141.582L1494.22 141.083C1495.55 141.036 1496.87 140.988 1498.19 140.938L1498.21 141.437C1498.86 141.412 1499.52 141.387 1500.17 141.362C1500.84 141.336 1501.5 141.309 1502.17 141.282L1502.14 140.783C1503.46 140.73 1504.77 140.675 1506.08 140.618L1506.1 141.118C1507.41 141.062 1508.72 141.004 1510.03 140.944L1510 140.445C1511.34 140.384 1512.68 140.321 1514.01 140.257L1514.03 140.756C1515.39 140.691 1516.74 140.624 1518.09 140.556L1518.06 140.056C1519.41 139.988 1520.75 139.918 1522.09 139.846L1522.12 140.345C1523.46 140.273 1524.8 140.2 1526.14 140.125L1526.11 139.626C1527.44 139.551 1528.78 139.474 1530.1 139.396L1530.13 139.895C1531.46 139.817 1532.79 139.737 1534.11 139.656L1534.08 139.157C1535.41 139.075 1536.73 138.992 1538.04 138.908L1538.07 139.407C1539.39 139.322 1540.71 139.236 1542.02 139.149L1541.98 138.65C1543.29 138.562 1544.6 138.473 1545.91 138.383L1545.94 138.882C1547.25 138.791 1548.55 138.699 1549.86 138.605L1549.82 138.106C1551.18 138.008 1552.53 137.909 1553.88 137.808L1553.92 138.307C1555.27 138.206 1556.61 138.103 1557.96 137.999L1557.92 137.501C1559.26 137.397 1560.6 137.291 1561.94 137.184L1561.98 137.682C1563.31 137.575 1564.65 137.466 1565.98 137.356L1565.93 136.857C1567.26 136.747 1568.59 136.635 1569.91 136.522L1569.95 137.02C1571.28 136.907 1572.6 136.792 1573.91 136.675L1573.87 136.177C1575.18 136.061 1576.5 135.943 1577.81 135.824L1577.85 136.322C1579.16 136.202 1580.47 136.081 1581.77 135.959L1581.72 135.461C1583.02 135.339 1584.32 135.215 1585.62 135.09L1585.67 135.588C1587.02 135.457 1588.36 135.325 1589.71 135.192L1589.66 134.694C1591.01 134.56 1592.35 134.425 1593.69 134.288L1593.74 134.785C1595.08 134.648 1596.42 134.509 1597.76 134.369L1597.7 133.872C1599.04 133.732 1600.37 133.59 1601.69 133.447L1601.75 133.944C1603.07 133.801 1604.4 133.656 1605.72 133.51L1605.66 133.013C1606.98 132.867 1608.29 132.72 1609.61 132.571L1609.66 133.068C1610.97 132.919 1612.28 132.769 1613.59 132.617L1613.53 132.12C1614.83 131.969 1616.13 131.816 1617.43 131.661L1617.49 132.158C1618.79 132.002 1620.09 131.845 1621.39 131.687L1621.33 131.191C1622.68 131.026 1624.03 130.859 1625.38 130.692L1625.44 131.188C1626.14 131.1 1626.84 131.013 1627.54 130.924C1628.18 130.843 1628.82 130.762 1629.46 130.68L1629.4 130.184C1630.73 130.013 1632.06 129.841 1633.39 129.667L1633.46 130.163C1634.78 129.99 1636.11 129.815 1637.43 129.638L1637.36 129.143C1638.68 128.967 1639.99 128.789 1641.3 128.61L1641.37 129.105C1641.98 129.022 1642.6 128.938 1643.21 128.854C1643.9 128.758 1644.6 128.661 1645.29 128.565L1645.22 128.069C1646.52 127.888 1647.82 127.705 1649.12 127.521L1649.19 128.016C1650.48 127.832 1651.77 127.646 1653.05 127.46L1652.98 126.965C1654.32 126.77 1655.66 126.574 1656.99 126.376L1657.07 126.871C1658.41 126.672 1659.75 126.471 1661.08 126.269L1661.01 125.775C1662.34 125.573 1663.67 125.369 1665 125.165L1665.08 125.659C1666.4 125.454 1667.72 125.249 1669.04 125.041L1668.96 124.548C1670.28 124.341 1671.59 124.132 1672.89 123.923L1672.97 124.416C1674.28 124.207 1675.58 123.996 1676.88 123.784L1676.8 123.291C1678.09 123.079 1679.38 122.866 1680.67 122.652L1680.75 123.145C1682.04 122.931 1683.32 122.715 1684.6 122.499L1684.52 122.006C1685.86 121.778 1687.2 121.549 1688.53 121.319L1688.62 121.812C1689.96 121.581 1691.29 121.348 1692.62 121.114L1692.53 120.622C1693.86 120.388 1695.19 120.154 1696.5 119.918L1696.59 120.41C1697.91 120.174 1699.22 119.937 1700.53 119.699L1700.44 119.207C1701.75 118.969 1703.05 118.73 1704.35 118.49L1704.44 118.981C1705.74 118.741 1707.03 118.5 1708.31 118.258L1708.22 117.766C1709.51 117.524 1710.79 117.281 1712.06 117.037L1712.15 117.528C1713.46 117.277 1714.77 117.026 1716.06 116.773L1715.97 116.282C1717.31 116.021 1718.65 115.759 1719.98 115.495L1720.07 115.986C1721.4 115.722 1722.73 115.458 1724.04 115.193L1723.94 114.703C1725.26 114.437 1726.57 114.171 1727.88 113.904L1727.98 114.394C1729.28 114.127 1730.58 113.859 1731.87 113.59L1731.77 113.101C1733.06 112.832 1734.35 112.562 1735.63 112.292L1735.73 112.781C1737.01 112.511 1738.29 112.239 1739.55 111.967L1739.45 111.478C1740.75 111.2 1742.04 110.92 1743.33 110.639L1743.44 111.128C1744.78 110.836 1746.11 110.543 1747.43 110.25L1747.33 109.762C1748.65 109.468 1749.97 109.174 1751.28 108.88L1751.39 109.367C1752.7 109.073 1754 108.777 1755.3 108.481L1755.19 107.994C1756.48 107.698 1757.77 107.401 1759.05 107.104L1759.17 107.591C1760.45 107.294 1761.72 106.996 1762.99 106.697L1762.88 106.211C1764.14 105.912 1765.4 105.614 1766.66 105.315L1766.77 105.801C1768.1 105.484 1769.42 105.167 1770.73 104.85L1770.61 104.364C1771.94 104.042 1773.26 103.719 1774.57 103.396L1774.69 103.882C1776 103.558 1777.31 103.235 1778.6 102.911L1778.48 102.426C1779.78 102.102 1781.06 101.779 1782.34 101.454L1782.46 101.939C1783.74 101.615 1785.01 101.29 1786.28 100.966L1786.15 100.481C1787.41 100.157 1788.67 99.8324 1789.91 99.5077L1790.04 99.9915C1791.35 99.6496 1792.65 99.3077 1793.94 98.9658L1793.81 98.4825C1795.14 98.1312 1796.46 97.7798 1797.76 97.4286L1797.89 97.9115C1799.2 97.5601 1800.5 97.2088 1801.79 96.8577L1801.66 96.3753C1802.94 96.0244 1804.22 95.6736 1805.49 95.3232L1805.62 95.8051C1806.89 95.4544 1808.15 95.1041 1809.4 94.7541L1809.26 94.2727C1810.51 93.9229 1811.75 93.5734 1812.97 93.2244L1813.11 93.7054C1814.45 93.3256 1815.77 92.9465 1817.08 92.5679L1816.94 92.0875C1818.26 91.7079 1819.56 91.3289 1820.85 90.9507L1820.99 91.4306C1822.29 91.0522 1823.57 90.6746 1824.83 90.298L1824.69 89.8186C1825.96 89.4422 1827.21 89.0666 1828.46 88.692L1828.6 89.1708C1829.84 88.7961 1831.08 88.4224 1832.3 88.0498L1832.15 87.5716C1833.46 87.1702 1834.76 86.7702 1836.05 86.3716L1836.2 86.8492C1837.51 86.441 1838.82 86.0344 1840.1 85.6295L1839.95 85.1525C1841.24 84.7478 1842.51 84.3449 1843.77 83.9438L1843.92 84.4201C1845.17 84.0188 1846.42 83.6193 1847.64 83.2219L1847.49 82.7462C1848.72 82.3473 1849.94 81.9504 1851.14 81.5557L1851.3 82.0308C1852.64 81.591 1853.96 81.154 1855.26 80.7199L1855.1 80.2456C1856.4 79.8117 1857.68 79.3809 1858.94 78.9532L1859.1 79.4268C1859.63 79.2485 1860.15 79.0707 1860.67 78.8935C1861.4 78.6455 1862.12 78.3986 1862.84 78.1529L1862.68 77.68C1863.9 77.259 1865.11 76.8414 1866.29 76.4274L1866.46 76.8995C1867.78 76.4382 1869.08 75.9814 1870.35 75.5294L1870.19 75.0582C1871.49 74.5963 1872.77 74.1395 1874.02 73.6881L1874.19 74.1586C1875.45 73.7069 1876.68 73.2606 1877.88 72.82L1877.71 72.3504C1878.93 71.9016 1880.14 71.4588 1881.31 71.0222L1881.48 71.4909C1882.83 70.9911 1884.14 70.4995 1885.42 70.0167L1885.24 69.549C1886.52 69.0665 1887.76 68.5928 1888.96 68.1283L1889.14 68.5949C1890.35 68.1301 1891.53 67.6746 1892.66 67.2288L1892.48 66.7632C1893.84 66.2317 1895.15 65.7141 1896.41 65.2113L1896.59 65.6757C1897.87 65.1673 1899.09 64.6741 1900.26 64.1969L1900.08 63.7337C1901.34 63.2179 1902.55 62.7209 1903.7 62.2439L1903.89 62.7056C1905.24 62.1459 1906.51 61.6135 1907.69 61.1105L1907.49 60.6504C1908.78 60.1043 1909.96 59.5928 1911.05 59.1183L1911.25 59.5767C1912.64 58.973 1913.87 58.4292 1914.93 57.9501L1914.73 57.494C1916.29 56.7926 1917.51 56.2303 1918.38 55.8227L1918.59 56.2755C1918.95 56.1048 1919.26 55.961 1919.5 55.8454V57.0625Z" stroke="#72A631" stroke-opacity="0.3" stroke-dasharray="4 4"/>
<path d="M0 155.099C0 155.099 326 -69.4004 932.5 106.1C1539 281.6 1920 94.0993 1920 94.0993C1920 94.0993 1920 338.871 1920 515.099C1920 691.327 1920 941 1920 941H0C0 941 0 752.327 0 576.099C0 399.871 0 155.099 0 155.099Z" fill="#F4F8EF"/>
</svg>
