<svg width="76" height="77" viewBox="0 0 76 77" fill="none" xmlns="http://www.w3.org/2000/svg">
<g clip-path="url(#clip0_3744_25396)">
<path d="M0.0166469 52.7877C0.0166469 62.7796 8.11623 70.8792 18.108 70.8792C28.1 70.8792 36.1995 62.7796 36.1995 52.7877C36.1995 42.7957 28.1 34.6963 18.108 34.6963C16.0545 34.6963 14.0889 35.0543 12.2487 35.6851C16.3201 12.3349 34.5287 -2.72331 17.6494 9.6699C-1.06731 23.4126 -0.0033986 52.2348 0.0175445 52.763C0.0175445 52.7712 0.0166469 52.7785 0.0166469 52.7877Z" fill="#FFC224"/>
<path d="M39.8178 52.7867C39.8178 62.7786 47.9174 70.8782 57.9094 70.8782C67.9013 70.8782 76.0009 62.7786 76.0009 52.7867C76.0009 42.7947 67.9011 34.6953 57.9092 34.6953C55.8556 34.6953 53.8901 35.0533 52.0499 35.6841C56.1213 12.3339 74.3299 -2.72428 57.4506 9.66893C38.7339 23.4116 39.7976 52.2338 39.8187 52.762C39.8187 52.7702 39.8178 52.7775 39.8178 52.7867Z" fill="#FFC224"/>
</g>
<defs>
<clipPath id="clip0_3744_25396">
<rect width="76" height="76" fill="white" transform="translate(0 0.0498047)"/>
</clipPath>
</defs>
</svg>
