<svg width="76" height="76" viewBox="0 0 76 76" fill="none" xmlns="http://www.w3.org/2000/svg">
<g clip-path="url(#clip0_3744_25201)">
<path d="M75.9834 23.2622C75.9834 13.2702 67.8838 5.17063 57.892 5.17063C47.9 5.17063 39.8005 13.2702 39.8005 23.2622C39.8005 33.2541 47.9 41.3535 57.892 41.3535C59.9455 41.3535 61.9111 40.9956 63.7513 40.3647C59.6799 63.7149 41.4713 78.7731 58.3506 66.3799C77.0673 52.6372 76.0034 23.8151 75.9825 23.2868C75.9825 23.2786 75.9834 23.2713 75.9834 23.2622Z" fill="#72A631" fill-opacity="0.1"/>
<path d="M36.1822 23.2631C36.1822 13.2712 28.0826 5.17162 18.0906 5.17162C8.09871 5.17162 -0.000873566 13.2712 -0.000873566 23.2631C-0.000873566 33.2551 8.09886 41.3545 18.0908 41.3545C20.1444 41.3545 22.1099 40.9965 23.9501 40.3657C19.8787 63.7159 1.67008 78.7741 18.5494 66.3809C37.2661 52.6382 36.2024 23.816 36.1813 23.2878C36.1813 23.2796 36.1822 23.2723 36.1822 23.2631Z" fill="#72A631" fill-opacity="0.1"/>
</g>
<defs>
<clipPath id="clip0_3744_25201">
<rect width="76" height="76" fill="white" transform="translate(76 76) rotate(-180)"/>
</clipPath>
</defs>
</svg>
